ISO-10303-21;
HEADER;
/* Generated by software containing ST-Developer
 * from STEP Tools, Inc. (www.steptools.com) 
 */

FILE_DESCRIPTION(
/* description */ (''),
/* implementation_level */ '2;1');

FILE_NAME(
/* name */ 'Mounting_Block.step',
/* time_stamp */ '2026-09-29T23:14:57+02:00',
/* author */ (''),
/* organization */ (''),
/* preprocessor_version */ 'ST-DEVELOPER v20.2',
/* originating_system */ 'Autodesk Translation Framework v15.15.0.0',
/* authorisation */ '');

FILE_SCHEMA (('AUTOMOTIVE_DESIGN { 1 0 10303 214 3 1 1 }'));
ENDSEC;

DATA;
#10=MECHANICAL_DESIGN_GEOMETRIC_PRESENTATION_REPRESENTATION('',(#13),#385);
#11=SHAPE_REPRESENTATION_RELATIONSHIP('SRR','None',#392,#12);
#12=ADVANCED_BREP_SHAPE_REPRESENTATION('',(#14),#384);
#13=STYLED_ITEM('',(#402),#14);
#14=MANIFOLD_SOLID_BREP('Mounting Block',#229);
#15=CYLINDRICAL_SURFACE('',#249,89.0000013262033);
#16=CYLINDRICAL_SURFACE('',#257,89.);
#17=FACE_OUTER_BOUND('',#29,.T.);
#18=FACE_OUTER_BOUND('',#30,.T.);
#19=FACE_OUTER_BOUND('',#31,.T.);
#20=FACE_OUTER_BOUND('',#32,.T.);
#21=FACE_OUTER_BOUND('',#33,.T.);
#22=FACE_OUTER_BOUND('',#34,.T.);
#23=FACE_OUTER_BOUND('',#35,.T.);
#24=FACE_OUTER_BOUND('',#36,.T.);
#25=FACE_OUTER_BOUND('',#37,.T.);
#26=FACE_OUTER_BOUND('',#38,.T.);
#27=FACE_OUTER_BOUND('',#39,.T.);
#28=FACE_OUTER_BOUND('',#40,.T.);
#29=EDGE_LOOP('',(#147,#148,#149,#150,#151,#152,#153,#154,#155,#156));
#30=EDGE_LOOP('',(#157,#158,#159,#160));
#31=EDGE_LOOP('',(#161,#162,#163,#164));
#32=EDGE_LOOP('',(#165,#166,#167,#168));
#33=EDGE_LOOP('',(#169,#170,#171,#172));
#34=EDGE_LOOP('',(#173,#174,#175,#176));
#35=EDGE_LOOP('',(#177,#178,#179,#180));
#36=EDGE_LOOP('',(#181,#182,#183,#184));
#37=EDGE_LOOP('',(#185,#186,#187,#188));
#38=EDGE_LOOP('',(#189,#190,#191,#192,#193,#194,#195,#196,#197,#198));
#39=EDGE_LOOP('',(#199,#200,#201,#202));
#40=EDGE_LOOP('',(#203,#204,#205,#206));
#41=CIRCLE('',#244,89.);
#42=CIRCLE('',#245,89.0000013262033);
#43=CIRCLE('',#250,89.0000013262033);
#44=CIRCLE('',#256,89.);
#45=LINE('',#323,#71);
#46=LINE('',#327,#72);
#47=LINE('',#329,#73);
#48=LINE('',#331,#74);
#49=LINE('',#335,#75);
#50=LINE('',#337,#76);
#51=LINE('',#339,#77);
#52=LINE('',#340,#78);
#53=LINE('',#344,#79);
#54=LINE('',#345,#80);
#55=LINE('',#346,#81);
#56=LINE('',#349,#82);
#57=LINE('',#350,#83);
#58=LINE('',#353,#84);
#59=LINE('',#354,#85);
#60=LINE('',#358,#86);
#61=LINE('',#361,#87);
#62=LINE('',#362,#88);
#63=LINE('',#365,#89);
#64=LINE('',#366,#90);
#65=LINE('',#369,#91);
#66=LINE('',#370,#92);
#67=LINE('',#373,#93);
#68=LINE('',#374,#94);
#69=LINE('',#377,#95);
#70=LINE('',#380,#96);
#71=VECTOR('',#263,10.);
#72=VECTOR('',#266,10.);
#73=VECTOR('',#267,10.);
#74=VECTOR('',#268,10.);
#75=VECTOR('',#271,10.);
#76=VECTOR('',#272,10.);
#77=VECTOR('',#273,10.);
#78=VECTOR('',#274,10.);
#79=VECTOR('',#277,10.);
#80=VECTOR('',#278,10.);
#81=VECTOR('',#279,10.);
#82=VECTOR('',#282,10.);
#83=VECTOR('',#283,10.);
#84=VECTOR('',#286,10.);
#85=VECTOR('',#287,10.);
#86=VECTOR('',#292,10.);
#87=VECTOR('',#295,10.);
#88=VECTOR('',#296,10.);
#89=VECTOR('',#299,10.);
#90=VECTOR('',#300,10.);
#91=VECTOR('',#303,10.);
#92=VECTOR('',#304,10.);
#93=VECTOR('',#307,10.);
#94=VECTOR('',#308,10.);
#95=VECTOR('',#311,10.);
#96=VECTOR('',#316,10.);
#97=VERTEX_POINT('',#321);
#98=VERTEX_POINT('',#322);
#99=VERTEX_POINT('',#324);
#100=VERTEX_POINT('',#326);
#101=VERTEX_POINT('',#328);
#102=VERTEX_POINT('',#330);
#103=VERTEX_POINT('',#332);
#104=VERTEX_POINT('',#334);
#105=VERTEX_POINT('',#336);
#106=VERTEX_POINT('',#338);
#107=VERTEX_POINT('',#342);
#108=VERTEX_POINT('',#343);
#109=VERTEX_POINT('',#348);
#110=VERTEX_POINT('',#352);
#111=VERTEX_POINT('',#356);
#112=VERTEX_POINT('',#360);
#113=VERTEX_POINT('',#364);
#114=VERTEX_POINT('',#368);
#115=VERTEX_POINT('',#372);
#116=VERTEX_POINT('',#376);
#117=EDGE_CURVE('',#97,#98,#45,.T.);
#118=EDGE_CURVE('',#99,#97,#41,.T.);
#119=EDGE_CURVE('',#100,#99,#46,.T.);
#120=EDGE_CURVE('',#101,#100,#47,.T.);
#121=EDGE_CURVE('',#102,#101,#48,.T.);
#122=EDGE_CURVE('',#103,#102,#42,.T.);
#123=EDGE_CURVE('',#104,#103,#49,.T.);
#124=EDGE_CURVE('',#105,#104,#50,.T.);
#125=EDGE_CURVE('',#106,#105,#51,.T.);
#126=EDGE_CURVE('',#98,#106,#52,.T.);
#127=EDGE_CURVE('',#107,#108,#53,.T.);
#128=EDGE_CURVE('',#106,#108,#54,.T.);
#129=EDGE_CURVE('',#105,#107,#55,.T.);
#130=EDGE_CURVE('',#109,#107,#56,.T.);
#131=EDGE_CURVE('',#104,#109,#57,.T.);
#132=EDGE_CURVE('',#110,#109,#58,.T.);
#133=EDGE_CURVE('',#103,#110,#59,.T.);
#134=EDGE_CURVE('',#111,#110,#43,.T.);
#135=EDGE_CURVE('',#102,#111,#60,.T.);
#136=EDGE_CURVE('',#112,#111,#61,.T.);
#137=EDGE_CURVE('',#101,#112,#62,.T.);
#138=EDGE_CURVE('',#113,#112,#63,.T.);
#139=EDGE_CURVE('',#100,#113,#64,.T.);
#140=EDGE_CURVE('',#114,#113,#65,.T.);
#141=EDGE_CURVE('',#99,#114,#66,.T.);
#142=EDGE_CURVE('',#98,#115,#67,.T.);
#143=EDGE_CURVE('',#108,#115,#68,.T.);
#144=EDGE_CURVE('',#115,#116,#69,.T.);
#145=EDGE_CURVE('',#116,#114,#44,.T.);
#146=EDGE_CURVE('',#116,#97,#70,.T.);
#147=ORIENTED_EDGE('',*,*,#117,.F.);
#148=ORIENTED_EDGE('',*,*,#118,.F.);
#149=ORIENTED_EDGE('',*,*,#119,.F.);
#150=ORIENTED_EDGE('',*,*,#120,.F.);
#151=ORIENTED_EDGE('',*,*,#121,.F.);
#152=ORIENTED_EDGE('',*,*,#122,.F.);
#153=ORIENTED_EDGE('',*,*,#123,.F.);
#154=ORIENTED_EDGE('',*,*,#124,.F.);
#155=ORIENTED_EDGE('',*,*,#125,.F.);
#156=ORIENTED_EDGE('',*,*,#126,.F.);
#157=ORIENTED_EDGE('',*,*,#127,.T.);
#158=ORIENTED_EDGE('',*,*,#128,.F.);
#159=ORIENTED_EDGE('',*,*,#125,.T.);
#160=ORIENTED_EDGE('',*,*,#129,.T.);
#161=ORIENTED_EDGE('',*,*,#130,.T.);
#162=ORIENTED_EDGE('',*,*,#129,.F.);
#163=ORIENTED_EDGE('',*,*,#124,.T.);
#164=ORIENTED_EDGE('',*,*,#131,.T.);
#165=ORIENTED_EDGE('',*,*,#132,.T.);
#166=ORIENTED_EDGE('',*,*,#131,.F.);
#167=ORIENTED_EDGE('',*,*,#123,.T.);
#168=ORIENTED_EDGE('',*,*,#133,.T.);
#169=ORIENTED_EDGE('',*,*,#134,.T.);
#170=ORIENTED_EDGE('',*,*,#133,.F.);
#171=ORIENTED_EDGE('',*,*,#122,.T.);
#172=ORIENTED_EDGE('',*,*,#135,.T.);
#173=ORIENTED_EDGE('',*,*,#136,.T.);
#174=ORIENTED_EDGE('',*,*,#135,.F.);
#175=ORIENTED_EDGE('',*,*,#121,.T.);
#176=ORIENTED_EDGE('',*,*,#137,.T.);
#177=ORIENTED_EDGE('',*,*,#138,.T.);
#178=ORIENTED_EDGE('',*,*,#137,.F.);
#179=ORIENTED_EDGE('',*,*,#120,.T.);
#180=ORIENTED_EDGE('',*,*,#139,.T.);
#181=ORIENTED_EDGE('',*,*,#140,.T.);
#182=ORIENTED_EDGE('',*,*,#139,.F.);
#183=ORIENTED_EDGE('',*,*,#119,.T.);
#184=ORIENTED_EDGE('',*,*,#141,.T.);
#185=ORIENTED_EDGE('',*,*,#142,.F.);
#186=ORIENTED_EDGE('',*,*,#126,.T.);
#187=ORIENTED_EDGE('',*,*,#128,.T.);
#188=ORIENTED_EDGE('',*,*,#143,.T.);
#189=ORIENTED_EDGE('',*,*,#144,.F.);
#190=ORIENTED_EDGE('',*,*,#143,.F.);
#191=ORIENTED_EDGE('',*,*,#127,.F.);
#192=ORIENTED_EDGE('',*,*,#130,.F.);
#193=ORIENTED_EDGE('',*,*,#132,.F.);
#194=ORIENTED_EDGE('',*,*,#134,.F.);
#195=ORIENTED_EDGE('',*,*,#136,.F.);
#196=ORIENTED_EDGE('',*,*,#138,.F.);
#197=ORIENTED_EDGE('',*,*,#140,.F.);
#198=ORIENTED_EDGE('',*,*,#145,.F.);
#199=ORIENTED_EDGE('',*,*,#146,.F.);
#200=ORIENTED_EDGE('',*,*,#145,.T.);
#201=ORIENTED_EDGE('',*,*,#141,.F.);
#202=ORIENTED_EDGE('',*,*,#118,.T.);
#203=ORIENTED_EDGE('',*,*,#144,.T.);
#204=ORIENTED_EDGE('',*,*,#146,.T.);
#205=ORIENTED_EDGE('',*,*,#117,.T.);
#206=ORIENTED_EDGE('',*,*,#142,.T.);
#207=PLANE('',#243);
#208=PLANE('',#246);
#209=PLANE('',#247);
#210=PLANE('',#248);
#211=PLANE('',#251);
#212=PLANE('',#252);
#213=PLANE('',#253);
#214=PLANE('',#254);
#215=PLANE('',#255);
#216=PLANE('',#258);
#217=ADVANCED_FACE('',(#17),#207,.F.);
#218=ADVANCED_FACE('',(#18),#208,.T.);
#219=ADVANCED_FACE('',(#19),#209,.T.);
#220=ADVANCED_FACE('',(#20),#210,.T.);
#221=ADVANCED_FACE('',(#21),#15,.F.);
#222=ADVANCED_FACE('',(#22),#211,.T.);
#223=ADVANCED_FACE('',(#23),#212,.T.);
#224=ADVANCED_FACE('',(#24),#213,.T.);
#225=ADVANCED_FACE('',(#25),#214,.T.);
#226=ADVANCED_FACE('',(#26),#215,.T.);
#227=ADVANCED_FACE('',(#27),#16,.F.);
#228=ADVANCED_FACE('',(#28),#216,.T.);
#229=CLOSED_SHELL('',(#217,#218,#219,#220,#221,#222,#223,#224,#225,#226,
#227,#228));
#230=DERIVED_UNIT_ELEMENT(#232,1.);
#231=DERIVED_UNIT_ELEMENT(#387,-3.);
#232=(
MASS_UNIT()
NAMED_UNIT(*)
SI_UNIT(.KILO.,.GRAM.)
);
#233=DERIVED_UNIT((#230,#231));
#234=MEASURE_REPRESENTATION_ITEM('density measure',
POSITIVE_RATIO_MEASURE(7850.),#233);
#235=PROPERTY_DEFINITION_REPRESENTATION(#240,#237);
#236=PROPERTY_DEFINITION_REPRESENTATION(#241,#238);
#237=REPRESENTATION('material name',(#239),#384);
#238=REPRESENTATION('density',(#234),#384);
#239=DESCRIPTIVE_REPRESENTATION_ITEM('Stahl','Stahl');
#240=PROPERTY_DEFINITION('material property','material name',#394);
#241=PROPERTY_DEFINITION('material property','density of part',#394);
#242=AXIS2_PLACEMENT_3D('',#319,#259,#260);
#243=AXIS2_PLACEMENT_3D('',#320,#261,#262);
#244=AXIS2_PLACEMENT_3D('',#325,#264,#265);
#245=AXIS2_PLACEMENT_3D('',#333,#269,#270);
#246=AXIS2_PLACEMENT_3D('',#341,#275,#276);
#247=AXIS2_PLACEMENT_3D('',#347,#280,#281);
#248=AXIS2_PLACEMENT_3D('',#351,#284,#285);
#249=AXIS2_PLACEMENT_3D('',#355,#288,#289);
#250=AXIS2_PLACEMENT_3D('',#357,#290,#291);
#251=AXIS2_PLACEMENT_3D('',#359,#293,#294);
#252=AXIS2_PLACEMENT_3D('',#363,#297,#298);
#253=AXIS2_PLACEMENT_3D('',#367,#301,#302);
#254=AXIS2_PLACEMENT_3D('',#371,#305,#306);
#255=AXIS2_PLACEMENT_3D('',#375,#309,#310);
#256=AXIS2_PLACEMENT_3D('',#378,#312,#313);
#257=AXIS2_PLACEMENT_3D('',#379,#314,#315);
#258=AXIS2_PLACEMENT_3D('',#381,#317,#318);
#259=DIRECTION('axis',(0.,0.,1.));
#260=DIRECTION('refdir',(1.,0.,0.));
#261=DIRECTION('center_axis',(-1.,1.22124532708767E-15,0.));
#262=DIRECTION('ref_axis',(0.,0.,-1.));
#263=DIRECTION('',(0.,0.,-1.));
#264=DIRECTION('center_axis',(1.,-1.22124532708767E-15,0.));
#265=DIRECTION('ref_axis',(-1.22124532708767E-15,-1.,0.));
#266=DIRECTION('',(0.,0.,1.));
#267=DIRECTION('',(1.22124532708767E-15,1.,0.));
#268=DIRECTION('',(0.,0.,-1.));
#269=DIRECTION('center_axis',(1.,-1.22124532708767E-15,0.));
#270=DIRECTION('ref_axis',(-1.22124532708767E-15,-1.,0.));
#271=DIRECTION('',(0.,0.,1.));
#272=DIRECTION('',(1.22124532708767E-15,1.,0.));
#273=DIRECTION('',(0.,0.,1.));
#274=DIRECTION('',(-1.22124532708767E-15,-1.,0.));
#275=DIRECTION('center_axis',(-1.22124532708767E-15,-1.,0.));
#276=DIRECTION('ref_axis',(0.,0.,1.));
#277=DIRECTION('',(0.,0.,-1.));
#278=DIRECTION('',(-1.,1.22124532708767E-15,0.));
#279=DIRECTION('',(-1.,1.22124532708767E-15,0.));
#280=DIRECTION('center_axis',(0.,0.,1.));
#281=DIRECTION('ref_axis',(1.22124532708767E-15,1.,0.));
#282=DIRECTION('',(-1.22124532708767E-15,-1.,0.));
#283=DIRECTION('',(-1.,1.22124532708767E-15,0.));
#284=DIRECTION('center_axis',(-1.22124532708767E-15,-1.,0.));
#285=DIRECTION('ref_axis',(0.,0.,1.));
#286=DIRECTION('',(0.,0.,-1.));
#287=DIRECTION('',(-1.,1.22124532708767E-15,0.));
#288=DIRECTION('center_axis',(-1.,1.22124532708767E-15,0.));
#289=DIRECTION('ref_axis',(-1.22124532708767E-15,-1.,0.));
#290=DIRECTION('center_axis',(-1.,1.22124532708767E-15,0.));
#291=DIRECTION('ref_axis',(-1.22124532708767E-15,-1.,0.));
#292=DIRECTION('',(-1.,1.22124532708767E-15,0.));
#293=DIRECTION('center_axis',(1.22124532708767E-15,1.,0.));
#294=DIRECTION('ref_axis',(0.,0.,-1.));
#295=DIRECTION('',(0.,0.,1.));
#296=DIRECTION('',(-1.,1.22124532708767E-15,0.));
#297=DIRECTION('center_axis',(0.,0.,1.));
#298=DIRECTION('ref_axis',(1.22124532708767E-15,1.,0.));
#299=DIRECTION('',(-1.22124532708767E-15,-1.,0.));
#300=DIRECTION('',(-1.,1.22124532708767E-15,0.));
#301=DIRECTION('center_axis',(-1.22124532708767E-15,-1.,0.));
#302=DIRECTION('ref_axis',(0.,0.,1.));
#303=DIRECTION('',(0.,0.,-1.));
#304=DIRECTION('',(-1.,1.22124532708767E-15,0.));
#305=DIRECTION('center_axis',(0.,0.,-1.));
#306=DIRECTION('ref_axis',(-1.22124532708767E-15,-1.,0.));
#307=DIRECTION('',(-1.,0.,0.));
#308=DIRECTION('',(1.22124532708767E-15,1.,0.));
#309=DIRECTION('center_axis',(-1.,1.22124532708767E-15,0.));
#310=DIRECTION('ref_axis',(0.,0.,-1.));
#311=DIRECTION('',(0.,0.,1.));
#312=DIRECTION('center_axis',(-1.,1.22124532708767E-15,0.));
#313=DIRECTION('ref_axis',(-1.22124532708767E-15,-1.,0.));
#314=DIRECTION('center_axis',(-1.,1.22124532708767E-15,0.));
#315=DIRECTION('ref_axis',(-1.22124532708767E-15,-1.,0.));
#316=DIRECTION('',(1.,-1.22124532708767E-15,0.));
#317=DIRECTION('center_axis',(0.,1.,0.));
#318=DIRECTION('ref_axis',(0.,0.,1.));
#319=CARTESIAN_POINT('',(0.,0.,0.));
#320=CARTESIAN_POINT('Origin',(71.,-0.202285743672832,-96.8617910540683));
#321=CARTESIAN_POINT('',(71.,0.,-88.9999942248637));
#322=CARTESIAN_POINT('',(71.,0.,-104.361791165827));
#323=CARTESIAN_POINT('',(71.,0.,-96.4457369086817));
#324=CARTESIAN_POINT('',(71.,-10.032062186272,-88.4364178210525));
#325=CARTESIAN_POINT('Origin',(71.,-0.0320620372603764,0.));
#326=CARTESIAN_POINT('',(71.,-10.032062186272,-89.3617909423096));
#327=CARTESIAN_POINT('',(71.,-10.032062186272,-90.));
#328=CARTESIAN_POINT('',(71.,-10.2022858926844,-89.3617909423096));
#329=CARTESIAN_POINT('',(71.,-10.2022858926844,-89.3617909423096));
#330=CARTESIAN_POINT('',(71.,-10.2022858926844,-88.4170050544281));
#331=CARTESIAN_POINT('',(71.,-10.2022858926844,-96.3617910466177));
#332=CARTESIAN_POINT('',(71.,-15.2022857436728,-87.6975743607633));
#333=CARTESIAN_POINT('Origin',(71.,-0.0320620372603764,0.));
#334=CARTESIAN_POINT('',(71.,-15.2022857436728,-96.3617896310074));
#335=CARTESIAN_POINT('',(71.,-15.2022857436728,-96.3617896310074));
#336=CARTESIAN_POINT('',(71.,-30.2022861907077,-96.3617910466177));
#337=CARTESIAN_POINT('',(71.,-30.2022861907077,-96.3617910466177));
#338=CARTESIAN_POINT('',(71.,-30.2022861907077,-104.361791165827));
#339=CARTESIAN_POINT('',(71.,-30.2022861907077,-104.361791165827));
#340=CARTESIAN_POINT('',(71.,9.79771440533878,-104.361791165827));
#341=CARTESIAN_POINT('Origin',(71.,-30.2022861907077,-104.361791165827));
#342=CARTESIAN_POINT('',(22.,-30.2022861907076,-96.3617910466177));
#343=CARTESIAN_POINT('',(22.,-30.2022861907076,-104.361791165827));
#344=CARTESIAN_POINT('',(22.,-30.2022861907076,-100.611791109948));
#345=CARTESIAN_POINT('',(71.,-30.2022861907077,-104.361791165827));
#346=CARTESIAN_POINT('',(71.,-30.2022861907077,-96.3617910466177));
#347=CARTESIAN_POINT('Origin',(71.,-30.2022861907077,-96.3617910466177));
#348=CARTESIAN_POINT('',(22.,-15.2022857436728,-96.3617896310074));
#349=CARTESIAN_POINT('',(22.,-15.2022859671902,-96.3617910466177));
#350=CARTESIAN_POINT('',(71.,-15.2022857436728,-96.3617896310074));
#351=CARTESIAN_POINT('Origin',(71.,-15.2022857436728,-96.3617896310074));
#352=CARTESIAN_POINT('',(22.,-15.2022857436728,-87.6975743607633));
#353=CARTESIAN_POINT('',(22.,-15.2022857436728,-96.6117903425378));
#354=CARTESIAN_POINT('',(71.,-15.2022857436728,-87.6975743607633));
#355=CARTESIAN_POINT('Origin',(71.,-0.0320620372603764,0.));
#356=CARTESIAN_POINT('',(22.,-10.2022858926843,-88.4170050544281));
#357=CARTESIAN_POINT('Origin',(22.,-0.0320620372603165,0.));
#358=CARTESIAN_POINT('',(71.,-10.2022858926844,-88.4170050544281));
#359=CARTESIAN_POINT('Origin',(71.,-10.2022858926844,-88.4170050544281));
#360=CARTESIAN_POINT('',(22.,-10.2022858926844,-89.3617909423096));
#361=CARTESIAN_POINT('',(22.,-10.2022858926844,-92.6393980542482));
#362=CARTESIAN_POINT('',(71.,-10.2022858926844,-89.3617909423096));
#363=CARTESIAN_POINT('Origin',(71.,-10.2022858926844,-89.3617909423096));
#364=CARTESIAN_POINT('',(22.,-10.0320621862719,-89.3617909423096));
#365=CARTESIAN_POINT('',(22.,-5.20228581817858,-89.3617909423096));
#366=CARTESIAN_POINT('',(71.,-10.032062186272,-89.3617909423096));
#367=CARTESIAN_POINT('Origin',(71.,-10.032062186272,-89.3617909423096));
#368=CARTESIAN_POINT('',(22.,-10.0320621862719,-88.4364178210525));
#369=CARTESIAN_POINT('',(22.,-10.0320621862719,-93.1117909981889));
#370=CARTESIAN_POINT('',(71.,-10.032062186272,-88.4364178210525));
#371=CARTESIAN_POINT('Origin',(71.,29.797714703362,-104.361791165827));
#372=CARTESIAN_POINT('',(22.,0.,-104.361791165827));
#373=CARTESIAN_POINT('',(58.75,0.,-104.361791165827));
#374=CARTESIAN_POINT('',(22.,14.7977144798446,-104.361791165827));
#375=CARTESIAN_POINT('Origin',(22.,-0.202285743672772,-96.8617910540683));
#376=CARTESIAN_POINT('',(22.,0.,-88.9999942248637));
#377=CARTESIAN_POINT('',(22.,0.,-96.4457369086817));
#378=CARTESIAN_POINT('Origin',(22.,-0.0320620372603165,0.));
#379=CARTESIAN_POINT('Origin',(71.,-0.0320620372603764,0.));
#380=CARTESIAN_POINT('',(71.,0.,-88.9999942248637));
#381=CARTESIAN_POINT('Origin',(46.5,0.,-96.0296827632951));
#382=UNCERTAINTY_MEASURE_WITH_UNIT(LENGTH_MEASURE(0.01),#386,
'DISTANCE_ACCURACY_VALUE',
'Maximum model space distance between geometric entities at asserted c
onnectivities');
#383=UNCERTAINTY_MEASURE_WITH_UNIT(LENGTH_MEASURE(0.01),#386,
'DISTANCE_ACCURACY_VALUE',
'Maximum model space distance between geometric entities at asserted c
onnectivities');
#384=(
GEOMETRIC_REPRESENTATION_CONTEXT(3)
GLOBAL_UNCERTAINTY_ASSIGNED_CONTEXT((#382))
GLOBAL_UNIT_ASSIGNED_CONTEXT((#386,#388,#389))
REPRESENTATION_CONTEXT('','3D')
);
#385=(
GEOMETRIC_REPRESENTATION_CONTEXT(3)
GLOBAL_UNCERTAINTY_ASSIGNED_CONTEXT((#383))
GLOBAL_UNIT_ASSIGNED_CONTEXT((#386,#388,#389))
REPRESENTATION_CONTEXT('','3D')
);
#386=(
LENGTH_UNIT()
NAMED_UNIT(*)
SI_UNIT(.MILLI.,.METRE.)
);
#387=(
LENGTH_UNIT()
NAMED_UNIT(*)
SI_UNIT($,.METRE.)
);
#388=(
NAMED_UNIT(*)
PLANE_ANGLE_UNIT()
SI_UNIT($,.RADIAN.)
);
#389=(
NAMED_UNIT(*)
SI_UNIT($,.STERADIAN.)
SOLID_ANGLE_UNIT()
);
#390=SHAPE_DEFINITION_REPRESENTATION(#391,#392);
#391=PRODUCT_DEFINITION_SHAPE('',$,#394);
#392=SHAPE_REPRESENTATION('',(#242),#384);
#393=PRODUCT_DEFINITION_CONTEXT('part definition',#398,'design');
#394=PRODUCT_DEFINITION('Mounting Block','Mounting Block',#395,#393);
#395=PRODUCT_DEFINITION_FORMATION('',$,#400);
#396=PRODUCT_RELATED_PRODUCT_CATEGORY('Mounting Block','Mounting Block',
(#400));
#397=APPLICATION_PROTOCOL_DEFINITION('international standard',
'automotive_design',2009,#398);
#398=APPLICATION_CONTEXT(
'Core Data for Automotive Mechanical Design Process');
#399=PRODUCT_CONTEXT('part definition',#398,'mechanical');
#400=PRODUCT('Mounting Block','Mounting Block',$,(#399));
#401=PRESENTATION_STYLE_ASSIGNMENT((#403));
#402=PRESENTATION_STYLE_ASSIGNMENT((#404));
#403=SURFACE_STYLE_USAGE(.BOTH.,#405);
#404=SURFACE_STYLE_USAGE(.BOTH.,#406);
#405=SURFACE_SIDE_STYLE('',(#407));
#406=SURFACE_SIDE_STYLE('',(#408));
#407=SURFACE_STYLE_FILL_AREA(#409);
#408=SURFACE_STYLE_FILL_AREA(#410);
#409=FILL_AREA_STYLE('Stahl - satiniert',(#411));
#410=FILL_AREA_STYLE('Opaque(99,103,108)',(#412));
#411=FILL_AREA_STYLE_COLOUR('Stahl - satiniert',#413);
#412=FILL_AREA_STYLE_COLOUR('Opaque(99,103,108)',#414);
#413=COLOUR_RGB('Stahl - satiniert',0.627450980392157,0.627450980392157,
0.627450980392157);
#414=COLOUR_RGB('Opaque(99,103,108)',0.388235294117647,0.403921568627451,
0.423529411764706);
ENDSEC;
END-ISO-10303-21;
