ISO-10303-21;
HEADER;
/* Generated by software containing ST-Developer
 * from STEP Tools, Inc. (www.steptools.com) 
 */

FILE_DESCRIPTION(
/* description */ (''),
/* implementation_level */ '2;1');

FILE_NAME(
/* name */ 'Silicone_Inlet.step',
/* time_stamp */ '2026-09-29T23:14:58+02:00',
/* author */ (''),
/* organization */ (''),
/* preprocessor_version */ 'ST-DEVELOPER v20.2',
/* originating_system */ 'Autodesk Translation Framework v15.15.0.0',
/* authorisation */ '');

FILE_SCHEMA (('AUTOMOTIVE_DESIGN { 1 0 10303 214 3 1 1 }'));
ENDSEC;

DATA;
#10=MECHANICAL_DESIGN_GEOMETRIC_PRESENTATION_REPRESENTATION('',(#13),#266);
#11=SHAPE_REPRESENTATION_RELATIONSHIP('SRR','None',#273,#12);
#12=ADVANCED_BREP_SHAPE_REPRESENTATION('',(#14),#265);
#13=STYLED_ITEM('',(#283),#14);
#14=MANIFOLD_SOLID_BREP('Silicone Inlet',#142);
#15=TOROIDAL_SURFACE('',#171,46.0000006854534,11.5);
#16=FACE_BOUND('',#40,.T.);
#17=FACE_BOUND('',#43,.T.);
#18=FACE_BOUND('',#46,.T.);
#19=FACE_BOUND('',#49,.T.);
#20=PLANE('',#161);
#21=PLANE('',#165);
#22=PLANE('',#169);
#23=PLANE('',#174);
#24=CYLINDRICAL_SURFACE('',#159,33.0000004917383);
#25=CYLINDRICAL_SURFACE('',#167,35.0000005215406);
#26=CYLINDRICAL_SURFACE('',#176,35.0000005215406);
#27=FACE_OUTER_BOUND('',#37,.T.);
#28=FACE_OUTER_BOUND('',#38,.T.);
#29=FACE_OUTER_BOUND('',#39,.T.);
#30=FACE_OUTER_BOUND('',#41,.T.);
#31=FACE_OUTER_BOUND('',#42,.T.);
#32=FACE_OUTER_BOUND('',#44,.T.);
#33=FACE_OUTER_BOUND('',#45,.T.);
#34=FACE_OUTER_BOUND('',#47,.T.);
#35=FACE_OUTER_BOUND('',#48,.T.);
#36=FACE_OUTER_BOUND('',#50,.T.);
#37=EDGE_LOOP('',(#98,#99,#100,#101));
#38=EDGE_LOOP('',(#102,#103,#104,#105));
#39=EDGE_LOOP('',(#106));
#40=EDGE_LOOP('',(#107));
#41=EDGE_LOOP('',(#108,#109,#110,#111));
#42=EDGE_LOOP('',(#112));
#43=EDGE_LOOP('',(#113));
#44=EDGE_LOOP('',(#114,#115,#116,#117));
#45=EDGE_LOOP('',(#118));
#46=EDGE_LOOP('',(#119));
#47=EDGE_LOOP('',(#120,#121,#122,#123));
#48=EDGE_LOOP('',(#124));
#49=EDGE_LOOP('',(#125));
#50=EDGE_LOOP('',(#126,#127,#128,#129));
#51=LINE('',#231,#56);
#52=LINE('',#236,#57);
#53=LINE('',#242,#58);
#54=LINE('',#250,#59);
#55=LINE('',#262,#60);
#56=VECTOR('',#183,33.7500004917383);
#57=VECTOR('',#190,33.0000004917383);
#58=VECTOR('',#197,33.7500004917383);
#59=VECTOR('',#208,35.0000005215406);
#60=VECTOR('',#225,35.0000005215406);
#61=CIRCLE('',#157,34.5000004917383);
#62=CIRCLE('',#158,33.0000004917383);
#63=CIRCLE('',#160,33.0000004917383);
#64=CIRCLE('',#162,35.0000005215406);
#65=CIRCLE('',#164,34.5000004917383);
#66=CIRCLE('',#166,35.0000005215406);
#67=CIRCLE('',#168,35.0000005215406);
#68=CIRCLE('',#170,38.7894709663395);
#69=CIRCLE('',#172,11.5);
#70=CIRCLE('',#173,38.7894709663396);
#71=CIRCLE('',#175,35.0000005215406);
#72=VERTEX_POINT('',#228);
#73=VERTEX_POINT('',#230);
#74=VERTEX_POINT('',#234);
#75=VERTEX_POINT('',#238);
#76=VERTEX_POINT('',#241);
#77=VERTEX_POINT('',#245);
#78=VERTEX_POINT('',#248);
#79=VERTEX_POINT('',#252);
#80=VERTEX_POINT('',#255);
#81=VERTEX_POINT('',#259);
#82=EDGE_CURVE('',#72,#72,#61,.T.);
#83=EDGE_CURVE('',#72,#73,#51,.T.);
#84=EDGE_CURVE('',#73,#73,#62,.T.);
#85=EDGE_CURVE('',#74,#74,#63,.T.);
#86=EDGE_CURVE('',#74,#73,#52,.T.);
#87=EDGE_CURVE('',#75,#75,#64,.F.);
#88=EDGE_CURVE('',#74,#76,#53,.T.);
#89=EDGE_CURVE('',#76,#76,#65,.T.);
#90=EDGE_CURVE('',#77,#77,#66,.T.);
#91=EDGE_CURVE('',#78,#78,#67,.T.);
#92=EDGE_CURVE('',#78,#75,#54,.T.);
#93=EDGE_CURVE('',#79,#79,#68,.T.);
#94=EDGE_CURVE('',#79,#80,#69,.T.);
#95=EDGE_CURVE('',#80,#80,#70,.T.);
#96=EDGE_CURVE('',#81,#81,#71,.T.);
#97=EDGE_CURVE('',#77,#81,#55,.T.);
#98=ORIENTED_EDGE('',*,*,#82,.T.);
#99=ORIENTED_EDGE('',*,*,#83,.T.);
#100=ORIENTED_EDGE('',*,*,#84,.T.);
#101=ORIENTED_EDGE('',*,*,#83,.F.);
#102=ORIENTED_EDGE('',*,*,#85,.F.);
#103=ORIENTED_EDGE('',*,*,#86,.T.);
#104=ORIENTED_EDGE('',*,*,#84,.F.);
#105=ORIENTED_EDGE('',*,*,#86,.F.);
#106=ORIENTED_EDGE('',*,*,#87,.F.);
#107=ORIENTED_EDGE('',*,*,#82,.F.);
#108=ORIENTED_EDGE('',*,*,#85,.T.);
#109=ORIENTED_EDGE('',*,*,#88,.T.);
#110=ORIENTED_EDGE('',*,*,#89,.T.);
#111=ORIENTED_EDGE('',*,*,#88,.F.);
#112=ORIENTED_EDGE('',*,*,#90,.T.);
#113=ORIENTED_EDGE('',*,*,#89,.F.);
#114=ORIENTED_EDGE('',*,*,#91,.F.);
#115=ORIENTED_EDGE('',*,*,#92,.T.);
#116=ORIENTED_EDGE('',*,*,#87,.T.);
#117=ORIENTED_EDGE('',*,*,#92,.F.);
#118=ORIENTED_EDGE('',*,*,#93,.F.);
#119=ORIENTED_EDGE('',*,*,#91,.T.);
#120=ORIENTED_EDGE('',*,*,#93,.T.);
#121=ORIENTED_EDGE('',*,*,#94,.T.);
#122=ORIENTED_EDGE('',*,*,#95,.F.);
#123=ORIENTED_EDGE('',*,*,#94,.F.);
#124=ORIENTED_EDGE('',*,*,#95,.T.);
#125=ORIENTED_EDGE('',*,*,#96,.F.);
#126=ORIENTED_EDGE('',*,*,#90,.F.);
#127=ORIENTED_EDGE('',*,*,#97,.T.);
#128=ORIENTED_EDGE('',*,*,#96,.T.);
#129=ORIENTED_EDGE('',*,*,#97,.F.);
#130=CONICAL_SURFACE('',#156,33.7500004917383,0.785398163397448);
#131=CONICAL_SURFACE('',#163,33.7500004917383,0.785398163397448);
#132=ADVANCED_FACE('',(#27),#130,.F.);
#133=ADVANCED_FACE('',(#28),#24,.F.);
#134=ADVANCED_FACE('',(#29,#16),#20,.T.);
#135=ADVANCED_FACE('',(#30),#131,.F.);
#136=ADVANCED_FACE('',(#31,#17),#21,.T.);
#137=ADVANCED_FACE('',(#32),#25,.T.);
#138=ADVANCED_FACE('',(#33,#18),#22,.T.);
#139=ADVANCED_FACE('',(#34),#15,.F.);
#140=ADVANCED_FACE('',(#35,#19),#23,.T.);
#141=ADVANCED_FACE('',(#36),#26,.T.);
#142=CLOSED_SHELL('',(#132,#133,#134,#135,#136,#137,#138,#139,#140,#141));
#143=DERIVED_UNIT_ELEMENT(#145,1.);
#144=DERIVED_UNIT_ELEMENT(#268,-3.);
#145=(
MASS_UNIT()
NAMED_UNIT(*)
SI_UNIT(.KILO.,.GRAM.)
);
#146=DERIVED_UNIT((#143,#144));
#147=MEASURE_REPRESENTATION_ITEM('density measure',
POSITIVE_RATIO_MEASURE(7850.),#146);
#148=PROPERTY_DEFINITION_REPRESENTATION(#153,#150);
#149=PROPERTY_DEFINITION_REPRESENTATION(#154,#151);
#150=REPRESENTATION('material name',(#152),#265);
#151=REPRESENTATION('density',(#147),#265);
#152=DESCRIPTIVE_REPRESENTATION_ITEM('Stahl','Stahl');
#153=PROPERTY_DEFINITION('material property','material name',#275);
#154=PROPERTY_DEFINITION('material property','density of part',#275);
#155=AXIS2_PLACEMENT_3D('',#226,#177,#178);
#156=AXIS2_PLACEMENT_3D('',#227,#179,#180);
#157=AXIS2_PLACEMENT_3D('',#229,#181,#182);
#158=AXIS2_PLACEMENT_3D('',#232,#184,#185);
#159=AXIS2_PLACEMENT_3D('',#233,#186,#187);
#160=AXIS2_PLACEMENT_3D('',#235,#188,#189);
#161=AXIS2_PLACEMENT_3D('',#237,#191,#192);
#162=AXIS2_PLACEMENT_3D('',#239,#193,#194);
#163=AXIS2_PLACEMENT_3D('',#240,#195,#196);
#164=AXIS2_PLACEMENT_3D('',#243,#198,#199);
#165=AXIS2_PLACEMENT_3D('',#244,#200,#201);
#166=AXIS2_PLACEMENT_3D('',#246,#202,#203);
#167=AXIS2_PLACEMENT_3D('',#247,#204,#205);
#168=AXIS2_PLACEMENT_3D('',#249,#206,#207);
#169=AXIS2_PLACEMENT_3D('',#251,#209,#210);
#170=AXIS2_PLACEMENT_3D('',#253,#211,#212);
#171=AXIS2_PLACEMENT_3D('',#254,#213,#214);
#172=AXIS2_PLACEMENT_3D('',#256,#215,#216);
#173=AXIS2_PLACEMENT_3D('',#257,#217,#218);
#174=AXIS2_PLACEMENT_3D('',#258,#219,#220);
#175=AXIS2_PLACEMENT_3D('',#260,#221,#222);
#176=AXIS2_PLACEMENT_3D('',#261,#223,#224);
#177=DIRECTION('axis',(0.,0.,1.));
#178=DIRECTION('refdir',(1.,0.,0.));
#179=DIRECTION('center_axis',(0.,1.,0.));
#180=DIRECTION('ref_axis',(0.,0.,-1.));
#181=DIRECTION('center_axis',(0.,1.,0.));
#182=DIRECTION('ref_axis',(0.,0.,-1.));
#183=DIRECTION('',(-8.65956056235493E-17,-0.707106781186548,-0.707106781186547));
#184=DIRECTION('center_axis',(0.,-1.,0.));
#185=DIRECTION('ref_axis',(0.,0.,-1.));
#186=DIRECTION('center_axis',(0.,-1.,0.));
#187=DIRECTION('ref_axis',(0.,0.,-1.));
#188=DIRECTION('center_axis',(0.,1.,0.));
#189=DIRECTION('ref_axis',(0.,0.,-1.));
#190=DIRECTION('',(0.,1.,0.));
#191=DIRECTION('center_axis',(0.,1.,0.));
#192=DIRECTION('ref_axis',(0.,0.,1.));
#193=DIRECTION('center_axis',(0.,1.,0.));
#194=DIRECTION('ref_axis',(0.,0.,-1.));
#195=DIRECTION('center_axis',(0.,-1.,0.));
#196=DIRECTION('ref_axis',(0.,0.,-1.));
#197=DIRECTION('',(8.65956056235493E-17,-0.707106781186548,0.707106781186547));
#198=DIRECTION('center_axis',(0.,-1.,0.));
#199=DIRECTION('ref_axis',(0.,0.,-1.));
#200=DIRECTION('center_axis',(0.,-1.,0.));
#201=DIRECTION('ref_axis',(0.,0.,-1.));
#202=DIRECTION('center_axis',(0.,-1.,0.));
#203=DIRECTION('ref_axis',(0.,0.,-1.));
#204=DIRECTION('center_axis',(0.,-1.,0.));
#205=DIRECTION('ref_axis',(0.,0.,-1.));
#206=DIRECTION('center_axis',(0.,-1.,0.));
#207=DIRECTION('ref_axis',(1.,0.,0.));
#208=DIRECTION('',(0.,1.,0.));
#209=DIRECTION('center_axis',(0.,1.,0.));
#210=DIRECTION('ref_axis',(0.,0.,1.));
#211=DIRECTION('center_axis',(0.,-1.,0.));
#212=DIRECTION('ref_axis',(1.,0.,0.));
#213=DIRECTION('center_axis',(0.,-1.,0.));
#214=DIRECTION('ref_axis',(0.,0.,-1.));
#215=DIRECTION('center_axis',(-1.,0.,-1.22464679914735E-16));
#216=DIRECTION('ref_axis',(-1.22464679914735E-16,0.,1.));
#217=DIRECTION('center_axis',(0.,-1.,0.));
#218=DIRECTION('ref_axis',(1.,0.,0.));
#219=DIRECTION('center_axis',(0.,-1.,0.));
#220=DIRECTION('ref_axis',(0.,0.,-1.));
#221=DIRECTION('center_axis',(0.,-1.,0.));
#222=DIRECTION('ref_axis',(1.,0.,0.));
#223=DIRECTION('center_axis',(0.,-1.,0.));
#224=DIRECTION('ref_axis',(0.,0.,-1.));
#225=DIRECTION('',(0.,1.,0.));
#226=CARTESIAN_POINT('',(0.,0.,0.));
#227=CARTESIAN_POINT('Origin',(0.,10.4500001713634,46.0000006854534));
#228=CARTESIAN_POINT('',(4.22503151727894E-15,11.2000001713634,80.5000011771917));
#229=CARTESIAN_POINT('Origin',(0.,11.2000001713634,46.0000006854534));
#230=CARTESIAN_POINT('',(-4.04133449740684E-15,9.70000017136335,79.0000011771917));
#231=CARTESIAN_POINT('',(4.13318300734289E-15,10.4500001713634,79.7500011771917));
#232=CARTESIAN_POINT('Origin',(0.,9.70000017136335,46.0000006854534));
#233=CARTESIAN_POINT('Origin',(0.,0.,46.0000006854534));
#234=CARTESIAN_POINT('',(4.04133449740684E-15,-9.70000017136335,79.0000011771917));
#235=CARTESIAN_POINT('Origin',(0.,-9.70000017136335,46.0000006854534));
#236=CARTESIAN_POINT('',(-4.04133449740684E-15,0.,79.0000011771917));
#237=CARTESIAN_POINT('Origin',(0.,11.2000001713634,11.0000001639128));
#238=CARTESIAN_POINT('',(4.28626386088604E-15,11.2000001713634,81.0000012069941));
#239=CARTESIAN_POINT('Origin',(0.,11.2000001713634,46.0000006854534));
#240=CARTESIAN_POINT('Origin',(0.,-10.4500001713634,46.0000006854534));
#241=CARTESIAN_POINT('',(-4.22503151727894E-15,-11.2000001713634,80.5000011771917));
#242=CARTESIAN_POINT('',(4.13318300734289E-15,-10.4500001713634,79.7500011771917));
#243=CARTESIAN_POINT('Origin',(0.,-11.2000001713634,46.0000006854534));
#244=CARTESIAN_POINT('Origin',(0.,-11.2000001713634,13.0000001937151));
#245=CARTESIAN_POINT('',(-4.28626386088604E-15,-11.2000001713634,81.0000012069941));
#246=CARTESIAN_POINT('Origin',(0.,-11.2000001713634,46.0000006854534));
#247=CARTESIAN_POINT('Origin',(0.,10.2293488433075,46.0000006854534));
#248=CARTESIAN_POINT('',(-4.28626386088604E-15,8.95869751525163,81.0000012069941));
#249=CARTESIAN_POINT('Origin',(0.,8.95869751525163,46.0000006854534));
#250=CARTESIAN_POINT('',(-4.28626386088604E-15,10.2293488433075,81.0000012069941));
#251=CARTESIAN_POINT('Origin',(0.,8.95869751525163,7.21052971911387));
#252=CARTESIAN_POINT('',(-4.75034014595469E-15,8.95869751525163,84.789471651793));
#253=CARTESIAN_POINT('Origin',(0.,8.95869751525163,46.0000006854534));
#254=CARTESIAN_POINT('Origin',(0.,0.,46.0000006854534));
#255=CARTESIAN_POINT('',(-4.75034014595469E-15,-8.95869751525163,84.789471651793));
#256=CARTESIAN_POINT('Origin',(-5.63337536002166E-15,0.,92.0000013709068));
#257=CARTESIAN_POINT('Origin',(0.,-8.95869751525163,46.0000006854534));
#258=CARTESIAN_POINT('Origin',(0.,-8.95869751525163,11.0000001639128));
#259=CARTESIAN_POINT('',(-4.28626386088604E-15,-8.95869751525163,81.0000012069941));
#260=CARTESIAN_POINT('Origin',(0.,-8.95869751525163,46.0000006854534));
#261=CARTESIAN_POINT('Origin',(0.,-10.2293488433075,46.0000006854534));
#262=CARTESIAN_POINT('',(-4.28626386088604E-15,-10.2293488433075,81.0000012069941));
#263=UNCERTAINTY_MEASURE_WITH_UNIT(LENGTH_MEASURE(0.01),#267,
'DISTANCE_ACCURACY_VALUE',
'Maximum model space distance between geometric entities at asserted c
onnectivities');
#264=UNCERTAINTY_MEASURE_WITH_UNIT(LENGTH_MEASURE(0.01),#267,
'DISTANCE_ACCURACY_VALUE',
'Maximum model space distance between geometric entities at asserted c
onnectivities');
#265=(
GEOMETRIC_REPRESENTATION_CONTEXT(3)
GLOBAL_UNCERTAINTY_ASSIGNED_CONTEXT((#263))
GLOBAL_UNIT_ASSIGNED_CONTEXT((#267,#269,#270))
REPRESENTATION_CONTEXT('','3D')
);
#266=(
GEOMETRIC_REPRESENTATION_CONTEXT(3)
GLOBAL_UNCERTAINTY_ASSIGNED_CONTEXT((#264))
GLOBAL_UNIT_ASSIGNED_CONTEXT((#267,#269,#270))
REPRESENTATION_CONTEXT('','3D')
);
#267=(
LENGTH_UNIT()
NAMED_UNIT(*)
SI_UNIT(.MILLI.,.METRE.)
);
#268=(
LENGTH_UNIT()
NAMED_UNIT(*)
SI_UNIT($,.METRE.)
);
#269=(
NAMED_UNIT(*)
PLANE_ANGLE_UNIT()
SI_UNIT($,.RADIAN.)
);
#270=(
NAMED_UNIT(*)
SI_UNIT($,.STERADIAN.)
SOLID_ANGLE_UNIT()
);
#271=SHAPE_DEFINITION_REPRESENTATION(#272,#273);
#272=PRODUCT_DEFINITION_SHAPE('',$,#275);
#273=SHAPE_REPRESENTATION('',(#155),#265);
#274=PRODUCT_DEFINITION_CONTEXT('part definition',#279,'design');
#275=PRODUCT_DEFINITION('Silicone Inlet','Silicone Inlet',#276,#274);
#276=PRODUCT_DEFINITION_FORMATION('',$,#281);
#277=PRODUCT_RELATED_PRODUCT_CATEGORY('Silicone Inlet','Silicone Inlet',
(#281));
#278=APPLICATION_PROTOCOL_DEFINITION('international standard',
'automotive_design',2009,#279);
#279=APPLICATION_CONTEXT(
'Core Data for Automotive Mechanical Design Process');
#280=PRODUCT_CONTEXT('part definition',#279,'mechanical');
#281=PRODUCT('Silicone Inlet','Silicone Inlet',$,(#280));
#282=PRESENTATION_STYLE_ASSIGNMENT((#284));
#283=PRESENTATION_STYLE_ASSIGNMENT((#285));
#284=SURFACE_STYLE_USAGE(.BOTH.,#286);
#285=SURFACE_STYLE_USAGE(.BOTH.,#287);
#286=SURFACE_SIDE_STYLE('',(#288));
#287=SURFACE_SIDE_STYLE('',(#289));
#288=SURFACE_STYLE_FILL_AREA(#290);
#289=SURFACE_STYLE_FILL_AREA(#291);
#290=FILL_AREA_STYLE('Stahl - satiniert',(#292));
#291=FILL_AREA_STYLE('Silikon (Wei\X\DF)',(#293));
#292=FILL_AREA_STYLE_COLOUR('Stahl - satiniert',#294);
#293=FILL_AREA_STYLE_COLOUR('Silikon (Wei\X\DF)',#295);
#294=COLOUR_RGB('Stahl - satiniert',0.627450980392157,0.627450980392157,
0.627450980392157);
#295=COLOUR_RGB('Silikon (Wei\X\DF)',0.964705882352941,0.964705882352941,
0.952941176470588);
ENDSEC;
END-ISO-10303-21;
