ISO-10303-21;
HEADER;
/* Generated by software containing ST-Developer
 * from STEP Tools, Inc. (www.steptools.com) 
 */

FILE_DESCRIPTION(
/* description */ (''),
/* implementation_level */ '2;1');

FILE_NAME(
/* name */ 'Drive_Belt_Tensioner.step',
/* time_stamp */ '2026-09-29T23:14:58+02:00',
/* author */ (''),
/* organization */ (''),
/* preprocessor_version */ 'ST-DEVELOPER v20.2',
/* originating_system */ 'Autodesk Translation Framework v15.15.0.0',
/* authorisation */ '');

FILE_SCHEMA (('AUTOMOTIVE_DESIGN { 1 0 10303 214 3 1 1 }'));
ENDSEC;

DATA;
#10=MECHANICAL_DESIGN_GEOMETRIC_PRESENTATION_REPRESENTATION('',(#13),#385);
#11=SHAPE_REPRESENTATION_RELATIONSHIP('SRR','None',#392,#12);
#12=ADVANCED_BREP_SHAPE_REPRESENTATION('',(#14),#384);
#13=STYLED_ITEM('',(#402),#14);
#14=MANIFOLD_SOLID_BREP('Drive Belt Tensioner',#229);
#15=CYLINDRICAL_SURFACE('',#254,5.);
#16=CYLINDRICAL_SURFACE('',#257,5.);
#17=FACE_OUTER_BOUND('',#29,.T.);
#18=FACE_OUTER_BOUND('',#30,.T.);
#19=FACE_OUTER_BOUND('',#31,.T.);
#20=FACE_OUTER_BOUND('',#32,.T.);
#21=FACE_OUTER_BOUND('',#33,.T.);
#22=FACE_OUTER_BOUND('',#34,.T.);
#23=FACE_OUTER_BOUND('',#35,.T.);
#24=FACE_OUTER_BOUND('',#36,.T.);
#25=FACE_OUTER_BOUND('',#37,.T.);
#26=FACE_OUTER_BOUND('',#38,.T.);
#27=FACE_OUTER_BOUND('',#39,.T.);
#28=FACE_OUTER_BOUND('',#40,.T.);
#29=EDGE_LOOP('',(#147,#148,#149,#150,#151,#152,#153,#154,#155,#156));
#30=EDGE_LOOP('',(#157,#158,#159,#160));
#31=EDGE_LOOP('',(#161,#162,#163,#164));
#32=EDGE_LOOP('',(#165,#166,#167,#168,#169,#170,#171,#172,#173,#174));
#33=EDGE_LOOP('',(#175,#176,#177,#178));
#34=EDGE_LOOP('',(#179,#180,#181,#182));
#35=EDGE_LOOP('',(#183,#184,#185,#186));
#36=EDGE_LOOP('',(#187,#188,#189,#190));
#37=EDGE_LOOP('',(#191,#192,#193,#194));
#38=EDGE_LOOP('',(#195,#196,#197,#198));
#39=EDGE_LOOP('',(#199,#200,#201,#202));
#40=EDGE_LOOP('',(#203,#204,#205,#206));
#41=CIRCLE('',#244,5.);
#42=CIRCLE('',#245,5.);
#43=CIRCLE('',#249,5.);
#44=CIRCLE('',#250,5.);
#45=LINE('',#323,#71);
#46=LINE('',#327,#72);
#47=LINE('',#331,#73);
#48=LINE('',#333,#74);
#49=LINE('',#335,#75);
#50=LINE('',#337,#76);
#51=LINE('',#339,#77);
#52=LINE('',#340,#78);
#53=LINE('',#343,#79);
#54=LINE('',#345,#80);
#55=LINE('',#346,#81);
#56=LINE('',#349,#82);
#57=LINE('',#351,#83);
#58=LINE('',#352,#84);
#59=LINE('',#356,#85);
#60=LINE('',#357,#86);
#61=LINE('',#358,#87);
#62=LINE('',#360,#88);
#63=LINE('',#362,#89);
#64=LINE('',#366,#90);
#65=LINE('',#370,#91);
#66=LINE('',#372,#92);
#67=LINE('',#374,#93);
#68=LINE('',#376,#94);
#69=LINE('',#377,#95);
#70=LINE('',#379,#96);
#71=VECTOR('',#263,10.);
#72=VECTOR('',#266,10.);
#73=VECTOR('',#269,10.);
#74=VECTOR('',#270,10.);
#75=VECTOR('',#271,10.);
#76=VECTOR('',#272,10.);
#77=VECTOR('',#273,10.);
#78=VECTOR('',#274,10.);
#79=VECTOR('',#277,10.);
#80=VECTOR('',#278,10.);
#81=VECTOR('',#279,10.);
#82=VECTOR('',#282,10.);
#83=VECTOR('',#283,10.);
#84=VECTOR('',#284,10.);
#85=VECTOR('',#287,10.);
#86=VECTOR('',#288,10.);
#87=VECTOR('',#289,10.);
#88=VECTOR('',#290,10.);
#89=VECTOR('',#291,10.);
#90=VECTOR('',#294,10.);
#91=VECTOR('',#301,10.);
#92=VECTOR('',#304,10.);
#93=VECTOR('',#307,10.);
#94=VECTOR('',#310,10.);
#95=VECTOR('',#311,10.);
#96=VECTOR('',#314,10.);
#97=VERTEX_POINT('',#321);
#98=VERTEX_POINT('',#322);
#99=VERTEX_POINT('',#324);
#100=VERTEX_POINT('',#326);
#101=VERTEX_POINT('',#328);
#102=VERTEX_POINT('',#330);
#103=VERTEX_POINT('',#332);
#104=VERTEX_POINT('',#334);
#105=VERTEX_POINT('',#336);
#106=VERTEX_POINT('',#338);
#107=VERTEX_POINT('',#342);
#108=VERTEX_POINT('',#344);
#109=VERTEX_POINT('',#348);
#110=VERTEX_POINT('',#350);
#111=VERTEX_POINT('',#354);
#112=VERTEX_POINT('',#355);
#113=VERTEX_POINT('',#359);
#114=VERTEX_POINT('',#361);
#115=VERTEX_POINT('',#363);
#116=VERTEX_POINT('',#365);
#117=EDGE_CURVE('',#97,#98,#45,.T.);
#118=EDGE_CURVE('',#98,#99,#41,.T.);
#119=EDGE_CURVE('',#99,#100,#46,.T.);
#120=EDGE_CURVE('',#100,#101,#42,.T.);
#121=EDGE_CURVE('',#101,#102,#47,.T.);
#122=EDGE_CURVE('',#102,#103,#48,.T.);
#123=EDGE_CURVE('',#103,#104,#49,.T.);
#124=EDGE_CURVE('',#105,#104,#50,.T.);
#125=EDGE_CURVE('',#106,#105,#51,.T.);
#126=EDGE_CURVE('',#106,#97,#52,.T.);
#127=EDGE_CURVE('',#103,#107,#53,.T.);
#128=EDGE_CURVE('',#107,#108,#54,.T.);
#129=EDGE_CURVE('',#104,#108,#55,.T.);
#130=EDGE_CURVE('',#109,#106,#56,.T.);
#131=EDGE_CURVE('',#110,#105,#57,.T.);
#132=EDGE_CURVE('',#109,#110,#58,.T.);
#133=EDGE_CURVE('',#111,#112,#59,.T.);
#134=EDGE_CURVE('',#112,#109,#60,.T.);
#135=EDGE_CURVE('',#108,#110,#61,.T.);
#136=EDGE_CURVE('',#107,#113,#62,.T.);
#137=EDGE_CURVE('',#113,#114,#63,.T.);
#138=EDGE_CURVE('',#114,#115,#43,.T.);
#139=EDGE_CURVE('',#115,#116,#64,.T.);
#140=EDGE_CURVE('',#116,#111,#44,.T.);
#141=EDGE_CURVE('',#112,#97,#65,.T.);
#142=EDGE_CURVE('',#111,#98,#66,.T.);
#143=EDGE_CURVE('',#116,#99,#67,.T.);
#144=EDGE_CURVE('',#114,#101,#68,.T.);
#145=EDGE_CURVE('',#102,#113,#69,.T.);
#146=EDGE_CURVE('',#100,#115,#70,.T.);
#147=ORIENTED_EDGE('',*,*,#117,.T.);
#148=ORIENTED_EDGE('',*,*,#118,.T.);
#149=ORIENTED_EDGE('',*,*,#119,.T.);
#150=ORIENTED_EDGE('',*,*,#120,.T.);
#151=ORIENTED_EDGE('',*,*,#121,.T.);
#152=ORIENTED_EDGE('',*,*,#122,.T.);
#153=ORIENTED_EDGE('',*,*,#123,.T.);
#154=ORIENTED_EDGE('',*,*,#124,.F.);
#155=ORIENTED_EDGE('',*,*,#125,.F.);
#156=ORIENTED_EDGE('',*,*,#126,.T.);
#157=ORIENTED_EDGE('',*,*,#127,.T.);
#158=ORIENTED_EDGE('',*,*,#128,.T.);
#159=ORIENTED_EDGE('',*,*,#129,.F.);
#160=ORIENTED_EDGE('',*,*,#123,.F.);
#161=ORIENTED_EDGE('',*,*,#130,.T.);
#162=ORIENTED_EDGE('',*,*,#125,.T.);
#163=ORIENTED_EDGE('',*,*,#131,.F.);
#164=ORIENTED_EDGE('',*,*,#132,.F.);
#165=ORIENTED_EDGE('',*,*,#133,.T.);
#166=ORIENTED_EDGE('',*,*,#134,.T.);
#167=ORIENTED_EDGE('',*,*,#132,.T.);
#168=ORIENTED_EDGE('',*,*,#135,.F.);
#169=ORIENTED_EDGE('',*,*,#128,.F.);
#170=ORIENTED_EDGE('',*,*,#136,.T.);
#171=ORIENTED_EDGE('',*,*,#137,.T.);
#172=ORIENTED_EDGE('',*,*,#138,.T.);
#173=ORIENTED_EDGE('',*,*,#139,.T.);
#174=ORIENTED_EDGE('',*,*,#140,.T.);
#175=ORIENTED_EDGE('',*,*,#135,.T.);
#176=ORIENTED_EDGE('',*,*,#131,.T.);
#177=ORIENTED_EDGE('',*,*,#124,.T.);
#178=ORIENTED_EDGE('',*,*,#129,.T.);
#179=ORIENTED_EDGE('',*,*,#126,.F.);
#180=ORIENTED_EDGE('',*,*,#130,.F.);
#181=ORIENTED_EDGE('',*,*,#134,.F.);
#182=ORIENTED_EDGE('',*,*,#141,.T.);
#183=ORIENTED_EDGE('',*,*,#117,.F.);
#184=ORIENTED_EDGE('',*,*,#141,.F.);
#185=ORIENTED_EDGE('',*,*,#133,.F.);
#186=ORIENTED_EDGE('',*,*,#142,.T.);
#187=ORIENTED_EDGE('',*,*,#118,.F.);
#188=ORIENTED_EDGE('',*,*,#142,.F.);
#189=ORIENTED_EDGE('',*,*,#140,.F.);
#190=ORIENTED_EDGE('',*,*,#143,.T.);
#191=ORIENTED_EDGE('',*,*,#121,.F.);
#192=ORIENTED_EDGE('',*,*,#144,.F.);
#193=ORIENTED_EDGE('',*,*,#137,.F.);
#194=ORIENTED_EDGE('',*,*,#145,.F.);
#195=ORIENTED_EDGE('',*,*,#119,.F.);
#196=ORIENTED_EDGE('',*,*,#143,.F.);
#197=ORIENTED_EDGE('',*,*,#139,.F.);
#198=ORIENTED_EDGE('',*,*,#146,.F.);
#199=ORIENTED_EDGE('',*,*,#120,.F.);
#200=ORIENTED_EDGE('',*,*,#146,.T.);
#201=ORIENTED_EDGE('',*,*,#138,.F.);
#202=ORIENTED_EDGE('',*,*,#144,.T.);
#203=ORIENTED_EDGE('',*,*,#122,.F.);
#204=ORIENTED_EDGE('',*,*,#145,.T.);
#205=ORIENTED_EDGE('',*,*,#136,.F.);
#206=ORIENTED_EDGE('',*,*,#127,.F.);
#207=PLANE('',#243);
#208=PLANE('',#246);
#209=PLANE('',#247);
#210=PLANE('',#248);
#211=PLANE('',#251);
#212=PLANE('',#252);
#213=PLANE('',#253);
#214=PLANE('',#255);
#215=PLANE('',#256);
#216=PLANE('',#258);
#217=ADVANCED_FACE('',(#17),#207,.T.);
#218=ADVANCED_FACE('',(#18),#208,.T.);
#219=ADVANCED_FACE('',(#19),#209,.T.);
#220=ADVANCED_FACE('',(#20),#210,.T.);
#221=ADVANCED_FACE('',(#21),#211,.T.);
#222=ADVANCED_FACE('',(#22),#212,.T.);
#223=ADVANCED_FACE('',(#23),#213,.T.);
#224=ADVANCED_FACE('',(#24),#15,.F.);
#225=ADVANCED_FACE('',(#25),#214,.F.);
#226=ADVANCED_FACE('',(#26),#215,.F.);
#227=ADVANCED_FACE('',(#27),#16,.F.);
#228=ADVANCED_FACE('',(#28),#216,.T.);
#229=CLOSED_SHELL('',(#217,#218,#219,#220,#221,#222,#223,#224,#225,#226,
#227,#228));
#230=DERIVED_UNIT_ELEMENT(#232,1.);
#231=DERIVED_UNIT_ELEMENT(#387,-3.);
#232=(
MASS_UNIT()
NAMED_UNIT(*)
SI_UNIT(.KILO.,.GRAM.)
);
#233=DERIVED_UNIT((#230,#231));
#234=MEASURE_REPRESENTATION_ITEM('density measure',
POSITIVE_RATIO_MEASURE(7850.),#233);
#235=PROPERTY_DEFINITION_REPRESENTATION(#240,#237);
#236=PROPERTY_DEFINITION_REPRESENTATION(#241,#238);
#237=REPRESENTATION('material name',(#239),#384);
#238=REPRESENTATION('density',(#234),#384);
#239=DESCRIPTIVE_REPRESENTATION_ITEM('Stahl','Stahl');
#240=PROPERTY_DEFINITION('material property','material name',#394);
#241=PROPERTY_DEFINITION('material property','density of part',#394);
#242=AXIS2_PLACEMENT_3D('',#319,#259,#260);
#243=AXIS2_PLACEMENT_3D('',#320,#261,#262);
#244=AXIS2_PLACEMENT_3D('',#325,#264,#265);
#245=AXIS2_PLACEMENT_3D('',#329,#267,#268);
#246=AXIS2_PLACEMENT_3D('',#341,#275,#276);
#247=AXIS2_PLACEMENT_3D('',#347,#280,#281);
#248=AXIS2_PLACEMENT_3D('',#353,#285,#286);
#249=AXIS2_PLACEMENT_3D('',#364,#292,#293);
#250=AXIS2_PLACEMENT_3D('',#367,#295,#296);
#251=AXIS2_PLACEMENT_3D('',#368,#297,#298);
#252=AXIS2_PLACEMENT_3D('',#369,#299,#300);
#253=AXIS2_PLACEMENT_3D('',#371,#302,#303);
#254=AXIS2_PLACEMENT_3D('',#373,#305,#306);
#255=AXIS2_PLACEMENT_3D('',#375,#308,#309);
#256=AXIS2_PLACEMENT_3D('',#378,#312,#313);
#257=AXIS2_PLACEMENT_3D('',#380,#315,#316);
#258=AXIS2_PLACEMENT_3D('',#381,#317,#318);
#259=DIRECTION('axis',(0.,0.,1.));
#260=DIRECTION('refdir',(1.,0.,0.));
#261=DIRECTION('center_axis',(0.,0.,1.));
#262=DIRECTION('ref_axis',(1.,0.,0.));
#263=DIRECTION('',(0.,1.,0.));
#264=DIRECTION('center_axis',(0.,0.,-1.));
#265=DIRECTION('ref_axis',(-0.707106781186547,0.707106781186547,0.));
#266=DIRECTION('',(1.,0.,0.));
#267=DIRECTION('center_axis',(0.,0.,-1.));
#268=DIRECTION('ref_axis',(0.707106781186547,0.707106781186547,0.));
#269=DIRECTION('',(0.,-1.,0.));
#270=DIRECTION('',(1.,0.,0.));
#271=DIRECTION('',(0.,1.,0.));
#272=DIRECTION('',(1.,0.,0.));
#273=DIRECTION('',(0.,1.,0.));
#274=DIRECTION('',(1.,0.,0.));
#275=DIRECTION('center_axis',(1.,0.,0.));
#276=DIRECTION('ref_axis',(0.,0.,-1.));
#277=DIRECTION('',(0.,4.03717471703501E-17,-1.));
#278=DIRECTION('',(0.,1.,0.));
#279=DIRECTION('',(0.,0.,-1.));
#280=DIRECTION('center_axis',(-1.,0.,0.));
#281=DIRECTION('ref_axis',(0.,0.,1.));
#282=DIRECTION('',(0.,-4.03717471703501E-17,1.));
#283=DIRECTION('',(0.,0.,1.));
#284=DIRECTION('',(0.,1.,0.));
#285=DIRECTION('center_axis',(0.,0.,-1.));
#286=DIRECTION('ref_axis',(-1.,0.,0.));
#287=DIRECTION('',(0.,-1.,0.));
#288=DIRECTION('',(-1.,0.,0.));
#289=DIRECTION('',(-1.,0.,0.));
#290=DIRECTION('',(-1.,0.,0.));
#291=DIRECTION('',(0.,1.,0.));
#292=DIRECTION('center_axis',(0.,0.,1.));
#293=DIRECTION('ref_axis',(0.707106781186547,0.707106781186547,0.));
#294=DIRECTION('',(-1.,0.,0.));
#295=DIRECTION('center_axis',(0.,0.,1.));
#296=DIRECTION('ref_axis',(-0.707106781186547,0.707106781186547,0.));
#297=DIRECTION('center_axis',(0.,1.,0.));
#298=DIRECTION('ref_axis',(0.,0.,1.));
#299=DIRECTION('center_axis',(0.,-1.,-4.03717471703501E-17));
#300=DIRECTION('ref_axis',(0.,-4.03717471703501E-17,1.));
#301=DIRECTION('',(0.,0.,1.));
#302=DIRECTION('center_axis',(1.,0.,0.));
#303=DIRECTION('ref_axis',(0.,0.,-1.));
#304=DIRECTION('',(0.,0.,1.));
#305=DIRECTION('center_axis',(0.,0.,-1.));
#306=DIRECTION('ref_axis',(-0.707106781186547,0.707106781186547,0.));
#307=DIRECTION('',(0.,0.,1.));
#308=DIRECTION('center_axis',(1.,0.,0.));
#309=DIRECTION('ref_axis',(0.,-1.,0.));
#310=DIRECTION('',(0.,0.,1.));
#311=DIRECTION('',(0.,4.03717471703501E-17,-1.));
#312=DIRECTION('center_axis',(0.,1.,0.));
#313=DIRECTION('ref_axis',(1.,0.,0.));
#314=DIRECTION('',(0.,0.,-1.));
#315=DIRECTION('center_axis',(0.,0.,-1.));
#316=DIRECTION('ref_axis',(0.707106781186547,0.707106781186547,0.));
#317=DIRECTION('center_axis',(0.,-1.,-4.03717471703501E-17));
#318=DIRECTION('ref_axis',(0.,-4.03717471703501E-17,1.));
#319=CARTESIAN_POINT('',(0.,0.,0.));
#320=CARTESIAN_POINT('Origin',(-125.000001862645,15.,-27.0000004023314));
#321=CARTESIAN_POINT('',(-120.,15.,-27.0000004023314));
#322=CARTESIAN_POINT('',(-120.,25.,-27.0000004023314));
#323=CARTESIAN_POINT('',(-120.,10.,-27.0000004023314));
#324=CARTESIAN_POINT('',(-115.,30.,-27.0000004023314));
#325=CARTESIAN_POINT('Origin',(-115.,25.,-27.0000004023314));
#326=CARTESIAN_POINT('',(-85.,30.,-27.0000004023314));
#327=CARTESIAN_POINT('',(-122.500000931323,30.,-27.0000004023314));
#328=CARTESIAN_POINT('',(-80.,25.,-27.0000004023314));
#329=CARTESIAN_POINT('Origin',(-85.,25.,-27.0000004023314));
#330=CARTESIAN_POINT('',(-80.,15.,-27.0000004023314));
#331=CARTESIAN_POINT('',(-80.,22.5,-27.0000004023314));
#332=CARTESIAN_POINT('',(-75.0000011175871,15.,-27.0000004023314));
#333=CARTESIAN_POINT('',(-92.5000009313226,15.,-27.0000004023314));
#334=CARTESIAN_POINT('',(-75.0000011175871,35.,-27.0000004023314));
#335=CARTESIAN_POINT('',(-75.0000011175871,15.,-27.0000004023314));
#336=CARTESIAN_POINT('',(-125.000001862645,35.,-27.0000004023314));
#337=CARTESIAN_POINT('',(-125.000001862645,35.,-27.0000004023314));
#338=CARTESIAN_POINT('',(-125.000001862645,15.,-27.0000004023314));
#339=CARTESIAN_POINT('',(-125.000001862645,15.,-27.0000004023314));
#340=CARTESIAN_POINT('',(-92.5000009313226,15.,-27.0000004023314));
#341=CARTESIAN_POINT('Origin',(-75.0000011175871,15.,-27.0000004023314));
#342=CARTESIAN_POINT('',(-75.0000011175871,15.,-47.0000007003546));
#343=CARTESIAN_POINT('',(-75.0000011175871,15.,-38.4999996423721));
#344=CARTESIAN_POINT('',(-75.0000011175871,35.,-47.0000007003546));
#345=CARTESIAN_POINT('',(-75.0000011175871,15.,-47.0000007003546));
#346=CARTESIAN_POINT('',(-75.0000011175871,35.,-27.0000004023314));
#347=CARTESIAN_POINT('Origin',(-125.000001862645,15.,-47.0000007003546));
#348=CARTESIAN_POINT('',(-125.000001862645,15.,-47.0000007003546));
#349=CARTESIAN_POINT('',(-125.000001862645,15.,-48.4999997913837));
#350=CARTESIAN_POINT('',(-125.000001862645,35.,-47.0000007003546));
#351=CARTESIAN_POINT('',(-125.000001862645,35.,-47.0000007003546));
#352=CARTESIAN_POINT('',(-125.000001862645,15.,-47.0000007003546));
#353=CARTESIAN_POINT('Origin',(-75.0000011175871,15.,-47.0000007003546));
#354=CARTESIAN_POINT('',(-120.,25.,-47.0000007003546));
#355=CARTESIAN_POINT('',(-120.,15.,-47.0000007003546));
#356=CARTESIAN_POINT('',(-120.,10.,-47.0000007003546));
#357=CARTESIAN_POINT('',(-67.5000005587935,15.,-47.0000007003546));
#358=CARTESIAN_POINT('',(-75.0000011175871,35.,-47.0000007003546));
#359=CARTESIAN_POINT('',(-80.,15.,-47.0000007003546));
#360=CARTESIAN_POINT('',(-67.5000005587935,15.,-47.0000007003546));
#361=CARTESIAN_POINT('',(-80.,25.,-47.0000007003546));
#362=CARTESIAN_POINT('',(-80.,22.5,-47.0000007003546));
#363=CARTESIAN_POINT('',(-85.,30.,-47.0000007003546));
#364=CARTESIAN_POINT('Origin',(-85.,25.,-47.0000007003546));
#365=CARTESIAN_POINT('',(-115.,30.,-47.0000007003546));
#366=CARTESIAN_POINT('',(-97.5000005587935,30.,-47.0000007003546));
#367=CARTESIAN_POINT('Origin',(-115.,25.,-47.0000007003546));
#368=CARTESIAN_POINT('Origin',(-100.000001490116,35.,-37.000000551343));
#369=CARTESIAN_POINT('Origin',(-60.,15.,-49.9999988824129));
#370=CARTESIAN_POINT('',(-120.,15.,-50.0000307288359));
#371=CARTESIAN_POINT('Origin',(-120.,5.,-50.0000307288359));
#372=CARTESIAN_POINT('',(-120.,25.,-50.0000307288359));
#373=CARTESIAN_POINT('Origin',(-115.,25.,-50.0000307288359));
#374=CARTESIAN_POINT('',(-115.,30.,-50.0000307288359));
#375=CARTESIAN_POINT('Origin',(-80.,30.,-50.0000307288359));
#376=CARTESIAN_POINT('',(-80.,25.,-50.0000307288359));
#377=CARTESIAN_POINT('',(-80.,15.,-50.0000148056244));
#378=CARTESIAN_POINT('Origin',(-120.,30.,-50.0000307288359));
#379=CARTESIAN_POINT('',(-85.,30.,-50.0000307288359));
#380=CARTESIAN_POINT('Origin',(-85.,25.,-50.0000307288359));
#381=CARTESIAN_POINT('Origin',(-60.,15.,-49.9999988824129));
#382=UNCERTAINTY_MEASURE_WITH_UNIT(LENGTH_MEASURE(0.01),#386,
'DISTANCE_ACCURACY_VALUE',
'Maximum model space distance between geometric entities at asserted c
onnectivities');
#383=UNCERTAINTY_MEASURE_WITH_UNIT(LENGTH_MEASURE(0.01),#386,
'DISTANCE_ACCURACY_VALUE',
'Maximum model space distance between geometric entities at asserted c
onnectivities');
#384=(
GEOMETRIC_REPRESENTATION_CONTEXT(3)
GLOBAL_UNCERTAINTY_ASSIGNED_CONTEXT((#382))
GLOBAL_UNIT_ASSIGNED_CONTEXT((#386,#388,#389))
REPRESENTATION_CONTEXT('','3D')
);
#385=(
GEOMETRIC_REPRESENTATION_CONTEXT(3)
GLOBAL_UNCERTAINTY_ASSIGNED_CONTEXT((#383))
GLOBAL_UNIT_ASSIGNED_CONTEXT((#386,#388,#389))
REPRESENTATION_CONTEXT('','3D')
);
#386=(
LENGTH_UNIT()
NAMED_UNIT(*)
SI_UNIT(.MILLI.,.METRE.)
);
#387=(
LENGTH_UNIT()
NAMED_UNIT(*)
SI_UNIT($,.METRE.)
);
#388=(
NAMED_UNIT(*)
PLANE_ANGLE_UNIT()
SI_UNIT($,.RADIAN.)
);
#389=(
NAMED_UNIT(*)
SI_UNIT($,.STERADIAN.)
SOLID_ANGLE_UNIT()
);
#390=SHAPE_DEFINITION_REPRESENTATION(#391,#392);
#391=PRODUCT_DEFINITION_SHAPE('',$,#394);
#392=SHAPE_REPRESENTATION('',(#242),#384);
#393=PRODUCT_DEFINITION_CONTEXT('part definition',#398,'design');
#394=PRODUCT_DEFINITION('Drive Belt Tensioner','Drive Belt Tensioner',#395,
#393);
#395=PRODUCT_DEFINITION_FORMATION('',$,#400);
#396=PRODUCT_RELATED_PRODUCT_CATEGORY('Drive Belt Tensioner',
'Drive Belt Tensioner',(#400));
#397=APPLICATION_PROTOCOL_DEFINITION('international standard',
'automotive_design',2009,#398);
#398=APPLICATION_CONTEXT(
'Core Data for Automotive Mechanical Design Process');
#399=PRODUCT_CONTEXT('part definition',#398,'mechanical');
#400=PRODUCT('Drive Belt Tensioner','Drive Belt Tensioner',$,(#399));
#401=PRESENTATION_STYLE_ASSIGNMENT((#403));
#402=PRESENTATION_STYLE_ASSIGNMENT((#404));
#403=SURFACE_STYLE_USAGE(.BOTH.,#405);
#404=SURFACE_STYLE_USAGE(.BOTH.,#406);
#405=SURFACE_SIDE_STYLE('',(#407));
#406=SURFACE_SIDE_STYLE('',(#408));
#407=SURFACE_STYLE_FILL_AREA(#409);
#408=SURFACE_STYLE_FILL_AREA(#410);
#409=FILL_AREA_STYLE('Stahl - satiniert',(#411));
#410=FILL_AREA_STYLE('Opaque(99,103,108)',(#412));
#411=FILL_AREA_STYLE_COLOUR('Stahl - satiniert',#413);
#412=FILL_AREA_STYLE_COLOUR('Opaque(99,103,108)',#414);
#413=COLOUR_RGB('Stahl - satiniert',0.627450980392157,0.627450980392157,
0.627450980392157);
#414=COLOUR_RGB('Opaque(99,103,108)',0.388235294117647,0.403921568627451,
0.423529411764706);
ENDSEC;
END-ISO-10303-21;
