ISO-10303-21;
HEADER;
/* Generated by software containing ST-Developer
 * from STEP Tools, Inc. (www.steptools.com) 
 */

FILE_DESCRIPTION(
/* description */ (''),
/* implementation_level */ '2;1');

FILE_NAME(
/* name */ 'Drum_Shell_Right.step',
/* time_stamp */ '2026-09-29T23:14:51+02:00',
/* author */ (''),
/* organization */ (''),
/* preprocessor_version */ 'ST-DEVELOPER v20.2',
/* originating_system */ 'Autodesk Translation Framework v15.15.0.0',
/* authorisation */ '');

FILE_SCHEMA (('AUTOMOTIVE_DESIGN { 1 0 10303 214 3 1 1 }'));
ENDSEC;

DATA;
#10=MECHANICAL_DESIGN_GEOMETRIC_PRESENTATION_REPRESENTATION('',(#13),#2114);
#11=SHAPE_REPRESENTATION_RELATIONSHIP('SRR','None',#2121,#12);
#12=ADVANCED_BREP_SHAPE_REPRESENTATION('',(#14),#2113);
#13=STYLED_ITEM('',(#2131),#14);
#14=MANIFOLD_SOLID_BREP('Drum Shell Right',#1212);
#15=B_SPLINE_CURVE_WITH_KNOTS('',3,(#1900,#1901,#1902,#1903,#1904,#1905,
#1906,#1907),.UNSPECIFIED.,.F.,.F.,(4,2,2,4),(-1.43880726913492,-1.03245736919496,
-0.610119537053533,0.),.UNSPECIFIED.);
#16=B_SPLINE_CURVE_WITH_KNOTS('',3,(#1914,#1915,#1916,#1917,#1918,#1919,
#1920,#1921),.UNSPECIFIED.,.F.,.F.,(4,2,2,4),(-1.34592669420834,-0.991402397082626,
-0.626946736944314,0.),.UNSPECIFIED.);
#17=B_SPLINE_CURVE_WITH_KNOTS('',3,(#1949,#1950,#1951,#1952,#1953,#1954,
#1955,#1956),.UNSPECIFIED.,.F.,.F.,(4,2,2,4),(-1.60438077629146,-0.932795964476373,
-0.425574485065919,0.),.UNSPECIFIED.);
#18=B_SPLINE_CURVE_WITH_KNOTS('',3,(#1960,#1961,#1962,#1963,#1964,#1965,
#1966,#1967),.UNSPECIFIED.,.F.,.F.,(4,2,2,4),(-1.34169032383997,-0.881153418144687,
-0.417930574563413,0.),.UNSPECIFIED.);
#19=FACE_BOUND('',#131,.T.);
#20=FACE_BOUND('',#138,.T.);
#21=FACE_BOUND('',#139,.T.);
#22=FACE_BOUND('',#165,.T.);
#23=FACE_BOUND('',#178,.T.);
#24=FACE_BOUND('',#182,.T.);
#25=FACE_BOUND('',#191,.T.);
#26=FACE_BOUND('',#195,.T.);
#27=PLANE('',#1237);
#28=PLANE('',#1246);
#29=PLANE('',#1251);
#30=PLANE('',#1253);
#31=PLANE('',#1254);
#32=PLANE('',#1268);
#33=PLANE('',#1269);
#34=PLANE('',#1270);
#35=PLANE('',#1271);
#36=PLANE('',#1272);
#37=PLANE('',#1273);
#38=PLANE('',#1274);
#39=PLANE('',#1275);
#40=PLANE('',#1276);
#41=PLANE('',#1277);
#42=PLANE('',#1285);
#43=PLANE('',#1292);
#44=PLANE('',#1300);
#45=PLANE('',#1304);
#46=PLANE('',#1310);
#47=PLANE('',#1313);
#48=PLANE('',#1316);
#49=PLANE('',#1317);
#50=PLANE('',#1320);
#51=PLANE('',#1324);
#52=PLANE('',#1328);
#53=PLANE('',#1331);
#54=PLANE('',#1333);
#55=PLANE('',#1336);
#56=PLANE('',#1340);
#57=PLANE('',#1344);
#58=PLANE('',#1348);
#59=PLANE('',#1350);
#60=PLANE('',#1352);
#61=PLANE('',#1355);
#62=PLANE('',#1356);
#63=FACE_OUTER_BOUND('',#127,.T.);
#64=FACE_OUTER_BOUND('',#128,.T.);
#65=FACE_OUTER_BOUND('',#129,.T.);
#66=FACE_OUTER_BOUND('',#130,.T.);
#67=FACE_OUTER_BOUND('',#132,.T.);
#68=FACE_OUTER_BOUND('',#133,.T.);
#69=FACE_OUTER_BOUND('',#134,.T.);
#70=FACE_OUTER_BOUND('',#135,.T.);
#71=FACE_OUTER_BOUND('',#136,.T.);
#72=FACE_OUTER_BOUND('',#137,.T.);
#73=FACE_OUTER_BOUND('',#140,.T.);
#74=FACE_OUTER_BOUND('',#141,.T.);
#75=FACE_OUTER_BOUND('',#142,.T.);
#76=FACE_OUTER_BOUND('',#143,.T.);
#77=FACE_OUTER_BOUND('',#144,.T.);
#78=FACE_OUTER_BOUND('',#145,.T.);
#79=FACE_OUTER_BOUND('',#146,.T.);
#80=FACE_OUTER_BOUND('',#147,.T.);
#81=FACE_OUTER_BOUND('',#148,.T.);
#82=FACE_OUTER_BOUND('',#149,.T.);
#83=FACE_OUTER_BOUND('',#150,.T.);
#84=FACE_OUTER_BOUND('',#151,.T.);
#85=FACE_OUTER_BOUND('',#152,.T.);
#86=FACE_OUTER_BOUND('',#153,.T.);
#87=FACE_OUTER_BOUND('',#154,.T.);
#88=FACE_OUTER_BOUND('',#155,.T.);
#89=FACE_OUTER_BOUND('',#156,.T.);
#90=FACE_OUTER_BOUND('',#157,.T.);
#91=FACE_OUTER_BOUND('',#158,.T.);
#92=FACE_OUTER_BOUND('',#159,.T.);
#93=FACE_OUTER_BOUND('',#160,.T.);
#94=FACE_OUTER_BOUND('',#161,.T.);
#95=FACE_OUTER_BOUND('',#162,.T.);
#96=FACE_OUTER_BOUND('',#163,.T.);
#97=FACE_OUTER_BOUND('',#164,.T.);
#98=FACE_OUTER_BOUND('',#166,.T.);
#99=FACE_OUTER_BOUND('',#167,.T.);
#100=FACE_OUTER_BOUND('',#168,.T.);
#101=FACE_OUTER_BOUND('',#169,.T.);
#102=FACE_OUTER_BOUND('',#170,.T.);
#103=FACE_OUTER_BOUND('',#171,.T.);
#104=FACE_OUTER_BOUND('',#172,.T.);
#105=FACE_OUTER_BOUND('',#173,.T.);
#106=FACE_OUTER_BOUND('',#174,.T.);
#107=FACE_OUTER_BOUND('',#175,.T.);
#108=FACE_OUTER_BOUND('',#176,.T.);
#109=FACE_OUTER_BOUND('',#177,.T.);
#110=FACE_OUTER_BOUND('',#179,.T.);
#111=FACE_OUTER_BOUND('',#180,.T.);
#112=FACE_OUTER_BOUND('',#181,.T.);
#113=FACE_OUTER_BOUND('',#183,.T.);
#114=FACE_OUTER_BOUND('',#184,.T.);
#115=FACE_OUTER_BOUND('',#185,.T.);
#116=FACE_OUTER_BOUND('',#186,.T.);
#117=FACE_OUTER_BOUND('',#187,.T.);
#118=FACE_OUTER_BOUND('',#188,.T.);
#119=FACE_OUTER_BOUND('',#189,.T.);
#120=FACE_OUTER_BOUND('',#190,.T.);
#121=FACE_OUTER_BOUND('',#192,.T.);
#122=FACE_OUTER_BOUND('',#193,.T.);
#123=FACE_OUTER_BOUND('',#194,.T.);
#124=FACE_OUTER_BOUND('',#196,.T.);
#125=FACE_OUTER_BOUND('',#197,.T.);
#126=FACE_OUTER_BOUND('',#198,.T.);
#127=EDGE_LOOP('',(#768,#769,#770,#771));
#128=EDGE_LOOP('',(#772,#773,#774,#775,#776,#777,#778,#779));
#129=EDGE_LOOP('',(#780,#781,#782,#783));
#130=EDGE_LOOP('',(#784,#785,#786,#787,#788,#789,#790,#791,#792,#793,#794,
#795,#796,#797,#798,#799,#800,#801,#802,#803,#804,#805));
#131=EDGE_LOOP('',(#806));
#132=EDGE_LOOP('',(#807,#808,#809,#810,#811,#812,#813,#814));
#133=EDGE_LOOP('',(#815,#816,#817,#818));
#134=EDGE_LOOP('',(#819,#820,#821,#822));
#135=EDGE_LOOP('',(#823,#824,#825,#826));
#136=EDGE_LOOP('',(#827,#828,#829,#830));
#137=EDGE_LOOP('',(#831,#832,#833,#834,#835,#836,#837,#838,#839,#840,#841,
#842));
#138=EDGE_LOOP('',(#843));
#139=EDGE_LOOP('',(#844));
#140=EDGE_LOOP('',(#845,#846,#847,#848,#849,#850));
#141=EDGE_LOOP('',(#851,#852,#853,#854));
#142=EDGE_LOOP('',(#855,#856,#857,#858));
#143=EDGE_LOOP('',(#859,#860,#861,#862));
#144=EDGE_LOOP('',(#863,#864,#865,#866));
#145=EDGE_LOOP('',(#867,#868,#869,#870));
#146=EDGE_LOOP('',(#871,#872,#873,#874,#875,#876,#877,#878,#879,#880,#881,
#882));
#147=EDGE_LOOP('',(#883,#884,#885,#886));
#148=EDGE_LOOP('',(#887,#888,#889,#890));
#149=EDGE_LOOP('',(#891,#892,#893,#894));
#150=EDGE_LOOP('',(#895,#896,#897,#898));
#151=EDGE_LOOP('',(#899,#900,#901,#902));
#152=EDGE_LOOP('',(#903,#904,#905,#906,#907,#908,#909));
#153=EDGE_LOOP('',(#910,#911,#912,#913));
#154=EDGE_LOOP('',(#914,#915,#916,#917,#918));
#155=EDGE_LOOP('',(#919,#920,#921,#922,#923,#924,#925,#926));
#156=EDGE_LOOP('',(#927,#928,#929,#930));
#157=EDGE_LOOP('',(#931,#932,#933,#934));
#158=EDGE_LOOP('',(#935,#936,#937,#938,#939,#940,#941));
#159=EDGE_LOOP('',(#942,#943,#944,#945));
#160=EDGE_LOOP('',(#946,#947,#948,#949,#950));
#161=EDGE_LOOP('',(#951,#952,#953,#954));
#162=EDGE_LOOP('',(#955,#956,#957,#958));
#163=EDGE_LOOP('',(#959,#960,#961,#962));
#164=EDGE_LOOP('',(#963,#964,#965,#966));
#165=EDGE_LOOP('',(#967));
#166=EDGE_LOOP('',(#968,#969,#970,#971));
#167=EDGE_LOOP('',(#972,#973,#974,#975,#976,#977));
#168=EDGE_LOOP('',(#978,#979,#980,#981));
#169=EDGE_LOOP('',(#982,#983,#984,#985));
#170=EDGE_LOOP('',(#986,#987,#988,#989));
#171=EDGE_LOOP('',(#990,#991,#992,#993));
#172=EDGE_LOOP('',(#994,#995,#996,#997,#998,#999,#1000,#1001));
#173=EDGE_LOOP('',(#1002,#1003,#1004,#1005));
#174=EDGE_LOOP('',(#1006,#1007,#1008,#1009));
#175=EDGE_LOOP('',(#1010,#1011,#1012,#1013));
#176=EDGE_LOOP('',(#1014,#1015,#1016,#1017));
#177=EDGE_LOOP('',(#1018,#1019,#1020,#1021));
#178=EDGE_LOOP('',(#1022,#1023,#1024,#1025));
#179=EDGE_LOOP('',(#1026,#1027,#1028,#1029));
#180=EDGE_LOOP('',(#1030,#1031,#1032,#1033));
#181=EDGE_LOOP('',(#1034,#1035,#1036,#1037));
#182=EDGE_LOOP('',(#1038));
#183=EDGE_LOOP('',(#1039,#1040,#1041,#1042));
#184=EDGE_LOOP('',(#1043,#1044,#1045,#1046));
#185=EDGE_LOOP('',(#1047,#1048,#1049,#1050,#1051,#1052,#1053,#1054,#1055,
#1056,#1057,#1058,#1059,#1060,#1061,#1062,#1063,#1064,#1065,#1066,#1067,
#1068,#1069,#1070));
#186=EDGE_LOOP('',(#1071,#1072,#1073,#1074));
#187=EDGE_LOOP('',(#1075,#1076,#1077,#1078));
#188=EDGE_LOOP('',(#1079,#1080,#1081,#1082));
#189=EDGE_LOOP('',(#1083,#1084,#1085,#1086));
#190=EDGE_LOOP('',(#1087,#1088,#1089,#1090));
#191=EDGE_LOOP('',(#1091,#1092,#1093,#1094));
#192=EDGE_LOOP('',(#1095,#1096,#1097,#1098));
#193=EDGE_LOOP('',(#1099,#1100,#1101,#1102));
#194=EDGE_LOOP('',(#1103,#1104,#1105,#1106));
#195=EDGE_LOOP('',(#1107));
#196=EDGE_LOOP('',(#1108,#1109,#1110,#1111));
#197=EDGE_LOOP('',(#1112,#1113,#1114,#1115));
#198=EDGE_LOOP('',(#1116,#1117,#1118,#1119));
#199=LINE('',#1732,#304);
#200=LINE('',#1735,#305);
#201=LINE('',#1740,#306);
#202=LINE('',#1744,#307);
#203=LINE('',#1748,#308);
#204=LINE('',#1755,#309);
#205=LINE('',#1760,#310);
#206=LINE('',#1764,#311);
#207=LINE('',#1768,#312);
#208=LINE('',#1772,#313);
#209=LINE('',#1774,#314);
#210=LINE('',#1776,#315);
#211=LINE('',#1778,#316);
#212=LINE('',#1780,#317);
#213=LINE('',#1782,#318);
#214=LINE('',#1784,#319);
#215=LINE('',#1788,#320);
#216=LINE('',#1790,#321);
#217=LINE('',#1792,#322);
#218=LINE('',#1802,#323);
#219=LINE('',#1806,#324);
#220=LINE('',#1809,#325);
#221=LINE('',#1811,#326);
#222=LINE('',#1813,#327);
#223=LINE('',#1815,#328);
#224=LINE('',#1822,#329);
#225=LINE('',#1826,#330);
#226=LINE('',#1830,#331);
#227=LINE('',#1834,#332);
#228=LINE('',#1842,#333);
#229=LINE('',#1846,#334);
#230=LINE('',#1849,#335);
#231=LINE('',#1852,#336);
#232=LINE('',#1855,#337);
#233=LINE('',#1858,#338);
#234=LINE('',#1859,#339);
#235=LINE('',#1862,#340);
#236=LINE('',#1863,#341);
#237=LINE('',#1866,#342);
#238=LINE('',#1867,#343);
#239=LINE('',#1870,#344);
#240=LINE('',#1871,#345);
#241=LINE('',#1874,#346);
#242=LINE('',#1875,#347);
#243=LINE('',#1877,#348);
#244=LINE('',#1879,#349);
#245=LINE('',#1881,#350);
#246=LINE('',#1882,#351);
#247=LINE('',#1884,#352);
#248=LINE('',#1886,#353);
#249=LINE('',#1888,#354);
#250=LINE('',#1891,#355);
#251=LINE('',#1896,#356);
#252=LINE('',#1908,#357);
#253=LINE('',#1911,#358);
#254=LINE('',#1913,#359);
#255=LINE('',#1926,#360);
#256=LINE('',#1929,#361);
#257=LINE('',#1936,#362);
#258=LINE('',#1943,#363);
#259=LINE('',#1948,#364);
#260=LINE('',#1959,#365);
#261=LINE('',#1972,#366);
#262=LINE('',#1973,#367);
#263=LINE('',#1988,#368);
#264=LINE('',#1992,#369);
#265=LINE('',#1995,#370);
#266=LINE('',#1996,#371);
#267=LINE('',#1999,#372);
#268=LINE('',#2002,#373);
#269=LINE('',#2005,#374);
#270=LINE('',#2006,#375);
#271=LINE('',#2010,#376);
#272=LINE('',#2013,#377);
#273=LINE('',#2014,#378);
#274=LINE('',#2021,#379);
#275=LINE('',#2023,#380);
#276=LINE('',#2025,#381);
#277=LINE('',#2026,#382);
#278=LINE('',#2032,#383);
#279=LINE('',#2035,#384);
#280=LINE('',#2037,#385);
#281=LINE('',#2038,#386);
#282=LINE('',#2045,#387);
#283=LINE('',#2049,#388);
#284=LINE('',#2052,#389);
#285=LINE('',#2053,#390);
#286=LINE('',#2055,#391);
#287=LINE('',#2060,#392);
#288=LINE('',#2062,#393);
#289=LINE('',#2065,#394);
#290=LINE('',#2068,#395);
#291=LINE('',#2073,#396);
#292=LINE('',#2075,#397);
#293=LINE('',#2077,#398);
#294=LINE('',#2078,#399);
#295=LINE('',#2084,#400);
#296=LINE('',#2087,#401);
#297=LINE('',#2089,#402);
#298=LINE('',#2090,#403);
#299=LINE('',#2096,#404);
#300=LINE('',#2098,#405);
#301=LINE('',#2101,#406);
#302=LINE('',#2103,#407);
#303=LINE('',#2108,#408);
#304=VECTOR('',#1363,8.);
#305=VECTOR('',#1366,10.);
#306=VECTOR('',#1371,8.);
#307=VECTOR('',#1374,10.);
#308=VECTOR('',#1377,10.);
#309=VECTOR('',#1386,10.);
#310=VECTOR('',#1391,10.);
#311=VECTOR('',#1394,10.);
#312=VECTOR('',#1397,10.);
#313=VECTOR('',#1400,10.);
#314=VECTOR('',#1401,10.);
#315=VECTOR('',#1402,10.);
#316=VECTOR('',#1403,10.);
#317=VECTOR('',#1404,10.);
#318=VECTOR('',#1405,10.);
#319=VECTOR('',#1406,10.);
#320=VECTOR('',#1409,10.);
#321=VECTOR('',#1410,10.);
#322=VECTOR('',#1411,10.);
#323=VECTOR('',#1422,10.);
#324=VECTOR('',#1425,10.);
#325=VECTOR('',#1430,10.);
#326=VECTOR('',#1433,10.);
#327=VECTOR('',#1436,10.);
#328=VECTOR('',#1439,10.);
#329=VECTOR('',#1446,10.);
#330=VECTOR('',#1449,10.);
#331=VECTOR('',#1452,10.);
#332=VECTOR('',#1455,10.);
#333=VECTOR('',#1464,10.);
#334=VECTOR('',#1467,10.);
#335=VECTOR('',#1470,10.);
#336=VECTOR('',#1473,10.);
#337=VECTOR('',#1476,10.);
#338=VECTOR('',#1479,10.);
#339=VECTOR('',#1480,10.);
#340=VECTOR('',#1483,10.);
#341=VECTOR('',#1484,10.);
#342=VECTOR('',#1487,10.);
#343=VECTOR('',#1488,10.);
#344=VECTOR('',#1491,10.);
#345=VECTOR('',#1492,10.);
#346=VECTOR('',#1495,10.);
#347=VECTOR('',#1496,10.);
#348=VECTOR('',#1497,10.);
#349=VECTOR('',#1498,10.);
#350=VECTOR('',#1499,10.);
#351=VECTOR('',#1500,10.);
#352=VECTOR('',#1503,10.);
#353=VECTOR('',#1506,10.);
#354=VECTOR('',#1509,10.);
#355=VECTOR('',#1514,10.);
#356=VECTOR('',#1519,15.);
#357=VECTOR('',#1522,10.);
#358=VECTOR('',#1525,10.);
#359=VECTOR('',#1526,15.);
#360=VECTOR('',#1531,10.);
#361=VECTOR('',#1534,15.);
#362=VECTOR('',#1541,15.);
#363=VECTOR('',#1550,15.);
#364=VECTOR('',#1557,10.);
#365=VECTOR('',#1560,10.);
#366=VECTOR('',#1565,15.);
#367=VECTOR('',#1566,10.);
#368=VECTOR('',#1587,10.);
#369=VECTOR('',#1592,1.25);
#370=VECTOR('',#1595,10.);
#371=VECTOR('',#1596,10.);
#372=VECTOR('',#1599,10.);
#373=VECTOR('',#1602,10.);
#374=VECTOR('',#1605,10.);
#375=VECTOR('',#1606,10.);
#376=VECTOR('',#1611,10.);
#377=VECTOR('',#1614,10.);
#378=VECTOR('',#1615,10.);
#379=VECTOR('',#1624,10.);
#380=VECTOR('',#1625,10.);
#381=VECTOR('',#1626,10.);
#382=VECTOR('',#1627,10.);
#383=VECTOR('',#1634,10.);
#384=VECTOR('',#1637,10.);
#385=VECTOR('',#1638,10.);
#386=VECTOR('',#1639,10.);
#387=VECTOR('',#1648,10.);
#388=VECTOR('',#1651,10.);
#389=VECTOR('',#1656,10.);
#390=VECTOR('',#1657,10.);
#391=VECTOR('',#1660,10.);
#392=VECTOR('',#1667,1.25);
#393=VECTOR('',#1670,10.);
#394=VECTOR('',#1673,10.);
#395=VECTOR('',#1676,10.);
#396=VECTOR('',#1681,10.);
#397=VECTOR('',#1682,10.);
#398=VECTOR('',#1683,10.);
#399=VECTOR('',#1684,10.);
#400=VECTOR('',#1691,10.);
#401=VECTOR('',#1694,10.);
#402=VECTOR('',#1695,10.);
#403=VECTOR('',#1696,10.);
#404=VECTOR('',#1705,10.);
#405=VECTOR('',#1706,10.);
#406=VECTOR('',#1711,10.);
#407=VECTOR('',#1714,10.);
#408=VECTOR('',#1721,1.24999999999999);
#409=CIRCLE('',#1227,8.00000000000001);
#410=CIRCLE('',#1228,8.00000000000001);
#411=CIRCLE('',#1230,78.5000011697412);
#412=CIRCLE('',#1231,78.5000011697412);
#413=CIRCLE('',#1232,78.5000011697412);
#414=CIRCLE('',#1233,78.5000011697412);
#415=CIRCLE('',#1235,8.00000000000001);
#416=CIRCLE('',#1236,8.00000000000001);
#417=CIRCLE('',#1238,82.0000012218952);
#418=CIRCLE('',#1239,82.099998164922);
#419=CIRCLE('',#1240,82.0000012218952);
#420=CIRCLE('',#1241,89.0000013262033);
#421=CIRCLE('',#1242,89.0000013262033);
#422=CIRCLE('',#1243,82.0000012218952);
#423=CIRCLE('',#1244,15.);
#424=CIRCLE('',#1245,1.25);
#425=CIRCLE('',#1247,82.0000012218952);
#426=CIRCLE('',#1248,82.099998164922);
#427=CIRCLE('',#1249,82.0000012218952);
#428=CIRCLE('',#1255,15.);
#429=CIRCLE('',#1256,82.0000012218952);
#430=CIRCLE('',#1257,89.);
#431=CIRCLE('',#1258,82.0000012218952);
#432=CIRCLE('',#1259,89.);
#433=CIRCLE('',#1260,82.0000012218952);
#434=CIRCLE('',#1261,1.25);
#435=CIRCLE('',#1262,1.24999999999999);
#436=CIRCLE('',#1264,89.);
#437=CIRCLE('',#1265,89.0000013262033);
#438=CIRCLE('',#1267,89.0000013262033);
#439=CIRCLE('',#1279,15.);
#440=CIRCLE('',#1280,15.);
#441=CIRCLE('',#1283,15.);
#442=CIRCLE('',#1284,15.);
#443=CIRCLE('',#1286,74.125);
#444=CIRCLE('',#1287,15.);
#445=CIRCLE('',#1288,15.);
#446=CIRCLE('',#1289,69.75);
#447=CIRCLE('',#1291,74.125);
#448=CIRCLE('',#1293,15.);
#449=CIRCLE('',#1297,15.);
#450=CIRCLE('',#1299,69.75);
#451=CIRCLE('',#1301,65.0000009685755);
#452=CIRCLE('',#1303,65.0000009685755);
#453=CIRCLE('',#1305,2.99999997019775);
#454=CIRCLE('',#1306,82.0000012218952);
#455=CIRCLE('',#1307,2.99999997019775);
#456=CIRCLE('',#1308,1.25);
#457=CIRCLE('',#1312,2.99999997019775);
#458=CIRCLE('',#1315,2.99999997019775);
#459=CIRCLE('',#1318,82.0000012218952);
#460=CIRCLE('',#1319,82.0000012218952);
#461=CIRCLE('',#1322,3.00000004470348);
#462=CIRCLE('',#1323,3.00000004470348);
#463=CIRCLE('',#1326,3.00000004470348);
#464=CIRCLE('',#1327,3.00000004470348);
#465=CIRCLE('',#1329,89.);
#466=CIRCLE('',#1330,82.0000012218952);
#467=CIRCLE('',#1334,1.25);
#468=CIRCLE('',#1338,82.0000012218952);
#469=CIRCLE('',#1339,82.0000012218952);
#470=CIRCLE('',#1342,3.);
#471=CIRCLE('',#1343,3.);
#472=CIRCLE('',#1346,3.);
#473=CIRCLE('',#1347,3.);
#474=CIRCLE('',#1349,89.);
#475=CIRCLE('',#1353,1.24999999999999);
#476=VERTEX_POINT('',#1728);
#477=VERTEX_POINT('',#1729);
#478=VERTEX_POINT('',#1731);
#479=VERTEX_POINT('',#1733);
#480=VERTEX_POINT('',#1737);
#481=VERTEX_POINT('',#1739);
#482=VERTEX_POINT('',#1741);
#483=VERTEX_POINT('',#1743);
#484=VERTEX_POINT('',#1745);
#485=VERTEX_POINT('',#1747);
#486=VERTEX_POINT('',#1751);
#487=VERTEX_POINT('',#1753);
#488=VERTEX_POINT('',#1757);
#489=VERTEX_POINT('',#1759);
#490=VERTEX_POINT('',#1761);
#491=VERTEX_POINT('',#1763);
#492=VERTEX_POINT('',#1765);
#493=VERTEX_POINT('',#1767);
#494=VERTEX_POINT('',#1769);
#495=VERTEX_POINT('',#1771);
#496=VERTEX_POINT('',#1773);
#497=VERTEX_POINT('',#1775);
#498=VERTEX_POINT('',#1777);
#499=VERTEX_POINT('',#1779);
#500=VERTEX_POINT('',#1781);
#501=VERTEX_POINT('',#1783);
#502=VERTEX_POINT('',#1785);
#503=VERTEX_POINT('',#1787);
#504=VERTEX_POINT('',#1789);
#505=VERTEX_POINT('',#1791);
#506=VERTEX_POINT('',#1793);
#507=VERTEX_POINT('',#1796);
#508=VERTEX_POINT('',#1799);
#509=VERTEX_POINT('',#1801);
#510=VERTEX_POINT('',#1803);
#511=VERTEX_POINT('',#1805);
#512=VERTEX_POINT('',#1817);
#513=VERTEX_POINT('',#1819);
#514=VERTEX_POINT('',#1821);
#515=VERTEX_POINT('',#1823);
#516=VERTEX_POINT('',#1825);
#517=VERTEX_POINT('',#1827);
#518=VERTEX_POINT('',#1829);
#519=VERTEX_POINT('',#1831);
#520=VERTEX_POINT('',#1833);
#521=VERTEX_POINT('',#1836);
#522=VERTEX_POINT('',#1838);
#523=VERTEX_POINT('',#1841);
#524=VERTEX_POINT('',#1843);
#525=VERTEX_POINT('',#1845);
#526=VERTEX_POINT('',#1847);
#527=VERTEX_POINT('',#1851);
#528=VERTEX_POINT('',#1853);
#529=VERTEX_POINT('',#1857);
#530=VERTEX_POINT('',#1861);
#531=VERTEX_POINT('',#1865);
#532=VERTEX_POINT('',#1869);
#533=VERTEX_POINT('',#1873);
#534=VERTEX_POINT('',#1876);
#535=VERTEX_POINT('',#1878);
#536=VERTEX_POINT('',#1880);
#537=VERTEX_POINT('',#1893);
#538=VERTEX_POINT('',#1895);
#539=VERTEX_POINT('',#1897);
#540=VERTEX_POINT('',#1899);
#541=VERTEX_POINT('',#1910);
#542=VERTEX_POINT('',#1912);
#543=VERTEX_POINT('',#1923);
#544=VERTEX_POINT('',#1924);
#545=VERTEX_POINT('',#1927);
#546=VERTEX_POINT('',#1931);
#547=VERTEX_POINT('',#1933);
#548=VERTEX_POINT('',#1935);
#549=VERTEX_POINT('',#1937);
#550=VERTEX_POINT('',#1941);
#551=VERTEX_POINT('',#1947);
#552=VERTEX_POINT('',#1958);
#553=VERTEX_POINT('',#1969);
#554=VERTEX_POINT('',#1970);
#555=VERTEX_POINT('',#1981);
#556=VERTEX_POINT('',#1982);
#557=VERTEX_POINT('',#1984);
#558=VERTEX_POINT('',#1986);
#559=VERTEX_POINT('',#1989);
#560=VERTEX_POINT('',#1994);
#561=VERTEX_POINT('',#1998);
#562=VERTEX_POINT('',#2000);
#563=VERTEX_POINT('',#2004);
#564=VERTEX_POINT('',#2008);
#565=VERTEX_POINT('',#2012);
#566=VERTEX_POINT('',#2019);
#567=VERTEX_POINT('',#2020);
#568=VERTEX_POINT('',#2022);
#569=VERTEX_POINT('',#2024);
#570=VERTEX_POINT('',#2028);
#571=VERTEX_POINT('',#2030);
#572=VERTEX_POINT('',#2034);
#573=VERTEX_POINT('',#2036);
#574=VERTEX_POINT('',#2043);
#575=VERTEX_POINT('',#2044);
#576=VERTEX_POINT('',#2046);
#577=VERTEX_POINT('',#2048);
#578=VERTEX_POINT('',#2057);
#579=VERTEX_POINT('',#2064);
#580=VERTEX_POINT('',#2066);
#581=VERTEX_POINT('',#2071);
#582=VERTEX_POINT('',#2072);
#583=VERTEX_POINT('',#2074);
#584=VERTEX_POINT('',#2076);
#585=VERTEX_POINT('',#2080);
#586=VERTEX_POINT('',#2082);
#587=VERTEX_POINT('',#2086);
#588=VERTEX_POINT('',#2088);
#589=VERTEX_POINT('',#2095);
#590=VERTEX_POINT('',#2097);
#591=VERTEX_POINT('',#2105);
#592=EDGE_CURVE('',#476,#477,#409,.T.);
#593=EDGE_CURVE('',#476,#478,#199,.T.);
#594=EDGE_CURVE('',#478,#479,#410,.T.);
#595=EDGE_CURVE('',#477,#479,#200,.T.);
#596=EDGE_CURVE('',#476,#480,#411,.T.);
#597=EDGE_CURVE('',#481,#480,#201,.T.);
#598=EDGE_CURVE('',#481,#482,#412,.T.);
#599=EDGE_CURVE('',#483,#482,#202,.T.);
#600=EDGE_CURVE('',#484,#483,#413,.T.);
#601=EDGE_CURVE('',#485,#484,#203,.T.);
#602=EDGE_CURVE('',#485,#478,#414,.T.);
#603=EDGE_CURVE('',#486,#481,#415,.T.);
#604=EDGE_CURVE('',#480,#487,#416,.F.);
#605=EDGE_CURVE('',#486,#487,#204,.T.);
#606=EDGE_CURVE('',#486,#488,#417,.T.);
#607=EDGE_CURVE('',#488,#489,#205,.T.);
#608=EDGE_CURVE('',#489,#490,#418,.T.);
#609=EDGE_CURVE('',#490,#491,#206,.T.);
#610=EDGE_CURVE('',#492,#491,#419,.T.);
#611=EDGE_CURVE('',#493,#492,#207,.T.);
#612=EDGE_CURVE('',#494,#493,#420,.T.);
#613=EDGE_CURVE('',#495,#494,#208,.T.);
#614=EDGE_CURVE('',#496,#495,#209,.T.);
#615=EDGE_CURVE('',#497,#496,#210,.T.);
#616=EDGE_CURVE('',#498,#497,#211,.T.);
#617=EDGE_CURVE('',#499,#498,#212,.T.);
#618=EDGE_CURVE('',#500,#499,#213,.T.);
#619=EDGE_CURVE('',#501,#500,#214,.T.);
#620=EDGE_CURVE('',#502,#501,#421,.T.);
#621=EDGE_CURVE('',#503,#502,#215,.T.);
#622=EDGE_CURVE('',#504,#503,#216,.T.);
#623=EDGE_CURVE('',#505,#504,#217,.T.);
#624=EDGE_CURVE('',#506,#505,#422,.T.);
#625=EDGE_CURVE('',#506,#482,#423,.T.);
#626=EDGE_CURVE('',#507,#507,#424,.T.);
#627=EDGE_CURVE('',#508,#477,#425,.T.);
#628=EDGE_CURVE('',#509,#508,#218,.T.);
#629=EDGE_CURVE('',#510,#509,#426,.T.);
#630=EDGE_CURVE('',#511,#510,#219,.T.);
#631=EDGE_CURVE('',#487,#511,#427,.T.);
#632=EDGE_CURVE('',#511,#488,#220,.T.);
#633=EDGE_CURVE('',#489,#510,#221,.T.);
#634=EDGE_CURVE('',#490,#509,#222,.T.);
#635=EDGE_CURVE('',#491,#508,#223,.T.);
#636=EDGE_CURVE('',#512,#485,#428,.T.);
#637=EDGE_CURVE('',#513,#512,#429,.T.);
#638=EDGE_CURVE('',#514,#513,#224,.T.);
#639=EDGE_CURVE('',#515,#514,#430,.T.);
#640=EDGE_CURVE('',#516,#515,#225,.T.);
#641=EDGE_CURVE('',#517,#516,#431,.T.);
#642=EDGE_CURVE('',#518,#517,#226,.T.);
#643=EDGE_CURVE('',#519,#518,#432,.T.);
#644=EDGE_CURVE('',#520,#519,#227,.T.);
#645=EDGE_CURVE('',#479,#520,#433,.T.);
#646=EDGE_CURVE('',#521,#521,#434,.T.);
#647=EDGE_CURVE('',#522,#522,#435,.T.);
#648=EDGE_CURVE('',#493,#523,#228,.T.);
#649=EDGE_CURVE('',#524,#523,#436,.T.);
#650=EDGE_CURVE('',#525,#524,#229,.T.);
#651=EDGE_CURVE('',#526,#525,#437,.T.);
#652=EDGE_CURVE('',#526,#494,#230,.T.);
#653=EDGE_CURVE('',#527,#501,#231,.T.);
#654=EDGE_CURVE('',#528,#527,#438,.T.);
#655=EDGE_CURVE('',#528,#502,#232,.T.);
#656=EDGE_CURVE('',#529,#500,#233,.T.);
#657=EDGE_CURVE('',#527,#529,#234,.T.);
#658=EDGE_CURVE('',#530,#503,#235,.T.);
#659=EDGE_CURVE('',#530,#528,#236,.T.);
#660=EDGE_CURVE('',#531,#526,#237,.T.);
#661=EDGE_CURVE('',#495,#531,#238,.T.);
#662=EDGE_CURVE('',#532,#531,#239,.T.);
#663=EDGE_CURVE('',#532,#496,#240,.T.);
#664=EDGE_CURVE('',#525,#533,#241,.T.);
#665=EDGE_CURVE('',#533,#530,#242,.T.);
#666=EDGE_CURVE('',#529,#534,#243,.T.);
#667=EDGE_CURVE('',#534,#535,#244,.T.);
#668=EDGE_CURVE('',#535,#536,#245,.T.);
#669=EDGE_CURVE('',#536,#532,#246,.T.);
#670=EDGE_CURVE('',#534,#499,#247,.T.);
#671=EDGE_CURVE('',#535,#498,#248,.T.);
#672=EDGE_CURVE('',#536,#497,#249,.T.);
#673=EDGE_CURVE('',#533,#504,#250,.T.);
#674=EDGE_CURVE('',#484,#537,#439,.T.);
#675=EDGE_CURVE('',#537,#538,#251,.T.);
#676=EDGE_CURVE('',#538,#539,#440,.T.);
#677=EDGE_CURVE('',#539,#540,#15,.T.);
#678=EDGE_CURVE('',#512,#540,#252,.T.);
#679=EDGE_CURVE('',#540,#541,#253,.T.);
#680=EDGE_CURVE('',#542,#539,#254,.T.);
#681=EDGE_CURVE('',#542,#541,#16,.T.);
#682=EDGE_CURVE('',#543,#544,#441,.T.);
#683=EDGE_CURVE('',#541,#544,#255,.T.);
#684=EDGE_CURVE('',#542,#545,#442,.T.);
#685=EDGE_CURVE('',#545,#543,#256,.T.);
#686=EDGE_CURVE('',#538,#546,#443,.T.);
#687=EDGE_CURVE('',#547,#546,#444,.T.);
#688=EDGE_CURVE('',#548,#547,#257,.T.);
#689=EDGE_CURVE('',#549,#548,#445,.T.);
#690=EDGE_CURVE('',#549,#545,#446,.T.);
#691=EDGE_CURVE('',#550,#537,#447,.T.);
#692=EDGE_CURVE('',#546,#550,#258,.T.);
#693=EDGE_CURVE('',#550,#483,#448,.T.);
#694=EDGE_CURVE('',#506,#551,#259,.T.);
#695=EDGE_CURVE('',#551,#547,#17,.T.);
#696=EDGE_CURVE('',#551,#552,#260,.T.);
#697=EDGE_CURVE('',#552,#548,#18,.T.);
#698=EDGE_CURVE('',#553,#554,#449,.T.);
#699=EDGE_CURVE('',#554,#549,#261,.T.);
#700=EDGE_CURVE('',#552,#553,#262,.T.);
#701=EDGE_CURVE('',#543,#554,#450,.T.);
#702=EDGE_CURVE('',#553,#544,#451,.T.);
#703=EDGE_CURVE('',#552,#541,#452,.T.);
#704=EDGE_CURVE('',#555,#556,#453,.T.);
#705=EDGE_CURVE('',#557,#556,#454,.T.);
#706=EDGE_CURVE('',#557,#558,#455,.T.);
#707=EDGE_CURVE('',#558,#555,#263,.T.);
#708=EDGE_CURVE('',#559,#559,#456,.T.);
#709=EDGE_CURVE('',#507,#559,#264,.T.);
#710=EDGE_CURVE('',#560,#524,#265,.T.);
#711=EDGE_CURVE('',#505,#560,#266,.T.);
#712=EDGE_CURVE('',#561,#557,#267,.T.);
#713=EDGE_CURVE('',#562,#561,#457,.T.);
#714=EDGE_CURVE('',#558,#562,#268,.T.);
#715=EDGE_CURVE('',#563,#562,#269,.T.);
#716=EDGE_CURVE('',#555,#563,#270,.T.);
#717=EDGE_CURVE('',#564,#563,#458,.T.);
#718=EDGE_CURVE('',#556,#564,#271,.T.);
#719=EDGE_CURVE('',#565,#492,#272,.T.);
#720=EDGE_CURVE('',#523,#565,#273,.T.);
#721=EDGE_CURVE('',#564,#565,#459,.T.);
#722=EDGE_CURVE('',#560,#561,#460,.T.);
#723=EDGE_CURVE('',#566,#567,#274,.T.);
#724=EDGE_CURVE('',#566,#568,#275,.T.);
#725=EDGE_CURVE('',#569,#568,#276,.T.);
#726=EDGE_CURVE('',#567,#569,#277,.T.);
#727=EDGE_CURVE('',#567,#570,#461,.T.);
#728=EDGE_CURVE('',#571,#569,#462,.T.);
#729=EDGE_CURVE('',#570,#571,#278,.T.);
#730=EDGE_CURVE('',#570,#572,#279,.T.);
#731=EDGE_CURVE('',#573,#571,#280,.T.);
#732=EDGE_CURVE('',#572,#573,#281,.T.);
#733=EDGE_CURVE('',#572,#566,#463,.T.);
#734=EDGE_CURVE('',#568,#573,#464,.T.);
#735=EDGE_CURVE('',#574,#575,#282,.T.);
#736=EDGE_CURVE('',#575,#576,#465,.T.);
#737=EDGE_CURVE('',#576,#577,#283,.T.);
#738=EDGE_CURVE('',#574,#577,#466,.T.);
#739=EDGE_CURVE('',#575,#519,#284,.T.);
#740=EDGE_CURVE('',#520,#574,#285,.T.);
#741=EDGE_CURVE('',#518,#576,#286,.T.);
#742=EDGE_CURVE('',#578,#578,#467,.T.);
#743=EDGE_CURVE('',#521,#578,#287,.T.);
#744=EDGE_CURVE('',#577,#517,#288,.T.);
#745=EDGE_CURVE('',#516,#579,#289,.T.);
#746=EDGE_CURVE('',#579,#580,#468,.T.);
#747=EDGE_CURVE('',#580,#513,#290,.T.);
#748=EDGE_CURVE('',#551,#540,#469,.T.);
#749=EDGE_CURVE('',#581,#582,#291,.T.);
#750=EDGE_CURVE('',#581,#583,#292,.T.);
#751=EDGE_CURVE('',#584,#583,#293,.T.);
#752=EDGE_CURVE('',#582,#584,#294,.T.);
#753=EDGE_CURVE('',#582,#585,#470,.T.);
#754=EDGE_CURVE('',#586,#584,#471,.T.);
#755=EDGE_CURVE('',#585,#586,#295,.T.);
#756=EDGE_CURVE('',#585,#587,#296,.T.);
#757=EDGE_CURVE('',#588,#586,#297,.T.);
#758=EDGE_CURVE('',#587,#588,#298,.T.);
#759=EDGE_CURVE('',#587,#581,#472,.T.);
#760=EDGE_CURVE('',#583,#588,#473,.T.);
#761=EDGE_CURVE('',#589,#580,#299,.T.);
#762=EDGE_CURVE('',#579,#590,#300,.T.);
#763=EDGE_CURVE('',#590,#589,#474,.T.);
#764=EDGE_CURVE('',#590,#515,#301,.T.);
#765=EDGE_CURVE('',#514,#589,#302,.T.);
#766=EDGE_CURVE('',#591,#591,#475,.T.);
#767=EDGE_CURVE('',#522,#591,#303,.T.);
#768=ORIENTED_EDGE('',*,*,#592,.F.);
#769=ORIENTED_EDGE('',*,*,#593,.T.);
#770=ORIENTED_EDGE('',*,*,#594,.T.);
#771=ORIENTED_EDGE('',*,*,#595,.F.);
#772=ORIENTED_EDGE('',*,*,#593,.F.);
#773=ORIENTED_EDGE('',*,*,#596,.T.);
#774=ORIENTED_EDGE('',*,*,#597,.F.);
#775=ORIENTED_EDGE('',*,*,#598,.T.);
#776=ORIENTED_EDGE('',*,*,#599,.F.);
#777=ORIENTED_EDGE('',*,*,#600,.F.);
#778=ORIENTED_EDGE('',*,*,#601,.F.);
#779=ORIENTED_EDGE('',*,*,#602,.T.);
#780=ORIENTED_EDGE('',*,*,#603,.T.);
#781=ORIENTED_EDGE('',*,*,#597,.T.);
#782=ORIENTED_EDGE('',*,*,#604,.T.);
#783=ORIENTED_EDGE('',*,*,#605,.F.);
#784=ORIENTED_EDGE('',*,*,#603,.F.);
#785=ORIENTED_EDGE('',*,*,#606,.T.);
#786=ORIENTED_EDGE('',*,*,#607,.T.);
#787=ORIENTED_EDGE('',*,*,#608,.T.);
#788=ORIENTED_EDGE('',*,*,#609,.T.);
#789=ORIENTED_EDGE('',*,*,#610,.F.);
#790=ORIENTED_EDGE('',*,*,#611,.F.);
#791=ORIENTED_EDGE('',*,*,#612,.F.);
#792=ORIENTED_EDGE('',*,*,#613,.F.);
#793=ORIENTED_EDGE('',*,*,#614,.F.);
#794=ORIENTED_EDGE('',*,*,#615,.F.);
#795=ORIENTED_EDGE('',*,*,#616,.F.);
#796=ORIENTED_EDGE('',*,*,#617,.F.);
#797=ORIENTED_EDGE('',*,*,#618,.F.);
#798=ORIENTED_EDGE('',*,*,#619,.F.);
#799=ORIENTED_EDGE('',*,*,#620,.F.);
#800=ORIENTED_EDGE('',*,*,#621,.F.);
#801=ORIENTED_EDGE('',*,*,#622,.F.);
#802=ORIENTED_EDGE('',*,*,#623,.F.);
#803=ORIENTED_EDGE('',*,*,#624,.F.);
#804=ORIENTED_EDGE('',*,*,#625,.T.);
#805=ORIENTED_EDGE('',*,*,#598,.F.);
#806=ORIENTED_EDGE('',*,*,#626,.F.);
#807=ORIENTED_EDGE('',*,*,#596,.F.);
#808=ORIENTED_EDGE('',*,*,#592,.T.);
#809=ORIENTED_EDGE('',*,*,#627,.F.);
#810=ORIENTED_EDGE('',*,*,#628,.F.);
#811=ORIENTED_EDGE('',*,*,#629,.F.);
#812=ORIENTED_EDGE('',*,*,#630,.F.);
#813=ORIENTED_EDGE('',*,*,#631,.F.);
#814=ORIENTED_EDGE('',*,*,#604,.F.);
#815=ORIENTED_EDGE('',*,*,#606,.F.);
#816=ORIENTED_EDGE('',*,*,#605,.T.);
#817=ORIENTED_EDGE('',*,*,#631,.T.);
#818=ORIENTED_EDGE('',*,*,#632,.T.);
#819=ORIENTED_EDGE('',*,*,#607,.F.);
#820=ORIENTED_EDGE('',*,*,#632,.F.);
#821=ORIENTED_EDGE('',*,*,#630,.T.);
#822=ORIENTED_EDGE('',*,*,#633,.F.);
#823=ORIENTED_EDGE('',*,*,#608,.F.);
#824=ORIENTED_EDGE('',*,*,#633,.T.);
#825=ORIENTED_EDGE('',*,*,#629,.T.);
#826=ORIENTED_EDGE('',*,*,#634,.F.);
#827=ORIENTED_EDGE('',*,*,#635,.F.);
#828=ORIENTED_EDGE('',*,*,#609,.F.);
#829=ORIENTED_EDGE('',*,*,#634,.T.);
#830=ORIENTED_EDGE('',*,*,#628,.T.);
#831=ORIENTED_EDGE('',*,*,#594,.F.);
#832=ORIENTED_EDGE('',*,*,#602,.F.);
#833=ORIENTED_EDGE('',*,*,#636,.F.);
#834=ORIENTED_EDGE('',*,*,#637,.F.);
#835=ORIENTED_EDGE('',*,*,#638,.F.);
#836=ORIENTED_EDGE('',*,*,#639,.F.);
#837=ORIENTED_EDGE('',*,*,#640,.F.);
#838=ORIENTED_EDGE('',*,*,#641,.F.);
#839=ORIENTED_EDGE('',*,*,#642,.F.);
#840=ORIENTED_EDGE('',*,*,#643,.F.);
#841=ORIENTED_EDGE('',*,*,#644,.F.);
#842=ORIENTED_EDGE('',*,*,#645,.F.);
#843=ORIENTED_EDGE('',*,*,#646,.F.);
#844=ORIENTED_EDGE('',*,*,#647,.F.);
#845=ORIENTED_EDGE('',*,*,#648,.T.);
#846=ORIENTED_EDGE('',*,*,#649,.F.);
#847=ORIENTED_EDGE('',*,*,#650,.F.);
#848=ORIENTED_EDGE('',*,*,#651,.F.);
#849=ORIENTED_EDGE('',*,*,#652,.T.);
#850=ORIENTED_EDGE('',*,*,#612,.T.);
#851=ORIENTED_EDGE('',*,*,#620,.T.);
#852=ORIENTED_EDGE('',*,*,#653,.F.);
#853=ORIENTED_EDGE('',*,*,#654,.F.);
#854=ORIENTED_EDGE('',*,*,#655,.T.);
#855=ORIENTED_EDGE('',*,*,#619,.T.);
#856=ORIENTED_EDGE('',*,*,#656,.F.);
#857=ORIENTED_EDGE('',*,*,#657,.F.);
#858=ORIENTED_EDGE('',*,*,#653,.T.);
#859=ORIENTED_EDGE('',*,*,#658,.T.);
#860=ORIENTED_EDGE('',*,*,#621,.T.);
#861=ORIENTED_EDGE('',*,*,#655,.F.);
#862=ORIENTED_EDGE('',*,*,#659,.F.);
#863=ORIENTED_EDGE('',*,*,#613,.T.);
#864=ORIENTED_EDGE('',*,*,#652,.F.);
#865=ORIENTED_EDGE('',*,*,#660,.F.);
#866=ORIENTED_EDGE('',*,*,#661,.F.);
#867=ORIENTED_EDGE('',*,*,#661,.T.);
#868=ORIENTED_EDGE('',*,*,#662,.F.);
#869=ORIENTED_EDGE('',*,*,#663,.T.);
#870=ORIENTED_EDGE('',*,*,#614,.T.);
#871=ORIENTED_EDGE('',*,*,#660,.T.);
#872=ORIENTED_EDGE('',*,*,#651,.T.);
#873=ORIENTED_EDGE('',*,*,#664,.T.);
#874=ORIENTED_EDGE('',*,*,#665,.T.);
#875=ORIENTED_EDGE('',*,*,#659,.T.);
#876=ORIENTED_EDGE('',*,*,#654,.T.);
#877=ORIENTED_EDGE('',*,*,#657,.T.);
#878=ORIENTED_EDGE('',*,*,#666,.T.);
#879=ORIENTED_EDGE('',*,*,#667,.T.);
#880=ORIENTED_EDGE('',*,*,#668,.T.);
#881=ORIENTED_EDGE('',*,*,#669,.T.);
#882=ORIENTED_EDGE('',*,*,#662,.T.);
#883=ORIENTED_EDGE('',*,*,#656,.T.);
#884=ORIENTED_EDGE('',*,*,#618,.T.);
#885=ORIENTED_EDGE('',*,*,#670,.F.);
#886=ORIENTED_EDGE('',*,*,#666,.F.);
#887=ORIENTED_EDGE('',*,*,#617,.T.);
#888=ORIENTED_EDGE('',*,*,#671,.F.);
#889=ORIENTED_EDGE('',*,*,#667,.F.);
#890=ORIENTED_EDGE('',*,*,#670,.T.);
#891=ORIENTED_EDGE('',*,*,#616,.T.);
#892=ORIENTED_EDGE('',*,*,#672,.F.);
#893=ORIENTED_EDGE('',*,*,#668,.F.);
#894=ORIENTED_EDGE('',*,*,#671,.T.);
#895=ORIENTED_EDGE('',*,*,#615,.T.);
#896=ORIENTED_EDGE('',*,*,#663,.F.);
#897=ORIENTED_EDGE('',*,*,#669,.F.);
#898=ORIENTED_EDGE('',*,*,#672,.T.);
#899=ORIENTED_EDGE('',*,*,#673,.T.);
#900=ORIENTED_EDGE('',*,*,#622,.T.);
#901=ORIENTED_EDGE('',*,*,#658,.F.);
#902=ORIENTED_EDGE('',*,*,#665,.F.);
#903=ORIENTED_EDGE('',*,*,#674,.T.);
#904=ORIENTED_EDGE('',*,*,#675,.T.);
#905=ORIENTED_EDGE('',*,*,#676,.T.);
#906=ORIENTED_EDGE('',*,*,#677,.T.);
#907=ORIENTED_EDGE('',*,*,#678,.F.);
#908=ORIENTED_EDGE('',*,*,#636,.T.);
#909=ORIENTED_EDGE('',*,*,#601,.T.);
#910=ORIENTED_EDGE('',*,*,#679,.F.);
#911=ORIENTED_EDGE('',*,*,#677,.F.);
#912=ORIENTED_EDGE('',*,*,#680,.F.);
#913=ORIENTED_EDGE('',*,*,#681,.T.);
#914=ORIENTED_EDGE('',*,*,#682,.T.);
#915=ORIENTED_EDGE('',*,*,#683,.F.);
#916=ORIENTED_EDGE('',*,*,#681,.F.);
#917=ORIENTED_EDGE('',*,*,#684,.T.);
#918=ORIENTED_EDGE('',*,*,#685,.T.);
#919=ORIENTED_EDGE('',*,*,#680,.T.);
#920=ORIENTED_EDGE('',*,*,#676,.F.);
#921=ORIENTED_EDGE('',*,*,#686,.T.);
#922=ORIENTED_EDGE('',*,*,#687,.F.);
#923=ORIENTED_EDGE('',*,*,#688,.F.);
#924=ORIENTED_EDGE('',*,*,#689,.F.);
#925=ORIENTED_EDGE('',*,*,#690,.T.);
#926=ORIENTED_EDGE('',*,*,#684,.F.);
#927=ORIENTED_EDGE('',*,*,#675,.F.);
#928=ORIENTED_EDGE('',*,*,#691,.F.);
#929=ORIENTED_EDGE('',*,*,#692,.F.);
#930=ORIENTED_EDGE('',*,*,#686,.F.);
#931=ORIENTED_EDGE('',*,*,#674,.F.);
#932=ORIENTED_EDGE('',*,*,#600,.T.);
#933=ORIENTED_EDGE('',*,*,#693,.F.);
#934=ORIENTED_EDGE('',*,*,#691,.T.);
#935=ORIENTED_EDGE('',*,*,#694,.T.);
#936=ORIENTED_EDGE('',*,*,#695,.T.);
#937=ORIENTED_EDGE('',*,*,#687,.T.);
#938=ORIENTED_EDGE('',*,*,#692,.T.);
#939=ORIENTED_EDGE('',*,*,#693,.T.);
#940=ORIENTED_EDGE('',*,*,#599,.T.);
#941=ORIENTED_EDGE('',*,*,#625,.F.);
#942=ORIENTED_EDGE('',*,*,#688,.T.);
#943=ORIENTED_EDGE('',*,*,#695,.F.);
#944=ORIENTED_EDGE('',*,*,#696,.T.);
#945=ORIENTED_EDGE('',*,*,#697,.T.);
#946=ORIENTED_EDGE('',*,*,#698,.T.);
#947=ORIENTED_EDGE('',*,*,#699,.T.);
#948=ORIENTED_EDGE('',*,*,#689,.T.);
#949=ORIENTED_EDGE('',*,*,#697,.F.);
#950=ORIENTED_EDGE('',*,*,#700,.T.);
#951=ORIENTED_EDGE('',*,*,#685,.F.);
#952=ORIENTED_EDGE('',*,*,#690,.F.);
#953=ORIENTED_EDGE('',*,*,#699,.F.);
#954=ORIENTED_EDGE('',*,*,#701,.F.);
#955=ORIENTED_EDGE('',*,*,#682,.F.);
#956=ORIENTED_EDGE('',*,*,#701,.T.);
#957=ORIENTED_EDGE('',*,*,#698,.F.);
#958=ORIENTED_EDGE('',*,*,#702,.T.);
#959=ORIENTED_EDGE('',*,*,#703,.T.);
#960=ORIENTED_EDGE('',*,*,#683,.T.);
#961=ORIENTED_EDGE('',*,*,#702,.F.);
#962=ORIENTED_EDGE('',*,*,#700,.F.);
#963=ORIENTED_EDGE('',*,*,#704,.T.);
#964=ORIENTED_EDGE('',*,*,#705,.F.);
#965=ORIENTED_EDGE('',*,*,#706,.T.);
#966=ORIENTED_EDGE('',*,*,#707,.T.);
#967=ORIENTED_EDGE('',*,*,#708,.T.);
#968=ORIENTED_EDGE('',*,*,#626,.T.);
#969=ORIENTED_EDGE('',*,*,#709,.T.);
#970=ORIENTED_EDGE('',*,*,#708,.F.);
#971=ORIENTED_EDGE('',*,*,#709,.F.);
#972=ORIENTED_EDGE('',*,*,#710,.F.);
#973=ORIENTED_EDGE('',*,*,#711,.F.);
#974=ORIENTED_EDGE('',*,*,#623,.T.);
#975=ORIENTED_EDGE('',*,*,#673,.F.);
#976=ORIENTED_EDGE('',*,*,#664,.F.);
#977=ORIENTED_EDGE('',*,*,#650,.T.);
#978=ORIENTED_EDGE('',*,*,#706,.F.);
#979=ORIENTED_EDGE('',*,*,#712,.F.);
#980=ORIENTED_EDGE('',*,*,#713,.F.);
#981=ORIENTED_EDGE('',*,*,#714,.F.);
#982=ORIENTED_EDGE('',*,*,#707,.F.);
#983=ORIENTED_EDGE('',*,*,#714,.T.);
#984=ORIENTED_EDGE('',*,*,#715,.F.);
#985=ORIENTED_EDGE('',*,*,#716,.F.);
#986=ORIENTED_EDGE('',*,*,#704,.F.);
#987=ORIENTED_EDGE('',*,*,#716,.T.);
#988=ORIENTED_EDGE('',*,*,#717,.F.);
#989=ORIENTED_EDGE('',*,*,#718,.F.);
#990=ORIENTED_EDGE('',*,*,#719,.F.);
#991=ORIENTED_EDGE('',*,*,#720,.F.);
#992=ORIENTED_EDGE('',*,*,#648,.F.);
#993=ORIENTED_EDGE('',*,*,#611,.T.);
#994=ORIENTED_EDGE('',*,*,#649,.T.);
#995=ORIENTED_EDGE('',*,*,#720,.T.);
#996=ORIENTED_EDGE('',*,*,#721,.F.);
#997=ORIENTED_EDGE('',*,*,#717,.T.);
#998=ORIENTED_EDGE('',*,*,#715,.T.);
#999=ORIENTED_EDGE('',*,*,#713,.T.);
#1000=ORIENTED_EDGE('',*,*,#722,.F.);
#1001=ORIENTED_EDGE('',*,*,#710,.T.);
#1002=ORIENTED_EDGE('',*,*,#723,.F.);
#1003=ORIENTED_EDGE('',*,*,#724,.T.);
#1004=ORIENTED_EDGE('',*,*,#725,.F.);
#1005=ORIENTED_EDGE('',*,*,#726,.F.);
#1006=ORIENTED_EDGE('',*,*,#727,.F.);
#1007=ORIENTED_EDGE('',*,*,#726,.T.);
#1008=ORIENTED_EDGE('',*,*,#728,.F.);
#1009=ORIENTED_EDGE('',*,*,#729,.F.);
#1010=ORIENTED_EDGE('',*,*,#730,.F.);
#1011=ORIENTED_EDGE('',*,*,#729,.T.);
#1012=ORIENTED_EDGE('',*,*,#731,.F.);
#1013=ORIENTED_EDGE('',*,*,#732,.F.);
#1014=ORIENTED_EDGE('',*,*,#733,.F.);
#1015=ORIENTED_EDGE('',*,*,#732,.T.);
#1016=ORIENTED_EDGE('',*,*,#734,.F.);
#1017=ORIENTED_EDGE('',*,*,#724,.F.);
#1018=ORIENTED_EDGE('',*,*,#735,.T.);
#1019=ORIENTED_EDGE('',*,*,#736,.T.);
#1020=ORIENTED_EDGE('',*,*,#737,.T.);
#1021=ORIENTED_EDGE('',*,*,#738,.F.);
#1022=ORIENTED_EDGE('',*,*,#734,.T.);
#1023=ORIENTED_EDGE('',*,*,#731,.T.);
#1024=ORIENTED_EDGE('',*,*,#728,.T.);
#1025=ORIENTED_EDGE('',*,*,#725,.T.);
#1026=ORIENTED_EDGE('',*,*,#644,.T.);
#1027=ORIENTED_EDGE('',*,*,#739,.F.);
#1028=ORIENTED_EDGE('',*,*,#735,.F.);
#1029=ORIENTED_EDGE('',*,*,#740,.F.);
#1030=ORIENTED_EDGE('',*,*,#643,.T.);
#1031=ORIENTED_EDGE('',*,*,#741,.T.);
#1032=ORIENTED_EDGE('',*,*,#736,.F.);
#1033=ORIENTED_EDGE('',*,*,#739,.T.);
#1034=ORIENTED_EDGE('',*,*,#723,.T.);
#1035=ORIENTED_EDGE('',*,*,#727,.T.);
#1036=ORIENTED_EDGE('',*,*,#730,.T.);
#1037=ORIENTED_EDGE('',*,*,#733,.T.);
#1038=ORIENTED_EDGE('',*,*,#742,.T.);
#1039=ORIENTED_EDGE('',*,*,#646,.T.);
#1040=ORIENTED_EDGE('',*,*,#743,.T.);
#1041=ORIENTED_EDGE('',*,*,#742,.F.);
#1042=ORIENTED_EDGE('',*,*,#743,.F.);
#1043=ORIENTED_EDGE('',*,*,#642,.T.);
#1044=ORIENTED_EDGE('',*,*,#744,.F.);
#1045=ORIENTED_EDGE('',*,*,#737,.F.);
#1046=ORIENTED_EDGE('',*,*,#741,.F.);
#1047=ORIENTED_EDGE('',*,*,#595,.T.);
#1048=ORIENTED_EDGE('',*,*,#645,.T.);
#1049=ORIENTED_EDGE('',*,*,#740,.T.);
#1050=ORIENTED_EDGE('',*,*,#738,.T.);
#1051=ORIENTED_EDGE('',*,*,#744,.T.);
#1052=ORIENTED_EDGE('',*,*,#641,.T.);
#1053=ORIENTED_EDGE('',*,*,#745,.T.);
#1054=ORIENTED_EDGE('',*,*,#746,.T.);
#1055=ORIENTED_EDGE('',*,*,#747,.T.);
#1056=ORIENTED_EDGE('',*,*,#637,.T.);
#1057=ORIENTED_EDGE('',*,*,#678,.T.);
#1058=ORIENTED_EDGE('',*,*,#748,.F.);
#1059=ORIENTED_EDGE('',*,*,#694,.F.);
#1060=ORIENTED_EDGE('',*,*,#624,.T.);
#1061=ORIENTED_EDGE('',*,*,#711,.T.);
#1062=ORIENTED_EDGE('',*,*,#722,.T.);
#1063=ORIENTED_EDGE('',*,*,#712,.T.);
#1064=ORIENTED_EDGE('',*,*,#705,.T.);
#1065=ORIENTED_EDGE('',*,*,#718,.T.);
#1066=ORIENTED_EDGE('',*,*,#721,.T.);
#1067=ORIENTED_EDGE('',*,*,#719,.T.);
#1068=ORIENTED_EDGE('',*,*,#610,.T.);
#1069=ORIENTED_EDGE('',*,*,#635,.T.);
#1070=ORIENTED_EDGE('',*,*,#627,.T.);
#1071=ORIENTED_EDGE('',*,*,#749,.F.);
#1072=ORIENTED_EDGE('',*,*,#750,.T.);
#1073=ORIENTED_EDGE('',*,*,#751,.F.);
#1074=ORIENTED_EDGE('',*,*,#752,.F.);
#1075=ORIENTED_EDGE('',*,*,#753,.F.);
#1076=ORIENTED_EDGE('',*,*,#752,.T.);
#1077=ORIENTED_EDGE('',*,*,#754,.F.);
#1078=ORIENTED_EDGE('',*,*,#755,.F.);
#1079=ORIENTED_EDGE('',*,*,#756,.F.);
#1080=ORIENTED_EDGE('',*,*,#755,.T.);
#1081=ORIENTED_EDGE('',*,*,#757,.F.);
#1082=ORIENTED_EDGE('',*,*,#758,.F.);
#1083=ORIENTED_EDGE('',*,*,#759,.F.);
#1084=ORIENTED_EDGE('',*,*,#758,.T.);
#1085=ORIENTED_EDGE('',*,*,#760,.F.);
#1086=ORIENTED_EDGE('',*,*,#750,.F.);
#1087=ORIENTED_EDGE('',*,*,#761,.T.);
#1088=ORIENTED_EDGE('',*,*,#746,.F.);
#1089=ORIENTED_EDGE('',*,*,#762,.T.);
#1090=ORIENTED_EDGE('',*,*,#763,.T.);
#1091=ORIENTED_EDGE('',*,*,#760,.T.);
#1092=ORIENTED_EDGE('',*,*,#757,.T.);
#1093=ORIENTED_EDGE('',*,*,#754,.T.);
#1094=ORIENTED_EDGE('',*,*,#751,.T.);
#1095=ORIENTED_EDGE('',*,*,#640,.T.);
#1096=ORIENTED_EDGE('',*,*,#764,.F.);
#1097=ORIENTED_EDGE('',*,*,#762,.F.);
#1098=ORIENTED_EDGE('',*,*,#745,.F.);
#1099=ORIENTED_EDGE('',*,*,#639,.T.);
#1100=ORIENTED_EDGE('',*,*,#765,.T.);
#1101=ORIENTED_EDGE('',*,*,#763,.F.);
#1102=ORIENTED_EDGE('',*,*,#764,.T.);
#1103=ORIENTED_EDGE('',*,*,#749,.T.);
#1104=ORIENTED_EDGE('',*,*,#753,.T.);
#1105=ORIENTED_EDGE('',*,*,#756,.T.);
#1106=ORIENTED_EDGE('',*,*,#759,.T.);
#1107=ORIENTED_EDGE('',*,*,#766,.T.);
#1108=ORIENTED_EDGE('',*,*,#647,.T.);
#1109=ORIENTED_EDGE('',*,*,#767,.T.);
#1110=ORIENTED_EDGE('',*,*,#766,.F.);
#1111=ORIENTED_EDGE('',*,*,#767,.F.);
#1112=ORIENTED_EDGE('',*,*,#638,.T.);
#1113=ORIENTED_EDGE('',*,*,#747,.F.);
#1114=ORIENTED_EDGE('',*,*,#761,.F.);
#1115=ORIENTED_EDGE('',*,*,#765,.F.);
#1116=ORIENTED_EDGE('',*,*,#748,.T.);
#1117=ORIENTED_EDGE('',*,*,#679,.T.);
#1118=ORIENTED_EDGE('',*,*,#703,.F.);
#1119=ORIENTED_EDGE('',*,*,#696,.F.);
#1120=CYLINDRICAL_SURFACE('',#1226,8.00000000000001);
#1121=CYLINDRICAL_SURFACE('',#1229,78.5000011697412);
#1122=CYLINDRICAL_SURFACE('',#1234,8.00000000000001);
#1123=CYLINDRICAL_SURFACE('',#1250,82.0000012218952);
#1124=CYLINDRICAL_SURFACE('',#1252,82.099998164922);
#1125=CYLINDRICAL_SURFACE('',#1263,89.0000013262033);
#1126=CYLINDRICAL_SURFACE('',#1266,89.0000013262033);
#1127=CYLINDRICAL_SURFACE('',#1278,15.);
#1128=CYLINDRICAL_SURFACE('',#1281,15.);
#1129=CYLINDRICAL_SURFACE('',#1282,15.);
#1130=CYLINDRICAL_SURFACE('',#1290,74.125);
#1131=CYLINDRICAL_SURFACE('',#1294,15.);
#1132=CYLINDRICAL_SURFACE('',#1295,15.);
#1133=CYLINDRICAL_SURFACE('',#1296,15.);
#1134=CYLINDRICAL_SURFACE('',#1298,69.75);
#1135=CYLINDRICAL_SURFACE('',#1302,65.0000009685755);
#1136=CYLINDRICAL_SURFACE('',#1309,1.25);
#1137=CYLINDRICAL_SURFACE('',#1311,2.99999997019775);
#1138=CYLINDRICAL_SURFACE('',#1314,2.99999997019775);
#1139=CYLINDRICAL_SURFACE('',#1321,3.00000004470348);
#1140=CYLINDRICAL_SURFACE('',#1325,3.00000004470348);
#1141=CYLINDRICAL_SURFACE('',#1332,89.);
#1142=CYLINDRICAL_SURFACE('',#1335,1.25);
#1143=CYLINDRICAL_SURFACE('',#1337,82.0000012218952);
#1144=CYLINDRICAL_SURFACE('',#1341,3.);
#1145=CYLINDRICAL_SURFACE('',#1345,3.);
#1146=CYLINDRICAL_SURFACE('',#1351,89.);
#1147=CYLINDRICAL_SURFACE('',#1354,1.24999999999999);
#1148=ADVANCED_FACE('',(#63),#1120,.T.);
#1149=ADVANCED_FACE('',(#64),#1121,.F.);
#1150=ADVANCED_FACE('',(#65),#1122,.T.);
#1151=ADVANCED_FACE('',(#66,#19),#27,.F.);
#1152=ADVANCED_FACE('',(#67),#28,.F.);
#1153=ADVANCED_FACE('',(#68),#1123,.T.);
#1154=ADVANCED_FACE('',(#69),#29,.F.);
#1155=ADVANCED_FACE('',(#70),#1124,.F.);
#1156=ADVANCED_FACE('',(#71),#30,.F.);
#1157=ADVANCED_FACE('',(#72,#20,#21),#31,.F.);
#1158=ADVANCED_FACE('',(#73),#1125,.F.);
#1159=ADVANCED_FACE('',(#74),#1126,.F.);
#1160=ADVANCED_FACE('',(#75),#32,.T.);
#1161=ADVANCED_FACE('',(#76),#33,.T.);
#1162=ADVANCED_FACE('',(#77),#34,.T.);
#1163=ADVANCED_FACE('',(#78),#35,.T.);
#1164=ADVANCED_FACE('',(#79),#36,.T.);
#1165=ADVANCED_FACE('',(#80),#37,.T.);
#1166=ADVANCED_FACE('',(#81),#38,.T.);
#1167=ADVANCED_FACE('',(#82),#39,.T.);
#1168=ADVANCED_FACE('',(#83),#40,.T.);
#1169=ADVANCED_FACE('',(#84),#41,.T.);
#1170=ADVANCED_FACE('',(#85),#1127,.T.);
#1171=ADVANCED_FACE('',(#86),#1128,.T.);
#1172=ADVANCED_FACE('',(#87),#1129,.T.);
#1173=ADVANCED_FACE('',(#88),#42,.F.);
#1174=ADVANCED_FACE('',(#89),#1130,.F.);
#1175=ADVANCED_FACE('',(#90),#43,.F.);
#1176=ADVANCED_FACE('',(#91),#1131,.T.);
#1177=ADVANCED_FACE('',(#92),#1132,.T.);
#1178=ADVANCED_FACE('',(#93),#1133,.T.);
#1179=ADVANCED_FACE('',(#94),#1134,.T.);
#1180=ADVANCED_FACE('',(#95),#44,.F.);
#1181=ADVANCED_FACE('',(#96),#1135,.F.);
#1182=ADVANCED_FACE('',(#97,#22),#45,.F.);
#1183=ADVANCED_FACE('',(#98),#1136,.F.);
#1184=ADVANCED_FACE('',(#99),#46,.T.);
#1185=ADVANCED_FACE('',(#100),#1137,.F.);
#1186=ADVANCED_FACE('',(#101),#47,.T.);
#1187=ADVANCED_FACE('',(#102),#1138,.F.);
#1188=ADVANCED_FACE('',(#103),#48,.T.);
#1189=ADVANCED_FACE('',(#104),#49,.T.);
#1190=ADVANCED_FACE('',(#105),#50,.T.);
#1191=ADVANCED_FACE('',(#106),#1139,.F.);
#1192=ADVANCED_FACE('',(#107),#51,.T.);
#1193=ADVANCED_FACE('',(#108),#1140,.F.);
#1194=ADVANCED_FACE('',(#109,#23),#52,.T.);
#1195=ADVANCED_FACE('',(#110),#53,.T.);
#1196=ADVANCED_FACE('',(#111),#1141,.T.);
#1197=ADVANCED_FACE('',(#112,#24),#54,.F.);
#1198=ADVANCED_FACE('',(#113),#1142,.F.);
#1199=ADVANCED_FACE('',(#114),#55,.T.);
#1200=ADVANCED_FACE('',(#115),#1143,.T.);
#1201=ADVANCED_FACE('',(#116),#56,.T.);
#1202=ADVANCED_FACE('',(#117),#1144,.F.);
#1203=ADVANCED_FACE('',(#118),#57,.T.);
#1204=ADVANCED_FACE('',(#119),#1145,.F.);
#1205=ADVANCED_FACE('',(#120,#25),#58,.T.);
#1206=ADVANCED_FACE('',(#121),#59,.T.);
#1207=ADVANCED_FACE('',(#122),#1146,.T.);
#1208=ADVANCED_FACE('',(#123,#26),#60,.F.);
#1209=ADVANCED_FACE('',(#124),#1147,.F.);
#1210=ADVANCED_FACE('',(#125),#61,.T.);
#1211=ADVANCED_FACE('',(#126),#62,.T.);
#1212=CLOSED_SHELL('',(#1148,#1149,#1150,#1151,#1152,#1153,#1154,#1155,
#1156,#1157,#1158,#1159,#1160,#1161,#1162,#1163,#1164,#1165,#1166,#1167,
#1168,#1169,#1170,#1171,#1172,#1173,#1174,#1175,#1176,#1177,#1178,#1179,
#1180,#1181,#1182,#1183,#1184,#1185,#1186,#1187,#1188,#1189,#1190,#1191,
#1192,#1193,#1194,#1195,#1196,#1197,#1198,#1199,#1200,#1201,#1202,#1203,
#1204,#1205,#1206,#1207,#1208,#1209,#1210,#1211));
#1213=DERIVED_UNIT_ELEMENT(#1215,1.);
#1214=DERIVED_UNIT_ELEMENT(#2116,-3.);
#1215=(
MASS_UNIT()
NAMED_UNIT(*)
SI_UNIT(.KILO.,.GRAM.)
);
#1216=DERIVED_UNIT((#1213,#1214));
#1217=MEASURE_REPRESENTATION_ITEM('density measure',
POSITIVE_RATIO_MEASURE(7850.),#1216);
#1218=PROPERTY_DEFINITION_REPRESENTATION(#1223,#1220);
#1219=PROPERTY_DEFINITION_REPRESENTATION(#1224,#1221);
#1220=REPRESENTATION('material name',(#1222),#2113);
#1221=REPRESENTATION('density',(#1217),#2113);
#1222=DESCRIPTIVE_REPRESENTATION_ITEM('Stahl','Stahl');
#1223=PROPERTY_DEFINITION('material property','material name',#2123);
#1224=PROPERTY_DEFINITION('material property','density of part',#2123);
#1225=AXIS2_PLACEMENT_3D('',#1726,#1357,#1358);
#1226=AXIS2_PLACEMENT_3D('',#1727,#1359,#1360);
#1227=AXIS2_PLACEMENT_3D('',#1730,#1361,#1362);
#1228=AXIS2_PLACEMENT_3D('',#1734,#1364,#1365);
#1229=AXIS2_PLACEMENT_3D('',#1736,#1367,#1368);
#1230=AXIS2_PLACEMENT_3D('',#1738,#1369,#1370);
#1231=AXIS2_PLACEMENT_3D('',#1742,#1372,#1373);
#1232=AXIS2_PLACEMENT_3D('',#1746,#1375,#1376);
#1233=AXIS2_PLACEMENT_3D('',#1749,#1378,#1379);
#1234=AXIS2_PLACEMENT_3D('',#1750,#1380,#1381);
#1235=AXIS2_PLACEMENT_3D('',#1752,#1382,#1383);
#1236=AXIS2_PLACEMENT_3D('',#1754,#1384,#1385);
#1237=AXIS2_PLACEMENT_3D('',#1756,#1387,#1388);
#1238=AXIS2_PLACEMENT_3D('',#1758,#1389,#1390);
#1239=AXIS2_PLACEMENT_3D('',#1762,#1392,#1393);
#1240=AXIS2_PLACEMENT_3D('',#1766,#1395,#1396);
#1241=AXIS2_PLACEMENT_3D('',#1770,#1398,#1399);
#1242=AXIS2_PLACEMENT_3D('',#1786,#1407,#1408);
#1243=AXIS2_PLACEMENT_3D('',#1794,#1412,#1413);
#1244=AXIS2_PLACEMENT_3D('',#1795,#1414,#1415);
#1245=AXIS2_PLACEMENT_3D('',#1797,#1416,#1417);
#1246=AXIS2_PLACEMENT_3D('',#1798,#1418,#1419);
#1247=AXIS2_PLACEMENT_3D('',#1800,#1420,#1421);
#1248=AXIS2_PLACEMENT_3D('',#1804,#1423,#1424);
#1249=AXIS2_PLACEMENT_3D('',#1807,#1426,#1427);
#1250=AXIS2_PLACEMENT_3D('',#1808,#1428,#1429);
#1251=AXIS2_PLACEMENT_3D('',#1810,#1431,#1432);
#1252=AXIS2_PLACEMENT_3D('',#1812,#1434,#1435);
#1253=AXIS2_PLACEMENT_3D('',#1814,#1437,#1438);
#1254=AXIS2_PLACEMENT_3D('',#1816,#1440,#1441);
#1255=AXIS2_PLACEMENT_3D('',#1818,#1442,#1443);
#1256=AXIS2_PLACEMENT_3D('',#1820,#1444,#1445);
#1257=AXIS2_PLACEMENT_3D('',#1824,#1447,#1448);
#1258=AXIS2_PLACEMENT_3D('',#1828,#1450,#1451);
#1259=AXIS2_PLACEMENT_3D('',#1832,#1453,#1454);
#1260=AXIS2_PLACEMENT_3D('',#1835,#1456,#1457);
#1261=AXIS2_PLACEMENT_3D('',#1837,#1458,#1459);
#1262=AXIS2_PLACEMENT_3D('',#1839,#1460,#1461);
#1263=AXIS2_PLACEMENT_3D('',#1840,#1462,#1463);
#1264=AXIS2_PLACEMENT_3D('',#1844,#1465,#1466);
#1265=AXIS2_PLACEMENT_3D('',#1848,#1468,#1469);
#1266=AXIS2_PLACEMENT_3D('',#1850,#1471,#1472);
#1267=AXIS2_PLACEMENT_3D('',#1854,#1474,#1475);
#1268=AXIS2_PLACEMENT_3D('',#1856,#1477,#1478);
#1269=AXIS2_PLACEMENT_3D('',#1860,#1481,#1482);
#1270=AXIS2_PLACEMENT_3D('',#1864,#1485,#1486);
#1271=AXIS2_PLACEMENT_3D('',#1868,#1489,#1490);
#1272=AXIS2_PLACEMENT_3D('',#1872,#1493,#1494);
#1273=AXIS2_PLACEMENT_3D('',#1883,#1501,#1502);
#1274=AXIS2_PLACEMENT_3D('',#1885,#1504,#1505);
#1275=AXIS2_PLACEMENT_3D('',#1887,#1507,#1508);
#1276=AXIS2_PLACEMENT_3D('',#1889,#1510,#1511);
#1277=AXIS2_PLACEMENT_3D('',#1890,#1512,#1513);
#1278=AXIS2_PLACEMENT_3D('',#1892,#1515,#1516);
#1279=AXIS2_PLACEMENT_3D('',#1894,#1517,#1518);
#1280=AXIS2_PLACEMENT_3D('',#1898,#1520,#1521);
#1281=AXIS2_PLACEMENT_3D('',#1909,#1523,#1524);
#1282=AXIS2_PLACEMENT_3D('',#1922,#1527,#1528);
#1283=AXIS2_PLACEMENT_3D('',#1925,#1529,#1530);
#1284=AXIS2_PLACEMENT_3D('',#1928,#1532,#1533);
#1285=AXIS2_PLACEMENT_3D('',#1930,#1535,#1536);
#1286=AXIS2_PLACEMENT_3D('',#1932,#1537,#1538);
#1287=AXIS2_PLACEMENT_3D('',#1934,#1539,#1540);
#1288=AXIS2_PLACEMENT_3D('',#1938,#1542,#1543);
#1289=AXIS2_PLACEMENT_3D('',#1939,#1544,#1545);
#1290=AXIS2_PLACEMENT_3D('',#1940,#1546,#1547);
#1291=AXIS2_PLACEMENT_3D('',#1942,#1548,#1549);
#1292=AXIS2_PLACEMENT_3D('',#1944,#1551,#1552);
#1293=AXIS2_PLACEMENT_3D('',#1945,#1553,#1554);
#1294=AXIS2_PLACEMENT_3D('',#1946,#1555,#1556);
#1295=AXIS2_PLACEMENT_3D('',#1957,#1558,#1559);
#1296=AXIS2_PLACEMENT_3D('',#1968,#1561,#1562);
#1297=AXIS2_PLACEMENT_3D('',#1971,#1563,#1564);
#1298=AXIS2_PLACEMENT_3D('',#1974,#1567,#1568);
#1299=AXIS2_PLACEMENT_3D('',#1975,#1569,#1570);
#1300=AXIS2_PLACEMENT_3D('',#1976,#1571,#1572);
#1301=AXIS2_PLACEMENT_3D('',#1977,#1573,#1574);
#1302=AXIS2_PLACEMENT_3D('',#1978,#1575,#1576);
#1303=AXIS2_PLACEMENT_3D('',#1979,#1577,#1578);
#1304=AXIS2_PLACEMENT_3D('',#1980,#1579,#1580);
#1305=AXIS2_PLACEMENT_3D('',#1983,#1581,#1582);
#1306=AXIS2_PLACEMENT_3D('',#1985,#1583,#1584);
#1307=AXIS2_PLACEMENT_3D('',#1987,#1585,#1586);
#1308=AXIS2_PLACEMENT_3D('',#1990,#1588,#1589);
#1309=AXIS2_PLACEMENT_3D('',#1991,#1590,#1591);
#1310=AXIS2_PLACEMENT_3D('',#1993,#1593,#1594);
#1311=AXIS2_PLACEMENT_3D('',#1997,#1597,#1598);
#1312=AXIS2_PLACEMENT_3D('',#2001,#1600,#1601);
#1313=AXIS2_PLACEMENT_3D('',#2003,#1603,#1604);
#1314=AXIS2_PLACEMENT_3D('',#2007,#1607,#1608);
#1315=AXIS2_PLACEMENT_3D('',#2009,#1609,#1610);
#1316=AXIS2_PLACEMENT_3D('',#2011,#1612,#1613);
#1317=AXIS2_PLACEMENT_3D('',#2015,#1616,#1617);
#1318=AXIS2_PLACEMENT_3D('',#2016,#1618,#1619);
#1319=AXIS2_PLACEMENT_3D('',#2017,#1620,#1621);
#1320=AXIS2_PLACEMENT_3D('',#2018,#1622,#1623);
#1321=AXIS2_PLACEMENT_3D('',#2027,#1628,#1629);
#1322=AXIS2_PLACEMENT_3D('',#2029,#1630,#1631);
#1323=AXIS2_PLACEMENT_3D('',#2031,#1632,#1633);
#1324=AXIS2_PLACEMENT_3D('',#2033,#1635,#1636);
#1325=AXIS2_PLACEMENT_3D('',#2039,#1640,#1641);
#1326=AXIS2_PLACEMENT_3D('',#2040,#1642,#1643);
#1327=AXIS2_PLACEMENT_3D('',#2041,#1644,#1645);
#1328=AXIS2_PLACEMENT_3D('',#2042,#1646,#1647);
#1329=AXIS2_PLACEMENT_3D('',#2047,#1649,#1650);
#1330=AXIS2_PLACEMENT_3D('',#2050,#1652,#1653);
#1331=AXIS2_PLACEMENT_3D('',#2051,#1654,#1655);
#1332=AXIS2_PLACEMENT_3D('',#2054,#1658,#1659);
#1333=AXIS2_PLACEMENT_3D('',#2056,#1661,#1662);
#1334=AXIS2_PLACEMENT_3D('',#2058,#1663,#1664);
#1335=AXIS2_PLACEMENT_3D('',#2059,#1665,#1666);
#1336=AXIS2_PLACEMENT_3D('',#2061,#1668,#1669);
#1337=AXIS2_PLACEMENT_3D('',#2063,#1671,#1672);
#1338=AXIS2_PLACEMENT_3D('',#2067,#1674,#1675);
#1339=AXIS2_PLACEMENT_3D('',#2069,#1677,#1678);
#1340=AXIS2_PLACEMENT_3D('',#2070,#1679,#1680);
#1341=AXIS2_PLACEMENT_3D('',#2079,#1685,#1686);
#1342=AXIS2_PLACEMENT_3D('',#2081,#1687,#1688);
#1343=AXIS2_PLACEMENT_3D('',#2083,#1689,#1690);
#1344=AXIS2_PLACEMENT_3D('',#2085,#1692,#1693);
#1345=AXIS2_PLACEMENT_3D('',#2091,#1697,#1698);
#1346=AXIS2_PLACEMENT_3D('',#2092,#1699,#1700);
#1347=AXIS2_PLACEMENT_3D('',#2093,#1701,#1702);
#1348=AXIS2_PLACEMENT_3D('',#2094,#1703,#1704);
#1349=AXIS2_PLACEMENT_3D('',#2099,#1707,#1708);
#1350=AXIS2_PLACEMENT_3D('',#2100,#1709,#1710);
#1351=AXIS2_PLACEMENT_3D('',#2102,#1712,#1713);
#1352=AXIS2_PLACEMENT_3D('',#2104,#1715,#1716);
#1353=AXIS2_PLACEMENT_3D('',#2106,#1717,#1718);
#1354=AXIS2_PLACEMENT_3D('',#2107,#1719,#1720);
#1355=AXIS2_PLACEMENT_3D('',#2109,#1722,#1723);
#1356=AXIS2_PLACEMENT_3D('',#2110,#1724,#1725);
#1357=DIRECTION('axis',(0.,0.,1.));
#1358=DIRECTION('refdir',(1.,0.,0.));
#1359=DIRECTION('center_axis',(-1.,0.,0.));
#1360=DIRECTION('ref_axis',(0.,0.801027407388535,0.598627674445813));
#1361=DIRECTION('center_axis',(-1.,-5.55111512312574E-17,5.55111512312579E-17));
#1362=DIRECTION('ref_axis',(0.,0.801027407388535,0.598627674445813));
#1363=DIRECTION('',(1.,0.,0.));
#1364=DIRECTION('center_axis',(-1.,-1.22124532708767E-15,0.));
#1365=DIRECTION('ref_axis',(0.,0.801027407388535,0.598627674445813));
#1366=DIRECTION('',(1.,0.,0.));
#1367=DIRECTION('center_axis',(1.,0.,0.));
#1368=DIRECTION('ref_axis',(0.,-1.,-1.22464679914735E-16));
#1369=DIRECTION('center_axis',(1.,5.55111512312574E-17,-5.55111512312579E-17));
#1370=DIRECTION('ref_axis',(0.,1.,0.));
#1371=DIRECTION('',(-1.,0.,0.));
#1372=DIRECTION('center_axis',(1.,1.22124532708767E-15,0.));
#1373=DIRECTION('ref_axis',(0.,1.,0.));
#1374=DIRECTION('',(1.,0.,0.));
#1375=DIRECTION('center_axis',(1.,0.,0.));
#1376=DIRECTION('ref_axis',(0.,1.,0.));
#1377=DIRECTION('',(-1.,0.,0.));
#1378=DIRECTION('center_axis',(1.,1.22124532708767E-15,0.));
#1379=DIRECTION('ref_axis',(0.,1.,0.));
#1380=DIRECTION('center_axis',(1.,0.,0.));
#1381=DIRECTION('ref_axis',(0.,0.061352401216783,0.998116167019118));
#1382=DIRECTION('center_axis',(-1.,-1.22124532708767E-15,0.));
#1383=DIRECTION('ref_axis',(0.,0.061352401216783,0.998116167019118));
#1384=DIRECTION('center_axis',(-1.,-5.55111512312574E-17,5.55111512312579E-17));
#1385=DIRECTION('ref_axis',(0.,0.061352401216783,0.998116167019118));
#1386=DIRECTION('',(-1.,0.,0.));
#1387=DIRECTION('center_axis',(-1.,-1.22124532708767E-15,0.));
#1388=DIRECTION('ref_axis',(0.,0.,1.));
#1389=DIRECTION('center_axis',(1.,1.22124532708767E-15,0.));
#1390=DIRECTION('ref_axis',(0.,-1.,6.47112461314111E-32));
#1391=DIRECTION('',(2.58183841856831E-23,-2.11410300723547E-8,-1.));
#1392=DIRECTION('center_axis',(-1.,-1.22124532708767E-15,0.));
#1393=DIRECTION('ref_axis',(0.,-1.,6.47112461314111E-32));
#1394=DIRECTION('',(1.70812293063105E-16,-0.139867305343509,-0.990170256519527));
#1395=DIRECTION('center_axis',(-1.,-1.22124532708767E-15,0.));
#1396=DIRECTION('ref_axis',(0.,1.,0.));
#1397=DIRECTION('',(0.,0.,1.));
#1398=DIRECTION('center_axis',(1.,1.22124532708767E-15,0.));
#1399=DIRECTION('ref_axis',(0.,1.,0.));
#1400=DIRECTION('',(0.,0.,1.));
#1401=DIRECTION('',(-1.22124532708767E-15,1.,0.));
#1402=DIRECTION('',(0.,0.,1.));
#1403=DIRECTION('',(1.22124532708767E-15,-1.,0.));
#1404=DIRECTION('',(0.,0.,-1.));
#1405=DIRECTION('',(-1.22124532708767E-15,1.,0.));
#1406=DIRECTION('',(0.,0.,-1.));
#1407=DIRECTION('center_axis',(1.,1.22124532708767E-15,0.));
#1408=DIRECTION('ref_axis',(0.,1.,0.));
#1409=DIRECTION('',(0.,0.,1.));
#1410=DIRECTION('',(-1.22124532708767E-15,1.,0.));
#1411=DIRECTION('',(0.,0.,-1.));
#1412=DIRECTION('center_axis',(-1.,-1.22124532708767E-15,0.));
#1413=DIRECTION('ref_axis',(0.,1.,0.));
#1414=DIRECTION('center_axis',(1.,3.76325271180981E-48,-4.93038065763132E-32));
#1415=DIRECTION('ref_axis',(4.1086505480261E-32,-0.589823105657796,0.807532478623734));
#1416=DIRECTION('center_axis',(1.,1.22124532708767E-15,0.));
#1417=DIRECTION('ref_axis',(0.,1.,0.));
#1418=DIRECTION('center_axis',(-1.,-5.55111512312574E-17,5.55111512312579E-17));
#1419=DIRECTION('ref_axis',(5.55111512312574E-17,-1.,6.47112461314111E-32));
#1420=DIRECTION('center_axis',(-1.,-5.55111512312574E-17,5.55111512312579E-17));
#1421=DIRECTION('ref_axis',(0.,1.,0.));
#1422=DIRECTION('',(-4.72012957151135E-17,-0.139867305343509,-0.990170256519527));
#1423=DIRECTION('center_axis',(-1.,-5.55111512312578E-17,5.55111512312579E-17));
#1424=DIRECTION('ref_axis',(5.55111512312578E-17,-1.,6.47112461314111E-32));
#1425=DIRECTION('',(-5.55111500576946E-17,-2.11410300723547E-8,-1.));
#1426=DIRECTION('center_axis',(1.,5.55111512312578E-17,-5.55111512312579E-17));
#1427=DIRECTION('ref_axis',(5.55111512312578E-17,-1.,6.47112461314111E-32));
#1428=DIRECTION('center_axis',(1.,0.,0.));
#1429=DIRECTION('ref_axis',(0.,-1.,6.47112461314111E-32));
#1430=DIRECTION('',(1.,0.,0.));
#1431=DIRECTION('center_axis',(0.,1.,-2.11410300723547E-8));
#1432=DIRECTION('ref_axis',(5.55111500576946E-17,2.11410300723547E-8,1.));
#1433=DIRECTION('',(-1.,0.,0.));
#1434=DIRECTION('center_axis',(1.,0.,0.));
#1435=DIRECTION('ref_axis',(0.,-1.,6.47112461314111E-32));
#1436=DIRECTION('',(-1.,0.,0.));
#1437=DIRECTION('center_axis',(0.,0.990170256519527,-0.139867305343509));
#1438=DIRECTION('ref_axis',(4.72012957151135E-17,0.139867305343509,0.990170256519527));
#1439=DIRECTION('',(-1.,0.,0.));
#1440=DIRECTION('center_axis',(-1.,-1.22124532708767E-15,0.));
#1441=DIRECTION('ref_axis',(0.,0.,1.));
#1442=DIRECTION('center_axis',(-1.,-1.22124532708767E-15,0.));
#1443=DIRECTION('ref_axis',(0.,-0.589823105657796,-0.807532478623734));
#1444=DIRECTION('center_axis',(-1.,-1.22124532708767E-15,0.));
#1445=DIRECTION('ref_axis',(0.,1.,0.));
#1446=DIRECTION('',(0.,0.,-1.));
#1447=DIRECTION('center_axis',(-1.,-1.22124532708767E-15,0.));
#1448=DIRECTION('ref_axis',(0.,1.,0.));
#1449=DIRECTION('',(0.,0.,1.));
#1450=DIRECTION('center_axis',(-1.,-1.22124532708767E-15,0.));
#1451=DIRECTION('ref_axis',(0.,1.,0.));
#1452=DIRECTION('',(-1.22124532708767E-15,1.,0.));
#1453=DIRECTION('center_axis',(-1.,-1.22124532708767E-15,0.));
#1454=DIRECTION('ref_axis',(0.,1.,0.));
#1455=DIRECTION('',(1.22124532708767E-15,-1.,0.));
#1456=DIRECTION('center_axis',(-1.,-1.22124532708767E-15,0.));
#1457=DIRECTION('ref_axis',(0.,1.,0.));
#1458=DIRECTION('center_axis',(1.,1.22124532708767E-15,0.));
#1459=DIRECTION('ref_axis',(0.,1.,0.));
#1460=DIRECTION('center_axis',(1.,1.22124532708767E-15,0.));
#1461=DIRECTION('ref_axis',(0.,1.,0.));
#1462=DIRECTION('center_axis',(1.,0.,0.));
#1463=DIRECTION('ref_axis',(0.,1.,0.));
#1464=DIRECTION('',(-1.,0.,0.));
#1465=DIRECTION('center_axis',(-1.,0.,0.));
#1466=DIRECTION('ref_axis',(0.,1.,0.));
#1467=DIRECTION('',(1.,0.,0.));
#1468=DIRECTION('center_axis',(1.,0.,0.));
#1469=DIRECTION('ref_axis',(0.,1.,0.));
#1470=DIRECTION('',(1.,0.,0.));
#1471=DIRECTION('center_axis',(1.,0.,0.));
#1472=DIRECTION('ref_axis',(0.,1.,0.));
#1473=DIRECTION('',(1.,0.,0.));
#1474=DIRECTION('center_axis',(1.,0.,0.));
#1475=DIRECTION('ref_axis',(0.,1.,0.));
#1476=DIRECTION('',(1.,0.,0.));
#1477=DIRECTION('center_axis',(0.,1.,0.));
#1478=DIRECTION('ref_axis',(0.,0.,1.));
#1479=DIRECTION('',(1.,0.,0.));
#1480=DIRECTION('',(0.,0.,-1.));
#1481=DIRECTION('center_axis',(0.,-1.,0.));
#1482=DIRECTION('ref_axis',(0.,0.,-1.));
#1483=DIRECTION('',(1.,0.,0.));
#1484=DIRECTION('',(0.,0.,1.));
#1485=DIRECTION('center_axis',(0.,-1.,0.));
#1486=DIRECTION('ref_axis',(0.,0.,-1.));
#1487=DIRECTION('',(0.,0.,1.));
#1488=DIRECTION('',(-1.,0.,0.));
#1489=DIRECTION('center_axis',(0.,0.,1.));
#1490=DIRECTION('ref_axis',(0.,-1.,0.));
#1491=DIRECTION('',(0.,1.,0.));
#1492=DIRECTION('',(1.,0.,0.));
#1493=DIRECTION('center_axis',(-1.,0.,0.));
#1494=DIRECTION('ref_axis',(0.,0.,1.));
#1495=DIRECTION('',(0.,0.,-1.));
#1496=DIRECTION('',(0.,1.,0.));
#1497=DIRECTION('',(0.,1.,0.));
#1498=DIRECTION('',(0.,0.,-1.));
#1499=DIRECTION('',(0.,-1.,0.));
#1500=DIRECTION('',(0.,0.,1.));
#1501=DIRECTION('center_axis',(0.,0.,1.));
#1502=DIRECTION('ref_axis',(0.,-1.,0.));
#1503=DIRECTION('',(1.,0.,0.));
#1504=DIRECTION('center_axis',(0.,1.,0.));
#1505=DIRECTION('ref_axis',(0.,0.,1.));
#1506=DIRECTION('',(1.,0.,0.));
#1507=DIRECTION('center_axis',(0.,0.,-1.));
#1508=DIRECTION('ref_axis',(0.,1.,0.));
#1509=DIRECTION('',(1.,0.,0.));
#1510=DIRECTION('center_axis',(0.,-1.,0.));
#1511=DIRECTION('ref_axis',(0.,0.,-1.));
#1512=DIRECTION('center_axis',(0.,0.,1.));
#1513=DIRECTION('ref_axis',(0.,-1.,0.));
#1514=DIRECTION('',(1.,0.,0.));
#1515=DIRECTION('center_axis',(1.,0.,0.));
#1516=DIRECTION('ref_axis',(0.,-0.589823105657796,-0.807532478623734));
#1517=DIRECTION('center_axis',(-1.,0.,0.));
#1518=DIRECTION('ref_axis',(0.,-0.589823105657796,-0.807532478623734));
#1519=DIRECTION('',(-1.,0.,0.));
#1520=DIRECTION('center_axis',(1.,0.,0.));
#1521=DIRECTION('ref_axis',(0.,-0.589823105657796,-0.807532478623734));
#1522=DIRECTION('',(-1.,0.,0.));
#1523=DIRECTION('center_axis',(0.,-0.707106781186548,-0.707106781186548));
#1524=DIRECTION('ref_axis',(0.666666666666667,0.52704627669473,-0.52704627669473));
#1525=DIRECTION('',(0.,-0.707106781186547,-0.707106781186547));
#1526=DIRECTION('',(0.,0.707106781186547,0.707106781186547));
#1527=DIRECTION('center_axis',(-1.,0.,0.));
#1528=DIRECTION('ref_axis',(0.,0.565927633487096,0.824454919116682));
#1529=DIRECTION('center_axis',(-1.,0.,0.));
#1530=DIRECTION('ref_axis',(0.,0.565927633487096,0.824454919116682));
#1531=DIRECTION('',(1.,0.,0.));
#1532=DIRECTION('center_axis',(1.,0.,0.));
#1533=DIRECTION('ref_axis',(0.,0.565927633487096,0.824454919116682));
#1534=DIRECTION('',(1.,0.,0.));
#1535=DIRECTION('center_axis',(-1.,0.,0.));
#1536=DIRECTION('ref_axis',(0.,0.,1.));
#1537=DIRECTION('center_axis',(1.,0.,0.));
#1538=DIRECTION('ref_axis',(0.,1.,0.));
#1539=DIRECTION('center_axis',(1.,0.,0.));
#1540=DIRECTION('ref_axis',(0.,-0.589823105657796,0.807532478623734));
#1541=DIRECTION('',(0.,0.707106781186547,-0.707106781186547));
#1542=DIRECTION('center_axis',(1.,0.,0.));
#1543=DIRECTION('ref_axis',(0.,0.565927633487096,-0.824454919116682));
#1544=DIRECTION('center_axis',(-1.,0.,0.));
#1545=DIRECTION('ref_axis',(0.,1.,0.));
#1546=DIRECTION('center_axis',(-1.,0.,0.));
#1547=DIRECTION('ref_axis',(0.,-1.,1.22464679914735E-16));
#1548=DIRECTION('center_axis',(-1.,0.,0.));
#1549=DIRECTION('ref_axis',(0.,1.,0.));
#1550=DIRECTION('',(1.,0.,0.));
#1551=DIRECTION('center_axis',(-1.,0.,0.));
#1552=DIRECTION('ref_axis',(0.,0.,1.));
#1553=DIRECTION('center_axis',(-1.,0.,0.));
#1554=DIRECTION('ref_axis',(0.,-0.589823105657796,0.807532478623734));
#1555=DIRECTION('center_axis',(-1.,0.,0.));
#1556=DIRECTION('ref_axis',(0.,-0.589823105657796,0.807532478623734));
#1557=DIRECTION('',(-1.,0.,0.));
#1558=DIRECTION('center_axis',(0.,0.707106781186548,-0.707106781186548));
#1559=DIRECTION('ref_axis',(0.666666666666667,0.52704627669473,0.52704627669473));
#1560=DIRECTION('',(0.,-0.707106781186547,0.707106781186547));
#1561=DIRECTION('center_axis',(1.,0.,0.));
#1562=DIRECTION('ref_axis',(0.,0.565927633487096,-0.824454919116682));
#1563=DIRECTION('center_axis',(-1.,0.,0.));
#1564=DIRECTION('ref_axis',(0.,0.565927633487096,-0.824454919116682));
#1565=DIRECTION('',(-1.,0.,0.));
#1566=DIRECTION('',(1.,0.,0.));
#1567=DIRECTION('center_axis',(1.,0.,0.));
#1568=DIRECTION('ref_axis',(0.,-1.,1.22464679914735E-16));
#1569=DIRECTION('center_axis',(1.,0.,0.));
#1570=DIRECTION('ref_axis',(0.,1.,0.));
#1571=DIRECTION('center_axis',(-1.,0.,0.));
#1572=DIRECTION('ref_axis',(0.,0.,1.));
#1573=DIRECTION('center_axis',(-1.,0.,0.));
#1574=DIRECTION('ref_axis',(0.,1.,0.));
#1575=DIRECTION('center_axis',(1.,0.,0.));
#1576=DIRECTION('ref_axis',(0.,-1.,1.22464679914735E-16));
#1577=DIRECTION('center_axis',(-1.,0.,0.));
#1578=DIRECTION('ref_axis',(0.,1.,0.));
#1579=DIRECTION('center_axis',(1.,0.,0.));
#1580=DIRECTION('ref_axis',(0.,1.,0.));
#1581=DIRECTION('center_axis',(-1.,0.,0.));
#1582=DIRECTION('ref_axis',(0.,1.,0.));
#1583=DIRECTION('center_axis',(-1.,0.,0.));
#1584=DIRECTION('ref_axis',(0.,1.,0.));
#1585=DIRECTION('center_axis',(-1.,0.,0.));
#1586=DIRECTION('ref_axis',(0.,1.,0.));
#1587=DIRECTION('',(0.,-1.,0.));
#1588=DIRECTION('center_axis',(1.,0.,0.));
#1589=DIRECTION('ref_axis',(0.,1.,0.));
#1590=DIRECTION('center_axis',(1.,0.,0.));
#1591=DIRECTION('ref_axis',(0.,1.,0.));
#1592=DIRECTION('',(-1.,0.,0.));
#1593=DIRECTION('center_axis',(0.,1.,0.));
#1594=DIRECTION('ref_axis',(0.,0.,-1.));
#1595=DIRECTION('',(0.,0.,-1.));
#1596=DIRECTION('',(-1.,0.,0.));
#1597=DIRECTION('center_axis',(-1.,0.,0.));
#1598=DIRECTION('ref_axis',(0.,1.,0.));
#1599=DIRECTION('',(1.,0.,0.));
#1600=DIRECTION('center_axis',(1.,0.,0.));
#1601=DIRECTION('ref_axis',(0.,1.,0.));
#1602=DIRECTION('',(-1.,0.,0.));
#1603=DIRECTION('center_axis',(0.,0.,1.));
#1604=DIRECTION('ref_axis',(0.,1.,0.));
#1605=DIRECTION('',(0.,1.,0.));
#1606=DIRECTION('',(-1.,0.,0.));
#1607=DIRECTION('center_axis',(-1.,0.,0.));
#1608=DIRECTION('ref_axis',(0.,-0.999987779630339,0.00494374250779849));
#1609=DIRECTION('center_axis',(1.,0.,0.));
#1610=DIRECTION('ref_axis',(0.,1.,0.));
#1611=DIRECTION('',(-1.,0.,0.));
#1612=DIRECTION('center_axis',(0.,-1.,0.));
#1613=DIRECTION('ref_axis',(0.,0.,1.));
#1614=DIRECTION('',(1.,0.,0.));
#1615=DIRECTION('',(0.,0.,1.));
#1616=DIRECTION('center_axis',(-1.,0.,0.));
#1617=DIRECTION('ref_axis',(0.,0.,1.));
#1618=DIRECTION('center_axis',(-1.,0.,0.));
#1619=DIRECTION('ref_axis',(0.,1.,0.));
#1620=DIRECTION('center_axis',(-1.,0.,0.));
#1621=DIRECTION('ref_axis',(0.,1.,0.));
#1622=DIRECTION('center_axis',(0.,1.,0.));
#1623=DIRECTION('ref_axis',(0.,0.,-1.));
#1624=DIRECTION('',(0.,0.,1.));
#1625=DIRECTION('',(-1.,0.,0.));
#1626=DIRECTION('',(0.,0.,-1.));
#1627=DIRECTION('',(-1.,0.,0.));
#1628=DIRECTION('center_axis',(-1.,0.,0.));
#1629=DIRECTION('ref_axis',(0.,1.,0.));
#1630=DIRECTION('center_axis',(-1.,0.,0.));
#1631=DIRECTION('ref_axis',(0.,1.,0.));
#1632=DIRECTION('center_axis',(1.,0.,0.));
#1633=DIRECTION('ref_axis',(0.,1.,0.));
#1634=DIRECTION('',(-1.,0.,0.));
#1635=DIRECTION('center_axis',(0.,-1.,0.));
#1636=DIRECTION('ref_axis',(0.,0.,1.));
#1637=DIRECTION('',(0.,0.,-1.));
#1638=DIRECTION('',(0.,0.,1.));
#1639=DIRECTION('',(-1.,0.,0.));
#1640=DIRECTION('center_axis',(-1.,0.,0.));
#1641=DIRECTION('ref_axis',(0.,1.,0.));
#1642=DIRECTION('center_axis',(-1.,0.,0.));
#1643=DIRECTION('ref_axis',(0.,1.,0.));
#1644=DIRECTION('center_axis',(1.,0.,0.));
#1645=DIRECTION('ref_axis',(0.,1.,0.));
#1646=DIRECTION('center_axis',(-1.,0.,0.));
#1647=DIRECTION('ref_axis',(0.,0.,1.));
#1648=DIRECTION('',(0.,-1.,0.));
#1649=DIRECTION('center_axis',(-1.,0.,0.));
#1650=DIRECTION('ref_axis',(0.,1.,0.));
#1651=DIRECTION('',(0.,1.,0.));
#1652=DIRECTION('center_axis',(-1.,0.,0.));
#1653=DIRECTION('ref_axis',(0.,1.,0.));
#1654=DIRECTION('center_axis',(0.,0.,-1.));
#1655=DIRECTION('ref_axis',(0.,1.,0.));
#1656=DIRECTION('',(1.,0.,0.));
#1657=DIRECTION('',(-1.,0.,0.));
#1658=DIRECTION('center_axis',(1.,0.,0.));
#1659=DIRECTION('ref_axis',(0.,-1.,-8.42478853006615E-10));
#1660=DIRECTION('',(-1.,0.,0.));
#1661=DIRECTION('center_axis',(1.,0.,0.));
#1662=DIRECTION('ref_axis',(0.,1.,0.));
#1663=DIRECTION('center_axis',(1.,0.,0.));
#1664=DIRECTION('ref_axis',(0.,1.,0.));
#1665=DIRECTION('center_axis',(1.,0.,0.));
#1666=DIRECTION('ref_axis',(0.,1.,0.));
#1667=DIRECTION('',(-1.,0.,0.));
#1668=DIRECTION('center_axis',(0.,0.,1.));
#1669=DIRECTION('ref_axis',(0.,-1.,0.));
#1670=DIRECTION('',(1.,0.,0.));
#1671=DIRECTION('center_axis',(-1.,0.,0.));
#1672=DIRECTION('ref_axis',(0.,-1.,-1.22464679914735E-16));
#1673=DIRECTION('',(-1.,0.,0.));
#1674=DIRECTION('center_axis',(-1.,0.,0.));
#1675=DIRECTION('ref_axis',(0.,1.,0.));
#1676=DIRECTION('',(1.,0.,0.));
#1677=DIRECTION('center_axis',(-1.,0.,0.));
#1678=DIRECTION('ref_axis',(0.,1.,0.));
#1679=DIRECTION('center_axis',(0.,0.,-1.));
#1680=DIRECTION('ref_axis',(0.,-1.,0.));
#1681=DIRECTION('',(0.,1.,0.));
#1682=DIRECTION('',(-1.,0.,0.));
#1683=DIRECTION('',(0.,-1.,0.));
#1684=DIRECTION('',(-1.,0.,0.));
#1685=DIRECTION('center_axis',(-1.,0.,0.));
#1686=DIRECTION('ref_axis',(0.,1.,0.));
#1687=DIRECTION('center_axis',(-1.,0.,0.));
#1688=DIRECTION('ref_axis',(0.,1.,0.));
#1689=DIRECTION('center_axis',(1.,0.,0.));
#1690=DIRECTION('ref_axis',(0.,1.,0.));
#1691=DIRECTION('',(-1.,0.,0.));
#1692=DIRECTION('center_axis',(0.,0.,1.));
#1693=DIRECTION('ref_axis',(0.,1.,0.));
#1694=DIRECTION('',(0.,-1.,0.));
#1695=DIRECTION('',(0.,1.,0.));
#1696=DIRECTION('',(-1.,0.,0.));
#1697=DIRECTION('center_axis',(-1.,0.,0.));
#1698=DIRECTION('ref_axis',(0.,-0.999999999999571,-9.26655587496702E-7));
#1699=DIRECTION('center_axis',(-1.,0.,0.));
#1700=DIRECTION('ref_axis',(0.,1.,0.));
#1701=DIRECTION('center_axis',(1.,0.,0.));
#1702=DIRECTION('ref_axis',(0.,1.,0.));
#1703=DIRECTION('center_axis',(-1.,0.,0.));
#1704=DIRECTION('ref_axis',(0.,0.,1.));
#1705=DIRECTION('',(0.,0.,-1.));
#1706=DIRECTION('',(0.,0.,1.));
#1707=DIRECTION('center_axis',(-1.,0.,0.));
#1708=DIRECTION('ref_axis',(0.,1.,0.));
#1709=DIRECTION('center_axis',(0.,-1.,0.));
#1710=DIRECTION('ref_axis',(0.,0.,-1.));
#1711=DIRECTION('',(1.,0.,0.));
#1712=DIRECTION('center_axis',(1.,0.,0.));
#1713=DIRECTION('ref_axis',(0.,1.,0.));
#1714=DIRECTION('',(-1.,0.,0.));
#1715=DIRECTION('center_axis',(1.,0.,0.));
#1716=DIRECTION('ref_axis',(0.,1.,0.));
#1717=DIRECTION('center_axis',(1.,0.,0.));
#1718=DIRECTION('ref_axis',(0.,1.,0.));
#1719=DIRECTION('center_axis',(1.,0.,0.));
#1720=DIRECTION('ref_axis',(0.,1.,0.));
#1721=DIRECTION('',(-1.,0.,0.));
#1722=DIRECTION('center_axis',(0.,1.,0.));
#1723=DIRECTION('ref_axis',(0.,0.,1.));
#1724=DIRECTION('center_axis',(-1.,0.,0.));
#1725=DIRECTION('ref_axis',(0.,0.,1.));
#1726=CARTESIAN_POINT('',(0.,0.,0.));
#1727=CARTESIAN_POINT('Origin',(58.5,-69.288871676103,-51.7812945398023));
#1728=CARTESIAN_POINT('',(-7.54624792542153,-62.8806524169947,-46.9922731442358));
#1729=CARTESIAN_POINT('',(-7.54624792542153,-61.6294696412139,-54.0907447918173));
#1730=CARTESIAN_POINT('Origin',(-7.54624792542153,-69.288871676103,-51.7812945398023));
#1731=CARTESIAN_POINT('',(9.61279487447475E-14,-62.8806524169947,-46.9922731442358));
#1732=CARTESIAN_POINT('',(58.5,-62.8806524169947,-46.9922731442358));
#1733=CARTESIAN_POINT('',(9.30290140261331E-14,-61.6294696412139,-54.0907447918173));
#1734=CARTESIAN_POINT('Origin',(1.77635683940025E-14,-69.288871676103,-51.7812945398023));
#1735=CARTESIAN_POINT('',(58.5,-61.6294696412139,-54.0907447918173));
#1736=CARTESIAN_POINT('Origin',(0.,0.,0.));
#1737=CARTESIAN_POINT('',(-7.54624792542154,-4.81616356728389,-78.3521202785383));
#1738=CARTESIAN_POINT('Origin',(-7.54624792542153,0.,0.));
#1739=CARTESIAN_POINT('',(1.95161414384761E-14,-4.81616356728389,-78.3521202785383));
#1740=CARTESIAN_POINT('',(-0.0462479254215353,-4.81616356728389,-78.3521202785383));
#1741=CARTESIAN_POINT('',(-2.235174198853E-7,53.9385238722263,-57.0340760084236));
#1742=CARTESIAN_POINT('Origin',(1.36375108141349E-14,0.,0.));
#1743=CARTESIAN_POINT('',(-40.5,53.9385238722263,-57.0340760084236));
#1744=CARTESIAN_POINT('',(58.5,53.9385238722263,-57.0340760084236));
#1745=CARTESIAN_POINT('',(-40.5,53.9385238722263,57.0340760084236));
#1746=CARTESIAN_POINT('Origin',(-40.5,0.,0.));
#1747=CARTESIAN_POINT('',(7.46237390243501E-15,53.9385238722263,57.0340760084236));
#1748=CARTESIAN_POINT('',(58.5,53.9385238722263,57.0340760084236));
#1749=CARTESIAN_POINT('Origin',(1.36375108141349E-14,0.,0.));
#1750=CARTESIAN_POINT('Origin',(-0.0462479254215353,-5.30698277701815,-86.3370496146912));
#1751=CARTESIAN_POINT('',(1.28369537222284E-14,-11.3575022276312,-81.103387954231));
#1752=CARTESIAN_POINT('Origin',(1.36349265211777E-14,-5.30698277701815,
-86.3370496146912));
#1753=CARTESIAN_POINT('',(-7.54624792542154,-11.3575022276312,-81.103387954231));
#1754=CARTESIAN_POINT('Origin',(-7.54624792542153,-5.30698277701815,-86.3370496146912));
#1755=CARTESIAN_POINT('',(-0.0462479254215353,-11.3575022276312,-81.103387954231));
#1756=CARTESIAN_POINT('Origin',(1.36375108141349E-14,-12.008622150294,0.));
#1757=CARTESIAN_POINT('',(1.10415149245924E-14,-9.88838301856043,-81.2973867383326));
#1758=CARTESIAN_POINT('Origin',(1.36349265211777E-14,0.111616981439559,
0.0905742902545636));
#1759=CARTESIAN_POINT('',(1.10415149245924E-14,-9.88838302069034,-81.3981347352147));
#1760=CARTESIAN_POINT('',(1.10458517332823E-14,-9.88838216027015,-40.6990673900194));
#1761=CARTESIAN_POINT('',(1.28543009569881E-14,-11.371488530595,-81.202401952959));
#1762=CARTESIAN_POINT('Origin',(1.36349265211777E-14,0.111616981439559,
0.0905742902545636));
#1763=CARTESIAN_POINT('',(3.16500585545325E-14,-11.3722214643728,-81.2075906510966));
#1764=CARTESIAN_POINT('',(6.11490025281825E-15,-5.85172602469813,-42.1260456667798));
#1765=CARTESIAN_POINT('',(1.11844903992036E-14,-10.,-81.3879610285871));
#1766=CARTESIAN_POINT('Origin',(1.77635683940025E-14,-5.34294830600857E-15,
0.));
#1767=CARTESIAN_POINT('',(1.11844903992036E-14,-10.,-88.4364178379021));
#1768=CARTESIAN_POINT('',(1.11844903992036E-14,-10.,-40.6939805142936));
#1769=CARTESIAN_POINT('',(1.70828321286262E-14,-14.8297762935875,-87.7557859696234));
#1770=CARTESIAN_POINT('Origin',(-1.23584777768887E-15,-4.33680868994202E-18,
0.));
#1771=CARTESIAN_POINT('',(1.70828321286262E-14,-14.8297762935875,-96.3617896310074));
#1772=CARTESIAN_POINT('',(1.70828321286262E-14,-14.8297762935875,-89.8927343366569));
#1773=CARTESIAN_POINT('',(3.54015125808805E-14,-29.8297767406224,-96.3617910466177));
#1774=CARTESIAN_POINT('',(4.87037894873936E-15,-4.82977636809335,-96.3617910466177));
#1775=CARTESIAN_POINT('',(3.54015125808805E-14,-29.8297767406224,-104.361791165827));
#1776=CARTESIAN_POINT('',(3.54015125808805E-14,-29.8297767406224,-96.611791050343));
#1777=CARTESIAN_POINT('',(-3.78732081362582E-14,30.1702241534473,-104.361791165827));
#1778=CARTESIAN_POINT('',(1.70828324015958E-14,-14.829776517105,-104.361791165827));
#1779=CARTESIAN_POINT('',(-3.78732081362582E-14,30.1702241534473,-96.3617910466177));
#1780=CARTESIAN_POINT('',(-3.78732081362582E-14,30.1702241534473,-100.611791109948));
#1781=CARTESIAN_POINT('',(-1.95545276840039E-14,15.1702237064125,-96.3617896310074));
#1782=CARTESIAN_POINT('',(-1.95545279569735E-14,15.1702239299299,-96.3617910466177));
#1783=CARTESIAN_POINT('',(-1.95545276840039E-14,15.1702237064125,-87.6975743607633));
#1784=CARTESIAN_POINT('',(-1.95545276840039E-14,15.1702237064125,-94.1957361673489));
#1785=CARTESIAN_POINT('',(-1.34483012305453E-14,10.170223855424,-88.4170050544281));
#1786=CARTESIAN_POINT('Origin',(-1.23584777768887E-15,-4.33680868994202E-18,
0.));
#1787=CARTESIAN_POINT('',(-1.34483012305453E-14,10.1702238554241,-89.3617909423096));
#1788=CARTESIAN_POINT('',(-1.34483012305453E-14,10.1702238554241,-90.2233438790593));
#1789=CARTESIAN_POINT('',(-1.32404163245296E-14,10.0000001490116,-89.3617909423096));
#1790=CARTESIAN_POINT('',(-7.34207450411709E-15,5.17022378091826,-89.3617909423096));
#1791=CARTESIAN_POINT('',(-1.32404163245296E-14,10.0000001490116,-81.3879610102783));
#1792=CARTESIAN_POINT('',(-1.32404163245296E-14,10.0000001490116,-44.2182089105262));
#1793=CARTESIAN_POINT('',(-2.23517420657252E-7,57.9827569213073,-57.9827569213073));
#1794=CARTESIAN_POINT('Origin',(1.77635683940025E-14,-5.34294830600857E-15,
0.));
#1795=CARTESIAN_POINT('Origin',(-2.23517418957223E-7,52.5679842917511,-71.9713321573403));
#1796=CARTESIAN_POINT('',(4.66006047846572E-14,-1.24999992549419,-84.5000005885959));
#1797=CARTESIAN_POINT('Origin',(4.66006047846572E-14,7.45058059649015E-8,
-84.5000005885959));
#1798=CARTESIAN_POINT('Origin',(-7.54624792542153,-36.26360016334,-67.1313659402556));
#1799=CARTESIAN_POINT('',(-7.54624792542153,-11.3722214643728,-81.2075906510966));
#1800=CARTESIAN_POINT('Origin',(-7.54624792542153,-5.34294830600857E-15,
0.));
#1801=CARTESIAN_POINT('',(-7.54624792542154,-11.371488530595,-81.202401952959));
#1802=CARTESIAN_POINT('',(-7.54624792542154,-11.3575022276312,-81.103387954231));
#1803=CARTESIAN_POINT('',(-7.54624792542154,-9.88838302069034,-81.3981347352147));
#1804=CARTESIAN_POINT('Origin',(-7.54624792542153,0.111616981439559,0.0905742902545636));
#1805=CARTESIAN_POINT('',(-7.54624792542154,-9.88838301856043,-81.2973867383326));
#1806=CARTESIAN_POINT('',(-7.54624792542154,-9.88838316757211,-88.3458448654528));
#1807=CARTESIAN_POINT('Origin',(-7.54624792542153,0.111616981439559,0.0905742902545636));
#1808=CARTESIAN_POINT('Origin',(-0.0462479254215314,0.111616981439559,0.0905742902545636));
#1809=CARTESIAN_POINT('',(-0.0462479254215354,-9.88838301856043,-81.2973867383326));
#1810=CARTESIAN_POINT('Origin',(-0.0462479254215354,-9.88838302069036,-81.3981347352147));
#1811=CARTESIAN_POINT('',(-0.0462479254215354,-9.88838302069034,-81.3981347352147));
#1812=CARTESIAN_POINT('Origin',(-0.0462479254215314,0.111616981439559,0.0905742902545636));
#1813=CARTESIAN_POINT('',(-0.0462479254215353,-11.371488530595,-81.202401952959));
#1814=CARTESIAN_POINT('Origin',(-0.0462479254215353,-11.5654185969466,-82.5753016672606));
#1815=CARTESIAN_POINT('',(58.5,-11.3722214643728,-81.2075906510966));
#1816=CARTESIAN_POINT('Origin',(1.36375108141349E-14,-12.008622150294,0.));
#1817=CARTESIAN_POINT('',(-7.105427357601E-14,57.9827569213073,57.9827569213073));
#1818=CARTESIAN_POINT('Origin',(1.77635683940025E-14,52.5679842917511,71.9713321573403));
#1819=CARTESIAN_POINT('',(-1.44616616698152E-14,11.0000001639128,81.2588468831839));
#1820=CARTESIAN_POINT('Origin',(1.77635683940025E-14,-5.34294830600857E-15,
0.));
#1821=CARTESIAN_POINT('',(-1.44616616698152E-14,11.0000001639128,88.3176086428631));
#1822=CARTESIAN_POINT('',(-1.44616616698152E-14,11.0000001639128,40.629423441592));
#1823=CARTESIAN_POINT('',(1.11844905811833E-14,-10.0000001490116,88.4364178210525));
#1824=CARTESIAN_POINT('Origin',(4.66006047846572E-14,-4.33680868994202E-18,
0.));
#1825=CARTESIAN_POINT('',(1.11844905811833E-14,-10.0000001490116,81.3879610102783));
#1826=CARTESIAN_POINT('',(1.11844905811833E-14,-10.0000001490116,44.2182089105262));
#1827=CARTESIAN_POINT('',(9.83667042156824E-14,-81.3879610285871,10.));
#1828=CARTESIAN_POINT('Origin',(1.77635683940025E-14,-5.34294830600857E-15,
0.));
#1829=CARTESIAN_POINT('',(1.06974599157238E-13,-88.4364178379021,10.));
#1830=CARTESIAN_POINT('',(7.24836545001698E-14,-60.1939804733154,10.));
#1831=CARTESIAN_POINT('',(1.0697459913666E-13,-88.4364178210525,-10.0000001490116));
#1832=CARTESIAN_POINT('Origin',(4.66006047846572E-14,-4.33680868994202E-18,
0.));
#1833=CARTESIAN_POINT('',(9.83667041933228E-14,-81.3879610102783,-10.0000001490116));
#1834=CARTESIAN_POINT('',(7.67876019606586E-14,-63.718208869548,-10.0000001490116));
#1835=CARTESIAN_POINT('Origin',(1.77635683940025E-14,-5.34294830600857E-15,
0.));
#1836=CARTESIAN_POINT('',(4.66006047846572E-14,-86.2500012665987,-1.53080849893419E-16));
#1837=CARTESIAN_POINT('Origin',(4.66006047846572E-14,-85.0000012665987,
0.));
#1838=CARTESIAN_POINT('',(4.66006047846572E-14,-1.24999999999999,85.0000012665987));
#1839=CARTESIAN_POINT('Origin',(4.66006047846572E-14,-4.33680868994202E-18,
85.0000012665987));
#1840=CARTESIAN_POINT('Origin',(1.23259516440783E-31,-4.33680868994202E-18,
0.));
#1841=CARTESIAN_POINT('',(-9.75,-10.,-88.4364178379021));
#1842=CARTESIAN_POINT('',(-8.,-10.,-88.4364178379021));
#1843=CARTESIAN_POINT('',(-9.75,10.0000001490116,-88.4364178210525));
#1844=CARTESIAN_POINT('Origin',(-9.75,-4.33680868994202E-18,0.));
#1845=CARTESIAN_POINT('',(-20.,10.0000001490116,-88.4364178210525));
#1846=CARTESIAN_POINT('',(1.23259516440783E-31,10.0000001490116,-88.4364178210525));
#1847=CARTESIAN_POINT('',(-20.,-14.8297762935875,-87.7557859696234));
#1848=CARTESIAN_POINT('Origin',(-20.,-4.33680868994202E-18,0.));
#1849=CARTESIAN_POINT('',(1.23259516440783E-31,-14.8297762935875,-87.7557859696234));
#1850=CARTESIAN_POINT('Origin',(1.23259516440783E-31,-4.33680868994202E-18,
0.));
#1851=CARTESIAN_POINT('',(-20.,15.1702237064125,-87.6975743607633));
#1852=CARTESIAN_POINT('',(1.23259516440783E-31,15.1702237064125,-87.6975743607633));
#1853=CARTESIAN_POINT('',(-20.,10.170223855424,-88.4170050544281));
#1854=CARTESIAN_POINT('Origin',(-20.,-4.33680868994202E-18,0.));
#1855=CARTESIAN_POINT('',(1.23259516440783E-31,10.170223855424,-88.4170050544281));
#1856=CARTESIAN_POINT('Origin',(1.23259516440783E-31,15.1702237064125,-96.3617896310074));
#1857=CARTESIAN_POINT('',(-20.,15.1702237064125,-96.3617896310074));
#1858=CARTESIAN_POINT('',(1.23259516440783E-31,15.1702237064125,-96.3617910466177));
#1859=CARTESIAN_POINT('',(-20.,15.1702237064125,-96.3617896310074));
#1860=CARTESIAN_POINT('Origin',(1.23259516440783E-31,10.1702238554241,-88.4170050544281));
#1861=CARTESIAN_POINT('',(-20.,10.1702238554241,-89.3617909423096));
#1862=CARTESIAN_POINT('',(1.23259516440783E-31,10.1702238554241,-89.3617909423096));
#1863=CARTESIAN_POINT('',(-20.,10.1702238554241,-96.3617910466177));
#1864=CARTESIAN_POINT('Origin',(1.23259516440783E-31,-14.8297762935875,
-87.7557859696234));
#1865=CARTESIAN_POINT('',(-20.,-14.8297762935875,-96.3617896310074));
#1866=CARTESIAN_POINT('',(-20.,-14.8297762935875,-96.3617896310074));
#1867=CARTESIAN_POINT('',(1.23259516440783E-31,-14.8297762935875,-96.3617910466177));
#1868=CARTESIAN_POINT('Origin',(1.23259516440783E-31,-9.82977644259916,
-96.3617910466177));
#1869=CARTESIAN_POINT('',(-20.,-29.8297767406224,-96.3617910466177));
#1870=CARTESIAN_POINT('',(-20.,-29.8297767406224,-96.3617910466177));
#1871=CARTESIAN_POINT('',(1.23259516440783E-31,-29.8297767406224,-96.3617910466177));
#1872=CARTESIAN_POINT('Origin',(-20.,0.170223706412456,-96.8617910540683));
#1873=CARTESIAN_POINT('',(-20.,10.0000001490116,-89.3617909423096));
#1874=CARTESIAN_POINT('',(-20.,10.0000001490116,-90.));
#1875=CARTESIAN_POINT('',(-20.,10.1702238554241,-89.3617909423096));
#1876=CARTESIAN_POINT('',(-20.,30.1702241534473,-96.3617910466177));
#1877=CARTESIAN_POINT('',(-20.,30.1702241534473,-96.3617910466177));
#1878=CARTESIAN_POINT('',(-20.,30.1702241534473,-104.361791165827));
#1879=CARTESIAN_POINT('',(-20.,30.1702241534473,-104.361791165827));
#1880=CARTESIAN_POINT('',(-20.,-29.8297767406224,-104.361791165827));
#1881=CARTESIAN_POINT('',(-20.,-9.82977644259916,-104.361791165827));
#1882=CARTESIAN_POINT('',(-20.,-29.8297767406224,-104.361791165827));
#1883=CARTESIAN_POINT('Origin',(1.23259516440783E-31,30.1702241534473,-96.3617910466177));
#1884=CARTESIAN_POINT('',(1.23259516440783E-31,30.1702241534473,-96.3617910466177));
#1885=CARTESIAN_POINT('Origin',(1.23259516440783E-31,30.1702241534473,-104.361791165827));
#1886=CARTESIAN_POINT('',(1.23259516440783E-31,30.1702241534473,-104.361791165827));
#1887=CARTESIAN_POINT('Origin',(1.23259516440783E-31,-29.8297767406224,
-104.361791165827));
#1888=CARTESIAN_POINT('',(1.23259516440783E-31,-29.8297767406224,-104.361791165827));
#1889=CARTESIAN_POINT('Origin',(1.23259516440783E-31,-29.8297767406224,
-96.3617910466177));
#1890=CARTESIAN_POINT('Origin',(1.23259516440783E-31,10.1702238554241,-89.3617909423096));
#1891=CARTESIAN_POINT('',(1.23259516440783E-31,10.0000001490116,-89.3617909423096));
#1892=CARTESIAN_POINT('Origin',(58.5,52.5679842917511,71.9713321573403));
#1893=CARTESIAN_POINT('',(-40.5,43.7206377068842,59.8583449779843));
#1894=CARTESIAN_POINT('Origin',(-40.5,52.5679842917511,71.9713321573403));
#1895=CARTESIAN_POINT('',(-53.5,43.7206377068842,59.8583449779843));
#1896=CARTESIAN_POINT('',(58.5,43.7206377068842,59.8583449779843));
#1897=CARTESIAN_POINT('',(-53.5,43.9105217405533,59.7219100413951));
#1898=CARTESIAN_POINT('Origin',(-53.5,52.5679842917511,71.9713321573403));
#1899=CARTESIAN_POINT('',(-58.5,57.9827569213073,57.9827569213073));
#1900=CARTESIAN_POINT('Ctrl Pts',(-53.5,43.9105217405533,59.7219100413951));
#1901=CARTESIAN_POINT('Ctrl Pts',(-53.5,45.1444924040447,58.8497827926698));
#1902=CARTESIAN_POINT('Ctrl Pts',(-53.7214033935869,46.4824030848378,58.1833483763431));
#1903=CARTESIAN_POINT('Ctrl Pts',(-54.501591140843,49.3176355117536,57.248901552915));
#1904=CARTESIAN_POINT('Ctrl Pts',(-55.0640529847612,50.7848210537504,57.008239012292));
#1905=CARTESIAN_POINT('Ctrl Pts',(-56.6195587132087,54.3043503815343,56.9276296257186));
#1906=CARTESIAN_POINT('Ctrl Pts',(-57.6625332955993,56.2544234284478,57.3137443273582));
#1907=CARTESIAN_POINT('Ctrl Pts',(-58.5000000066821,57.9827569213317,57.9827569128794));
#1908=CARTESIAN_POINT('',(58.5,57.9827569213073,57.9827569213073));
#1909=CARTESIAN_POINT('Origin',(-68.5,18.0835287726592,33.8949170735011));
#1910=CARTESIAN_POINT('',(-58.5,45.9619414620119,45.9619414620119));
#1911=CARTESIAN_POINT('',(-58.5,25.9892229230801,25.9892229230801));
#1912=CARTESIAN_POINT('',(-53.5,40.7302218921842,56.5416101930261));
#1913=CARTESIAN_POINT('',(-53.5,18.0835287726592,33.8949170735011));
#1914=CARTESIAN_POINT('Ctrl Pts',(-53.5,40.7302218921842,56.5416101930261));
#1915=CARTESIAN_POINT('Ctrl Pts',(-53.5,41.6248960410168,55.7769484091829));
#1916=CARTESIAN_POINT('Ctrl Pts',(-53.6376337064139,42.4145792835628,54.9198831773044));
#1917=CARTESIAN_POINT('Ctrl Pts',(-54.1837841629541,43.7867471497703,53.0440567565126));
#1918=CARTESIAN_POINT('Ctrl Pts',(-54.5921432577099,44.3441216275889,52.0472412575823));
#1919=CARTESIAN_POINT('Ctrl Pts',(-55.9884586571056,45.5178748476544,49.3034808024333));
#1920=CARTESIAN_POINT('Ctrl Pts',(-57.1626752827705,45.8738271974652,47.5654240396169));
#1921=CARTESIAN_POINT('Ctrl Pts',(-58.4999999636199,45.9619413812127,45.9619414272303));
#1922=CARTESIAN_POINT('Origin',(-58.5,30.9845379334185,45.1389068216384));
#1923=CARTESIAN_POINT('',(-40.5,39.473452435725,57.5057306083886));
#1924=CARTESIAN_POINT('',(-40.5,45.9619414620119,45.9619414620119));
#1925=CARTESIAN_POINT('Origin',(-40.5,30.9845379334185,45.1389068216384));
#1926=CARTESIAN_POINT('',(-58.5,45.9619414620119,45.9619414620119));
#1927=CARTESIAN_POINT('',(-53.5,39.473452435725,57.5057306083886));
#1928=CARTESIAN_POINT('Origin',(-53.5,30.9845379334185,45.1389068216384));
#1929=CARTESIAN_POINT('',(-58.5,39.473452435725,57.5057306083886));
#1930=CARTESIAN_POINT('Origin',(-53.5,-12.008622150294,0.));
#1931=CARTESIAN_POINT('',(-53.5,43.7206377068842,-59.8583449779843));
#1932=CARTESIAN_POINT('Origin',(-53.5,0.,0.));
#1933=CARTESIAN_POINT('',(-53.5,43.9105217405533,-59.7219100413951));
#1934=CARTESIAN_POINT('Origin',(-53.5,52.5679842917511,-71.9713321573403));
#1935=CARTESIAN_POINT('',(-53.5,40.7302218921842,-56.5416101930261));
#1936=CARTESIAN_POINT('',(-53.5,12.5216138290552,-28.3330021298971));
#1937=CARTESIAN_POINT('',(-53.5,39.473452435725,-57.5057306083886));
#1938=CARTESIAN_POINT('Origin',(-53.5,30.9845379334185,-45.1389068216384));
#1939=CARTESIAN_POINT('Origin',(-53.5,0.,0.));
#1940=CARTESIAN_POINT('Origin',(-40.5,0.,0.));
#1941=CARTESIAN_POINT('',(-40.5,43.7206377068842,-59.8583449779843));
#1942=CARTESIAN_POINT('Origin',(-40.5,0.,0.));
#1943=CARTESIAN_POINT('',(58.5,43.7206377068842,-59.8583449779843));
#1944=CARTESIAN_POINT('Origin',(-40.5,-12.008622150294,0.));
#1945=CARTESIAN_POINT('Origin',(-40.5,52.5679842917511,-71.9713321573403));
#1946=CARTESIAN_POINT('Origin',(58.5,52.5679842917511,-71.9713321573403));
#1947=CARTESIAN_POINT('',(-58.5,57.9827569213073,-57.9827569213073));
#1948=CARTESIAN_POINT('',(58.5,57.9827569213073,-57.9827569213073));
#1949=CARTESIAN_POINT('Ctrl Pts',(-58.5000000066821,57.9827569213317,-57.9827569128794));
#1950=CARTESIAN_POINT('Ctrl Pts',(-57.6730795644043,56.2761884363694,-57.3221692431996));
#1951=CARTESIAN_POINT('Ctrl Pts',(-56.6457137486811,54.3535163545548,-56.9373925441915));
#1952=CARTESIAN_POINT('Ctrl Pts',(-55.047088819614,50.7536707919546,-57.0010855967958));
#1953=CARTESIAN_POINT('Ctrl Pts',(-54.4432601820418,49.1725709525336,-57.2686013632797));
#1954=CARTESIAN_POINT('Ctrl Pts',(-53.6951890440199,46.3202256690223,-58.2649240752845));
#1955=CARTESIAN_POINT('Ctrl Pts',(-53.5,45.0689754092974,-58.9031555597944));
#1956=CARTESIAN_POINT('Ctrl Pts',(-53.5,43.9105217405533,-59.7219100413951));
#1957=CARTESIAN_POINT('Origin',(-68.5,12.5216138290552,-28.3330021298971));
#1958=CARTESIAN_POINT('',(-58.5,45.9619414620119,-45.9619414620119));
#1959=CARTESIAN_POINT('',(-58.5,20.4273079794762,-20.4273079794761));
#1960=CARTESIAN_POINT('Ctrl Pts',(-58.4999999636199,45.9619413812127,-45.9619414272303));
#1961=CARTESIAN_POINT('Ctrl Pts',(-57.5144239564239,45.897003354839,-47.1436694050019));
#1962=CARTESIAN_POINT('Ctrl Pts',(-56.6174574477518,45.6869747992063,-48.3992498040504));
#1963=CARTESIAN_POINT('Ctrl Pts',(-55.0950540810342,44.8750864606006,-50.9582800932603));
#1964=CARTESIAN_POINT('Ctrl Pts',(-54.4777414748288,44.2742010268431,-52.252362569519));
#1965=CARTESIAN_POINT('Ctrl Pts',(-53.6927789733826,42.6977105350207,-54.6049382931661));
#1966=CARTESIAN_POINT('Ctrl Pts',(-53.5,41.789230419202,-55.636494793826));
#1967=CARTESIAN_POINT('Ctrl Pts',(-53.5,40.7302218921842,-56.5416101930261));
#1968=CARTESIAN_POINT('Origin',(-58.5,30.9845379334185,-45.1389068216384));
#1969=CARTESIAN_POINT('',(-40.5,45.9619414620119,-45.9619414620119));
#1970=CARTESIAN_POINT('',(-40.5,39.473452435725,-57.5057306083886));
#1971=CARTESIAN_POINT('Origin',(-40.5,30.9845379334185,-45.1389068216384));
#1972=CARTESIAN_POINT('',(-58.5,39.473452435725,-57.5057306083886));
#1973=CARTESIAN_POINT('',(-58.5,45.9619414620119,-45.9619414620119));
#1974=CARTESIAN_POINT('Origin',(-58.5,0.,0.));
#1975=CARTESIAN_POINT('Origin',(-40.5,0.,0.));
#1976=CARTESIAN_POINT('Origin',(-40.5,-10.2146510061192,0.));
#1977=CARTESIAN_POINT('Origin',(-40.5,0.,0.));
#1978=CARTESIAN_POINT('Origin',(-58.5,0.,0.));
#1979=CARTESIAN_POINT('Origin',(-58.5,0.,0.));
#1980=CARTESIAN_POINT('Origin',(-8.,7.45058037444554E-8,-85.1939805051392));
#1981=CARTESIAN_POINT('',(-8.,-1.65831623470178,-86.9999980553985));
#1982=CARTESIAN_POINT('',(-8.,-1.63351674397266,-81.9837290164212));
#1983=CARTESIAN_POINT('Origin',(-8.,7.45058059649015E-8,-84.5000005885959));
#1984=CARTESIAN_POINT('',(-8.,1.63351688854695,-81.9837290135406));
#1985=CARTESIAN_POINT('Origin',(-8.,-5.34294830600857E-15,0.));
#1986=CARTESIAN_POINT('',(-8.,1.65831623470178,-86.9999980553985));
#1987=CARTESIAN_POINT('Origin',(-8.,7.45058059649015E-8,-84.5000005885959));
#1988=CARTESIAN_POINT('',(-8.,-20.3291580763727,-86.9999980553985));
#1989=CARTESIAN_POINT('',(-8.,-1.24999992549419,-84.5000005885959));
#1990=CARTESIAN_POINT('Origin',(-8.,7.45058059649015E-8,-84.5000005885959));
#1991=CARTESIAN_POINT('Origin',(1.23259516440783E-31,7.45058059649015E-8,
-84.5000005885959));
#1992=CARTESIAN_POINT('',(1.23259516440783E-31,-1.24999992549419,-84.5000005885959));
#1993=CARTESIAN_POINT('Origin',(-8.,10.0000001490116,-81.3879610102783));
#1994=CARTESIAN_POINT('',(-9.75,10.0000001490116,-81.3879610102783));
#1995=CARTESIAN_POINT('',(-9.75,10.0000001490116,-40.6939805051392));
#1996=CARTESIAN_POINT('',(58.5,10.0000001490116,-81.3879610102783));
#1997=CARTESIAN_POINT('Origin',(-8.,7.45058059649015E-8,-84.5000005885959));
#1998=CARTESIAN_POINT('',(-9.75,1.63351688854695,-81.9837290135406));
#1999=CARTESIAN_POINT('',(-8.,1.63351688854694,-81.9837290135406));
#2000=CARTESIAN_POINT('',(-9.75,1.65831623470178,-86.9999980553985));
#2001=CARTESIAN_POINT('Origin',(-9.75,7.45058059649015E-8,-84.5000005885959));
#2002=CARTESIAN_POINT('',(-8.,1.65831623470178,-86.9999980553985));
#2003=CARTESIAN_POINT('Origin',(-8.,-1.65831623470178,-86.9999980553985));
#2004=CARTESIAN_POINT('',(-9.75,-1.65831623470178,-86.9999980553985));
#2005=CARTESIAN_POINT('',(-9.75,-20.3291580763727,-86.9999980553985));
#2006=CARTESIAN_POINT('',(-8.,-1.65831623470178,-86.9999980553985));
#2007=CARTESIAN_POINT('Origin',(-8.,7.45058059649015E-8,-84.5000005885959));
#2008=CARTESIAN_POINT('',(-9.75,-1.63351674397266,-81.9837290164212));
#2009=CARTESIAN_POINT('Origin',(-9.75,7.45058059649015E-8,-84.5000005885959));
#2010=CARTESIAN_POINT('',(-8.,-1.63351674397265,-81.9837290164212));
#2011=CARTESIAN_POINT('Origin',(-8.,-10.,-88.4364178379021));
#2012=CARTESIAN_POINT('',(-9.75,-10.,-81.3879610285871));
#2013=CARTESIAN_POINT('',(58.5,-10.,-81.3879610285871));
#2014=CARTESIAN_POINT('',(-9.75,-10.,-44.218208918951));
#2015=CARTESIAN_POINT('Origin',(-9.75,-38.9999999180436,0.));
#2016=CARTESIAN_POINT('Origin',(-9.75,-5.34294830600857E-15,0.));
#2017=CARTESIAN_POINT('Origin',(-9.75,-5.34294830600857E-15,0.));
#2018=CARTESIAN_POINT('Origin',(-8.,-87.5000013038516,1.65831241988848));
#2019=CARTESIAN_POINT('',(-8.,-87.5000013038516,-1.65831241988848));
#2020=CARTESIAN_POINT('',(-8.,-87.5000013038516,1.65831241988848));
#2021=CARTESIAN_POINT('',(-8.,-87.5000013038516,0.829156172691342));
#2022=CARTESIAN_POINT('',(-9.75,-87.5000013038516,-1.65831241988848));
#2023=CARTESIAN_POINT('',(-8.,-87.5000013038516,-1.65831241988848));
#2024=CARTESIAN_POINT('',(-9.75,-87.5000013038516,1.65831241988848));
#2025=CARTESIAN_POINT('',(-9.75,-87.5000013038516,0.82915620994424));
#2026=CARTESIAN_POINT('',(-8.,-87.5000013038516,1.65831241988848));
#2027=CARTESIAN_POINT('Origin',(-8.,-85.0000012665987,0.));
#2028=CARTESIAN_POINT('',(-8.,-82.5000012293458,1.65831241988848));
#2029=CARTESIAN_POINT('Origin',(-8.,-85.0000012665987,0.));
#2030=CARTESIAN_POINT('',(-9.75,-82.5000012293458,1.65831241988848));
#2031=CARTESIAN_POINT('Origin',(-9.75,-85.0000012665987,0.));
#2032=CARTESIAN_POINT('',(-8.,-82.5000012293458,1.65831241988848));
#2033=CARTESIAN_POINT('Origin',(-8.,-82.5000012293458,-1.65831241988848));
#2034=CARTESIAN_POINT('',(-8.,-82.5000012293458,-1.65831241988848));
#2035=CARTESIAN_POINT('',(-8.,-82.5000012293458,-0.829156247197139));
#2036=CARTESIAN_POINT('',(-9.75,-82.5000012293458,-1.65831241988848));
#2037=CARTESIAN_POINT('',(-9.75,-82.5000012293458,-0.82915620994424));
#2038=CARTESIAN_POINT('',(-8.,-82.5000012293458,-1.65831241988848));
#2039=CARTESIAN_POINT('Origin',(-8.,-85.0000012665987,0.));
#2040=CARTESIAN_POINT('Origin',(-8.,-85.0000012665987,0.));
#2041=CARTESIAN_POINT('Origin',(-9.75,-85.0000012665987,0.));
#2042=CARTESIAN_POINT('Origin',(-9.75,-38.9999999180436,0.));
#2043=CARTESIAN_POINT('',(-9.75,-81.3879610102783,-10.0000001490116));
#2044=CARTESIAN_POINT('',(-9.75,-88.4364178210525,-10.0000001490116));
#2045=CARTESIAN_POINT('',(-9.75,-60.193980464161,-10.0000001490116));
#2046=CARTESIAN_POINT('',(-9.75,-88.4364178379021,10.));
#2047=CARTESIAN_POINT('Origin',(-9.75,-4.33680868994202E-18,0.));
#2048=CARTESIAN_POINT('',(-9.75,-81.3879610285871,10.));
#2049=CARTESIAN_POINT('',(-9.75,-63.7182088779728,10.));
#2050=CARTESIAN_POINT('Origin',(-9.75,-5.34294830600857E-15,0.));
#2051=CARTESIAN_POINT('Origin',(1.23259516440783E-31,-88.4364178210525,
-10.0000001490116));
#2052=CARTESIAN_POINT('',(1.23259516440783E-31,-88.4364178210525,-10.0000001490116));
#2053=CARTESIAN_POINT('',(58.5,-81.3879610102783,-10.0000001490116));
#2054=CARTESIAN_POINT('Origin',(1.23259516440783E-31,-4.33680868994202E-18,
0.));
#2055=CARTESIAN_POINT('',(1.23259516440783E-31,-88.4364178379021,10.));
#2056=CARTESIAN_POINT('Origin',(-8.,-85.1939805051392,-7.45057970874541E-8));
#2057=CARTESIAN_POINT('',(-8.,-86.2500012665987,-1.53080849893419E-16));
#2058=CARTESIAN_POINT('Origin',(-8.,-85.0000012665987,0.));
#2059=CARTESIAN_POINT('Origin',(1.23259516440783E-31,-85.0000012665987,
0.));
#2060=CARTESIAN_POINT('',(1.23259516440783E-31,-86.2500012665987,-1.53080849893419E-16));
#2061=CARTESIAN_POINT('Origin',(1.23259516440783E-31,-81.3879610285871,
10.));
#2062=CARTESIAN_POINT('',(58.5,-81.3879610285871,10.));
#2063=CARTESIAN_POINT('Origin',(58.5,-5.34294830600857E-15,0.));
#2064=CARTESIAN_POINT('',(-9.75,-10.0000001490116,81.3879610102783));
#2065=CARTESIAN_POINT('',(58.5,-10.0000001490116,81.3879610102783));
#2066=CARTESIAN_POINT('',(-9.75,11.0000001639128,81.2588468831839));
#2067=CARTESIAN_POINT('Origin',(-9.75,-5.34294830600857E-15,0.));
#2068=CARTESIAN_POINT('',(58.5,11.0000001639128,81.258846883184));
#2069=CARTESIAN_POINT('Origin',(-58.5,0.,0.));
#2070=CARTESIAN_POINT('Origin',(-8.,1.65831233901683,87.5000013038516));
#2071=CARTESIAN_POINT('',(-8.,-1.65831233901683,87.5000013038516));
#2072=CARTESIAN_POINT('',(-8.,1.65831233901683,87.5000013038516));
#2073=CARTESIAN_POINT('',(-8.,1.07915617323371,87.5000013038516));
#2074=CARTESIAN_POINT('',(-9.75,-1.65831233901683,87.5000013038516));
#2075=CARTESIAN_POINT('',(-8.,-1.65831233901683,87.5000013038516));
#2076=CARTESIAN_POINT('',(-9.75,1.65831233901683,87.5000013038516));
#2077=CARTESIAN_POINT('',(-9.75,-18.6708437895134,87.5000013038516));
#2078=CARTESIAN_POINT('',(-8.,1.65831233901683,87.5000013038516));
#2079=CARTESIAN_POINT('Origin',(-8.,-4.33680868994202E-18,85.0000012665987));
#2080=CARTESIAN_POINT('',(-8.,1.65830770573598,82.4999981559813));
#2081=CARTESIAN_POINT('Origin',(-8.,-4.33680868994202E-18,85.0000012665987));
#2082=CARTESIAN_POINT('',(-9.75,1.65830770573598,82.4999981559813));
#2083=CARTESIAN_POINT('Origin',(-9.75,-4.33680868994202E-18,85.0000012665987));
#2084=CARTESIAN_POINT('',(-8.,1.65830770573598,82.4999981559813));
#2085=CARTESIAN_POINT('Origin',(-8.,-1.65830770573598,82.4999981559813));
#2086=CARTESIAN_POINT('',(-8.,-1.65830770573598,82.4999981559813));
#2087=CARTESIAN_POINT('',(-8.,-0.5791538491427,82.4999981559813));
#2088=CARTESIAN_POINT('',(-9.75,-1.65830770573598,82.4999981559813));
#2089=CARTESIAN_POINT('',(-9.75,-20.3291538118898,82.4999981559813));
#2090=CARTESIAN_POINT('',(-8.,-1.65830770573598,82.4999981559813));
#2091=CARTESIAN_POINT('Origin',(-8.,-4.33680868994202E-18,85.0000012665987));
#2092=CARTESIAN_POINT('Origin',(-8.,-4.33680868994202E-18,85.0000012665987));
#2093=CARTESIAN_POINT('Origin',(-9.75,-4.33680868994202E-18,85.0000012665987));
#2094=CARTESIAN_POINT('Origin',(-9.75,-38.9999999180436,0.));
#2095=CARTESIAN_POINT('',(-9.75,11.0000001639128,88.3176086428631));
#2096=CARTESIAN_POINT('',(-9.75,11.0000001639128,44.1588043214315));
#2097=CARTESIAN_POINT('',(-9.75,-10.0000001490116,88.4364178210525));
#2098=CARTESIAN_POINT('',(-9.75,-10.0000001490116,40.6939805051392));
#2099=CARTESIAN_POINT('Origin',(-9.75,-4.33680868994202E-18,0.));
#2100=CARTESIAN_POINT('Origin',(1.23259516440783E-31,-10.0000001490116,
88.4364178210525));
#2101=CARTESIAN_POINT('',(1.23259516440783E-31,-10.0000001490116,88.4364178210525));
#2102=CARTESIAN_POINT('Origin',(1.23259516440783E-31,-4.33680868994202E-18,
0.));
#2103=CARTESIAN_POINT('',(1.23259516440783E-31,11.0000001639128,88.3176086428631));
#2104=CARTESIAN_POINT('Origin',(-8.,0.500000007450581,85.129423441592));
#2105=CARTESIAN_POINT('',(-8.,-1.24999999999999,85.0000012665987));
#2106=CARTESIAN_POINT('Origin',(-8.,-4.33680868994202E-18,85.0000012665987));
#2107=CARTESIAN_POINT('Origin',(1.23259516440783E-31,-4.33680868994202E-18,
85.0000012665987));
#2108=CARTESIAN_POINT('',(1.23259516440783E-31,-1.24999999999999,85.0000012665987));
#2109=CARTESIAN_POINT('Origin',(1.23259516440783E-31,11.0000001639128,81.2588468831839));
#2110=CARTESIAN_POINT('Origin',(-58.5,-12.008622150294,0.));
#2111=UNCERTAINTY_MEASURE_WITH_UNIT(LENGTH_MEASURE(0.01),#2115,
'DISTANCE_ACCURACY_VALUE',
'Maximum model space distance between geometric entities at asserted c
onnectivities');
#2112=UNCERTAINTY_MEASURE_WITH_UNIT(LENGTH_MEASURE(0.01),#2115,
'DISTANCE_ACCURACY_VALUE',
'Maximum model space distance between geometric entities at asserted c
onnectivities');
#2113=(
GEOMETRIC_REPRESENTATION_CONTEXT(3)
GLOBAL_UNCERTAINTY_ASSIGNED_CONTEXT((#2111))
GLOBAL_UNIT_ASSIGNED_CONTEXT((#2115,#2117,#2118))
REPRESENTATION_CONTEXT('','3D')
);
#2114=(
GEOMETRIC_REPRESENTATION_CONTEXT(3)
GLOBAL_UNCERTAINTY_ASSIGNED_CONTEXT((#2112))
GLOBAL_UNIT_ASSIGNED_CONTEXT((#2115,#2117,#2118))
REPRESENTATION_CONTEXT('','3D')
);
#2115=(
LENGTH_UNIT()
NAMED_UNIT(*)
SI_UNIT(.MILLI.,.METRE.)
);
#2116=(
LENGTH_UNIT()
NAMED_UNIT(*)
SI_UNIT($,.METRE.)
);
#2117=(
NAMED_UNIT(*)
PLANE_ANGLE_UNIT()
SI_UNIT($,.RADIAN.)
);
#2118=(
NAMED_UNIT(*)
SI_UNIT($,.STERADIAN.)
SOLID_ANGLE_UNIT()
);
#2119=SHAPE_DEFINITION_REPRESENTATION(#2120,#2121);
#2120=PRODUCT_DEFINITION_SHAPE('',$,#2123);
#2121=SHAPE_REPRESENTATION('',(#1225),#2113);
#2122=PRODUCT_DEFINITION_CONTEXT('part definition',#2127,'design');
#2123=PRODUCT_DEFINITION('Drum Shell Right','Drum Shell Right',#2124,#2122);
#2124=PRODUCT_DEFINITION_FORMATION('',$,#2129);
#2125=PRODUCT_RELATED_PRODUCT_CATEGORY('Drum Shell Right',
'Drum Shell Right',(#2129));
#2126=APPLICATION_PROTOCOL_DEFINITION('international standard',
'automotive_design',2009,#2127);
#2127=APPLICATION_CONTEXT(
'Core Data for Automotive Mechanical Design Process');
#2128=PRODUCT_CONTEXT('part definition',#2127,'mechanical');
#2129=PRODUCT('Drum Shell Right','Drum Shell Right',$,(#2128));
#2130=PRESENTATION_STYLE_ASSIGNMENT((#2132));
#2131=PRESENTATION_STYLE_ASSIGNMENT((#2133));
#2132=SURFACE_STYLE_USAGE(.BOTH.,#2134);
#2133=SURFACE_STYLE_USAGE(.BOTH.,#2135);
#2134=SURFACE_SIDE_STYLE('',(#2136));
#2135=SURFACE_SIDE_STYLE('',(#2137));
#2136=SURFACE_STYLE_FILL_AREA(#2138);
#2137=SURFACE_STYLE_FILL_AREA(#2139);
#2138=FILL_AREA_STYLE('Stahl - satiniert',(#2140));
#2139=FILL_AREA_STYLE('ABS (Wei\X\DF)',(#2141));
#2140=FILL_AREA_STYLE_COLOUR('Stahl - satiniert',#2142);
#2141=FILL_AREA_STYLE_COLOUR('ABS (Wei\X\DF)',#2143);
#2142=COLOUR_RGB('Stahl - satiniert',0.627450980392157,0.627450980392157,
0.627450980392157);
#2143=COLOUR_RGB('ABS (Wei\X\DF)',0.137254901960784,0.137254901960784,0.137254901960784);
ENDSEC;
END-ISO-10303-21;
