ISO-10303-21;
HEADER;
/* Generated by software containing ST-Developer
 * from STEP Tools, Inc. (www.steptools.com) 
 */

FILE_DESCRIPTION(
/* description */ (''),
/* implementation_level */ '2;1');

FILE_NAME(
/* name */ 'Drum_Shell_Left.step',
/* time_stamp */ '2026-09-29T23:14:51+02:00',
/* author */ (''),
/* organization */ (''),
/* preprocessor_version */ 'ST-DEVELOPER v20.2',
/* originating_system */ 'Autodesk Translation Framework v15.15.0.0',
/* authorisation */ '');

FILE_SCHEMA (('AUTOMOTIVE_DESIGN { 1 0 10303 214 3 1 1 }'));
ENDSEC;

DATA;
#10=MECHANICAL_DESIGN_GEOMETRIC_PRESENTATION_REPRESENTATION('',(#13),#1709);
#11=SHAPE_REPRESENTATION_RELATIONSHIP('SRR','None',#1716,#12);
#12=ADVANCED_BREP_SHAPE_REPRESENTATION('',(#14),#1708);
#13=STYLED_ITEM('',(#1726),#14);
#14=MANIFOLD_SOLID_BREP('Drum Shell Left',#978);
#15=B_SPLINE_CURVE_WITH_KNOTS('',3,(#1590,#1591,#1592,#1593,#1594,#1595,
#1596,#1597,#1598,#1599),.UNSPECIFIED.,.F.,.F.,(4,2,2,2,4),(-1.44503170257047,
-1.2335156998263,-1.01152088128194,-0.513819646256299,0.),.UNSPECIFIED.);
#16=B_SPLINE_CURVE_WITH_KNOTS('',3,(#1600,#1601,#1602,#1603,#1604,#1605,
#1606,#1607),.UNSPECIFIED.,.F.,.F.,(4,2,2,4),(-1.34169032384078,-0.881153418345223,
-0.41793057455275,0.),.UNSPECIFIED.);
#17=B_SPLINE_CURVE_WITH_KNOTS('',3,(#1642,#1643,#1644,#1645,#1646,#1647,
#1648,#1649),.UNSPECIFIED.,.F.,.F.,(4,2,2,4),(-1.34163898331722,-0.85867107980282,
-0.422446103324495,0.),.UNSPECIFIED.);
#18=B_SPLINE_CURVE_WITH_KNOTS('',3,(#1651,#1652,#1653,#1654,#1655,#1656,
#1657,#1658),.UNSPECIFIED.,.F.,.F.,(4,2,2,4),(-1.60384315022746,-0.943374898484224,
-0.437353323575793,0.),.UNSPECIFIED.);
#19=FACE_BOUND('',#112,.T.);
#20=FACE_BOUND('',#113,.T.);
#21=FACE_BOUND('',#115,.T.);
#22=FACE_BOUND('',#148,.T.);
#23=FACE_BOUND('',#153,.T.);
#24=FACE_BOUND('',#159,.T.);
#25=PLANE('',#1003);
#26=PLANE('',#1005);
#27=PLANE('',#1014);
#28=PLANE('',#1021);
#29=PLANE('',#1022);
#30=PLANE('',#1024);
#31=PLANE('',#1025);
#32=PLANE('',#1027);
#33=PLANE('',#1028);
#34=PLANE('',#1036);
#35=PLANE('',#1037);
#36=PLANE('',#1040);
#37=PLANE('',#1041);
#38=PLANE('',#1045);
#39=PLANE('',#1046);
#40=PLANE('',#1047);
#41=PLANE('',#1048);
#42=PLANE('',#1049);
#43=PLANE('',#1050);
#44=PLANE('',#1058);
#45=PLANE('',#1065);
#46=PLANE('',#1074);
#47=PLANE('',#1076);
#48=PLANE('',#1078);
#49=PLANE('',#1080);
#50=PLANE('',#1081);
#51=PLANE('',#1085);
#52=PLANE('',#1087);
#53=PLANE('',#1088);
#54=PLANE('',#1092);
#55=PLANE('',#1094);
#56=FACE_OUTER_BOUND('',#107,.T.);
#57=FACE_OUTER_BOUND('',#108,.T.);
#58=FACE_OUTER_BOUND('',#109,.T.);
#59=FACE_OUTER_BOUND('',#110,.T.);
#60=FACE_OUTER_BOUND('',#111,.T.);
#61=FACE_OUTER_BOUND('',#114,.T.);
#62=FACE_OUTER_BOUND('',#116,.T.);
#63=FACE_OUTER_BOUND('',#117,.T.);
#64=FACE_OUTER_BOUND('',#118,.T.);
#65=FACE_OUTER_BOUND('',#119,.T.);
#66=FACE_OUTER_BOUND('',#120,.T.);
#67=FACE_OUTER_BOUND('',#121,.T.);
#68=FACE_OUTER_BOUND('',#122,.T.);
#69=FACE_OUTER_BOUND('',#123,.T.);
#70=FACE_OUTER_BOUND('',#124,.T.);
#71=FACE_OUTER_BOUND('',#125,.T.);
#72=FACE_OUTER_BOUND('',#126,.T.);
#73=FACE_OUTER_BOUND('',#127,.T.);
#74=FACE_OUTER_BOUND('',#128,.T.);
#75=FACE_OUTER_BOUND('',#129,.T.);
#76=FACE_OUTER_BOUND('',#130,.T.);
#77=FACE_OUTER_BOUND('',#131,.T.);
#78=FACE_OUTER_BOUND('',#132,.T.);
#79=FACE_OUTER_BOUND('',#133,.T.);
#80=FACE_OUTER_BOUND('',#134,.T.);
#81=FACE_OUTER_BOUND('',#135,.T.);
#82=FACE_OUTER_BOUND('',#136,.T.);
#83=FACE_OUTER_BOUND('',#137,.T.);
#84=FACE_OUTER_BOUND('',#138,.T.);
#85=FACE_OUTER_BOUND('',#139,.T.);
#86=FACE_OUTER_BOUND('',#140,.T.);
#87=FACE_OUTER_BOUND('',#141,.T.);
#88=FACE_OUTER_BOUND('',#142,.T.);
#89=FACE_OUTER_BOUND('',#143,.T.);
#90=FACE_OUTER_BOUND('',#144,.T.);
#91=FACE_OUTER_BOUND('',#145,.T.);
#92=FACE_OUTER_BOUND('',#146,.T.);
#93=FACE_OUTER_BOUND('',#147,.T.);
#94=FACE_OUTER_BOUND('',#149,.T.);
#95=FACE_OUTER_BOUND('',#150,.T.);
#96=FACE_OUTER_BOUND('',#151,.T.);
#97=FACE_OUTER_BOUND('',#152,.T.);
#98=FACE_OUTER_BOUND('',#154,.T.);
#99=FACE_OUTER_BOUND('',#155,.T.);
#100=FACE_OUTER_BOUND('',#156,.T.);
#101=FACE_OUTER_BOUND('',#157,.T.);
#102=FACE_OUTER_BOUND('',#158,.T.);
#103=FACE_OUTER_BOUND('',#160,.T.);
#104=FACE_OUTER_BOUND('',#161,.T.);
#105=FACE_OUTER_BOUND('',#162,.T.);
#106=FACE_OUTER_BOUND('',#163,.T.);
#107=EDGE_LOOP('',(#623,#624,#625,#626));
#108=EDGE_LOOP('',(#627,#628,#629,#630));
#109=EDGE_LOOP('',(#631,#632,#633,#634,#635,#636,#637,#638));
#110=EDGE_LOOP('',(#639,#640,#641,#642));
#111=EDGE_LOOP('',(#643,#644,#645,#646,#647,#648,#649,#650,#651,#652,#653,
#654));
#112=EDGE_LOOP('',(#655));
#113=EDGE_LOOP('',(#656));
#114=EDGE_LOOP('',(#657,#658,#659,#660,#661,#662,#663,#664,#665,#666,#667,
#668,#669,#670,#671,#672,#673,#674));
#115=EDGE_LOOP('',(#675));
#116=EDGE_LOOP('',(#676,#677,#678,#679,#680));
#117=EDGE_LOOP('',(#681,#682,#683));
#118=EDGE_LOOP('',(#684,#685,#686,#687));
#119=EDGE_LOOP('',(#688,#689,#690));
#120=EDGE_LOOP('',(#691,#692,#693,#694));
#121=EDGE_LOOP('',(#695,#696,#697,#698,#699,#700,#701,#702));
#122=EDGE_LOOP('',(#703,#704,#705,#706,#707,#708,#709,#710,#711,#712,#713,
#714,#715,#716,#717,#718,#719,#720,#721,#722));
#123=EDGE_LOOP('',(#723,#724,#725,#726));
#124=EDGE_LOOP('',(#727,#728,#729,#730));
#125=EDGE_LOOP('',(#731,#732,#733,#734));
#126=EDGE_LOOP('',(#735,#736,#737,#738));
#127=EDGE_LOOP('',(#739,#740,#741,#742));
#128=EDGE_LOOP('',(#743,#744,#745,#746,#747,#748));
#129=EDGE_LOOP('',(#749,#750,#751,#752));
#130=EDGE_LOOP('',(#753,#754,#755,#756,#757,#758,#759,#760,#761,#762,#763,
#764));
#131=EDGE_LOOP('',(#765,#766,#767,#768));
#132=EDGE_LOOP('',(#769,#770,#771,#772));
#133=EDGE_LOOP('',(#773,#774,#775,#776));
#134=EDGE_LOOP('',(#777,#778,#779,#780));
#135=EDGE_LOOP('',(#781,#782,#783,#784));
#136=EDGE_LOOP('',(#785,#786,#787,#788,#789,#790,#791));
#137=EDGE_LOOP('',(#792,#793,#794,#795,#796));
#138=EDGE_LOOP('',(#797,#798,#799,#800,#801,#802,#803,#804));
#139=EDGE_LOOP('',(#805,#806,#807,#808));
#140=EDGE_LOOP('',(#809,#810,#811,#812));
#141=EDGE_LOOP('',(#813,#814,#815,#816,#817));
#142=EDGE_LOOP('',(#818,#819,#820,#821));
#143=EDGE_LOOP('',(#822,#823,#824,#825,#826,#827,#828));
#144=EDGE_LOOP('',(#829,#830,#831,#832));
#145=EDGE_LOOP('',(#833,#834,#835,#836));
#146=EDGE_LOOP('',(#837,#838,#839,#840,#841,#842,#843,#844,#845));
#147=EDGE_LOOP('',(#846,#847,#848,#849));
#148=EDGE_LOOP('',(#850));
#149=EDGE_LOOP('',(#851,#852,#853,#854,#855,#856));
#150=EDGE_LOOP('',(#857,#858,#859,#860));
#151=EDGE_LOOP('',(#861,#862,#863,#864));
#152=EDGE_LOOP('',(#865,#866,#867,#868));
#153=EDGE_LOOP('',(#869));
#154=EDGE_LOOP('',(#870,#871,#872,#873));
#155=EDGE_LOOP('',(#874,#875,#876,#877));
#156=EDGE_LOOP('',(#878,#879,#880,#881));
#157=EDGE_LOOP('',(#882,#883,#884,#885));
#158=EDGE_LOOP('',(#886,#887,#888,#889));
#159=EDGE_LOOP('',(#890));
#160=EDGE_LOOP('',(#891,#892,#893,#894));
#161=EDGE_LOOP('',(#895,#896,#897,#898));
#162=EDGE_LOOP('',(#899,#900,#901,#902));
#163=EDGE_LOOP('',(#903,#904,#905,#906));
#164=LINE('',#1395,#250);
#165=LINE('',#1398,#251);
#166=LINE('',#1404,#252);
#167=LINE('',#1407,#253);
#168=LINE('',#1412,#254);
#169=LINE('',#1416,#255);
#170=LINE('',#1425,#256);
#171=LINE('',#1429,#257);
#172=LINE('',#1433,#258);
#173=LINE('',#1437,#259);
#174=LINE('',#1451,#260);
#175=LINE('',#1453,#261);
#176=LINE('',#1455,#262);
#177=LINE('',#1459,#263);
#178=LINE('',#1461,#264);
#179=LINE('',#1463,#265);
#180=LINE('',#1465,#266);
#181=LINE('',#1467,#267);
#182=LINE('',#1469,#268);
#183=LINE('',#1471,#269);
#184=LINE('',#1475,#270);
#185=LINE('',#1482,#271);
#186=LINE('',#1484,#272);
#187=LINE('',#1486,#273);
#188=LINE('',#1488,#274);
#189=LINE('',#1489,#275);
#190=LINE('',#1493,#276);
#191=LINE('',#1496,#277);
#192=LINE('',#1497,#278);
#193=LINE('',#1501,#279);
#194=LINE('',#1504,#280);
#195=LINE('',#1505,#281);
#196=LINE('',#1510,#282);
#197=LINE('',#1514,#283);
#198=LINE('',#1518,#284);
#199=LINE('',#1521,#285);
#200=LINE('',#1522,#286);
#201=LINE('',#1523,#287);
#202=LINE('',#1525,#288);
#203=LINE('',#1528,#289);
#204=LINE('',#1530,#290);
#205=LINE('',#1533,#291);
#206=LINE('',#1536,#292);
#207=LINE('',#1538,#293);
#208=LINE('',#1539,#294);
#209=LINE('',#1542,#295);
#210=LINE('',#1544,#296);
#211=LINE('',#1545,#297);
#212=LINE('',#1550,#298);
#213=LINE('',#1551,#299);
#214=LINE('',#1554,#300);
#215=LINE('',#1556,#301);
#216=LINE('',#1557,#302);
#217=LINE('',#1560,#303);
#218=LINE('',#1564,#304);
#219=LINE('',#1568,#305);
#220=LINE('',#1569,#306);
#221=LINE('',#1571,#307);
#222=LINE('',#1573,#308);
#223=LINE('',#1575,#309);
#224=LINE('',#1577,#310);
#225=LINE('',#1578,#311);
#226=LINE('',#1580,#312);
#227=LINE('',#1581,#313);
#228=LINE('',#1584,#314);
#229=LINE('',#1589,#315);
#230=LINE('',#1612,#316);
#231=LINE('',#1619,#317);
#232=LINE('',#1621,#318);
#233=LINE('',#1628,#319);
#234=LINE('',#1635,#320);
#235=LINE('',#1641,#321);
#236=LINE('',#1662,#322);
#237=LINE('',#1668,#323);
#238=LINE('',#1669,#324);
#239=LINE('',#1674,#325);
#240=LINE('',#1680,#326);
#241=LINE('',#1681,#327);
#242=LINE('',#1685,#328);
#243=LINE('',#1686,#329);
#244=LINE('',#1689,#330);
#245=LINE('',#1695,#331);
#246=LINE('',#1696,#332);
#247=LINE('',#1700,#333);
#248=LINE('',#1701,#334);
#249=LINE('',#1704,#335);
#250=VECTOR('',#1101,8.);
#251=VECTOR('',#1104,10.);
#252=VECTOR('',#1109,8.);
#253=VECTOR('',#1112,10.);
#254=VECTOR('',#1117,10.);
#255=VECTOR('',#1120,10.);
#256=VECTOR('',#1133,10.);
#257=VECTOR('',#1136,10.);
#258=VECTOR('',#1139,10.);
#259=VECTOR('',#1142,10.);
#260=VECTOR('',#1157,10.);
#261=VECTOR('',#1158,10.);
#262=VECTOR('',#1159,10.);
#263=VECTOR('',#1162,10.);
#264=VECTOR('',#1163,10.);
#265=VECTOR('',#1164,10.);
#266=VECTOR('',#1165,10.);
#267=VECTOR('',#1166,10.);
#268=VECTOR('',#1167,10.);
#269=VECTOR('',#1168,10.);
#270=VECTOR('',#1171,10.);
#271=VECTOR('',#1178,10.);
#272=VECTOR('',#1179,10.);
#273=VECTOR('',#1180,10.);
#274=VECTOR('',#1181,10.);
#275=VECTOR('',#1182,10.);
#276=VECTOR('',#1187,10.);
#277=VECTOR('',#1190,10.);
#278=VECTOR('',#1191,10.);
#279=VECTOR('',#1196,10.);
#280=VECTOR('',#1199,10.);
#281=VECTOR('',#1200,10.);
#282=VECTOR('',#1205,10.);
#283=VECTOR('',#1208,10.);
#284=VECTOR('',#1213,10.);
#285=VECTOR('',#1216,10.);
#286=VECTOR('',#1217,10.);
#287=VECTOR('',#1218,10.);
#288=VECTOR('',#1219,10.);
#289=VECTOR('',#1222,10.);
#290=VECTOR('',#1223,10.);
#291=VECTOR('',#1226,10.);
#292=VECTOR('',#1229,10.);
#293=VECTOR('',#1230,10.);
#294=VECTOR('',#1231,10.);
#295=VECTOR('',#1234,10.);
#296=VECTOR('',#1235,10.);
#297=VECTOR('',#1236,10.);
#298=VECTOR('',#1243,10.);
#299=VECTOR('',#1244,10.);
#300=VECTOR('',#1247,10.);
#301=VECTOR('',#1248,10.);
#302=VECTOR('',#1249,10.);
#303=VECTOR('',#1252,10.);
#304=VECTOR('',#1255,10.);
#305=VECTOR('',#1260,10.);
#306=VECTOR('',#1261,10.);
#307=VECTOR('',#1264,10.);
#308=VECTOR('',#1265,10.);
#309=VECTOR('',#1266,10.);
#310=VECTOR('',#1267,10.);
#311=VECTOR('',#1268,10.);
#312=VECTOR('',#1271,10.);
#313=VECTOR('',#1272,10.);
#314=VECTOR('',#1277,10.);
#315=VECTOR('',#1282,15.);
#316=VECTOR('',#1287,15.);
#317=VECTOR('',#1294,15.);
#318=VECTOR('',#1297,10.);
#319=VECTOR('',#1304,15.);
#320=VECTOR('',#1313,15.);
#321=VECTOR('',#1322,10.);
#322=VECTOR('',#1329,15.);
#323=VECTOR('',#1340,10.);
#324=VECTOR('',#1341,10.);
#325=VECTOR('',#1348,1.25);
#326=VECTOR('',#1355,10.);
#327=VECTOR('',#1356,10.);
#328=VECTOR('',#1361,10.);
#329=VECTOR('',#1362,10.);
#330=VECTOR('',#1367,1.24999999999999);
#331=VECTOR('',#1374,10.);
#332=VECTOR('',#1375,10.);
#333=VECTOR('',#1380,10.);
#334=VECTOR('',#1381,10.);
#335=VECTOR('',#1386,1.25);
#336=CIRCLE('',#993,8.);
#337=CIRCLE('',#994,8.);
#338=CIRCLE('',#996,8.00000000000001);
#339=CIRCLE('',#997,8.00000000000001);
#340=CIRCLE('',#999,78.5000011697412);
#341=CIRCLE('',#1000,78.5000011697412);
#342=CIRCLE('',#1001,78.5000011697412);
#343=CIRCLE('',#1002,78.5000011697412);
#344=CIRCLE('',#1004,82.0000012218952);
#345=CIRCLE('',#1006,82.0000012218952);
#346=CIRCLE('',#1007,89.);
#347=CIRCLE('',#1008,82.0000012218952);
#348=CIRCLE('',#1009,89.);
#349=CIRCLE('',#1010,82.0000012218952);
#350=CIRCLE('',#1011,15.);
#351=CIRCLE('',#1012,1.24999999999999);
#352=CIRCLE('',#1013,1.25);
#353=CIRCLE('',#1015,15.);
#354=CIRCLE('',#1016,82.0000012218952);
#355=CIRCLE('',#1017,89.0000013262033);
#356=CIRCLE('',#1018,89.0000013262033);
#357=CIRCLE('',#1019,82.0000012218952);
#358=CIRCLE('',#1020,1.25);
#359=CIRCLE('',#1023,65.0000009685755);
#360=CIRCLE('',#1026,65.0000009685755);
#361=CIRCLE('',#1029,65.0000009685755);
#362=CIRCLE('',#1030,82.0000012218952);
#363=CIRCLE('',#1031,65.0000009685755);
#364=CIRCLE('',#1033,82.0000012218952);
#365=CIRCLE('',#1034,82.0000012218952);
#366=CIRCLE('',#1035,82.0000012218952);
#367=CIRCLE('',#1039,89.0000013262033);
#368=CIRCLE('',#1043,89.);
#369=CIRCLE('',#1044,89.);
#370=CIRCLE('',#1053,15.);
#371=CIRCLE('',#1054,15.);
#372=CIRCLE('',#1056,15.);
#373=CIRCLE('',#1057,15.);
#374=CIRCLE('',#1059,69.75);
#375=CIRCLE('',#1060,15.);
#376=CIRCLE('',#1061,15.);
#377=CIRCLE('',#1062,74.125);
#378=CIRCLE('',#1064,69.75);
#379=CIRCLE('',#1066,65.0000009685755);
#380=CIRCLE('',#1067,15.);
#381=CIRCLE('',#1071,15.);
#382=CIRCLE('',#1073,74.125);
#383=CIRCLE('',#1077,1.25);
#384=CIRCLE('',#1082,89.);
#385=CIRCLE('',#1083,1.24999999999999);
#386=CIRCLE('',#1089,89.);
#387=CIRCLE('',#1090,1.25);
#388=VERTEX_POINT('',#1391);
#389=VERTEX_POINT('',#1392);
#390=VERTEX_POINT('',#1394);
#391=VERTEX_POINT('',#1396);
#392=VERTEX_POINT('',#1400);
#393=VERTEX_POINT('',#1401);
#394=VERTEX_POINT('',#1403);
#395=VERTEX_POINT('',#1405);
#396=VERTEX_POINT('',#1409);
#397=VERTEX_POINT('',#1411);
#398=VERTEX_POINT('',#1413);
#399=VERTEX_POINT('',#1415);
#400=VERTEX_POINT('',#1422);
#401=VERTEX_POINT('',#1424);
#402=VERTEX_POINT('',#1426);
#403=VERTEX_POINT('',#1428);
#404=VERTEX_POINT('',#1430);
#405=VERTEX_POINT('',#1432);
#406=VERTEX_POINT('',#1434);
#407=VERTEX_POINT('',#1436);
#408=VERTEX_POINT('',#1438);
#409=VERTEX_POINT('',#1441);
#410=VERTEX_POINT('',#1443);
#411=VERTEX_POINT('',#1446);
#412=VERTEX_POINT('',#1448);
#413=VERTEX_POINT('',#1450);
#414=VERTEX_POINT('',#1452);
#415=VERTEX_POINT('',#1454);
#416=VERTEX_POINT('',#1456);
#417=VERTEX_POINT('',#1458);
#418=VERTEX_POINT('',#1460);
#419=VERTEX_POINT('',#1462);
#420=VERTEX_POINT('',#1464);
#421=VERTEX_POINT('',#1466);
#422=VERTEX_POINT('',#1468);
#423=VERTEX_POINT('',#1470);
#424=VERTEX_POINT('',#1472);
#425=VERTEX_POINT('',#1474);
#426=VERTEX_POINT('',#1477);
#427=VERTEX_POINT('',#1480);
#428=VERTEX_POINT('',#1481);
#429=VERTEX_POINT('',#1483);
#430=VERTEX_POINT('',#1485);
#431=VERTEX_POINT('',#1487);
#432=VERTEX_POINT('',#1491);
#433=VERTEX_POINT('',#1495);
#434=VERTEX_POINT('',#1499);
#435=VERTEX_POINT('',#1503);
#436=VERTEX_POINT('',#1507);
#437=VERTEX_POINT('',#1509);
#438=VERTEX_POINT('',#1511);
#439=VERTEX_POINT('',#1513);
#440=VERTEX_POINT('',#1517);
#441=VERTEX_POINT('',#1519);
#442=VERTEX_POINT('',#1524);
#443=VERTEX_POINT('',#1526);
#444=VERTEX_POINT('',#1529);
#445=VERTEX_POINT('',#1531);
#446=VERTEX_POINT('',#1535);
#447=VERTEX_POINT('',#1537);
#448=VERTEX_POINT('',#1541);
#449=VERTEX_POINT('',#1543);
#450=VERTEX_POINT('',#1549);
#451=VERTEX_POINT('',#1553);
#452=VERTEX_POINT('',#1555);
#453=VERTEX_POINT('',#1559);
#454=VERTEX_POINT('',#1561);
#455=VERTEX_POINT('',#1563);
#456=VERTEX_POINT('',#1567);
#457=VERTEX_POINT('',#1572);
#458=VERTEX_POINT('',#1574);
#459=VERTEX_POINT('',#1576);
#460=VERTEX_POINT('',#1587);
#461=VERTEX_POINT('',#1588);
#462=VERTEX_POINT('',#1609);
#463=VERTEX_POINT('',#1611);
#464=VERTEX_POINT('',#1615);
#465=VERTEX_POINT('',#1616);
#466=VERTEX_POINT('',#1618);
#467=VERTEX_POINT('',#1623);
#468=VERTEX_POINT('',#1625);
#469=VERTEX_POINT('',#1627);
#470=VERTEX_POINT('',#1629);
#471=VERTEX_POINT('',#1633);
#472=VERTEX_POINT('',#1637);
#473=VERTEX_POINT('',#1660);
#474=VERTEX_POINT('',#1670);
#475=VERTEX_POINT('',#1677);
#476=VERTEX_POINT('',#1678);
#477=VERTEX_POINT('',#1682);
#478=VERTEX_POINT('',#1692);
#479=VERTEX_POINT('',#1693);
#480=VERTEX_POINT('',#1697);
#481=EDGE_CURVE('',#388,#389,#336,.T.);
#482=EDGE_CURVE('',#389,#390,#164,.T.);
#483=EDGE_CURVE('',#390,#391,#337,.F.);
#484=EDGE_CURVE('',#388,#391,#165,.T.);
#485=EDGE_CURVE('',#392,#393,#338,.T.);
#486=EDGE_CURVE('',#392,#394,#166,.T.);
#487=EDGE_CURVE('',#394,#395,#339,.T.);
#488=EDGE_CURVE('',#393,#395,#167,.T.);
#489=EDGE_CURVE('',#396,#389,#340,.T.);
#490=EDGE_CURVE('',#397,#396,#168,.T.);
#491=EDGE_CURVE('',#398,#397,#341,.T.);
#492=EDGE_CURVE('',#399,#398,#169,.T.);
#493=EDGE_CURVE('',#394,#399,#342,.T.);
#494=EDGE_CURVE('',#390,#392,#343,.T.);
#495=EDGE_CURVE('',#391,#393,#344,.T.);
#496=EDGE_CURVE('',#388,#400,#345,.T.);
#497=EDGE_CURVE('',#400,#401,#170,.T.);
#498=EDGE_CURVE('',#401,#402,#346,.T.);
#499=EDGE_CURVE('',#402,#403,#171,.T.);
#500=EDGE_CURVE('',#403,#404,#347,.T.);
#501=EDGE_CURVE('',#404,#405,#172,.T.);
#502=EDGE_CURVE('',#405,#406,#348,.T.);
#503=EDGE_CURVE('',#406,#407,#173,.T.);
#504=EDGE_CURVE('',#407,#408,#349,.T.);
#505=EDGE_CURVE('',#396,#408,#350,.T.);
#506=EDGE_CURVE('',#409,#409,#351,.T.);
#507=EDGE_CURVE('',#410,#410,#352,.T.);
#508=EDGE_CURVE('',#399,#411,#353,.T.);
#509=EDGE_CURVE('',#411,#412,#354,.T.);
#510=EDGE_CURVE('',#412,#413,#174,.T.);
#511=EDGE_CURVE('',#413,#414,#175,.T.);
#512=EDGE_CURVE('',#414,#415,#176,.T.);
#513=EDGE_CURVE('',#415,#416,#355,.T.);
#514=EDGE_CURVE('',#416,#417,#177,.T.);
#515=EDGE_CURVE('',#417,#418,#178,.T.);
#516=EDGE_CURVE('',#418,#419,#179,.T.);
#517=EDGE_CURVE('',#419,#420,#180,.T.);
#518=EDGE_CURVE('',#420,#421,#181,.T.);
#519=EDGE_CURVE('',#421,#422,#182,.T.);
#520=EDGE_CURVE('',#422,#423,#183,.T.);
#521=EDGE_CURVE('',#423,#424,#356,.T.);
#522=EDGE_CURVE('',#424,#425,#184,.T.);
#523=EDGE_CURVE('',#425,#395,#357,.T.);
#524=EDGE_CURVE('',#426,#426,#358,.T.);
#525=EDGE_CURVE('',#427,#428,#185,.T.);
#526=EDGE_CURVE('',#428,#429,#186,.T.);
#527=EDGE_CURVE('',#430,#429,#187,.T.);
#528=EDGE_CURVE('',#430,#431,#188,.T.);
#529=EDGE_CURVE('',#431,#427,#189,.T.);
#530=EDGE_CURVE('',#432,#427,#359,.T.);
#531=EDGE_CURVE('',#428,#432,#190,.T.);
#532=EDGE_CURVE('',#429,#433,#191,.T.);
#533=EDGE_CURVE('',#433,#432,#192,.T.);
#534=EDGE_CURVE('',#427,#434,#360,.T.);
#535=EDGE_CURVE('',#431,#434,#193,.T.);
#536=EDGE_CURVE('',#435,#430,#194,.T.);
#537=EDGE_CURVE('',#434,#435,#195,.T.);
#538=EDGE_CURVE('',#436,#433,#361,.T.);
#539=EDGE_CURVE('',#436,#437,#196,.T.);
#540=EDGE_CURVE('',#437,#438,#362,.T.);
#541=EDGE_CURVE('',#439,#438,#197,.T.);
#542=EDGE_CURVE('',#435,#439,#363,.T.);
#543=EDGE_CURVE('',#425,#440,#198,.T.);
#544=EDGE_CURVE('',#440,#441,#364,.T.);
#545=EDGE_CURVE('',#441,#412,#199,.T.);
#546=EDGE_CURVE('',#438,#411,#200,.T.);
#547=EDGE_CURVE('',#437,#408,#201,.T.);
#548=EDGE_CURVE('',#407,#442,#202,.T.);
#549=EDGE_CURVE('',#442,#443,#365,.T.);
#550=EDGE_CURVE('',#443,#404,#203,.T.);
#551=EDGE_CURVE('',#403,#444,#204,.T.);
#552=EDGE_CURVE('',#444,#445,#366,.T.);
#553=EDGE_CURVE('',#445,#400,#205,.T.);
#554=EDGE_CURVE('',#414,#446,#206,.T.);
#555=EDGE_CURVE('',#447,#446,#207,.T.);
#556=EDGE_CURVE('',#415,#447,#208,.T.);
#557=EDGE_CURVE('',#416,#448,#209,.T.);
#558=EDGE_CURVE('',#449,#448,#210,.T.);
#559=EDGE_CURVE('',#417,#449,#211,.T.);
#560=EDGE_CURVE('',#448,#447,#367,.T.);
#561=EDGE_CURVE('',#450,#449,#212,.T.);
#562=EDGE_CURVE('',#418,#450,#213,.T.);
#563=EDGE_CURVE('',#451,#422,#214,.T.);
#564=EDGE_CURVE('',#452,#451,#215,.T.);
#565=EDGE_CURVE('',#423,#452,#216,.T.);
#566=EDGE_CURVE('',#453,#424,#217,.T.);
#567=EDGE_CURVE('',#454,#452,#368,.T.);
#568=EDGE_CURVE('',#455,#454,#218,.T.);
#569=EDGE_CURVE('',#453,#455,#369,.T.);
#570=EDGE_CURVE('',#413,#456,#219,.T.);
#571=EDGE_CURVE('',#446,#456,#220,.T.);
#572=EDGE_CURVE('',#456,#454,#221,.T.);
#573=EDGE_CURVE('',#451,#457,#222,.T.);
#574=EDGE_CURVE('',#457,#458,#223,.T.);
#575=EDGE_CURVE('',#458,#459,#224,.T.);
#576=EDGE_CURVE('',#459,#450,#225,.T.);
#577=EDGE_CURVE('',#419,#459,#226,.T.);
#578=EDGE_CURVE('',#420,#458,#227,.T.);
#579=EDGE_CURVE('',#421,#457,#228,.T.);
#580=EDGE_CURVE('',#460,#461,#229,.T.);
#581=EDGE_CURVE('',#461,#437,#15,.T.);
#582=EDGE_CURVE('',#436,#460,#16,.T.);
#583=EDGE_CURVE('',#461,#462,#370,.T.);
#584=EDGE_CURVE('',#462,#463,#230,.T.);
#585=EDGE_CURVE('',#463,#397,#371,.T.);
#586=EDGE_CURVE('',#464,#465,#372,.T.);
#587=EDGE_CURVE('',#465,#466,#231,.T.);
#588=EDGE_CURVE('',#466,#460,#373,.T.);
#589=EDGE_CURVE('',#436,#464,#232,.T.);
#590=EDGE_CURVE('',#466,#467,#374,.T.);
#591=EDGE_CURVE('',#468,#467,#375,.T.);
#592=EDGE_CURVE('',#469,#468,#233,.T.);
#593=EDGE_CURVE('',#470,#469,#376,.T.);
#594=EDGE_CURVE('',#470,#462,#377,.T.);
#595=EDGE_CURVE('',#471,#465,#378,.T.);
#596=EDGE_CURVE('',#467,#471,#234,.T.);
#597=EDGE_CURVE('',#464,#472,#379,.T.);
#598=EDGE_CURVE('',#471,#472,#380,.T.);
#599=EDGE_CURVE('',#439,#472,#235,.T.);
#600=EDGE_CURVE('',#439,#468,#17,.T.);
#601=EDGE_CURVE('',#438,#469,#18,.T.);
#602=EDGE_CURVE('',#398,#473,#381,.T.);
#603=EDGE_CURVE('',#473,#470,#236,.T.);
#604=EDGE_CURVE('',#463,#473,#382,.T.);
#605=EDGE_CURVE('',#455,#441,#237,.T.);
#606=EDGE_CURVE('',#440,#453,#238,.T.);
#607=EDGE_CURVE('',#474,#474,#383,.T.);
#608=EDGE_CURVE('',#474,#426,#239,.T.);
#609=EDGE_CURVE('',#475,#476,#384,.T.);
#610=EDGE_CURVE('',#476,#443,#240,.T.);
#611=EDGE_CURVE('',#442,#475,#241,.T.);
#612=EDGE_CURVE('',#477,#477,#385,.T.);
#613=EDGE_CURVE('',#405,#476,#242,.T.);
#614=EDGE_CURVE('',#475,#406,#243,.T.);
#615=EDGE_CURVE('',#477,#409,#244,.T.);
#616=EDGE_CURVE('',#478,#479,#386,.T.);
#617=EDGE_CURVE('',#479,#445,#245,.T.);
#618=EDGE_CURVE('',#444,#478,#246,.T.);
#619=EDGE_CURVE('',#480,#480,#387,.T.);
#620=EDGE_CURVE('',#401,#479,#247,.T.);
#621=EDGE_CURVE('',#478,#402,#248,.T.);
#622=EDGE_CURVE('',#480,#410,#249,.T.);
#623=ORIENTED_EDGE('',*,*,#481,.T.);
#624=ORIENTED_EDGE('',*,*,#482,.T.);
#625=ORIENTED_EDGE('',*,*,#483,.T.);
#626=ORIENTED_EDGE('',*,*,#484,.F.);
#627=ORIENTED_EDGE('',*,*,#485,.F.);
#628=ORIENTED_EDGE('',*,*,#486,.T.);
#629=ORIENTED_EDGE('',*,*,#487,.T.);
#630=ORIENTED_EDGE('',*,*,#488,.F.);
#631=ORIENTED_EDGE('',*,*,#482,.F.);
#632=ORIENTED_EDGE('',*,*,#489,.F.);
#633=ORIENTED_EDGE('',*,*,#490,.F.);
#634=ORIENTED_EDGE('',*,*,#491,.F.);
#635=ORIENTED_EDGE('',*,*,#492,.F.);
#636=ORIENTED_EDGE('',*,*,#493,.F.);
#637=ORIENTED_EDGE('',*,*,#486,.F.);
#638=ORIENTED_EDGE('',*,*,#494,.F.);
#639=ORIENTED_EDGE('',*,*,#495,.F.);
#640=ORIENTED_EDGE('',*,*,#483,.F.);
#641=ORIENTED_EDGE('',*,*,#494,.T.);
#642=ORIENTED_EDGE('',*,*,#485,.T.);
#643=ORIENTED_EDGE('',*,*,#481,.F.);
#644=ORIENTED_EDGE('',*,*,#496,.T.);
#645=ORIENTED_EDGE('',*,*,#497,.T.);
#646=ORIENTED_EDGE('',*,*,#498,.T.);
#647=ORIENTED_EDGE('',*,*,#499,.T.);
#648=ORIENTED_EDGE('',*,*,#500,.T.);
#649=ORIENTED_EDGE('',*,*,#501,.T.);
#650=ORIENTED_EDGE('',*,*,#502,.T.);
#651=ORIENTED_EDGE('',*,*,#503,.T.);
#652=ORIENTED_EDGE('',*,*,#504,.T.);
#653=ORIENTED_EDGE('',*,*,#505,.F.);
#654=ORIENTED_EDGE('',*,*,#489,.T.);
#655=ORIENTED_EDGE('',*,*,#506,.T.);
#656=ORIENTED_EDGE('',*,*,#507,.T.);
#657=ORIENTED_EDGE('',*,*,#487,.F.);
#658=ORIENTED_EDGE('',*,*,#493,.T.);
#659=ORIENTED_EDGE('',*,*,#508,.T.);
#660=ORIENTED_EDGE('',*,*,#509,.T.);
#661=ORIENTED_EDGE('',*,*,#510,.T.);
#662=ORIENTED_EDGE('',*,*,#511,.T.);
#663=ORIENTED_EDGE('',*,*,#512,.T.);
#664=ORIENTED_EDGE('',*,*,#513,.T.);
#665=ORIENTED_EDGE('',*,*,#514,.T.);
#666=ORIENTED_EDGE('',*,*,#515,.T.);
#667=ORIENTED_EDGE('',*,*,#516,.T.);
#668=ORIENTED_EDGE('',*,*,#517,.T.);
#669=ORIENTED_EDGE('',*,*,#518,.T.);
#670=ORIENTED_EDGE('',*,*,#519,.T.);
#671=ORIENTED_EDGE('',*,*,#520,.T.);
#672=ORIENTED_EDGE('',*,*,#521,.T.);
#673=ORIENTED_EDGE('',*,*,#522,.T.);
#674=ORIENTED_EDGE('',*,*,#523,.T.);
#675=ORIENTED_EDGE('',*,*,#524,.T.);
#676=ORIENTED_EDGE('',*,*,#525,.T.);
#677=ORIENTED_EDGE('',*,*,#526,.T.);
#678=ORIENTED_EDGE('',*,*,#527,.F.);
#679=ORIENTED_EDGE('',*,*,#528,.T.);
#680=ORIENTED_EDGE('',*,*,#529,.T.);
#681=ORIENTED_EDGE('',*,*,#530,.F.);
#682=ORIENTED_EDGE('',*,*,#531,.F.);
#683=ORIENTED_EDGE('',*,*,#525,.F.);
#684=ORIENTED_EDGE('',*,*,#532,.F.);
#685=ORIENTED_EDGE('',*,*,#526,.F.);
#686=ORIENTED_EDGE('',*,*,#531,.T.);
#687=ORIENTED_EDGE('',*,*,#533,.F.);
#688=ORIENTED_EDGE('',*,*,#534,.F.);
#689=ORIENTED_EDGE('',*,*,#529,.F.);
#690=ORIENTED_EDGE('',*,*,#535,.T.);
#691=ORIENTED_EDGE('',*,*,#536,.F.);
#692=ORIENTED_EDGE('',*,*,#537,.F.);
#693=ORIENTED_EDGE('',*,*,#535,.F.);
#694=ORIENTED_EDGE('',*,*,#528,.F.);
#695=ORIENTED_EDGE('',*,*,#536,.T.);
#696=ORIENTED_EDGE('',*,*,#527,.T.);
#697=ORIENTED_EDGE('',*,*,#532,.T.);
#698=ORIENTED_EDGE('',*,*,#538,.F.);
#699=ORIENTED_EDGE('',*,*,#539,.T.);
#700=ORIENTED_EDGE('',*,*,#540,.T.);
#701=ORIENTED_EDGE('',*,*,#541,.F.);
#702=ORIENTED_EDGE('',*,*,#542,.F.);
#703=ORIENTED_EDGE('',*,*,#543,.T.);
#704=ORIENTED_EDGE('',*,*,#544,.T.);
#705=ORIENTED_EDGE('',*,*,#545,.T.);
#706=ORIENTED_EDGE('',*,*,#509,.F.);
#707=ORIENTED_EDGE('',*,*,#546,.F.);
#708=ORIENTED_EDGE('',*,*,#540,.F.);
#709=ORIENTED_EDGE('',*,*,#547,.T.);
#710=ORIENTED_EDGE('',*,*,#504,.F.);
#711=ORIENTED_EDGE('',*,*,#548,.T.);
#712=ORIENTED_EDGE('',*,*,#549,.T.);
#713=ORIENTED_EDGE('',*,*,#550,.T.);
#714=ORIENTED_EDGE('',*,*,#500,.F.);
#715=ORIENTED_EDGE('',*,*,#551,.T.);
#716=ORIENTED_EDGE('',*,*,#552,.T.);
#717=ORIENTED_EDGE('',*,*,#553,.T.);
#718=ORIENTED_EDGE('',*,*,#496,.F.);
#719=ORIENTED_EDGE('',*,*,#484,.T.);
#720=ORIENTED_EDGE('',*,*,#495,.T.);
#721=ORIENTED_EDGE('',*,*,#488,.T.);
#722=ORIENTED_EDGE('',*,*,#523,.F.);
#723=ORIENTED_EDGE('',*,*,#554,.T.);
#724=ORIENTED_EDGE('',*,*,#555,.F.);
#725=ORIENTED_EDGE('',*,*,#556,.F.);
#726=ORIENTED_EDGE('',*,*,#512,.F.);
#727=ORIENTED_EDGE('',*,*,#514,.F.);
#728=ORIENTED_EDGE('',*,*,#557,.T.);
#729=ORIENTED_EDGE('',*,*,#558,.F.);
#730=ORIENTED_EDGE('',*,*,#559,.F.);
#731=ORIENTED_EDGE('',*,*,#513,.F.);
#732=ORIENTED_EDGE('',*,*,#556,.T.);
#733=ORIENTED_EDGE('',*,*,#560,.F.);
#734=ORIENTED_EDGE('',*,*,#557,.F.);
#735=ORIENTED_EDGE('',*,*,#559,.T.);
#736=ORIENTED_EDGE('',*,*,#561,.F.);
#737=ORIENTED_EDGE('',*,*,#562,.F.);
#738=ORIENTED_EDGE('',*,*,#515,.F.);
#739=ORIENTED_EDGE('',*,*,#520,.F.);
#740=ORIENTED_EDGE('',*,*,#563,.F.);
#741=ORIENTED_EDGE('',*,*,#564,.F.);
#742=ORIENTED_EDGE('',*,*,#565,.F.);
#743=ORIENTED_EDGE('',*,*,#566,.T.);
#744=ORIENTED_EDGE('',*,*,#521,.F.);
#745=ORIENTED_EDGE('',*,*,#565,.T.);
#746=ORIENTED_EDGE('',*,*,#567,.F.);
#747=ORIENTED_EDGE('',*,*,#568,.F.);
#748=ORIENTED_EDGE('',*,*,#569,.F.);
#749=ORIENTED_EDGE('',*,*,#570,.T.);
#750=ORIENTED_EDGE('',*,*,#571,.F.);
#751=ORIENTED_EDGE('',*,*,#554,.F.);
#752=ORIENTED_EDGE('',*,*,#511,.F.);
#753=ORIENTED_EDGE('',*,*,#572,.T.);
#754=ORIENTED_EDGE('',*,*,#567,.T.);
#755=ORIENTED_EDGE('',*,*,#564,.T.);
#756=ORIENTED_EDGE('',*,*,#573,.T.);
#757=ORIENTED_EDGE('',*,*,#574,.T.);
#758=ORIENTED_EDGE('',*,*,#575,.T.);
#759=ORIENTED_EDGE('',*,*,#576,.T.);
#760=ORIENTED_EDGE('',*,*,#561,.T.);
#761=ORIENTED_EDGE('',*,*,#558,.T.);
#762=ORIENTED_EDGE('',*,*,#560,.T.);
#763=ORIENTED_EDGE('',*,*,#555,.T.);
#764=ORIENTED_EDGE('',*,*,#571,.T.);
#765=ORIENTED_EDGE('',*,*,#517,.F.);
#766=ORIENTED_EDGE('',*,*,#577,.T.);
#767=ORIENTED_EDGE('',*,*,#575,.F.);
#768=ORIENTED_EDGE('',*,*,#578,.F.);
#769=ORIENTED_EDGE('',*,*,#516,.F.);
#770=ORIENTED_EDGE('',*,*,#562,.T.);
#771=ORIENTED_EDGE('',*,*,#576,.F.);
#772=ORIENTED_EDGE('',*,*,#577,.F.);
#773=ORIENTED_EDGE('',*,*,#518,.F.);
#774=ORIENTED_EDGE('',*,*,#578,.T.);
#775=ORIENTED_EDGE('',*,*,#574,.F.);
#776=ORIENTED_EDGE('',*,*,#579,.F.);
#777=ORIENTED_EDGE('',*,*,#563,.T.);
#778=ORIENTED_EDGE('',*,*,#519,.F.);
#779=ORIENTED_EDGE('',*,*,#579,.T.);
#780=ORIENTED_EDGE('',*,*,#573,.F.);
#781=ORIENTED_EDGE('',*,*,#580,.T.);
#782=ORIENTED_EDGE('',*,*,#581,.T.);
#783=ORIENTED_EDGE('',*,*,#539,.F.);
#784=ORIENTED_EDGE('',*,*,#582,.T.);
#785=ORIENTED_EDGE('',*,*,#505,.T.);
#786=ORIENTED_EDGE('',*,*,#547,.F.);
#787=ORIENTED_EDGE('',*,*,#581,.F.);
#788=ORIENTED_EDGE('',*,*,#583,.T.);
#789=ORIENTED_EDGE('',*,*,#584,.T.);
#790=ORIENTED_EDGE('',*,*,#585,.T.);
#791=ORIENTED_EDGE('',*,*,#490,.T.);
#792=ORIENTED_EDGE('',*,*,#586,.T.);
#793=ORIENTED_EDGE('',*,*,#587,.T.);
#794=ORIENTED_EDGE('',*,*,#588,.T.);
#795=ORIENTED_EDGE('',*,*,#582,.F.);
#796=ORIENTED_EDGE('',*,*,#589,.T.);
#797=ORIENTED_EDGE('',*,*,#580,.F.);
#798=ORIENTED_EDGE('',*,*,#588,.F.);
#799=ORIENTED_EDGE('',*,*,#590,.T.);
#800=ORIENTED_EDGE('',*,*,#591,.F.);
#801=ORIENTED_EDGE('',*,*,#592,.F.);
#802=ORIENTED_EDGE('',*,*,#593,.F.);
#803=ORIENTED_EDGE('',*,*,#594,.T.);
#804=ORIENTED_EDGE('',*,*,#583,.F.);
#805=ORIENTED_EDGE('',*,*,#587,.F.);
#806=ORIENTED_EDGE('',*,*,#595,.F.);
#807=ORIENTED_EDGE('',*,*,#596,.F.);
#808=ORIENTED_EDGE('',*,*,#590,.F.);
#809=ORIENTED_EDGE('',*,*,#586,.F.);
#810=ORIENTED_EDGE('',*,*,#597,.T.);
#811=ORIENTED_EDGE('',*,*,#598,.F.);
#812=ORIENTED_EDGE('',*,*,#595,.T.);
#813=ORIENTED_EDGE('',*,*,#598,.T.);
#814=ORIENTED_EDGE('',*,*,#599,.F.);
#815=ORIENTED_EDGE('',*,*,#600,.T.);
#816=ORIENTED_EDGE('',*,*,#591,.T.);
#817=ORIENTED_EDGE('',*,*,#596,.T.);
#818=ORIENTED_EDGE('',*,*,#541,.T.);
#819=ORIENTED_EDGE('',*,*,#601,.T.);
#820=ORIENTED_EDGE('',*,*,#592,.T.);
#821=ORIENTED_EDGE('',*,*,#600,.F.);
#822=ORIENTED_EDGE('',*,*,#492,.T.);
#823=ORIENTED_EDGE('',*,*,#602,.T.);
#824=ORIENTED_EDGE('',*,*,#603,.T.);
#825=ORIENTED_EDGE('',*,*,#593,.T.);
#826=ORIENTED_EDGE('',*,*,#601,.F.);
#827=ORIENTED_EDGE('',*,*,#546,.T.);
#828=ORIENTED_EDGE('',*,*,#508,.F.);
#829=ORIENTED_EDGE('',*,*,#584,.F.);
#830=ORIENTED_EDGE('',*,*,#594,.F.);
#831=ORIENTED_EDGE('',*,*,#603,.F.);
#832=ORIENTED_EDGE('',*,*,#604,.F.);
#833=ORIENTED_EDGE('',*,*,#585,.F.);
#834=ORIENTED_EDGE('',*,*,#604,.T.);
#835=ORIENTED_EDGE('',*,*,#602,.F.);
#836=ORIENTED_EDGE('',*,*,#491,.T.);
#837=ORIENTED_EDGE('',*,*,#537,.T.);
#838=ORIENTED_EDGE('',*,*,#542,.T.);
#839=ORIENTED_EDGE('',*,*,#599,.T.);
#840=ORIENTED_EDGE('',*,*,#597,.F.);
#841=ORIENTED_EDGE('',*,*,#589,.F.);
#842=ORIENTED_EDGE('',*,*,#538,.T.);
#843=ORIENTED_EDGE('',*,*,#533,.T.);
#844=ORIENTED_EDGE('',*,*,#530,.T.);
#845=ORIENTED_EDGE('',*,*,#534,.T.);
#846=ORIENTED_EDGE('',*,*,#569,.T.);
#847=ORIENTED_EDGE('',*,*,#605,.T.);
#848=ORIENTED_EDGE('',*,*,#544,.F.);
#849=ORIENTED_EDGE('',*,*,#606,.T.);
#850=ORIENTED_EDGE('',*,*,#607,.T.);
#851=ORIENTED_EDGE('',*,*,#510,.F.);
#852=ORIENTED_EDGE('',*,*,#545,.F.);
#853=ORIENTED_EDGE('',*,*,#605,.F.);
#854=ORIENTED_EDGE('',*,*,#568,.T.);
#855=ORIENTED_EDGE('',*,*,#572,.F.);
#856=ORIENTED_EDGE('',*,*,#570,.F.);
#857=ORIENTED_EDGE('',*,*,#607,.F.);
#858=ORIENTED_EDGE('',*,*,#608,.T.);
#859=ORIENTED_EDGE('',*,*,#524,.F.);
#860=ORIENTED_EDGE('',*,*,#608,.F.);
#861=ORIENTED_EDGE('',*,*,#522,.F.);
#862=ORIENTED_EDGE('',*,*,#566,.F.);
#863=ORIENTED_EDGE('',*,*,#606,.F.);
#864=ORIENTED_EDGE('',*,*,#543,.F.);
#865=ORIENTED_EDGE('',*,*,#609,.T.);
#866=ORIENTED_EDGE('',*,*,#610,.T.);
#867=ORIENTED_EDGE('',*,*,#549,.F.);
#868=ORIENTED_EDGE('',*,*,#611,.T.);
#869=ORIENTED_EDGE('',*,*,#612,.T.);
#870=ORIENTED_EDGE('',*,*,#502,.F.);
#871=ORIENTED_EDGE('',*,*,#613,.T.);
#872=ORIENTED_EDGE('',*,*,#609,.F.);
#873=ORIENTED_EDGE('',*,*,#614,.T.);
#874=ORIENTED_EDGE('',*,*,#501,.F.);
#875=ORIENTED_EDGE('',*,*,#550,.F.);
#876=ORIENTED_EDGE('',*,*,#610,.F.);
#877=ORIENTED_EDGE('',*,*,#613,.F.);
#878=ORIENTED_EDGE('',*,*,#612,.F.);
#879=ORIENTED_EDGE('',*,*,#615,.T.);
#880=ORIENTED_EDGE('',*,*,#506,.F.);
#881=ORIENTED_EDGE('',*,*,#615,.F.);
#882=ORIENTED_EDGE('',*,*,#503,.F.);
#883=ORIENTED_EDGE('',*,*,#614,.F.);
#884=ORIENTED_EDGE('',*,*,#611,.F.);
#885=ORIENTED_EDGE('',*,*,#548,.F.);
#886=ORIENTED_EDGE('',*,*,#616,.T.);
#887=ORIENTED_EDGE('',*,*,#617,.T.);
#888=ORIENTED_EDGE('',*,*,#552,.F.);
#889=ORIENTED_EDGE('',*,*,#618,.T.);
#890=ORIENTED_EDGE('',*,*,#619,.T.);
#891=ORIENTED_EDGE('',*,*,#498,.F.);
#892=ORIENTED_EDGE('',*,*,#620,.T.);
#893=ORIENTED_EDGE('',*,*,#616,.F.);
#894=ORIENTED_EDGE('',*,*,#621,.T.);
#895=ORIENTED_EDGE('',*,*,#497,.F.);
#896=ORIENTED_EDGE('',*,*,#553,.F.);
#897=ORIENTED_EDGE('',*,*,#617,.F.);
#898=ORIENTED_EDGE('',*,*,#620,.F.);
#899=ORIENTED_EDGE('',*,*,#619,.F.);
#900=ORIENTED_EDGE('',*,*,#622,.T.);
#901=ORIENTED_EDGE('',*,*,#507,.F.);
#902=ORIENTED_EDGE('',*,*,#622,.F.);
#903=ORIENTED_EDGE('',*,*,#499,.F.);
#904=ORIENTED_EDGE('',*,*,#621,.F.);
#905=ORIENTED_EDGE('',*,*,#618,.F.);
#906=ORIENTED_EDGE('',*,*,#551,.F.);
#907=CYLINDRICAL_SURFACE('',#992,8.);
#908=CYLINDRICAL_SURFACE('',#995,8.00000000000001);
#909=CYLINDRICAL_SURFACE('',#998,78.5000011697412);
#910=CYLINDRICAL_SURFACE('',#1032,82.0000012218952);
#911=CYLINDRICAL_SURFACE('',#1038,89.0000013262033);
#912=CYLINDRICAL_SURFACE('',#1042,89.0000013262033);
#913=CYLINDRICAL_SURFACE('',#1051,15.);
#914=CYLINDRICAL_SURFACE('',#1052,15.);
#915=CYLINDRICAL_SURFACE('',#1055,15.);
#916=CYLINDRICAL_SURFACE('',#1063,69.75);
#917=CYLINDRICAL_SURFACE('',#1068,15.);
#918=CYLINDRICAL_SURFACE('',#1069,15.);
#919=CYLINDRICAL_SURFACE('',#1070,15.);
#920=CYLINDRICAL_SURFACE('',#1072,74.125);
#921=CYLINDRICAL_SURFACE('',#1075,65.0000009685755);
#922=CYLINDRICAL_SURFACE('',#1079,1.25);
#923=CYLINDRICAL_SURFACE('',#1084,89.);
#924=CYLINDRICAL_SURFACE('',#1086,1.24999999999999);
#925=CYLINDRICAL_SURFACE('',#1091,89.);
#926=CYLINDRICAL_SURFACE('',#1093,1.25);
#927=ADVANCED_FACE('',(#56),#907,.T.);
#928=ADVANCED_FACE('',(#57),#908,.T.);
#929=ADVANCED_FACE('',(#58),#909,.F.);
#930=ADVANCED_FACE('',(#59),#25,.T.);
#931=ADVANCED_FACE('',(#60,#19,#20),#26,.T.);
#932=ADVANCED_FACE('',(#61,#21),#27,.T.);
#933=ADVANCED_FACE('',(#62),#28,.F.);
#934=ADVANCED_FACE('',(#63),#29,.F.);
#935=ADVANCED_FACE('',(#64),#30,.F.);
#936=ADVANCED_FACE('',(#65),#31,.F.);
#937=ADVANCED_FACE('',(#66),#32,.F.);
#938=ADVANCED_FACE('',(#67),#33,.F.);
#939=ADVANCED_FACE('',(#68),#910,.T.);
#940=ADVANCED_FACE('',(#69),#34,.T.);
#941=ADVANCED_FACE('',(#70),#35,.T.);
#942=ADVANCED_FACE('',(#71),#911,.F.);
#943=ADVANCED_FACE('',(#72),#36,.T.);
#944=ADVANCED_FACE('',(#73),#37,.T.);
#945=ADVANCED_FACE('',(#74),#912,.F.);
#946=ADVANCED_FACE('',(#75),#38,.T.);
#947=ADVANCED_FACE('',(#76),#39,.T.);
#948=ADVANCED_FACE('',(#77),#40,.T.);
#949=ADVANCED_FACE('',(#78),#41,.T.);
#950=ADVANCED_FACE('',(#79),#42,.T.);
#951=ADVANCED_FACE('',(#80),#43,.T.);
#952=ADVANCED_FACE('',(#81),#913,.T.);
#953=ADVANCED_FACE('',(#82),#914,.T.);
#954=ADVANCED_FACE('',(#83),#915,.T.);
#955=ADVANCED_FACE('',(#84),#44,.T.);
#956=ADVANCED_FACE('',(#85),#916,.T.);
#957=ADVANCED_FACE('',(#86),#45,.F.);
#958=ADVANCED_FACE('',(#87),#917,.T.);
#959=ADVANCED_FACE('',(#88),#918,.T.);
#960=ADVANCED_FACE('',(#89),#919,.T.);
#961=ADVANCED_FACE('',(#90),#920,.F.);
#962=ADVANCED_FACE('',(#91),#46,.F.);
#963=ADVANCED_FACE('',(#92),#921,.F.);
#964=ADVANCED_FACE('',(#93,#22),#47,.T.);
#965=ADVANCED_FACE('',(#94),#48,.T.);
#966=ADVANCED_FACE('',(#95),#922,.F.);
#967=ADVANCED_FACE('',(#96),#49,.T.);
#968=ADVANCED_FACE('',(#97,#23),#50,.T.);
#969=ADVANCED_FACE('',(#98),#923,.T.);
#970=ADVANCED_FACE('',(#99),#51,.T.);
#971=ADVANCED_FACE('',(#100),#924,.F.);
#972=ADVANCED_FACE('',(#101),#52,.T.);
#973=ADVANCED_FACE('',(#102,#24),#53,.T.);
#974=ADVANCED_FACE('',(#103),#925,.T.);
#975=ADVANCED_FACE('',(#104),#54,.T.);
#976=ADVANCED_FACE('',(#105),#926,.F.);
#977=ADVANCED_FACE('',(#106),#55,.T.);
#978=CLOSED_SHELL('',(#927,#928,#929,#930,#931,#932,#933,#934,#935,#936,
#937,#938,#939,#940,#941,#942,#943,#944,#945,#946,#947,#948,#949,#950,#951,
#952,#953,#954,#955,#956,#957,#958,#959,#960,#961,#962,#963,#964,#965,#966,
#967,#968,#969,#970,#971,#972,#973,#974,#975,#976,#977));
#979=DERIVED_UNIT_ELEMENT(#981,1.);
#980=DERIVED_UNIT_ELEMENT(#1711,-3.);
#981=(
MASS_UNIT()
NAMED_UNIT(*)
SI_UNIT(.KILO.,.GRAM.)
);
#982=DERIVED_UNIT((#979,#980));
#983=MEASURE_REPRESENTATION_ITEM('density measure',
POSITIVE_RATIO_MEASURE(7850.),#982);
#984=PROPERTY_DEFINITION_REPRESENTATION(#989,#986);
#985=PROPERTY_DEFINITION_REPRESENTATION(#990,#987);
#986=REPRESENTATION('material name',(#988),#1708);
#987=REPRESENTATION('density',(#983),#1708);
#988=DESCRIPTIVE_REPRESENTATION_ITEM('Stahl','Stahl');
#989=PROPERTY_DEFINITION('material property','material name',#1718);
#990=PROPERTY_DEFINITION('material property','density of part',#1718);
#991=AXIS2_PLACEMENT_3D('',#1389,#1095,#1096);
#992=AXIS2_PLACEMENT_3D('',#1390,#1097,#1098);
#993=AXIS2_PLACEMENT_3D('',#1393,#1099,#1100);
#994=AXIS2_PLACEMENT_3D('',#1397,#1102,#1103);
#995=AXIS2_PLACEMENT_3D('',#1399,#1105,#1106);
#996=AXIS2_PLACEMENT_3D('',#1402,#1107,#1108);
#997=AXIS2_PLACEMENT_3D('',#1406,#1110,#1111);
#998=AXIS2_PLACEMENT_3D('',#1408,#1113,#1114);
#999=AXIS2_PLACEMENT_3D('',#1410,#1115,#1116);
#1000=AXIS2_PLACEMENT_3D('',#1414,#1118,#1119);
#1001=AXIS2_PLACEMENT_3D('',#1417,#1121,#1122);
#1002=AXIS2_PLACEMENT_3D('',#1418,#1123,#1124);
#1003=AXIS2_PLACEMENT_3D('',#1419,#1125,#1126);
#1004=AXIS2_PLACEMENT_3D('',#1420,#1127,#1128);
#1005=AXIS2_PLACEMENT_3D('',#1421,#1129,#1130);
#1006=AXIS2_PLACEMENT_3D('',#1423,#1131,#1132);
#1007=AXIS2_PLACEMENT_3D('',#1427,#1134,#1135);
#1008=AXIS2_PLACEMENT_3D('',#1431,#1137,#1138);
#1009=AXIS2_PLACEMENT_3D('',#1435,#1140,#1141);
#1010=AXIS2_PLACEMENT_3D('',#1439,#1143,#1144);
#1011=AXIS2_PLACEMENT_3D('',#1440,#1145,#1146);
#1012=AXIS2_PLACEMENT_3D('',#1442,#1147,#1148);
#1013=AXIS2_PLACEMENT_3D('',#1444,#1149,#1150);
#1014=AXIS2_PLACEMENT_3D('',#1445,#1151,#1152);
#1015=AXIS2_PLACEMENT_3D('',#1447,#1153,#1154);
#1016=AXIS2_PLACEMENT_3D('',#1449,#1155,#1156);
#1017=AXIS2_PLACEMENT_3D('',#1457,#1160,#1161);
#1018=AXIS2_PLACEMENT_3D('',#1473,#1169,#1170);
#1019=AXIS2_PLACEMENT_3D('',#1476,#1172,#1173);
#1020=AXIS2_PLACEMENT_3D('',#1478,#1174,#1175);
#1021=AXIS2_PLACEMENT_3D('',#1479,#1176,#1177);
#1022=AXIS2_PLACEMENT_3D('',#1490,#1183,#1184);
#1023=AXIS2_PLACEMENT_3D('',#1492,#1185,#1186);
#1024=AXIS2_PLACEMENT_3D('',#1494,#1188,#1189);
#1025=AXIS2_PLACEMENT_3D('',#1498,#1192,#1193);
#1026=AXIS2_PLACEMENT_3D('',#1500,#1194,#1195);
#1027=AXIS2_PLACEMENT_3D('',#1502,#1197,#1198);
#1028=AXIS2_PLACEMENT_3D('',#1506,#1201,#1202);
#1029=AXIS2_PLACEMENT_3D('',#1508,#1203,#1204);
#1030=AXIS2_PLACEMENT_3D('',#1512,#1206,#1207);
#1031=AXIS2_PLACEMENT_3D('',#1515,#1209,#1210);
#1032=AXIS2_PLACEMENT_3D('',#1516,#1211,#1212);
#1033=AXIS2_PLACEMENT_3D('',#1520,#1214,#1215);
#1034=AXIS2_PLACEMENT_3D('',#1527,#1220,#1221);
#1035=AXIS2_PLACEMENT_3D('',#1532,#1224,#1225);
#1036=AXIS2_PLACEMENT_3D('',#1534,#1227,#1228);
#1037=AXIS2_PLACEMENT_3D('',#1540,#1232,#1233);
#1038=AXIS2_PLACEMENT_3D('',#1546,#1237,#1238);
#1039=AXIS2_PLACEMENT_3D('',#1547,#1239,#1240);
#1040=AXIS2_PLACEMENT_3D('',#1548,#1241,#1242);
#1041=AXIS2_PLACEMENT_3D('',#1552,#1245,#1246);
#1042=AXIS2_PLACEMENT_3D('',#1558,#1250,#1251);
#1043=AXIS2_PLACEMENT_3D('',#1562,#1253,#1254);
#1044=AXIS2_PLACEMENT_3D('',#1565,#1256,#1257);
#1045=AXIS2_PLACEMENT_3D('',#1566,#1258,#1259);
#1046=AXIS2_PLACEMENT_3D('',#1570,#1262,#1263);
#1047=AXIS2_PLACEMENT_3D('',#1579,#1269,#1270);
#1048=AXIS2_PLACEMENT_3D('',#1582,#1273,#1274);
#1049=AXIS2_PLACEMENT_3D('',#1583,#1275,#1276);
#1050=AXIS2_PLACEMENT_3D('',#1585,#1278,#1279);
#1051=AXIS2_PLACEMENT_3D('',#1586,#1280,#1281);
#1052=AXIS2_PLACEMENT_3D('',#1608,#1283,#1284);
#1053=AXIS2_PLACEMENT_3D('',#1610,#1285,#1286);
#1054=AXIS2_PLACEMENT_3D('',#1613,#1288,#1289);
#1055=AXIS2_PLACEMENT_3D('',#1614,#1290,#1291);
#1056=AXIS2_PLACEMENT_3D('',#1617,#1292,#1293);
#1057=AXIS2_PLACEMENT_3D('',#1620,#1295,#1296);
#1058=AXIS2_PLACEMENT_3D('',#1622,#1298,#1299);
#1059=AXIS2_PLACEMENT_3D('',#1624,#1300,#1301);
#1060=AXIS2_PLACEMENT_3D('',#1626,#1302,#1303);
#1061=AXIS2_PLACEMENT_3D('',#1630,#1305,#1306);
#1062=AXIS2_PLACEMENT_3D('',#1631,#1307,#1308);
#1063=AXIS2_PLACEMENT_3D('',#1632,#1309,#1310);
#1064=AXIS2_PLACEMENT_3D('',#1634,#1311,#1312);
#1065=AXIS2_PLACEMENT_3D('',#1636,#1314,#1315);
#1066=AXIS2_PLACEMENT_3D('',#1638,#1316,#1317);
#1067=AXIS2_PLACEMENT_3D('',#1639,#1318,#1319);
#1068=AXIS2_PLACEMENT_3D('',#1640,#1320,#1321);
#1069=AXIS2_PLACEMENT_3D('',#1650,#1323,#1324);
#1070=AXIS2_PLACEMENT_3D('',#1659,#1325,#1326);
#1071=AXIS2_PLACEMENT_3D('',#1661,#1327,#1328);
#1072=AXIS2_PLACEMENT_3D('',#1663,#1330,#1331);
#1073=AXIS2_PLACEMENT_3D('',#1664,#1332,#1333);
#1074=AXIS2_PLACEMENT_3D('',#1665,#1334,#1335);
#1075=AXIS2_PLACEMENT_3D('',#1666,#1336,#1337);
#1076=AXIS2_PLACEMENT_3D('',#1667,#1338,#1339);
#1077=AXIS2_PLACEMENT_3D('',#1671,#1342,#1343);
#1078=AXIS2_PLACEMENT_3D('',#1672,#1344,#1345);
#1079=AXIS2_PLACEMENT_3D('',#1673,#1346,#1347);
#1080=AXIS2_PLACEMENT_3D('',#1675,#1349,#1350);
#1081=AXIS2_PLACEMENT_3D('',#1676,#1351,#1352);
#1082=AXIS2_PLACEMENT_3D('',#1679,#1353,#1354);
#1083=AXIS2_PLACEMENT_3D('',#1683,#1357,#1358);
#1084=AXIS2_PLACEMENT_3D('',#1684,#1359,#1360);
#1085=AXIS2_PLACEMENT_3D('',#1687,#1363,#1364);
#1086=AXIS2_PLACEMENT_3D('',#1688,#1365,#1366);
#1087=AXIS2_PLACEMENT_3D('',#1690,#1368,#1369);
#1088=AXIS2_PLACEMENT_3D('',#1691,#1370,#1371);
#1089=AXIS2_PLACEMENT_3D('',#1694,#1372,#1373);
#1090=AXIS2_PLACEMENT_3D('',#1698,#1376,#1377);
#1091=AXIS2_PLACEMENT_3D('',#1699,#1378,#1379);
#1092=AXIS2_PLACEMENT_3D('',#1702,#1382,#1383);
#1093=AXIS2_PLACEMENT_3D('',#1703,#1384,#1385);
#1094=AXIS2_PLACEMENT_3D('',#1705,#1387,#1388);
#1095=DIRECTION('axis',(0.,0.,1.));
#1096=DIRECTION('refdir',(1.,0.,0.));
#1097=DIRECTION('center_axis',(-1.,0.,0.));
#1098=DIRECTION('ref_axis',(0.,0.801067878260485,0.598573516302922));
#1099=DIRECTION('center_axis',(1.,1.22124532708767E-15,0.));
#1100=DIRECTION('ref_axis',(0.,0.801067878260485,0.598573516302922));
#1101=DIRECTION('',(1.,0.,0.));
#1102=DIRECTION('center_axis',(1.,-3.98085721360255E-31,-5.60875800912743E-33));
#1103=DIRECTION('ref_axis',(0.,0.801067878260485,0.598573516302922));
#1104=DIRECTION('',(1.,0.,0.));
#1105=DIRECTION('center_axis',(1.,0.,0.));
#1106=DIRECTION('ref_axis',(0.,0.0617309769428657,0.998092824583806));
#1107=DIRECTION('center_axis',(1.,-3.98085721360255E-31,-5.60875800912743E-33));
#1108=DIRECTION('ref_axis',(0.,0.0617309769428657,0.998092824583806));
#1109=DIRECTION('',(-1.,0.,0.));
#1110=DIRECTION('center_axis',(1.,1.22124532708767E-15,0.));
#1111=DIRECTION('ref_axis',(0.,0.0617309769428657,0.998092824583806));
#1112=DIRECTION('',(-1.,0.,0.));
#1113=DIRECTION('center_axis',(1.,0.,0.));
#1114=DIRECTION('ref_axis',(0.,-1.,-1.22464679914735E-16));
#1115=DIRECTION('center_axis',(1.,1.22124532708767E-15,0.));
#1116=DIRECTION('ref_axis',(0.,1.,0.));
#1117=DIRECTION('',(-1.,0.,0.));
#1118=DIRECTION('center_axis',(-1.,0.,0.));
#1119=DIRECTION('ref_axis',(0.,1.,0.));
#1120=DIRECTION('',(1.,0.,0.));
#1121=DIRECTION('center_axis',(1.,1.22124532708767E-15,0.));
#1122=DIRECTION('ref_axis',(0.,1.,0.));
#1123=DIRECTION('center_axis',(1.,-3.98085721360255E-31,-5.60875800912743E-33));
#1124=DIRECTION('ref_axis',(0.,1.,0.));
#1125=DIRECTION('center_axis',(-1.,3.98085721360255E-31,5.60875800912743E-33));
#1126=DIRECTION('ref_axis',(-3.98085721360255E-31,-1.,0.));
#1127=DIRECTION('center_axis',(1.,-3.98085721360255E-31,-5.60875800912743E-33));
#1128=DIRECTION('ref_axis',(0.,1.,0.));
#1129=DIRECTION('center_axis',(-1.,-1.22124532708767E-15,0.));
#1130=DIRECTION('ref_axis',(0.,0.,1.));
#1131=DIRECTION('center_axis',(-1.,-1.22124532708767E-15,0.));
#1132=DIRECTION('ref_axis',(0.,1.,0.));
#1133=DIRECTION('',(1.22124532708767E-15,-1.,0.));
#1134=DIRECTION('center_axis',(-1.,-1.22124532708767E-15,0.));
#1135=DIRECTION('ref_axis',(0.,1.,0.));
#1136=DIRECTION('',(-1.22124532708767E-15,1.,0.));
#1137=DIRECTION('center_axis',(-1.,-1.22124532708767E-15,0.));
#1138=DIRECTION('ref_axis',(0.,1.,0.));
#1139=DIRECTION('',(0.,0.,1.));
#1140=DIRECTION('center_axis',(-1.,-1.22124532708767E-15,0.));
#1141=DIRECTION('ref_axis',(0.,1.,0.));
#1142=DIRECTION('',(0.,0.,-1.));
#1143=DIRECTION('center_axis',(-1.,-1.22124532708767E-15,0.));
#1144=DIRECTION('ref_axis',(0.,1.,0.));
#1145=DIRECTION('center_axis',(1.,1.22124532708767E-15,0.));
#1146=DIRECTION('ref_axis',(0.,-0.589823105657796,-0.807532478623734));
#1147=DIRECTION('center_axis',(1.,1.22124532708767E-15,0.));
#1148=DIRECTION('ref_axis',(0.,1.,0.));
#1149=DIRECTION('center_axis',(1.,1.22124532708767E-15,0.));
#1150=DIRECTION('ref_axis',(0.,1.,0.));
#1151=DIRECTION('center_axis',(-1.,-1.22124532708767E-15,0.));
#1152=DIRECTION('ref_axis',(0.,0.,1.));
#1153=DIRECTION('center_axis',(-1.,1.97215226305253E-31,0.));
#1154=DIRECTION('ref_axis',(-1.31476817536835E-31,-0.589823105657796,0.807532478623734));
#1155=DIRECTION('center_axis',(-1.,-1.22124532708767E-15,0.));
#1156=DIRECTION('ref_axis',(0.,1.,0.));
#1157=DIRECTION('',(0.,0.,-1.));
#1158=DIRECTION('',(-1.22124532708767E-15,1.,0.));
#1159=DIRECTION('',(0.,0.,1.));
#1160=DIRECTION('center_axis',(1.,1.22124532708767E-15,0.));
#1161=DIRECTION('ref_axis',(0.,1.,0.));
#1162=DIRECTION('',(0.,0.,-1.));
#1163=DIRECTION('',(-1.22124532708767E-15,1.,0.));
#1164=DIRECTION('',(0.,0.,-1.));
#1165=DIRECTION('',(1.22124532708767E-15,-1.,0.));
#1166=DIRECTION('',(0.,0.,1.));
#1167=DIRECTION('',(-1.22124532708767E-15,1.,0.));
#1168=DIRECTION('',(0.,0.,1.));
#1169=DIRECTION('center_axis',(1.,1.22124532708767E-15,0.));
#1170=DIRECTION('ref_axis',(0.,1.,0.));
#1171=DIRECTION('',(0.,0.,1.));
#1172=DIRECTION('center_axis',(-1.,-1.22124532708767E-15,0.));
#1173=DIRECTION('ref_axis',(0.,1.,0.));
#1174=DIRECTION('center_axis',(1.,1.22124532708767E-15,0.));
#1175=DIRECTION('ref_axis',(0.,1.,0.));
#1176=DIRECTION('center_axis',(0.,0.,1.));
#1177=DIRECTION('ref_axis',(1.,1.22124532708767E-15,0.));
#1178=DIRECTION('',(-1.22124532708767E-15,1.,0.));
#1179=DIRECTION('',(1.,1.22124532708767E-15,0.));
#1180=DIRECTION('',(0.,1.,0.));
#1181=DIRECTION('',(-1.,-1.22124532708767E-15,0.));
#1182=DIRECTION('',(-1.22124532708767E-15,1.,0.));
#1183=DIRECTION('center_axis',(-1.,-1.22124532708767E-15,0.));
#1184=DIRECTION('ref_axis',(-1.22124532708767E-15,1.,0.));
#1185=DIRECTION('center_axis',(1.,1.22124532708767E-15,0.));
#1186=DIRECTION('ref_axis',(0.,1.,0.));
#1187=DIRECTION('',(0.,0.,-1.));
#1188=DIRECTION('center_axis',(-1.22124532708767E-15,1.,0.));
#1189=DIRECTION('ref_axis',(1.,1.22124532708767E-15,0.));
#1190=DIRECTION('',(0.,0.,-1.));
#1191=DIRECTION('',(-1.,0.,0.));
#1192=DIRECTION('center_axis',(-1.,-1.22124532708767E-15,0.));
#1193=DIRECTION('ref_axis',(-1.22124532708767E-15,1.,0.));
#1194=DIRECTION('center_axis',(1.,1.22124532708767E-15,0.));
#1195=DIRECTION('ref_axis',(0.,1.,0.));
#1196=DIRECTION('',(0.,0.,-1.));
#1197=DIRECTION('center_axis',(1.22124532708767E-15,-1.,0.));
#1198=DIRECTION('ref_axis',(-1.,-1.22124532708767E-15,0.));
#1199=DIRECTION('',(0.,0.,1.));
#1200=DIRECTION('',(1.,0.,0.));
#1201=DIRECTION('center_axis',(-1.,0.,0.));
#1202=DIRECTION('ref_axis',(0.,0.,1.));
#1203=DIRECTION('center_axis',(1.,0.,0.));
#1204=DIRECTION('ref_axis',(0.,1.,0.));
#1205=DIRECTION('',(0.,0.707106781186547,0.707106781186547));
#1206=DIRECTION('center_axis',(1.,0.,0.));
#1207=DIRECTION('ref_axis',(0.,1.,0.));
#1208=DIRECTION('',(0.,0.707106781186548,-0.707106781186548));
#1209=DIRECTION('center_axis',(1.,0.,0.));
#1210=DIRECTION('ref_axis',(0.,1.,0.));
#1211=DIRECTION('center_axis',(-1.,0.,0.));
#1212=DIRECTION('ref_axis',(0.,-1.,-1.22464679914735E-16));
#1213=DIRECTION('',(1.,0.,0.));
#1214=DIRECTION('center_axis',(1.,0.,0.));
#1215=DIRECTION('ref_axis',(0.,1.,0.));
#1216=DIRECTION('',(-1.,0.,0.));
#1217=DIRECTION('',(-1.,1.11022302462517E-16,0.));
#1218=DIRECTION('',(-1.,0.,0.));
#1219=DIRECTION('',(1.,0.,0.));
#1220=DIRECTION('center_axis',(1.,0.,0.));
#1221=DIRECTION('ref_axis',(0.,1.,0.));
#1222=DIRECTION('',(-1.,0.,0.));
#1223=DIRECTION('',(1.,0.,0.));
#1224=DIRECTION('center_axis',(1.,0.,0.));
#1225=DIRECTION('ref_axis',(0.,1.,0.));
#1226=DIRECTION('',(-1.,0.,0.));
#1227=DIRECTION('center_axis',(0.,-1.,0.));
#1228=DIRECTION('ref_axis',(0.,0.,-1.));
#1229=DIRECTION('',(1.,0.,0.));
#1230=DIRECTION('',(0.,0.,-1.));
#1231=DIRECTION('',(1.,0.,0.));
#1232=DIRECTION('center_axis',(0.,1.,0.));
#1233=DIRECTION('ref_axis',(0.,0.,1.));
#1234=DIRECTION('',(1.,0.,0.));
#1235=DIRECTION('',(0.,0.,1.));
#1236=DIRECTION('',(1.,0.,0.));
#1237=DIRECTION('center_axis',(1.,0.,0.));
#1238=DIRECTION('ref_axis',(0.,1.,0.));
#1239=DIRECTION('center_axis',(-1.,0.,0.));
#1240=DIRECTION('ref_axis',(0.,1.,0.));
#1241=DIRECTION('center_axis',(0.,0.,1.));
#1242=DIRECTION('ref_axis',(0.,-1.,0.));
#1243=DIRECTION('',(0.,-1.,0.));
#1244=DIRECTION('',(1.,0.,0.));
#1245=DIRECTION('center_axis',(0.,-1.,0.));
#1246=DIRECTION('ref_axis',(0.,0.,-1.));
#1247=DIRECTION('',(-1.,0.,0.));
#1248=DIRECTION('',(0.,0.,-1.));
#1249=DIRECTION('',(1.,0.,0.));
#1250=DIRECTION('center_axis',(1.,0.,0.));
#1251=DIRECTION('ref_axis',(0.,1.,0.));
#1252=DIRECTION('',(-1.,0.,0.));
#1253=DIRECTION('center_axis',(-1.,0.,0.));
#1254=DIRECTION('ref_axis',(0.,1.,0.));
#1255=DIRECTION('',(1.,0.,0.));
#1256=DIRECTION('center_axis',(1.,0.,0.));
#1257=DIRECTION('ref_axis',(0.,1.,0.));
#1258=DIRECTION('center_axis',(0.,0.,1.));
#1259=DIRECTION('ref_axis',(0.,-1.,0.));
#1260=DIRECTION('',(1.,0.,0.));
#1261=DIRECTION('',(0.,-1.,0.));
#1262=DIRECTION('center_axis',(1.,0.,0.));
#1263=DIRECTION('ref_axis',(0.,0.,-1.));
#1264=DIRECTION('',(0.,0.,1.));
#1265=DIRECTION('',(0.,-1.,0.));
#1266=DIRECTION('',(0.,0.,-1.));
#1267=DIRECTION('',(0.,1.,0.));
#1268=DIRECTION('',(0.,0.,1.));
#1269=DIRECTION('center_axis',(0.,0.,-1.));
#1270=DIRECTION('ref_axis',(0.,1.,0.));
#1271=DIRECTION('',(1.,0.,0.));
#1272=DIRECTION('',(1.,0.,0.));
#1273=DIRECTION('center_axis',(0.,1.,0.));
#1274=DIRECTION('ref_axis',(0.,0.,1.));
#1275=DIRECTION('center_axis',(0.,-1.,0.));
#1276=DIRECTION('ref_axis',(0.,0.,-1.));
#1277=DIRECTION('',(1.,0.,0.));
#1278=DIRECTION('center_axis',(0.,0.,1.));
#1279=DIRECTION('ref_axis',(0.,-1.,0.));
#1280=DIRECTION('center_axis',(0.,0.707106781186548,0.707106781186548));
#1281=DIRECTION('ref_axis',(-0.666666666666667,0.52704627669473,-0.52704627669473));
#1282=DIRECTION('',(0.,0.707106781186547,0.707106781186547));
#1283=DIRECTION('center_axis',(1.,0.,0.));
#1284=DIRECTION('ref_axis',(0.,-0.589823105657796,-0.807532478623734));
#1285=DIRECTION('center_axis',(-1.,0.,0.));
#1286=DIRECTION('ref_axis',(0.,-0.589823105657796,-0.807532478623734));
#1287=DIRECTION('',(-1.,0.,0.));
#1288=DIRECTION('center_axis',(1.,0.,0.));
#1289=DIRECTION('ref_axis',(0.,-0.589823105657796,-0.807532478623734));
#1290=DIRECTION('center_axis',(-1.,0.,0.));
#1291=DIRECTION('ref_axis',(0.,0.565927633487096,0.824454919116682));
#1292=DIRECTION('center_axis',(1.,0.,0.));
#1293=DIRECTION('ref_axis',(0.,0.565927633487096,0.824454919116682));
#1294=DIRECTION('',(1.,0.,0.));
#1295=DIRECTION('center_axis',(-1.,0.,0.));
#1296=DIRECTION('ref_axis',(0.,0.565927633487096,0.824454919116682));
#1297=DIRECTION('',(-1.,0.,0.));
#1298=DIRECTION('center_axis',(-1.,0.,0.));
#1299=DIRECTION('ref_axis',(0.,0.,1.));
#1300=DIRECTION('center_axis',(1.,0.,0.));
#1301=DIRECTION('ref_axis',(0.,1.,0.));
#1302=DIRECTION('center_axis',(-1.,0.,0.));
#1303=DIRECTION('ref_axis',(0.,0.565927633487096,-0.824454919116682));
#1304=DIRECTION('',(0.,-0.707106781186547,0.707106781186547));
#1305=DIRECTION('center_axis',(-1.,0.,0.));
#1306=DIRECTION('ref_axis',(0.,-0.589823105657796,0.807532478623734));
#1307=DIRECTION('center_axis',(-1.,0.,0.));
#1308=DIRECTION('ref_axis',(0.,1.,0.));
#1309=DIRECTION('center_axis',(-1.,0.,0.));
#1310=DIRECTION('ref_axis',(0.,-1.,1.22464679914735E-16));
#1311=DIRECTION('center_axis',(-1.,0.,0.));
#1312=DIRECTION('ref_axis',(0.,1.,0.));
#1313=DIRECTION('',(-1.,0.,0.));
#1314=DIRECTION('center_axis',(1.,0.,0.));
#1315=DIRECTION('ref_axis',(0.,0.,-1.));
#1316=DIRECTION('center_axis',(1.,0.,0.));
#1317=DIRECTION('ref_axis',(0.,1.,0.));
#1318=DIRECTION('center_axis',(1.,0.,0.));
#1319=DIRECTION('ref_axis',(0.,0.565927633487096,-0.824454919116682));
#1320=DIRECTION('center_axis',(1.,0.,0.));
#1321=DIRECTION('ref_axis',(0.,0.565927633487096,-0.824454919116682));
#1322=DIRECTION('',(-1.,0.,0.));
#1323=DIRECTION('center_axis',(0.,-0.707106781186548,0.707106781186548));
#1324=DIRECTION('ref_axis',(-0.666666666666667,0.52704627669473,0.52704627669473));
#1325=DIRECTION('center_axis',(-1.,0.,0.));
#1326=DIRECTION('ref_axis',(0.,-0.589823105657796,0.807532478623734));
#1327=DIRECTION('center_axis',(1.,0.,0.));
#1328=DIRECTION('ref_axis',(0.,-0.589823105657796,0.807532478623734));
#1329=DIRECTION('',(1.,0.,0.));
#1330=DIRECTION('center_axis',(1.,0.,0.));
#1331=DIRECTION('ref_axis',(0.,-1.,1.22464679914735E-16));
#1332=DIRECTION('center_axis',(1.,0.,0.));
#1333=DIRECTION('ref_axis',(0.,1.,0.));
#1334=DIRECTION('center_axis',(1.,0.,0.));
#1335=DIRECTION('ref_axis',(0.,0.,-1.));
#1336=DIRECTION('center_axis',(-1.,0.,0.));
#1337=DIRECTION('ref_axis',(0.,-1.,1.22464679914735E-16));
#1338=DIRECTION('center_axis',(1.,0.,0.));
#1339=DIRECTION('ref_axis',(0.,1.,0.));
#1340=DIRECTION('',(0.,0.,1.));
#1341=DIRECTION('',(0.,0.,-1.));
#1342=DIRECTION('center_axis',(-1.,0.,0.));
#1343=DIRECTION('ref_axis',(0.,1.,0.));
#1344=DIRECTION('center_axis',(0.,1.,0.));
#1345=DIRECTION('ref_axis',(0.,0.,1.));
#1346=DIRECTION('center_axis',(1.,0.,0.));
#1347=DIRECTION('ref_axis',(0.,1.,0.));
#1348=DIRECTION('',(-1.,0.,0.));
#1349=DIRECTION('center_axis',(0.,-1.,0.));
#1350=DIRECTION('ref_axis',(0.,0.,-1.));
#1351=DIRECTION('center_axis',(1.,0.,0.));
#1352=DIRECTION('ref_axis',(0.,1.,0.));
#1353=DIRECTION('center_axis',(1.,0.,0.));
#1354=DIRECTION('ref_axis',(0.,1.,0.));
#1355=DIRECTION('',(0.,0.,-1.));
#1356=DIRECTION('',(0.,0.,1.));
#1357=DIRECTION('center_axis',(-1.,0.,0.));
#1358=DIRECTION('ref_axis',(0.,1.,0.));
#1359=DIRECTION('center_axis',(1.,0.,0.));
#1360=DIRECTION('ref_axis',(0.,1.,0.));
#1361=DIRECTION('',(1.,0.,0.));
#1362=DIRECTION('',(-1.,0.,0.));
#1363=DIRECTION('center_axis',(0.,-1.,0.));
#1364=DIRECTION('ref_axis',(0.,0.,-1.));
#1365=DIRECTION('center_axis',(1.,0.,0.));
#1366=DIRECTION('ref_axis',(0.,1.,0.));
#1367=DIRECTION('',(-1.,0.,0.));
#1368=DIRECTION('center_axis',(0.,1.,0.));
#1369=DIRECTION('ref_axis',(0.,0.,1.));
#1370=DIRECTION('center_axis',(1.,0.,0.));
#1371=DIRECTION('ref_axis',(0.,1.,0.));
#1372=DIRECTION('center_axis',(1.,0.,0.));
#1373=DIRECTION('ref_axis',(0.,1.,0.));
#1374=DIRECTION('',(0.,1.,0.));
#1375=DIRECTION('',(0.,-1.,0.));
#1376=DIRECTION('center_axis',(-1.,0.,0.));
#1377=DIRECTION('ref_axis',(0.,1.,0.));
#1378=DIRECTION('center_axis',(1.,0.,0.));
#1379=DIRECTION('ref_axis',(0.,-1.,-8.42478853006615E-10));
#1380=DIRECTION('',(1.,0.,0.));
#1381=DIRECTION('',(-1.,0.,0.));
#1382=DIRECTION('center_axis',(0.,0.,-1.));
#1383=DIRECTION('ref_axis',(0.,1.,0.));
#1384=DIRECTION('center_axis',(1.,0.,0.));
#1385=DIRECTION('ref_axis',(0.,1.,0.));
#1386=DIRECTION('',(-1.,0.,0.));
#1387=DIRECTION('center_axis',(0.,0.,1.));
#1388=DIRECTION('ref_axis',(0.,-1.,0.));
#1389=CARTESIAN_POINT('',(0.,0.,0.));
#1390=CARTESIAN_POINT('Origin',(58.5,-69.292372406574,-51.7766098603788));
#1391=CARTESIAN_POINT('',(9.3032736161515E-14,-61.6331265291376,-54.0865779527059));
#1392=CARTESIAN_POINT('',(9.61298886706591E-14,-62.8838293804901,-46.9880217299555));
#1393=CARTESIAN_POINT('Origin',(1.77635683940025E-14,-69.292372406574,-51.7766098603788));
#1394=CARTESIAN_POINT('',(7.50000000000011,-62.8838293804901,-46.9880217299555));
#1395=CARTESIAN_POINT('',(58.5,-62.8838293804901,-46.9880217299555));
#1396=CARTESIAN_POINT('',(7.50000000000011,-61.6331265291376,-54.0865779527059));
#1397=CARTESIAN_POINT('Origin',(7.50000000000011,-69.292372406574,-51.7766098603788));
#1398=CARTESIAN_POINT('',(58.5,-61.6331265291376,-54.0865779527059));
#1399=CARTESIAN_POINT('Origin',(58.5,-5.33972957776715,-86.3350304940094));
#1400=CARTESIAN_POINT('',(7.50000000000011,-4.84588176222422,-78.350287897339));
#1401=CARTESIAN_POINT('',(7.50000000000011,-11.4691192090708,-81.1939622444855));
#1402=CARTESIAN_POINT('Origin',(7.50000000000011,-5.33972957776715,-86.3350304940094));
#1403=CARTESIAN_POINT('',(2.51634657213709E-14,-4.84588176222422,-78.350287897339));
#1404=CARTESIAN_POINT('',(58.5,-4.84588176222422,-78.350287897339));
#1405=CARTESIAN_POINT('',(1.29786453682161E-14,-11.4691192090708,-81.1939622444855));
#1406=CARTESIAN_POINT('Origin',(1.77635683940025E-14,-5.33972957776715,
-86.3350304940094));
#1407=CARTESIAN_POINT('',(58.5,-11.4691192090708,-81.1939622444855));
#1408=CARTESIAN_POINT('Origin',(0.,0.,0.));
#1409=CARTESIAN_POINT('',(7.46237390243501E-15,53.9385238722263,57.0340760084236));
#1410=CARTESIAN_POINT('Origin',(1.36375108141349E-14,0.,0.));
#1411=CARTESIAN_POINT('',(40.5,53.9385238722263,57.0340760084236));
#1412=CARTESIAN_POINT('',(58.5,53.9385238722263,57.0340760084236));
#1413=CARTESIAN_POINT('',(40.5,53.9385238722263,-57.0340760084236));
#1414=CARTESIAN_POINT('Origin',(40.5,0.,0.));
#1415=CARTESIAN_POINT('',(2.98023223590202E-7,53.9385238722263,-57.0340760084236));
#1416=CARTESIAN_POINT('',(58.5,53.9385238722263,-57.0340760084236));
#1417=CARTESIAN_POINT('Origin',(1.36375108141349E-14,0.,0.));
#1418=CARTESIAN_POINT('Origin',(7.50000000000011,0.,0.));
#1419=CARTESIAN_POINT('Origin',(7.50000000000011,-36.3752171447795,-67.2219402305101));
#1420=CARTESIAN_POINT('Origin',(7.50000000000011,-5.34294830600857E-15,
0.));
#1421=CARTESIAN_POINT('Origin',(1.36375108141349E-14,-12.008622150294,0.));
#1422=CARTESIAN_POINT('',(9.83667041933228E-14,-81.3879610102783,-10.0000001490116));
#1423=CARTESIAN_POINT('Origin',(1.77635683940025E-14,-5.34294830600857E-15,
0.));
#1424=CARTESIAN_POINT('',(1.0697459913666E-13,-88.4364178210525,-10.0000001490116));
#1425=CARTESIAN_POINT('',(7.67876019606586E-14,-63.718208869548,-10.0000001490116));
#1426=CARTESIAN_POINT('',(1.06974599157238E-13,-88.4364178379021,10.));
#1427=CARTESIAN_POINT('Origin',(4.66006047846572E-14,-4.33680868994202E-18,
0.));
#1428=CARTESIAN_POINT('',(9.83667042156824E-14,-81.3879610285871,10.));
#1429=CARTESIAN_POINT('',(7.24836545001698E-14,-60.1939804733154,10.));
#1430=CARTESIAN_POINT('',(1.11844905811833E-14,-10.0000001490116,81.3879610102783));
#1431=CARTESIAN_POINT('Origin',(1.77635683940025E-14,-5.34294830600857E-15,
0.));
#1432=CARTESIAN_POINT('',(1.11844905811833E-14,-10.0000001490116,88.4364178210525));
#1433=CARTESIAN_POINT('',(1.11844905811833E-14,-10.0000001490116,44.2182089105262));
#1434=CARTESIAN_POINT('',(-1.44616616698152E-14,11.0000001639128,88.3176086428631));
#1435=CARTESIAN_POINT('Origin',(4.66006047846572E-14,-4.33680868994202E-18,
0.));
#1436=CARTESIAN_POINT('',(-1.44616616698152E-14,11.0000001639128,81.2588468831839));
#1437=CARTESIAN_POINT('',(-1.44616616698152E-14,11.0000001639128,40.629423441592));
#1438=CARTESIAN_POINT('',(-7.105427357601E-14,57.9827569213073,57.9827569213073));
#1439=CARTESIAN_POINT('Origin',(1.77635683940025E-14,-5.34294830600857E-15,
0.));
#1440=CARTESIAN_POINT('Origin',(1.77635683940025E-14,52.5679842917511,71.9713321573403));
#1441=CARTESIAN_POINT('',(4.66006047846572E-14,-1.24999999999999,85.0000012665987));
#1442=CARTESIAN_POINT('Origin',(4.66006047846572E-14,-4.33680868994202E-18,
85.0000012665987));
#1443=CARTESIAN_POINT('',(4.66006047846572E-14,-86.2500012665987,-1.53080849893419E-16));
#1444=CARTESIAN_POINT('Origin',(4.66006047846572E-14,-85.0000012665987,
0.));
#1445=CARTESIAN_POINT('Origin',(1.36375108141349E-14,-12.008622150294,0.));
#1446=CARTESIAN_POINT('',(2.98023223092093E-7,57.9827569213073,-57.9827569213073));
#1447=CARTESIAN_POINT('Origin',(2.98023220823074E-7,52.5679842917511,-71.9713321573403));
#1448=CARTESIAN_POINT('',(-1.32404163245296E-14,10.0000001490116,-81.3879610102783));
#1449=CARTESIAN_POINT('Origin',(1.77635683940025E-14,-5.34294830600857E-15,
0.));
#1450=CARTESIAN_POINT('',(-1.32404163245296E-14,10.0000001490116,-89.3617909423096));
#1451=CARTESIAN_POINT('',(-1.32404163245296E-14,10.0000001490116,-44.2182089105262));
#1452=CARTESIAN_POINT('',(-1.34483012305453E-14,10.1702238554241,-89.3617909423096));
#1453=CARTESIAN_POINT('',(-7.34207450411709E-15,5.17022378091826,-89.3617909423096));
#1454=CARTESIAN_POINT('',(-1.34483012305453E-14,10.170223855424,-88.4170050544281));
#1455=CARTESIAN_POINT('',(-1.34483012305453E-14,10.1702238554241,-90.2233438790593));
#1456=CARTESIAN_POINT('',(-1.95545276840039E-14,15.1702237064125,-87.6975743607633));
#1457=CARTESIAN_POINT('Origin',(-1.23584777768887E-15,-4.33680868994202E-18,
0.));
#1458=CARTESIAN_POINT('',(-1.95545276840039E-14,15.1702237064125,-96.3617896310074));
#1459=CARTESIAN_POINT('',(-1.95545276840039E-14,15.1702237064125,-94.1957361673489));
#1460=CARTESIAN_POINT('',(-3.78732081362582E-14,30.1702241534473,-96.3617910466177));
#1461=CARTESIAN_POINT('',(-1.95545279569735E-14,15.1702239299299,-96.3617910466177));
#1462=CARTESIAN_POINT('',(-3.78732081362582E-14,30.1702241534473,-104.361791165827));
#1463=CARTESIAN_POINT('',(-3.78732081362582E-14,30.1702241534473,-100.611791109948));
#1464=CARTESIAN_POINT('',(3.54015125808805E-14,-29.8297767406224,-104.361791165827));
#1465=CARTESIAN_POINT('',(1.70828324015958E-14,-14.829776517105,-104.361791165827));
#1466=CARTESIAN_POINT('',(3.54015125808805E-14,-29.8297767406224,-96.3617910466177));
#1467=CARTESIAN_POINT('',(3.54015125808805E-14,-29.8297767406224,-96.611791050343));
#1468=CARTESIAN_POINT('',(1.70828321286262E-14,-14.8297762935875,-96.3617896310074));
#1469=CARTESIAN_POINT('',(4.87037894873936E-15,-4.82977636809335,-96.3617910466177));
#1470=CARTESIAN_POINT('',(1.70828321286262E-14,-14.8297762935875,-87.7557859696234));
#1471=CARTESIAN_POINT('',(1.70828321286262E-14,-14.8297762935875,-89.8927343366569));
#1472=CARTESIAN_POINT('',(1.11844903992036E-14,-10.,-88.4364178379021));
#1473=CARTESIAN_POINT('Origin',(-1.23584777768887E-15,-4.33680868994202E-18,
0.));
#1474=CARTESIAN_POINT('',(1.11844903992036E-14,-10.,-81.3879610285871));
#1475=CARTESIAN_POINT('',(1.11844903992036E-14,-10.,-40.6939805142936));
#1476=CARTESIAN_POINT('Origin',(1.77635683940025E-14,-5.34294830600857E-15,
0.));
#1477=CARTESIAN_POINT('',(4.66006047846572E-14,-1.24999992549419,-84.5000005885959));
#1478=CARTESIAN_POINT('Origin',(4.66006047846572E-14,7.45058059649015E-8,
-84.5000005885959));
#1479=CARTESIAN_POINT('Origin',(100.,-0.0320620372602786,65.));
#1480=CARTESIAN_POINT('',(55.,0.,65.));
#1481=CARTESIAN_POINT('',(55.,14.9679379627397,65.));
#1482=CARTESIAN_POINT('',(55.,-15.0320620372603,65.));
#1483=CARTESIAN_POINT('',(58.5,14.9679379627397,65.));
#1484=CARTESIAN_POINT('',(55.,14.9679379627397,65.));
#1485=CARTESIAN_POINT('',(58.5,-15.0320620372603,65.));
#1486=CARTESIAN_POINT('',(58.5,-6.02034209377712,65.));
#1487=CARTESIAN_POINT('',(55.,-15.0320620372603,65.));
#1488=CARTESIAN_POINT('',(145.,-15.0320620372602,65.));
#1489=CARTESIAN_POINT('',(55.,-15.0320620372603,65.));
#1490=CARTESIAN_POINT('Origin',(55.,-15.0320620372603,65.));
#1491=CARTESIAN_POINT('',(55.,14.9679379627397,63.2531497955508));
#1492=CARTESIAN_POINT('Origin',(55.,0.,0.));
#1493=CARTESIAN_POINT('',(55.,14.9679379627397,65.));
#1494=CARTESIAN_POINT('Origin',(55.,14.9679379627397,65.));
#1495=CARTESIAN_POINT('',(58.5,14.9679379627397,63.2531497955508));
#1496=CARTESIAN_POINT('',(58.5,14.9679379627397,32.5));
#1497=CARTESIAN_POINT('',(58.5,14.9679379627397,63.2531497955508));
#1498=CARTESIAN_POINT('Origin',(55.,-15.0320620372603,65.));
#1499=CARTESIAN_POINT('',(55.,-15.0320620372603,63.2379414341008));
#1500=CARTESIAN_POINT('Origin',(55.,0.,0.));
#1501=CARTESIAN_POINT('',(55.,-15.0320620372603,65.));
#1502=CARTESIAN_POINT('Origin',(145.,-15.0320620372602,65.));
#1503=CARTESIAN_POINT('',(58.5,-15.0320620372603,63.2379414341008));
#1504=CARTESIAN_POINT('',(58.5,-15.0320620372603,32.5));
#1505=CARTESIAN_POINT('',(58.5,-15.0320620372603,63.2379414341008));
#1506=CARTESIAN_POINT('Origin',(58.5,-12.008622150294,0.));
#1507=CARTESIAN_POINT('',(58.5,45.9619414620119,45.9619414620119));
#1508=CARTESIAN_POINT('Origin',(58.5,0.,0.));
#1509=CARTESIAN_POINT('',(58.5,57.9827569213073,57.9827569213073));
#1510=CARTESIAN_POINT('',(58.5,25.9892229230801,25.9892229230801));
#1511=CARTESIAN_POINT('',(58.5,57.9827569213073,-57.9827569213073));
#1512=CARTESIAN_POINT('Origin',(58.5,-5.34294830600857E-15,0.));
#1513=CARTESIAN_POINT('',(58.5,45.9619414620119,-45.9619414620119));
#1514=CARTESIAN_POINT('',(58.5,22.1066862423511,-22.1066862423511));
#1515=CARTESIAN_POINT('Origin',(58.5,0.,0.));
#1516=CARTESIAN_POINT('Origin',(58.5,-5.34294830600857E-15,0.));
#1517=CARTESIAN_POINT('',(8.,-10.,-81.3879610285871));
#1518=CARTESIAN_POINT('',(58.5,-10.,-81.3879610285871));
#1519=CARTESIAN_POINT('',(8.,10.0000001490116,-81.3879610102783));
#1520=CARTESIAN_POINT('Origin',(8.,-5.34294830600857E-15,0.));
#1521=CARTESIAN_POINT('',(58.5,10.0000001490116,-81.3879610102783));
#1522=CARTESIAN_POINT('',(20.0000002980232,57.9827569213073,-57.9827569213073));
#1523=CARTESIAN_POINT('',(58.5,57.9827569213073,57.9827569213073));
#1524=CARTESIAN_POINT('',(8.,11.0000001639128,81.2588468831839));
#1525=CARTESIAN_POINT('',(58.5,11.0000001639128,81.258846883184));
#1526=CARTESIAN_POINT('',(8.,-10.0000001490116,81.3879610102783));
#1527=CARTESIAN_POINT('Origin',(8.,-5.34294830600857E-15,0.));
#1528=CARTESIAN_POINT('',(58.5,-10.0000001490116,81.3879610102783));
#1529=CARTESIAN_POINT('',(8.,-81.3879610285871,10.));
#1530=CARTESIAN_POINT('',(58.5,-81.3879610285871,10.));
#1531=CARTESIAN_POINT('',(8.,-81.3879610102783,-10.0000001490116));
#1532=CARTESIAN_POINT('Origin',(8.,-5.34294830600857E-15,0.));
#1533=CARTESIAN_POINT('',(58.5,-81.3879610102783,-10.0000001490116));
#1534=CARTESIAN_POINT('Origin',(1.23259516440783E-31,10.1702238554241,-88.4170050544281));
#1535=CARTESIAN_POINT('',(20.,10.1702238554241,-89.3617909423096));
#1536=CARTESIAN_POINT('',(1.23259516440783E-31,10.1702238554241,-89.3617909423096));
#1537=CARTESIAN_POINT('',(20.,10.170223855424,-88.4170050544281));
#1538=CARTESIAN_POINT('',(20.,10.1702238554241,-96.3617910466177));
#1539=CARTESIAN_POINT('',(1.23259516440783E-31,10.170223855424,-88.4170050544281));
#1540=CARTESIAN_POINT('Origin',(1.23259516440783E-31,15.1702237064125,-96.3617896310074));
#1541=CARTESIAN_POINT('',(20.,15.1702237064125,-87.6975743607633));
#1542=CARTESIAN_POINT('',(1.23259516440783E-31,15.1702237064125,-87.6975743607633));
#1543=CARTESIAN_POINT('',(20.,15.1702237064125,-96.3617896310074));
#1544=CARTESIAN_POINT('',(20.,15.1702237064125,-96.3617896310074));
#1545=CARTESIAN_POINT('',(1.23259516440783E-31,15.1702237064125,-96.3617910466177));
#1546=CARTESIAN_POINT('Origin',(1.23259516440783E-31,-4.33680868994202E-18,
0.));
#1547=CARTESIAN_POINT('Origin',(20.,-4.33680868994202E-18,0.));
#1548=CARTESIAN_POINT('Origin',(1.23259516440783E-31,30.1702241534473,-96.3617910466177));
#1549=CARTESIAN_POINT('',(20.,30.1702241534473,-96.3617910466177));
#1550=CARTESIAN_POINT('',(20.,30.1702241534473,-96.3617910466177));
#1551=CARTESIAN_POINT('',(1.23259516440783E-31,30.1702241534473,-96.3617910466177));
#1552=CARTESIAN_POINT('Origin',(1.23259516440783E-31,-14.8297762935875,
-87.7557859696234));
#1553=CARTESIAN_POINT('',(20.,-14.8297762935875,-96.3617896310074));
#1554=CARTESIAN_POINT('',(1.23259516440783E-31,-14.8297762935875,-96.3617910466177));
#1555=CARTESIAN_POINT('',(20.,-14.8297762935875,-87.7557859696234));
#1556=CARTESIAN_POINT('',(20.,-14.8297762935875,-96.3617896310074));
#1557=CARTESIAN_POINT('',(1.23259516440783E-31,-14.8297762935875,-87.7557859696234));
#1558=CARTESIAN_POINT('Origin',(1.23259516440783E-31,-4.33680868994202E-18,
0.));
#1559=CARTESIAN_POINT('',(8.,-10.,-88.4364178379021));
#1560=CARTESIAN_POINT('',(1.23259516440783E-31,-10.,-88.4364178379021));
#1561=CARTESIAN_POINT('',(20.,10.0000001490116,-88.4364178210525));
#1562=CARTESIAN_POINT('Origin',(20.,-4.33680868994202E-18,0.));
#1563=CARTESIAN_POINT('',(8.,10.0000001490116,-88.4364178210525));
#1564=CARTESIAN_POINT('',(1.23259516440783E-31,10.0000001490116,-88.4364178210525));
#1565=CARTESIAN_POINT('Origin',(8.,-4.33680868994202E-18,0.));
#1566=CARTESIAN_POINT('Origin',(1.23259516440783E-31,10.1702238554241,-89.3617909423096));
#1567=CARTESIAN_POINT('',(20.,10.0000001490116,-89.3617909423096));
#1568=CARTESIAN_POINT('',(1.23259516440783E-31,10.0000001490116,-89.3617909423096));
#1569=CARTESIAN_POINT('',(20.,10.1702238554241,-89.3617909423096));
#1570=CARTESIAN_POINT('Origin',(20.,0.170223706412456,-96.8617910540683));
#1571=CARTESIAN_POINT('',(20.,10.0000001490116,-90.));
#1572=CARTESIAN_POINT('',(20.,-29.8297767406224,-96.3617910466177));
#1573=CARTESIAN_POINT('',(20.,-29.8297767406224,-96.3617910466177));
#1574=CARTESIAN_POINT('',(20.,-29.8297767406224,-104.361791165827));
#1575=CARTESIAN_POINT('',(20.,-29.8297767406224,-104.361791165827));
#1576=CARTESIAN_POINT('',(20.,30.1702241534473,-104.361791165827));
#1577=CARTESIAN_POINT('',(20.,-9.82977644259916,-104.361791165827));
#1578=CARTESIAN_POINT('',(20.,30.1702241534473,-104.361791165827));
#1579=CARTESIAN_POINT('Origin',(1.23259516440783E-31,-29.8297767406224,
-104.361791165827));
#1580=CARTESIAN_POINT('',(1.23259516440783E-31,30.1702241534473,-104.361791165827));
#1581=CARTESIAN_POINT('',(1.23259516440783E-31,-29.8297767406224,-104.361791165827));
#1582=CARTESIAN_POINT('Origin',(1.23259516440783E-31,30.1702241534473,-104.361791165827));
#1583=CARTESIAN_POINT('Origin',(1.23259516440783E-31,-29.8297767406224,
-96.3617910466177));
#1584=CARTESIAN_POINT('',(1.23259516440783E-31,-29.8297767406224,-96.3617910466177));
#1585=CARTESIAN_POINT('Origin',(1.23259516440783E-31,-9.82977644259916,
-96.3617910466177));
#1586=CARTESIAN_POINT('Origin',(68.5,18.0835287726592,33.8949170735011));
#1587=CARTESIAN_POINT('',(53.5,40.7302218921842,56.5416101930261));
#1588=CARTESIAN_POINT('',(53.5,43.9105217405533,59.7219100413952));
#1589=CARTESIAN_POINT('',(53.5,18.0835287726592,33.8949170735011));
#1590=CARTESIAN_POINT('Ctrl Pts',(53.5,43.9105217405533,59.7219100413951));
#1591=CARTESIAN_POINT('Ctrl Pts',(53.5,44.5470960921589,59.2720015838439));
#1592=CARTESIAN_POINT('Ctrl Pts',(53.5590085909703,45.2145037131208,58.8746985631243));
#1593=CARTESIAN_POINT('Ctrl Pts',(53.7866300168836,46.6315394408598,58.1722533866185));
#1594=CARTESIAN_POINT('Ctrl Pts',(53.9592381492104,47.375678230636,57.8765557571719));
#1595=CARTESIAN_POINT('Ctrl Pts',(54.6629135196451,49.8195084720575,57.1195274334806));
#1596=CARTESIAN_POINT('Ctrl Pts',(55.3670494177657,51.5337445047643,56.9146371025596));
#1597=CARTESIAN_POINT('Ctrl Pts',(56.9432923282637,54.9155934862652,57.0567414544031));
#1598=CARTESIAN_POINT('Ctrl Pts',(57.7947171512631,56.5272196864232,57.4193397640144));
#1599=CARTESIAN_POINT('Ctrl Pts',(58.5000000066822,57.9827569213317,57.9827569128794));
#1600=CARTESIAN_POINT('Ctrl Pts',(58.4999999636199,45.9619413812127,45.9619414272304));
#1601=CARTESIAN_POINT('Ctrl Pts',(57.5144239568507,45.8970033548672,47.1436694044901));
#1602=CARTESIAN_POINT('Ctrl Pts',(56.6174574485295,45.6869747993887,48.3992498029628));
#1603=CARTESIAN_POINT('Ctrl Pts',(55.095054081549,44.8750864611088,50.9582800921742));
#1604=CARTESIAN_POINT('Ctrl Pts',(54.4777414749795,44.2742010271745,52.2523625690424));
#1605=CARTESIAN_POINT('Ctrl Pts',(53.6927789733728,42.6977105349749,54.6049382932183));
#1606=CARTESIAN_POINT('Ctrl Pts',(53.5,41.789230419175,55.6364947938491));
#1607=CARTESIAN_POINT('Ctrl Pts',(53.5,40.7302218921842,56.5416101930261));
#1608=CARTESIAN_POINT('Origin',(58.5,52.5679842917511,71.9713321573403));
#1609=CARTESIAN_POINT('',(53.5,43.7206377068842,59.8583449779843));
#1610=CARTESIAN_POINT('Origin',(53.5,52.5679842917511,71.9713321573403));
#1611=CARTESIAN_POINT('',(40.5,43.7206377068842,59.8583449779843));
#1612=CARTESIAN_POINT('',(58.5,43.7206377068842,59.8583449779843));
#1613=CARTESIAN_POINT('Origin',(40.5,52.5679842917511,71.9713321573403));
#1614=CARTESIAN_POINT('Origin',(58.5,30.9845379334185,45.1389068216384));
#1615=CARTESIAN_POINT('',(40.5,45.9619414620119,45.9619414620119));
#1616=CARTESIAN_POINT('',(40.5,39.473452435725,57.5057306083886));
#1617=CARTESIAN_POINT('Origin',(40.5,30.9845379334185,45.1389068216384));
#1618=CARTESIAN_POINT('',(53.5,39.473452435725,57.5057306083886));
#1619=CARTESIAN_POINT('',(58.5,39.473452435725,57.5057306083886));
#1620=CARTESIAN_POINT('Origin',(53.5,30.9845379334185,45.1389068216384));
#1621=CARTESIAN_POINT('',(58.5,45.9619414620119,45.9619414620119));
#1622=CARTESIAN_POINT('Origin',(53.5,-12.008622150294,0.));
#1623=CARTESIAN_POINT('',(53.5,39.473452435725,-57.5057306083886));
#1624=CARTESIAN_POINT('Origin',(53.5,-5.34294830600857E-15,0.));
#1625=CARTESIAN_POINT('',(53.5,40.7302218921842,-56.5416101930261));
#1626=CARTESIAN_POINT('Origin',(53.5,30.9845379334185,-45.1389068216384));
#1627=CARTESIAN_POINT('',(53.5,43.9105217405533,-59.7219100413951));
#1628=CARTESIAN_POINT('',(53.5,14.2009920919301,-30.012380392772));
#1629=CARTESIAN_POINT('',(53.5,43.7206377068842,-59.8583449779843));
#1630=CARTESIAN_POINT('Origin',(53.5,52.5679842917511,-71.9713321573403));
#1631=CARTESIAN_POINT('Origin',(53.5,0.,0.));
#1632=CARTESIAN_POINT('Origin',(58.5,0.,0.));
#1633=CARTESIAN_POINT('',(40.5,39.473452435725,-57.5057306083886));
#1634=CARTESIAN_POINT('Origin',(40.5,0.,0.));
#1635=CARTESIAN_POINT('',(58.5,39.473452435725,-57.5057306083886));
#1636=CARTESIAN_POINT('Origin',(40.5,-10.2146510061192,0.));
#1637=CARTESIAN_POINT('',(40.5,45.9619414620119,-45.9619414620119));
#1638=CARTESIAN_POINT('Origin',(40.5,0.,0.));
#1639=CARTESIAN_POINT('Origin',(40.5,30.9845379334185,-45.1389068216384));
#1640=CARTESIAN_POINT('Origin',(58.5,30.9845379334185,-45.1389068216384));
#1641=CARTESIAN_POINT('',(58.5,45.9619414620119,-45.9619414620119));
#1642=CARTESIAN_POINT('Ctrl Pts',(58.4999999636199,45.9619413812127,-45.9619414272303));
#1643=CARTESIAN_POINT('Ctrl Pts',(57.4664915517548,45.8938451653784,-47.2011414449316));
#1644=CARTESIAN_POINT('Ctrl Pts',(56.5303346318901,45.6661423203162,-48.5215431024826));
#1645=CARTESIAN_POINT('Ctrl Pts',(55.0430360293188,44.8205630934343,-51.0709611629574));
#1646=CARTESIAN_POINT('Ctrl Pts',(54.469378395648,44.2457128900185,-52.2876089345401));
#1647=CARTESIAN_POINT('Ctrl Pts',(53.6969617321346,42.7170886471491,-54.5828426947206));
#1648=CARTESIAN_POINT('Ctrl Pts',(53.5,41.8006724714304,-55.6267154791122));
#1649=CARTESIAN_POINT('Ctrl Pts',(53.5,40.7302218921842,-56.5416101930261));
#1650=CARTESIAN_POINT('Origin',(68.5,14.2009920919301,-30.012380392772));
#1651=CARTESIAN_POINT('Ctrl Pts',(58.5000000066822,57.9827569213318,-57.9827569128794));
#1652=CARTESIAN_POINT('Ctrl Pts',(57.6860730175722,56.3030038548225,-57.332549099));
#1653=CARTESIAN_POINT('Ctrl Pts',(56.677862849028,54.4139978624098,-56.9495507840064));
#1654=CARTESIAN_POINT('Ctrl Pts',(55.0881555564581,50.854782096761,-56.9897059484234));
#1655=CARTESIAN_POINT('Ctrl Pts',(54.4796405222524,49.2774782029658,-57.2454359954391));
#1656=CARTESIAN_POINT('Ctrl Pts',(53.7061190984988,46.389021635091,-58.2300805123376));
#1657=CARTESIAN_POINT('Ctrl Pts',(53.5,45.101038512618,-58.8804944812842));
#1658=CARTESIAN_POINT('Ctrl Pts',(53.5,43.9105217405533,-59.7219100413951));
#1659=CARTESIAN_POINT('Origin',(58.5,52.5679842917511,-71.9713321573403));
#1660=CARTESIAN_POINT('',(40.5,43.7206377068842,-59.8583449779843));
#1661=CARTESIAN_POINT('Origin',(40.5,52.5679842917511,-71.9713321573403));
#1662=CARTESIAN_POINT('',(58.5,43.7206377068842,-59.8583449779843));
#1663=CARTESIAN_POINT('Origin',(40.5,0.,0.));
#1664=CARTESIAN_POINT('Origin',(40.5,0.,0.));
#1665=CARTESIAN_POINT('Origin',(40.5,-12.008622150294,0.));
#1666=CARTESIAN_POINT('Origin',(58.5,0.,0.));
#1667=CARTESIAN_POINT('Origin',(8.,7.45058037444554E-8,-85.1939805051392));
#1668=CARTESIAN_POINT('',(8.,10.0000001490116,-90.));
#1669=CARTESIAN_POINT('',(8.,-10.,-79.0000011771917));
#1670=CARTESIAN_POINT('',(8.,-1.24999992549419,-84.5000005885959));
#1671=CARTESIAN_POINT('Origin',(8.,7.45058059649015E-8,-84.5000005885959));
#1672=CARTESIAN_POINT('Origin',(1.23259516440783E-31,10.0000001490116,-88.4364178210525));
#1673=CARTESIAN_POINT('Origin',(1.23259516440783E-31,7.45058059649015E-8,
-84.5000005885959));
#1674=CARTESIAN_POINT('',(1.23259516440783E-31,-1.24999992549419,-84.5000005885959));
#1675=CARTESIAN_POINT('Origin',(1.23259516440783E-31,-10.,-81.3879610285871));
#1676=CARTESIAN_POINT('Origin',(8.,0.500000007450581,85.129423441592));
#1677=CARTESIAN_POINT('',(8.,11.0000001639128,88.3176086428631));
#1678=CARTESIAN_POINT('',(8.,-10.0000001490116,88.4364178210525));
#1679=CARTESIAN_POINT('Origin',(8.,-4.33680868994202E-18,0.));
#1680=CARTESIAN_POINT('',(8.,-10.0000001490116,80.0000011920929));
#1681=CARTESIAN_POINT('',(8.,11.0000001639128,90.0000013411045));
#1682=CARTESIAN_POINT('',(8.,-1.24999999999999,85.0000012665987));
#1683=CARTESIAN_POINT('Origin',(8.,-4.33680868994202E-18,85.0000012665987));
#1684=CARTESIAN_POINT('Origin',(1.23259516440783E-31,-4.33680868994202E-18,
0.));
#1685=CARTESIAN_POINT('',(1.23259516440783E-31,-10.0000001490116,88.4364178210525));
#1686=CARTESIAN_POINT('',(1.23259516440783E-31,11.0000001639128,88.3176086428631));
#1687=CARTESIAN_POINT('Origin',(1.23259516440783E-31,-10.0000001490116,
88.4364178210525));
#1688=CARTESIAN_POINT('Origin',(1.23259516440783E-31,-4.33680868994202E-18,
85.0000012665987));
#1689=CARTESIAN_POINT('',(1.23259516440783E-31,-1.24999999999999,85.0000012665987));
#1690=CARTESIAN_POINT('Origin',(1.23259516440783E-31,11.0000001639128,81.2588468831839));
#1691=CARTESIAN_POINT('Origin',(8.,-85.1939805051392,-7.45057970874541E-8));
#1692=CARTESIAN_POINT('',(8.,-88.4364178379021,10.));
#1693=CARTESIAN_POINT('',(8.,-88.4364178210525,-10.0000001490116));
#1694=CARTESIAN_POINT('Origin',(8.,-4.33680868994202E-18,0.));
#1695=CARTESIAN_POINT('',(8.,-78.0000011622906,-10.0000001490116));
#1696=CARTESIAN_POINT('',(8.,-90.,10.));
#1697=CARTESIAN_POINT('',(8.,-86.2500012665987,-1.53080849893419E-16));
#1698=CARTESIAN_POINT('Origin',(8.,-85.0000012665987,0.));
#1699=CARTESIAN_POINT('Origin',(1.23259516440783E-31,-4.33680868994202E-18,
0.));
#1700=CARTESIAN_POINT('',(1.23259516440783E-31,-88.4364178210525,-10.0000001490116));
#1701=CARTESIAN_POINT('',(1.23259516440783E-31,-88.4364178379021,10.));
#1702=CARTESIAN_POINT('Origin',(1.23259516440783E-31,-88.4364178210525,
-10.0000001490116));
#1703=CARTESIAN_POINT('Origin',(1.23259516440783E-31,-85.0000012665987,
0.));
#1704=CARTESIAN_POINT('',(1.23259516440783E-31,-86.2500012665987,-1.53080849893419E-16));
#1705=CARTESIAN_POINT('Origin',(1.23259516440783E-31,-81.3879610285871,
10.));
#1706=UNCERTAINTY_MEASURE_WITH_UNIT(LENGTH_MEASURE(0.01),#1710,
'DISTANCE_ACCURACY_VALUE',
'Maximum model space distance between geometric entities at asserted c
onnectivities');
#1707=UNCERTAINTY_MEASURE_WITH_UNIT(LENGTH_MEASURE(0.01),#1710,
'DISTANCE_ACCURACY_VALUE',
'Maximum model space distance between geometric entities at asserted c
onnectivities');
#1708=(
GEOMETRIC_REPRESENTATION_CONTEXT(3)
GLOBAL_UNCERTAINTY_ASSIGNED_CONTEXT((#1706))
GLOBAL_UNIT_ASSIGNED_CONTEXT((#1710,#1712,#1713))
REPRESENTATION_CONTEXT('','3D')
);
#1709=(
GEOMETRIC_REPRESENTATION_CONTEXT(3)
GLOBAL_UNCERTAINTY_ASSIGNED_CONTEXT((#1707))
GLOBAL_UNIT_ASSIGNED_CONTEXT((#1710,#1712,#1713))
REPRESENTATION_CONTEXT('','3D')
);
#1710=(
LENGTH_UNIT()
NAMED_UNIT(*)
SI_UNIT(.MILLI.,.METRE.)
);
#1711=(
LENGTH_UNIT()
NAMED_UNIT(*)
SI_UNIT($,.METRE.)
);
#1712=(
NAMED_UNIT(*)
PLANE_ANGLE_UNIT()
SI_UNIT($,.RADIAN.)
);
#1713=(
NAMED_UNIT(*)
SI_UNIT($,.STERADIAN.)
SOLID_ANGLE_UNIT()
);
#1714=SHAPE_DEFINITION_REPRESENTATION(#1715,#1716);
#1715=PRODUCT_DEFINITION_SHAPE('',$,#1718);
#1716=SHAPE_REPRESENTATION('',(#991),#1708);
#1717=PRODUCT_DEFINITION_CONTEXT('part definition',#1722,'design');
#1718=PRODUCT_DEFINITION('Drum Shell Left','Drum Shell Left',#1719,#1717);
#1719=PRODUCT_DEFINITION_FORMATION('',$,#1724);
#1720=PRODUCT_RELATED_PRODUCT_CATEGORY('Drum Shell Left',
'Drum Shell Left',(#1724));
#1721=APPLICATION_PROTOCOL_DEFINITION('international standard',
'automotive_design',2009,#1722);
#1722=APPLICATION_CONTEXT(
'Core Data for Automotive Mechanical Design Process');
#1723=PRODUCT_CONTEXT('part definition',#1722,'mechanical');
#1724=PRODUCT('Drum Shell Left','Drum Shell Left',$,(#1723));
#1725=PRESENTATION_STYLE_ASSIGNMENT((#1727));
#1726=PRESENTATION_STYLE_ASSIGNMENT((#1728));
#1727=SURFACE_STYLE_USAGE(.BOTH.,#1729);
#1728=SURFACE_STYLE_USAGE(.BOTH.,#1730);
#1729=SURFACE_SIDE_STYLE('',(#1731));
#1730=SURFACE_SIDE_STYLE('',(#1732));
#1731=SURFACE_STYLE_FILL_AREA(#1733);
#1732=SURFACE_STYLE_FILL_AREA(#1734);
#1733=FILL_AREA_STYLE('Stahl - satiniert',(#1735));
#1734=FILL_AREA_STYLE('ABS (Wei\X\DF)',(#1736));
#1735=FILL_AREA_STYLE_COLOUR('Stahl - satiniert',#1737);
#1736=FILL_AREA_STYLE_COLOUR('ABS (Wei\X\DF)',#1738);
#1737=COLOUR_RGB('Stahl - satiniert',0.627450980392157,0.627450980392157,
0.627450980392157);
#1738=COLOUR_RGB('ABS (Wei\X\DF)',0.137254901960784,0.137254901960784,0.137254901960784);
ENDSEC;
END-ISO-10303-21;
