ISO-10303-21;
HEADER;
/* Generated by software containing ST-Developer
 * from STEP Tools, Inc. (www.steptools.com) 
 */

FILE_DESCRIPTION(
/* description */ (''),
/* implementation_level */ '2;1');

FILE_NAME(
/* name */ 'Hinged_Access_Panel.step',
/* time_stamp */ '2026-09-29T23:15:27+02:00',
/* author */ (''),
/* organization */ (''),
/* preprocessor_version */ 'ST-DEVELOPER v20.2',
/* originating_system */ 'Autodesk Translation Framework v15.15.0.0',
/* authorisation */ '');

FILE_SCHEMA (('AUTOMOTIVE_DESIGN { 1 0 10303 214 3 1 1 }'));
ENDSEC;

DATA;
#10=MECHANICAL_DESIGN_GEOMETRIC_PRESENTATION_REPRESENTATION('',(#13),#1740);
#11=SHAPE_REPRESENTATION_RELATIONSHIP('SRR','None',#1747,#12);
#12=ADVANCED_BREP_SHAPE_REPRESENTATION('',(#14),#1739);
#13=STYLED_ITEM('',(#1757),#14);
#14=MANIFOLD_SOLID_BREP('Hinged Access Panel',#1030);
#15=FACE_BOUND('',#133,.T.);
#16=FACE_BOUND('',#134,.T.);
#17=PLANE('',#1047);
#18=PLANE('',#1051);
#19=PLANE('',#1055);
#20=PLANE('',#1056);
#21=PLANE('',#1062);
#22=PLANE('',#1068);
#23=PLANE('',#1076);
#24=PLANE('',#1077);
#25=PLANE('',#1080);
#26=PLANE('',#1084);
#27=PLANE('',#1090);
#28=PLANE('',#1093);
#29=PLANE('',#1094);
#30=PLANE('',#1101);
#31=PLANE('',#1103);
#32=PLANE('',#1105);
#33=PLANE('',#1108);
#34=PLANE('',#1109);
#35=PLANE('',#1111);
#36=PLANE('',#1112);
#37=PLANE('',#1117);
#38=PLANE('',#1119);
#39=PLANE('',#1120);
#40=PLANE('',#1121);
#41=PLANE('',#1122);
#42=PLANE('',#1123);
#43=PLANE('',#1124);
#44=PLANE('',#1126);
#45=PLANE('',#1128);
#46=PLANE('',#1129);
#47=PLANE('',#1130);
#48=PLANE('',#1131);
#49=PLANE('',#1132);
#50=PLANE('',#1134);
#51=PLANE('',#1136);
#52=PLANE('',#1137);
#53=PLANE('',#1138);
#54=FACE_OUTER_BOUND('',#109,.T.);
#55=FACE_OUTER_BOUND('',#110,.T.);
#56=FACE_OUTER_BOUND('',#111,.T.);
#57=FACE_OUTER_BOUND('',#112,.T.);
#58=FACE_OUTER_BOUND('',#113,.T.);
#59=FACE_OUTER_BOUND('',#114,.T.);
#60=FACE_OUTER_BOUND('',#115,.T.);
#61=FACE_OUTER_BOUND('',#116,.T.);
#62=FACE_OUTER_BOUND('',#117,.T.);
#63=FACE_OUTER_BOUND('',#118,.T.);
#64=FACE_OUTER_BOUND('',#119,.T.);
#65=FACE_OUTER_BOUND('',#120,.T.);
#66=FACE_OUTER_BOUND('',#121,.T.);
#67=FACE_OUTER_BOUND('',#122,.T.);
#68=FACE_OUTER_BOUND('',#123,.T.);
#69=FACE_OUTER_BOUND('',#124,.T.);
#70=FACE_OUTER_BOUND('',#125,.T.);
#71=FACE_OUTER_BOUND('',#126,.T.);
#72=FACE_OUTER_BOUND('',#127,.T.);
#73=FACE_OUTER_BOUND('',#128,.T.);
#74=FACE_OUTER_BOUND('',#129,.T.);
#75=FACE_OUTER_BOUND('',#130,.T.);
#76=FACE_OUTER_BOUND('',#131,.T.);
#77=FACE_OUTER_BOUND('',#132,.T.);
#78=FACE_OUTER_BOUND('',#135,.T.);
#79=FACE_OUTER_BOUND('',#136,.T.);
#80=FACE_OUTER_BOUND('',#137,.T.);
#81=FACE_OUTER_BOUND('',#138,.T.);
#82=FACE_OUTER_BOUND('',#139,.T.);
#83=FACE_OUTER_BOUND('',#140,.T.);
#84=FACE_OUTER_BOUND('',#141,.T.);
#85=FACE_OUTER_BOUND('',#142,.T.);
#86=FACE_OUTER_BOUND('',#143,.T.);
#87=FACE_OUTER_BOUND('',#144,.T.);
#88=FACE_OUTER_BOUND('',#145,.T.);
#89=FACE_OUTER_BOUND('',#146,.T.);
#90=FACE_OUTER_BOUND('',#147,.T.);
#91=FACE_OUTER_BOUND('',#148,.T.);
#92=FACE_OUTER_BOUND('',#149,.T.);
#93=FACE_OUTER_BOUND('',#150,.T.);
#94=FACE_OUTER_BOUND('',#151,.T.);
#95=FACE_OUTER_BOUND('',#152,.T.);
#96=FACE_OUTER_BOUND('',#153,.T.);
#97=FACE_OUTER_BOUND('',#154,.T.);
#98=FACE_OUTER_BOUND('',#155,.T.);
#99=FACE_OUTER_BOUND('',#156,.T.);
#100=FACE_OUTER_BOUND('',#157,.T.);
#101=FACE_OUTER_BOUND('',#158,.T.);
#102=FACE_OUTER_BOUND('',#159,.T.);
#103=FACE_OUTER_BOUND('',#160,.T.);
#104=FACE_OUTER_BOUND('',#161,.T.);
#105=FACE_OUTER_BOUND('',#162,.T.);
#106=FACE_OUTER_BOUND('',#163,.T.);
#107=FACE_OUTER_BOUND('',#164,.T.);
#108=FACE_OUTER_BOUND('',#165,.T.);
#109=EDGE_LOOP('',(#663,#664,#665,#666));
#110=EDGE_LOOP('',(#667,#668,#669,#670));
#111=EDGE_LOOP('',(#671,#672,#673,#674));
#112=EDGE_LOOP('',(#675,#676,#677,#678));
#113=EDGE_LOOP('',(#679,#680,#681,#682));
#114=EDGE_LOOP('',(#683,#684,#685,#686));
#115=EDGE_LOOP('',(#687,#688,#689,#690,#691,#692,#693,#694,#695));
#116=EDGE_LOOP('',(#696,#697,#698,#699));
#117=EDGE_LOOP('',(#700,#701,#702,#703,#704,#705,#706,#707,#708));
#118=EDGE_LOOP('',(#709,#710,#711,#712));
#119=EDGE_LOOP('',(#713,#714,#715,#716,#717,#718,#719,#720,#721));
#120=EDGE_LOOP('',(#722,#723,#724,#725));
#121=EDGE_LOOP('',(#726,#727,#728,#729));
#122=EDGE_LOOP('',(#730,#731,#732,#733,#734,#735,#736,#737,#738,#739,#740,
#741,#742,#743,#744,#745));
#123=EDGE_LOOP('',(#746,#747,#748,#749));
#124=EDGE_LOOP('',(#750,#751,#752,#753));
#125=EDGE_LOOP('',(#754,#755,#756,#757));
#126=EDGE_LOOP('',(#758,#759,#760,#761));
#127=EDGE_LOOP('',(#762,#763,#764,#765,#766,#767,#768,#769,#770,#771,#772));
#128=EDGE_LOOP('',(#773,#774,#775,#776));
#129=EDGE_LOOP('',(#777,#778,#779,#780));
#130=EDGE_LOOP('',(#781,#782,#783,#784,#785,#786,#787,#788,#789,#790));
#131=EDGE_LOOP('',(#791,#792,#793,#794));
#132=EDGE_LOOP('',(#795,#796,#797,#798,#799,#800,#801,#802));
#133=EDGE_LOOP('',(#803));
#134=EDGE_LOOP('',(#804));
#135=EDGE_LOOP('',(#805,#806,#807,#808,#809,#810,#811,#812));
#136=EDGE_LOOP('',(#813,#814,#815,#816,#817,#818,#819,#820,#821));
#137=EDGE_LOOP('',(#822,#823,#824,#825,#826,#827,#828,#829,#830));
#138=EDGE_LOOP('',(#831,#832,#833,#834,#835,#836,#837,#838,#839));
#139=EDGE_LOOP('',(#840,#841,#842,#843));
#140=EDGE_LOOP('',(#844,#845,#846,#847));
#141=EDGE_LOOP('',(#848,#849,#850,#851));
#142=EDGE_LOOP('',(#852,#853,#854,#855));
#143=EDGE_LOOP('',(#856,#857,#858,#859));
#144=EDGE_LOOP('',(#860,#861,#862,#863));
#145=EDGE_LOOP('',(#864,#865,#866,#867,#868,#869,#870,#871));
#146=EDGE_LOOP('',(#872,#873,#874,#875));
#147=EDGE_LOOP('',(#876,#877,#878,#879));
#148=EDGE_LOOP('',(#880,#881,#882,#883));
#149=EDGE_LOOP('',(#884,#885,#886,#887));
#150=EDGE_LOOP('',(#888,#889,#890,#891,#892));
#151=EDGE_LOOP('',(#893,#894,#895));
#152=EDGE_LOOP('',(#896,#897,#898,#899));
#153=EDGE_LOOP('',(#900));
#154=EDGE_LOOP('',(#901,#902,#903,#904));
#155=EDGE_LOOP('',(#905,#906,#907,#908));
#156=EDGE_LOOP('',(#909,#910,#911,#912));
#157=EDGE_LOOP('',(#913,#914,#915,#916,#917,#918,#919,#920,#921,#922,#923));
#158=EDGE_LOOP('',(#924,#925,#926,#927));
#159=EDGE_LOOP('',(#928,#929,#930,#931,#932));
#160=EDGE_LOOP('',(#933));
#161=EDGE_LOOP('',(#934,#935,#936,#937));
#162=EDGE_LOOP('',(#938,#939,#940,#941));
#163=EDGE_LOOP('',(#942,#943,#944,#945));
#164=EDGE_LOOP('',(#946,#947,#948));
#165=EDGE_LOOP('',(#949,#950,#951,#952,#953,#954,#955,#956));
#166=CIRCLE('',#1045,2.20007582714286);
#167=CIRCLE('',#1046,2.20007582714286);
#168=CIRCLE('',#1049,2.20007582714286);
#169=CIRCLE('',#1050,2.20007582714286);
#170=CIRCLE('',#1053,2.20007582714286);
#171=CIRCLE('',#1054,2.20007582714286);
#172=CIRCLE('',#1057,2.99999993294484);
#173=CIRCLE('',#1058,1.5);
#174=CIRCLE('',#1059,2.09999995306134);
#175=CIRCLE('',#1061,2.99999993294477);
#176=CIRCLE('',#1063,2.99999993294484);
#177=CIRCLE('',#1064,1.5);
#178=CIRCLE('',#1065,2.09999995306134);
#179=CIRCLE('',#1067,2.99999993294477);
#180=CIRCLE('',#1069,2.99999993294484);
#181=CIRCLE('',#1070,1.5);
#182=CIRCLE('',#1071,2.09999995306134);
#183=CIRCLE('',#1073,2.99999993294477);
#184=CIRCLE('',#1075,1.5);
#185=CIRCLE('',#1079,1.5);
#186=CIRCLE('',#1082,1.5);
#187=CIRCLE('',#1083,1.5);
#188=CIRCLE('',#1085,1.5);
#189=CIRCLE('',#1086,25.);
#190=CIRCLE('',#1087,22.0000026375055);
#191=CIRCLE('',#1089,1.5);
#192=CIRCLE('',#1092,1.5);
#193=CIRCLE('',#1095,3.1);
#194=CIRCLE('',#1096,3.1);
#195=CIRCLE('',#1098,25.);
#196=CIRCLE('',#1099,25.);
#197=CIRCLE('',#1100,25.);
#198=CIRCLE('',#1102,2.09999995306134);
#199=CIRCLE('',#1104,2.09999995306134);
#200=CIRCLE('',#1106,2.09999995306134);
#201=CIRCLE('',#1114,22.0000026375055);
#202=CIRCLE('',#1115,22.0000026375055);
#203=CIRCLE('',#1116,22.0000026375055);
#204=CIRCLE('',#1125,3.1);
#205=CIRCLE('',#1133,3.1);
#206=LINE('',#1442,#313);
#207=LINE('',#1446,#314);
#208=LINE('',#1450,#315);
#209=LINE('',#1452,#316);
#210=LINE('',#1453,#317);
#211=LINE('',#1457,#318);
#212=LINE('',#1461,#319);
#213=LINE('',#1465,#320);
#214=LINE('',#1467,#321);
#215=LINE('',#1468,#322);
#216=LINE('',#1472,#323);
#217=LINE('',#1476,#324);
#218=LINE('',#1480,#325);
#219=LINE('',#1482,#326);
#220=LINE('',#1483,#327);
#221=LINE('',#1488,#328);
#222=LINE('',#1492,#329);
#223=LINE('',#1494,#330);
#224=LINE('',#1497,#331);
#225=LINE('',#1501,#332);
#226=LINE('',#1506,#333);
#227=LINE('',#1510,#334);
#228=LINE('',#1512,#335);
#229=LINE('',#1515,#336);
#230=LINE('',#1519,#337);
#231=LINE('',#1524,#338);
#232=LINE('',#1528,#339);
#233=LINE('',#1530,#340);
#234=LINE('',#1533,#341);
#235=LINE('',#1537,#342);
#236=LINE('',#1542,#343);
#237=LINE('',#1543,#344);
#238=LINE('',#1546,#345);
#239=LINE('',#1547,#346);
#240=LINE('',#1549,#347);
#241=LINE('',#1550,#348);
#242=LINE('',#1552,#349);
#243=LINE('',#1554,#350);
#244=LINE('',#1556,#351);
#245=LINE('',#1558,#352);
#246=LINE('',#1559,#353);
#247=LINE('',#1562,#354);
#248=LINE('',#1564,#355);
#249=LINE('',#1565,#356);
#250=LINE('',#1568,#357);
#251=LINE('',#1571,#358);
#252=LINE('',#1573,#359);
#253=LINE('',#1574,#360);
#254=LINE('',#1580,#361);
#255=LINE('',#1585,#362);
#256=LINE('',#1589,#363);
#257=LINE('',#1591,#364);
#258=LINE('',#1593,#365);
#259=LINE('',#1595,#366);
#260=LINE('',#1597,#367);
#261=LINE('',#1601,#368);
#262=LINE('',#1604,#369);
#263=LINE('',#1605,#370);
#264=LINE('',#1606,#371);
#265=LINE('',#1610,#372);
#266=LINE('',#1613,#373);
#267=LINE('',#1614,#374);
#268=LINE('',#1618,#375);
#269=LINE('',#1620,#376);
#270=LINE('',#1622,#377);
#271=LINE('',#1624,#378);
#272=LINE('',#1626,#379);
#273=LINE('',#1627,#380);
#274=LINE('',#1628,#381);
#275=LINE('',#1636,#382);
#276=LINE('',#1640,#383);
#277=LINE('',#1643,#384);
#278=LINE('',#1647,#385);
#279=LINE('',#1650,#386);
#280=LINE('',#1653,#387);
#281=LINE('',#1656,#388);
#282=LINE('',#1659,#389);
#283=LINE('',#1662,#390);
#284=LINE('',#1664,#391);
#285=LINE('',#1665,#392);
#286=LINE('',#1669,#393);
#287=LINE('',#1670,#394);
#288=LINE('',#1676,#395);
#289=LINE('',#1679,#396);
#290=LINE('',#1683,#397);
#291=LINE('',#1686,#398);
#292=LINE('',#1687,#399);
#293=LINE('',#1689,#400);
#294=LINE('',#1690,#401);
#295=LINE('',#1695,#402);
#296=LINE('',#1696,#403);
#297=LINE('',#1699,#404);
#298=LINE('',#1700,#405);
#299=LINE('',#1702,#406);
#300=LINE('',#1707,#407);
#301=LINE('',#1709,#408);
#302=LINE('',#1713,#409);
#303=LINE('',#1714,#410);
#304=LINE('',#1716,#411);
#305=LINE('',#1717,#412);
#306=LINE('',#1720,#413);
#307=LINE('',#1721,#414);
#308=LINE('',#1723,#415);
#309=LINE('',#1729,#416);
#310=LINE('',#1730,#417);
#311=LINE('',#1732,#418);
#312=LINE('',#1735,#419);
#313=VECTOR('',#1143,10.);
#314=VECTOR('',#1146,10.);
#315=VECTOR('',#1151,10.);
#316=VECTOR('',#1152,10.);
#317=VECTOR('',#1153,10.);
#318=VECTOR('',#1156,10.);
#319=VECTOR('',#1159,10.);
#320=VECTOR('',#1164,10.);
#321=VECTOR('',#1165,10.);
#322=VECTOR('',#1166,10.);
#323=VECTOR('',#1169,10.);
#324=VECTOR('',#1172,10.);
#325=VECTOR('',#1177,10.);
#326=VECTOR('',#1178,10.);
#327=VECTOR('',#1179,10.);
#328=VECTOR('',#1184,10.);
#329=VECTOR('',#1187,10.);
#330=VECTOR('',#1188,10.);
#331=VECTOR('',#1191,10.);
#332=VECTOR('',#1196,10.);
#333=VECTOR('',#1201,10.);
#334=VECTOR('',#1204,10.);
#335=VECTOR('',#1205,10.);
#336=VECTOR('',#1208,10.);
#337=VECTOR('',#1213,10.);
#338=VECTOR('',#1218,10.);
#339=VECTOR('',#1221,10.);
#340=VECTOR('',#1222,10.);
#341=VECTOR('',#1225,10.);
#342=VECTOR('',#1230,10.);
#343=VECTOR('',#1235,10.);
#344=VECTOR('',#1236,10.);
#345=VECTOR('',#1239,10.);
#346=VECTOR('',#1240,10.);
#347=VECTOR('',#1241,10.);
#348=VECTOR('',#1242,10.);
#349=VECTOR('',#1243,10.);
#350=VECTOR('',#1244,10.);
#351=VECTOR('',#1245,10.);
#352=VECTOR('',#1246,10.);
#353=VECTOR('',#1247,10.);
#354=VECTOR('',#1250,10.);
#355=VECTOR('',#1251,10.);
#356=VECTOR('',#1252,10.);
#357=VECTOR('',#1257,10.);
#358=VECTOR('',#1260,10.);
#359=VECTOR('',#1261,10.);
#360=VECTOR('',#1262,10.);
#361=VECTOR('',#1269,10.);
#362=VECTOR('',#1274,10.);
#363=VECTOR('',#1277,10.);
#364=VECTOR('',#1278,10.);
#365=VECTOR('',#1279,10.);
#366=VECTOR('',#1280,10.);
#367=VECTOR('',#1281,10.);
#368=VECTOR('',#1288,10.);
#369=VECTOR('',#1291,10.);
#370=VECTOR('',#1292,10.);
#371=VECTOR('',#1293,10.);
#372=VECTOR('',#1298,10.);
#373=VECTOR('',#1301,10.);
#374=VECTOR('',#1302,10.);
#375=VECTOR('',#1305,10.);
#376=VECTOR('',#1306,10.);
#377=VECTOR('',#1307,10.);
#378=VECTOR('',#1308,10.);
#379=VECTOR('',#1309,10.);
#380=VECTOR('',#1310,10.);
#381=VECTOR('',#1311,10.);
#382=VECTOR('',#1318,10.);
#383=VECTOR('',#1321,10.);
#384=VECTOR('',#1324,10.);
#385=VECTOR('',#1329,10.);
#386=VECTOR('',#1332,10.);
#387=VECTOR('',#1335,10.);
#388=VECTOR('',#1338,10.);
#389=VECTOR('',#1341,10.);
#390=VECTOR('',#1344,10.);
#391=VECTOR('',#1347,10.);
#392=VECTOR('',#1348,10.);
#393=VECTOR('',#1355,10.);
#394=VECTOR('',#1356,10.);
#395=VECTOR('',#1363,10.);
#396=VECTOR('',#1366,10.);
#397=VECTOR('',#1369,10.);
#398=VECTOR('',#1374,10.);
#399=VECTOR('',#1375,10.);
#400=VECTOR('',#1378,10.);
#401=VECTOR('',#1379,10.);
#402=VECTOR('',#1386,10.);
#403=VECTOR('',#1387,10.);
#404=VECTOR('',#1390,10.);
#405=VECTOR('',#1391,10.);
#406=VECTOR('',#1394,10.);
#407=VECTOR('',#1401,10.);
#408=VECTOR('',#1404,3.1);
#409=VECTOR('',#1409,10.);
#410=VECTOR('',#1410,10.);
#411=VECTOR('',#1411,10.);
#412=VECTOR('',#1412,10.);
#413=VECTOR('',#1415,10.);
#414=VECTOR('',#1416,10.);
#415=VECTOR('',#1419,10.);
#416=VECTOR('',#1426,10.);
#417=VECTOR('',#1427,10.);
#418=VECTOR('',#1430,3.1);
#419=VECTOR('',#1435,10.);
#420=VERTEX_POINT('',#1440);
#421=VERTEX_POINT('',#1441);
#422=VERTEX_POINT('',#1443);
#423=VERTEX_POINT('',#1445);
#424=VERTEX_POINT('',#1449);
#425=VERTEX_POINT('',#1451);
#426=VERTEX_POINT('',#1455);
#427=VERTEX_POINT('',#1456);
#428=VERTEX_POINT('',#1458);
#429=VERTEX_POINT('',#1460);
#430=VERTEX_POINT('',#1464);
#431=VERTEX_POINT('',#1466);
#432=VERTEX_POINT('',#1470);
#433=VERTEX_POINT('',#1471);
#434=VERTEX_POINT('',#1473);
#435=VERTEX_POINT('',#1475);
#436=VERTEX_POINT('',#1479);
#437=VERTEX_POINT('',#1481);
#438=VERTEX_POINT('',#1485);
#439=VERTEX_POINT('',#1487);
#440=VERTEX_POINT('',#1489);
#441=VERTEX_POINT('',#1491);
#442=VERTEX_POINT('',#1493);
#443=VERTEX_POINT('',#1495);
#444=VERTEX_POINT('',#1499);
#445=VERTEX_POINT('',#1503);
#446=VERTEX_POINT('',#1505);
#447=VERTEX_POINT('',#1507);
#448=VERTEX_POINT('',#1509);
#449=VERTEX_POINT('',#1511);
#450=VERTEX_POINT('',#1513);
#451=VERTEX_POINT('',#1517);
#452=VERTEX_POINT('',#1521);
#453=VERTEX_POINT('',#1523);
#454=VERTEX_POINT('',#1525);
#455=VERTEX_POINT('',#1527);
#456=VERTEX_POINT('',#1529);
#457=VERTEX_POINT('',#1531);
#458=VERTEX_POINT('',#1535);
#459=VERTEX_POINT('',#1539);
#460=VERTEX_POINT('',#1540);
#461=VERTEX_POINT('',#1545);
#462=VERTEX_POINT('',#1548);
#463=VERTEX_POINT('',#1551);
#464=VERTEX_POINT('',#1553);
#465=VERTEX_POINT('',#1555);
#466=VERTEX_POINT('',#1557);
#467=VERTEX_POINT('',#1561);
#468=VERTEX_POINT('',#1563);
#469=VERTEX_POINT('',#1570);
#470=VERTEX_POINT('',#1572);
#471=VERTEX_POINT('',#1576);
#472=VERTEX_POINT('',#1578);
#473=VERTEX_POINT('',#1582);
#474=VERTEX_POINT('',#1584);
#475=VERTEX_POINT('',#1586);
#476=VERTEX_POINT('',#1588);
#477=VERTEX_POINT('',#1590);
#478=VERTEX_POINT('',#1592);
#479=VERTEX_POINT('',#1594);
#480=VERTEX_POINT('',#1596);
#481=VERTEX_POINT('',#1603);
#482=VERTEX_POINT('',#1608);
#483=VERTEX_POINT('',#1612);
#484=VERTEX_POINT('',#1616);
#485=VERTEX_POINT('',#1617);
#486=VERTEX_POINT('',#1619);
#487=VERTEX_POINT('',#1621);
#488=VERTEX_POINT('',#1623);
#489=VERTEX_POINT('',#1625);
#490=VERTEX_POINT('',#1629);
#491=VERTEX_POINT('',#1631);
#492=VERTEX_POINT('',#1634);
#493=VERTEX_POINT('',#1635);
#494=VERTEX_POINT('',#1637);
#495=VERTEX_POINT('',#1639);
#496=VERTEX_POINT('',#1641);
#497=VERTEX_POINT('',#1646);
#498=VERTEX_POINT('',#1648);
#499=VERTEX_POINT('',#1652);
#500=VERTEX_POINT('',#1654);
#501=VERTEX_POINT('',#1658);
#502=VERTEX_POINT('',#1660);
#503=VERTEX_POINT('',#1674);
#504=VERTEX_POINT('',#1675);
#505=VERTEX_POINT('',#1678);
#506=VERTEX_POINT('',#1680);
#507=VERTEX_POINT('',#1682);
#508=VERTEX_POINT('',#1694);
#509=VERTEX_POINT('',#1698);
#510=VERTEX_POINT('',#1704);
#511=VERTEX_POINT('',#1712);
#512=VERTEX_POINT('',#1715);
#513=VERTEX_POINT('',#1719);
#514=VERTEX_POINT('',#1725);
#515=VERTEX_POINT('',#1728);
#516=EDGE_CURVE('',#420,#421,#206,.T.);
#517=EDGE_CURVE('',#422,#421,#166,.T.);
#518=EDGE_CURVE('',#422,#423,#207,.T.);
#519=EDGE_CURVE('',#420,#423,#167,.T.);
#520=EDGE_CURVE('',#424,#422,#208,.T.);
#521=EDGE_CURVE('',#425,#424,#209,.T.);
#522=EDGE_CURVE('',#423,#425,#210,.T.);
#523=EDGE_CURVE('',#426,#427,#211,.T.);
#524=EDGE_CURVE('',#428,#427,#168,.T.);
#525=EDGE_CURVE('',#428,#429,#212,.T.);
#526=EDGE_CURVE('',#426,#429,#169,.T.);
#527=EDGE_CURVE('',#430,#428,#213,.T.);
#528=EDGE_CURVE('',#431,#430,#214,.T.);
#529=EDGE_CURVE('',#429,#431,#215,.T.);
#530=EDGE_CURVE('',#432,#433,#216,.T.);
#531=EDGE_CURVE('',#434,#433,#170,.T.);
#532=EDGE_CURVE('',#434,#435,#217,.T.);
#533=EDGE_CURVE('',#432,#435,#171,.T.);
#534=EDGE_CURVE('',#436,#434,#218,.T.);
#535=EDGE_CURVE('',#437,#436,#219,.T.);
#536=EDGE_CURVE('',#435,#437,#220,.T.);
#537=EDGE_CURVE('',#438,#425,#172,.T.);
#538=EDGE_CURVE('',#439,#438,#221,.T.);
#539=EDGE_CURVE('',#440,#439,#173,.F.);
#540=EDGE_CURVE('',#440,#441,#222,.T.);
#541=EDGE_CURVE('',#441,#442,#223,.T.);
#542=EDGE_CURVE('',#442,#443,#174,.T.);
#543=EDGE_CURVE('',#443,#420,#224,.T.);
#544=EDGE_CURVE('',#444,#424,#175,.T.);
#545=EDGE_CURVE('',#438,#444,#225,.T.);
#546=EDGE_CURVE('',#445,#431,#176,.T.);
#547=EDGE_CURVE('',#446,#445,#226,.T.);
#548=EDGE_CURVE('',#447,#446,#177,.F.);
#549=EDGE_CURVE('',#447,#448,#227,.T.);
#550=EDGE_CURVE('',#448,#449,#228,.T.);
#551=EDGE_CURVE('',#449,#450,#178,.T.);
#552=EDGE_CURVE('',#450,#426,#229,.T.);
#553=EDGE_CURVE('',#451,#430,#179,.T.);
#554=EDGE_CURVE('',#445,#451,#230,.T.);
#555=EDGE_CURVE('',#452,#437,#180,.T.);
#556=EDGE_CURVE('',#452,#453,#231,.T.);
#557=EDGE_CURVE('',#454,#453,#181,.F.);
#558=EDGE_CURVE('',#454,#455,#232,.T.);
#559=EDGE_CURVE('',#455,#456,#233,.T.);
#560=EDGE_CURVE('',#456,#457,#182,.T.);
#561=EDGE_CURVE('',#457,#432,#234,.T.);
#562=EDGE_CURVE('',#458,#436,#183,.T.);
#563=EDGE_CURVE('',#458,#452,#235,.T.);
#564=EDGE_CURVE('',#459,#460,#184,.F.);
#565=EDGE_CURVE('',#447,#460,#236,.T.);
#566=EDGE_CURVE('',#446,#459,#237,.T.);
#567=EDGE_CURVE('',#451,#461,#238,.T.);
#568=EDGE_CURVE('',#439,#461,#239,.T.);
#569=EDGE_CURVE('',#444,#462,#240,.T.);
#570=EDGE_CURVE('',#453,#462,#241,.T.);
#571=EDGE_CURVE('',#463,#458,#242,.T.);
#572=EDGE_CURVE('',#464,#463,#243,.T.);
#573=EDGE_CURVE('',#465,#464,#244,.T.);
#574=EDGE_CURVE('',#466,#465,#245,.T.);
#575=EDGE_CURVE('',#459,#466,#246,.T.);
#576=EDGE_CURVE('',#467,#447,#247,.T.);
#577=EDGE_CURVE('',#467,#468,#248,.T.);
#578=EDGE_CURVE('',#468,#448,#249,.T.);
#579=EDGE_CURVE('',#461,#467,#185,.F.);
#580=EDGE_CURVE('',#440,#467,#250,.T.);
#581=EDGE_CURVE('',#469,#440,#251,.T.);
#582=EDGE_CURVE('',#469,#470,#252,.T.);
#583=EDGE_CURVE('',#470,#441,#253,.T.);
#584=EDGE_CURVE('',#471,#464,#186,.F.);
#585=EDGE_CURVE('',#463,#472,#187,.F.);
#586=EDGE_CURVE('',#471,#472,#254,.T.);
#587=EDGE_CURVE('',#473,#471,#188,.F.);
#588=EDGE_CURVE('',#473,#474,#255,.T.);
#589=EDGE_CURVE('',#474,#475,#189,.T.);
#590=EDGE_CURVE('',#476,#475,#256,.F.);
#591=EDGE_CURVE('',#477,#476,#257,.F.);
#592=EDGE_CURVE('',#478,#477,#258,.T.);
#593=EDGE_CURVE('',#478,#479,#259,.T.);
#594=EDGE_CURVE('',#480,#479,#260,.F.);
#595=EDGE_CURVE('',#480,#465,#190,.T.);
#596=EDGE_CURVE('',#462,#469,#191,.F.);
#597=EDGE_CURVE('',#454,#469,#261,.T.);
#598=EDGE_CURVE('',#472,#481,#262,.T.);
#599=EDGE_CURVE('',#481,#455,#263,.T.);
#600=EDGE_CURVE('',#472,#454,#264,.T.);
#601=EDGE_CURVE('',#460,#482,#192,.F.);
#602=EDGE_CURVE('',#482,#473,#265,.T.);
#603=EDGE_CURVE('',#483,#482,#266,.T.);
#604=EDGE_CURVE('',#483,#474,#267,.T.);
#605=EDGE_CURVE('',#484,#485,#268,.F.);
#606=EDGE_CURVE('',#486,#484,#269,.T.);
#607=EDGE_CURVE('',#487,#486,#270,.T.);
#608=EDGE_CURVE('',#487,#488,#271,.F.);
#609=EDGE_CURVE('',#488,#489,#272,.F.);
#610=EDGE_CURVE('',#489,#478,#273,.F.);
#611=EDGE_CURVE('',#485,#477,#274,.T.);
#612=EDGE_CURVE('',#490,#490,#193,.T.);
#613=EDGE_CURVE('',#491,#491,#194,.T.);
#614=EDGE_CURVE('',#492,#493,#275,.T.);
#615=EDGE_CURVE('',#494,#492,#195,.T.);
#616=EDGE_CURVE('',#494,#495,#276,.T.);
#617=EDGE_CURVE('',#496,#495,#196,.T.);
#618=EDGE_CURVE('',#475,#496,#277,.T.);
#619=EDGE_CURVE('',#493,#483,#197,.T.);
#620=EDGE_CURVE('',#433,#497,#278,.T.);
#621=EDGE_CURVE('',#497,#498,#198,.T.);
#622=EDGE_CURVE('',#498,#481,#279,.T.);
#623=EDGE_CURVE('',#421,#499,#280,.T.);
#624=EDGE_CURVE('',#499,#500,#199,.T.);
#625=EDGE_CURVE('',#500,#470,#281,.T.);
#626=EDGE_CURVE('',#427,#501,#282,.T.);
#627=EDGE_CURVE('',#501,#502,#200,.T.);
#628=EDGE_CURVE('',#502,#468,#283,.T.);
#629=EDGE_CURVE('',#442,#500,#284,.T.);
#630=EDGE_CURVE('',#443,#499,#285,.T.);
#631=EDGE_CURVE('',#449,#502,#286,.T.);
#632=EDGE_CURVE('',#450,#501,#287,.T.);
#633=EDGE_CURVE('',#503,#504,#288,.T.);
#634=EDGE_CURVE('',#466,#503,#201,.T.);
#635=EDGE_CURVE('',#505,#480,#289,.T.);
#636=EDGE_CURVE('',#506,#505,#202,.T.);
#637=EDGE_CURVE('',#507,#506,#290,.T.);
#638=EDGE_CURVE('',#504,#507,#203,.T.);
#639=EDGE_CURVE('',#507,#487,#291,.T.);
#640=EDGE_CURVE('',#488,#506,#292,.T.);
#641=EDGE_CURVE('',#456,#498,#293,.T.);
#642=EDGE_CURVE('',#457,#497,#294,.T.);
#643=EDGE_CURVE('',#508,#505,#295,.T.);
#644=EDGE_CURVE('',#489,#508,#296,.T.);
#645=EDGE_CURVE('',#495,#509,#297,.T.);
#646=EDGE_CURVE('',#496,#509,#298,.T.);
#647=EDGE_CURVE('',#479,#508,#299,.T.);
#648=EDGE_CURVE('',#510,#510,#204,.T.);
#649=EDGE_CURVE('',#509,#476,#300,.T.);
#650=EDGE_CURVE('',#510,#490,#301,.T.);
#651=EDGE_CURVE('',#511,#503,#302,.F.);
#652=EDGE_CURVE('',#484,#511,#303,.F.);
#653=EDGE_CURVE('',#485,#512,#304,.T.);
#654=EDGE_CURVE('',#493,#512,#305,.F.);
#655=EDGE_CURVE('',#504,#513,#306,.T.);
#656=EDGE_CURVE('',#513,#511,#307,.T.);
#657=EDGE_CURVE('',#486,#513,#308,.T.);
#658=EDGE_CURVE('',#514,#514,#205,.T.);
#659=EDGE_CURVE('',#512,#515,#309,.T.);
#660=EDGE_CURVE('',#515,#492,#310,.T.);
#661=EDGE_CURVE('',#514,#491,#311,.T.);
#662=EDGE_CURVE('',#494,#515,#312,.T.);
#663=ORIENTED_EDGE('',*,*,#516,.T.);
#664=ORIENTED_EDGE('',*,*,#517,.F.);
#665=ORIENTED_EDGE('',*,*,#518,.T.);
#666=ORIENTED_EDGE('',*,*,#519,.F.);
#667=ORIENTED_EDGE('',*,*,#518,.F.);
#668=ORIENTED_EDGE('',*,*,#520,.F.);
#669=ORIENTED_EDGE('',*,*,#521,.F.);
#670=ORIENTED_EDGE('',*,*,#522,.F.);
#671=ORIENTED_EDGE('',*,*,#523,.T.);
#672=ORIENTED_EDGE('',*,*,#524,.F.);
#673=ORIENTED_EDGE('',*,*,#525,.T.);
#674=ORIENTED_EDGE('',*,*,#526,.F.);
#675=ORIENTED_EDGE('',*,*,#525,.F.);
#676=ORIENTED_EDGE('',*,*,#527,.F.);
#677=ORIENTED_EDGE('',*,*,#528,.F.);
#678=ORIENTED_EDGE('',*,*,#529,.F.);
#679=ORIENTED_EDGE('',*,*,#530,.T.);
#680=ORIENTED_EDGE('',*,*,#531,.F.);
#681=ORIENTED_EDGE('',*,*,#532,.T.);
#682=ORIENTED_EDGE('',*,*,#533,.F.);
#683=ORIENTED_EDGE('',*,*,#532,.F.);
#684=ORIENTED_EDGE('',*,*,#534,.F.);
#685=ORIENTED_EDGE('',*,*,#535,.F.);
#686=ORIENTED_EDGE('',*,*,#536,.F.);
#687=ORIENTED_EDGE('',*,*,#519,.T.);
#688=ORIENTED_EDGE('',*,*,#522,.T.);
#689=ORIENTED_EDGE('',*,*,#537,.F.);
#690=ORIENTED_EDGE('',*,*,#538,.F.);
#691=ORIENTED_EDGE('',*,*,#539,.F.);
#692=ORIENTED_EDGE('',*,*,#540,.T.);
#693=ORIENTED_EDGE('',*,*,#541,.T.);
#694=ORIENTED_EDGE('',*,*,#542,.T.);
#695=ORIENTED_EDGE('',*,*,#543,.T.);
#696=ORIENTED_EDGE('',*,*,#521,.T.);
#697=ORIENTED_EDGE('',*,*,#544,.F.);
#698=ORIENTED_EDGE('',*,*,#545,.F.);
#699=ORIENTED_EDGE('',*,*,#537,.T.);
#700=ORIENTED_EDGE('',*,*,#526,.T.);
#701=ORIENTED_EDGE('',*,*,#529,.T.);
#702=ORIENTED_EDGE('',*,*,#546,.F.);
#703=ORIENTED_EDGE('',*,*,#547,.F.);
#704=ORIENTED_EDGE('',*,*,#548,.F.);
#705=ORIENTED_EDGE('',*,*,#549,.T.);
#706=ORIENTED_EDGE('',*,*,#550,.T.);
#707=ORIENTED_EDGE('',*,*,#551,.T.);
#708=ORIENTED_EDGE('',*,*,#552,.T.);
#709=ORIENTED_EDGE('',*,*,#528,.T.);
#710=ORIENTED_EDGE('',*,*,#553,.F.);
#711=ORIENTED_EDGE('',*,*,#554,.F.);
#712=ORIENTED_EDGE('',*,*,#546,.T.);
#713=ORIENTED_EDGE('',*,*,#533,.T.);
#714=ORIENTED_EDGE('',*,*,#536,.T.);
#715=ORIENTED_EDGE('',*,*,#555,.F.);
#716=ORIENTED_EDGE('',*,*,#556,.T.);
#717=ORIENTED_EDGE('',*,*,#557,.F.);
#718=ORIENTED_EDGE('',*,*,#558,.T.);
#719=ORIENTED_EDGE('',*,*,#559,.T.);
#720=ORIENTED_EDGE('',*,*,#560,.T.);
#721=ORIENTED_EDGE('',*,*,#561,.T.);
#722=ORIENTED_EDGE('',*,*,#535,.T.);
#723=ORIENTED_EDGE('',*,*,#562,.F.);
#724=ORIENTED_EDGE('',*,*,#563,.T.);
#725=ORIENTED_EDGE('',*,*,#555,.T.);
#726=ORIENTED_EDGE('',*,*,#564,.T.);
#727=ORIENTED_EDGE('',*,*,#565,.F.);
#728=ORIENTED_EDGE('',*,*,#548,.T.);
#729=ORIENTED_EDGE('',*,*,#566,.T.);
#730=ORIENTED_EDGE('',*,*,#566,.F.);
#731=ORIENTED_EDGE('',*,*,#547,.T.);
#732=ORIENTED_EDGE('',*,*,#554,.T.);
#733=ORIENTED_EDGE('',*,*,#567,.T.);
#734=ORIENTED_EDGE('',*,*,#568,.F.);
#735=ORIENTED_EDGE('',*,*,#538,.T.);
#736=ORIENTED_EDGE('',*,*,#545,.T.);
#737=ORIENTED_EDGE('',*,*,#569,.T.);
#738=ORIENTED_EDGE('',*,*,#570,.F.);
#739=ORIENTED_EDGE('',*,*,#556,.F.);
#740=ORIENTED_EDGE('',*,*,#563,.F.);
#741=ORIENTED_EDGE('',*,*,#571,.F.);
#742=ORIENTED_EDGE('',*,*,#572,.F.);
#743=ORIENTED_EDGE('',*,*,#573,.F.);
#744=ORIENTED_EDGE('',*,*,#574,.F.);
#745=ORIENTED_EDGE('',*,*,#575,.F.);
#746=ORIENTED_EDGE('',*,*,#549,.F.);
#747=ORIENTED_EDGE('',*,*,#576,.F.);
#748=ORIENTED_EDGE('',*,*,#577,.T.);
#749=ORIENTED_EDGE('',*,*,#578,.T.);
#750=ORIENTED_EDGE('',*,*,#579,.T.);
#751=ORIENTED_EDGE('',*,*,#580,.F.);
#752=ORIENTED_EDGE('',*,*,#539,.T.);
#753=ORIENTED_EDGE('',*,*,#568,.T.);
#754=ORIENTED_EDGE('',*,*,#540,.F.);
#755=ORIENTED_EDGE('',*,*,#581,.F.);
#756=ORIENTED_EDGE('',*,*,#582,.T.);
#757=ORIENTED_EDGE('',*,*,#583,.T.);
#758=ORIENTED_EDGE('',*,*,#584,.T.);
#759=ORIENTED_EDGE('',*,*,#572,.T.);
#760=ORIENTED_EDGE('',*,*,#585,.T.);
#761=ORIENTED_EDGE('',*,*,#586,.F.);
#762=ORIENTED_EDGE('',*,*,#584,.F.);
#763=ORIENTED_EDGE('',*,*,#587,.F.);
#764=ORIENTED_EDGE('',*,*,#588,.T.);
#765=ORIENTED_EDGE('',*,*,#589,.T.);
#766=ORIENTED_EDGE('',*,*,#590,.F.);
#767=ORIENTED_EDGE('',*,*,#591,.F.);
#768=ORIENTED_EDGE('',*,*,#592,.F.);
#769=ORIENTED_EDGE('',*,*,#593,.T.);
#770=ORIENTED_EDGE('',*,*,#594,.F.);
#771=ORIENTED_EDGE('',*,*,#595,.T.);
#772=ORIENTED_EDGE('',*,*,#573,.T.);
#773=ORIENTED_EDGE('',*,*,#596,.T.);
#774=ORIENTED_EDGE('',*,*,#597,.F.);
#775=ORIENTED_EDGE('',*,*,#557,.T.);
#776=ORIENTED_EDGE('',*,*,#570,.T.);
#777=ORIENTED_EDGE('',*,*,#598,.T.);
#778=ORIENTED_EDGE('',*,*,#599,.T.);
#779=ORIENTED_EDGE('',*,*,#558,.F.);
#780=ORIENTED_EDGE('',*,*,#600,.F.);
#781=ORIENTED_EDGE('',*,*,#601,.T.);
#782=ORIENTED_EDGE('',*,*,#602,.T.);
#783=ORIENTED_EDGE('',*,*,#587,.T.);
#784=ORIENTED_EDGE('',*,*,#586,.T.);
#785=ORIENTED_EDGE('',*,*,#600,.T.);
#786=ORIENTED_EDGE('',*,*,#597,.T.);
#787=ORIENTED_EDGE('',*,*,#581,.T.);
#788=ORIENTED_EDGE('',*,*,#580,.T.);
#789=ORIENTED_EDGE('',*,*,#576,.T.);
#790=ORIENTED_EDGE('',*,*,#565,.T.);
#791=ORIENTED_EDGE('',*,*,#602,.F.);
#792=ORIENTED_EDGE('',*,*,#603,.F.);
#793=ORIENTED_EDGE('',*,*,#604,.T.);
#794=ORIENTED_EDGE('',*,*,#588,.F.);
#795=ORIENTED_EDGE('',*,*,#605,.F.);
#796=ORIENTED_EDGE('',*,*,#606,.F.);
#797=ORIENTED_EDGE('',*,*,#607,.F.);
#798=ORIENTED_EDGE('',*,*,#608,.T.);
#799=ORIENTED_EDGE('',*,*,#609,.T.);
#800=ORIENTED_EDGE('',*,*,#610,.T.);
#801=ORIENTED_EDGE('',*,*,#592,.T.);
#802=ORIENTED_EDGE('',*,*,#611,.F.);
#803=ORIENTED_EDGE('',*,*,#612,.F.);
#804=ORIENTED_EDGE('',*,*,#613,.F.);
#805=ORIENTED_EDGE('',*,*,#614,.F.);
#806=ORIENTED_EDGE('',*,*,#615,.F.);
#807=ORIENTED_EDGE('',*,*,#616,.T.);
#808=ORIENTED_EDGE('',*,*,#617,.F.);
#809=ORIENTED_EDGE('',*,*,#618,.F.);
#810=ORIENTED_EDGE('',*,*,#589,.F.);
#811=ORIENTED_EDGE('',*,*,#604,.F.);
#812=ORIENTED_EDGE('',*,*,#619,.F.);
#813=ORIENTED_EDGE('',*,*,#531,.T.);
#814=ORIENTED_EDGE('',*,*,#620,.T.);
#815=ORIENTED_EDGE('',*,*,#621,.T.);
#816=ORIENTED_EDGE('',*,*,#622,.T.);
#817=ORIENTED_EDGE('',*,*,#598,.F.);
#818=ORIENTED_EDGE('',*,*,#585,.F.);
#819=ORIENTED_EDGE('',*,*,#571,.T.);
#820=ORIENTED_EDGE('',*,*,#562,.T.);
#821=ORIENTED_EDGE('',*,*,#534,.T.);
#822=ORIENTED_EDGE('',*,*,#517,.T.);
#823=ORIENTED_EDGE('',*,*,#623,.T.);
#824=ORIENTED_EDGE('',*,*,#624,.T.);
#825=ORIENTED_EDGE('',*,*,#625,.T.);
#826=ORIENTED_EDGE('',*,*,#582,.F.);
#827=ORIENTED_EDGE('',*,*,#596,.F.);
#828=ORIENTED_EDGE('',*,*,#569,.F.);
#829=ORIENTED_EDGE('',*,*,#544,.T.);
#830=ORIENTED_EDGE('',*,*,#520,.T.);
#831=ORIENTED_EDGE('',*,*,#524,.T.);
#832=ORIENTED_EDGE('',*,*,#626,.T.);
#833=ORIENTED_EDGE('',*,*,#627,.T.);
#834=ORIENTED_EDGE('',*,*,#628,.T.);
#835=ORIENTED_EDGE('',*,*,#577,.F.);
#836=ORIENTED_EDGE('',*,*,#579,.F.);
#837=ORIENTED_EDGE('',*,*,#567,.F.);
#838=ORIENTED_EDGE('',*,*,#553,.T.);
#839=ORIENTED_EDGE('',*,*,#527,.T.);
#840=ORIENTED_EDGE('',*,*,#629,.T.);
#841=ORIENTED_EDGE('',*,*,#624,.F.);
#842=ORIENTED_EDGE('',*,*,#630,.F.);
#843=ORIENTED_EDGE('',*,*,#542,.F.);
#844=ORIENTED_EDGE('',*,*,#630,.T.);
#845=ORIENTED_EDGE('',*,*,#623,.F.);
#846=ORIENTED_EDGE('',*,*,#516,.F.);
#847=ORIENTED_EDGE('',*,*,#543,.F.);
#848=ORIENTED_EDGE('',*,*,#625,.F.);
#849=ORIENTED_EDGE('',*,*,#629,.F.);
#850=ORIENTED_EDGE('',*,*,#541,.F.);
#851=ORIENTED_EDGE('',*,*,#583,.F.);
#852=ORIENTED_EDGE('',*,*,#631,.T.);
#853=ORIENTED_EDGE('',*,*,#627,.F.);
#854=ORIENTED_EDGE('',*,*,#632,.F.);
#855=ORIENTED_EDGE('',*,*,#551,.F.);
#856=ORIENTED_EDGE('',*,*,#632,.T.);
#857=ORIENTED_EDGE('',*,*,#626,.F.);
#858=ORIENTED_EDGE('',*,*,#523,.F.);
#859=ORIENTED_EDGE('',*,*,#552,.F.);
#860=ORIENTED_EDGE('',*,*,#628,.F.);
#861=ORIENTED_EDGE('',*,*,#631,.F.);
#862=ORIENTED_EDGE('',*,*,#550,.F.);
#863=ORIENTED_EDGE('',*,*,#578,.F.);
#864=ORIENTED_EDGE('',*,*,#633,.F.);
#865=ORIENTED_EDGE('',*,*,#634,.F.);
#866=ORIENTED_EDGE('',*,*,#574,.T.);
#867=ORIENTED_EDGE('',*,*,#595,.F.);
#868=ORIENTED_EDGE('',*,*,#635,.F.);
#869=ORIENTED_EDGE('',*,*,#636,.F.);
#870=ORIENTED_EDGE('',*,*,#637,.F.);
#871=ORIENTED_EDGE('',*,*,#638,.F.);
#872=ORIENTED_EDGE('',*,*,#639,.F.);
#873=ORIENTED_EDGE('',*,*,#637,.T.);
#874=ORIENTED_EDGE('',*,*,#640,.F.);
#875=ORIENTED_EDGE('',*,*,#608,.F.);
#876=ORIENTED_EDGE('',*,*,#641,.T.);
#877=ORIENTED_EDGE('',*,*,#621,.F.);
#878=ORIENTED_EDGE('',*,*,#642,.F.);
#879=ORIENTED_EDGE('',*,*,#560,.F.);
#880=ORIENTED_EDGE('',*,*,#642,.T.);
#881=ORIENTED_EDGE('',*,*,#620,.F.);
#882=ORIENTED_EDGE('',*,*,#530,.F.);
#883=ORIENTED_EDGE('',*,*,#561,.F.);
#884=ORIENTED_EDGE('',*,*,#622,.F.);
#885=ORIENTED_EDGE('',*,*,#641,.F.);
#886=ORIENTED_EDGE('',*,*,#559,.F.);
#887=ORIENTED_EDGE('',*,*,#599,.F.);
#888=ORIENTED_EDGE('',*,*,#636,.T.);
#889=ORIENTED_EDGE('',*,*,#643,.F.);
#890=ORIENTED_EDGE('',*,*,#644,.F.);
#891=ORIENTED_EDGE('',*,*,#609,.F.);
#892=ORIENTED_EDGE('',*,*,#640,.T.);
#893=ORIENTED_EDGE('',*,*,#617,.T.);
#894=ORIENTED_EDGE('',*,*,#645,.T.);
#895=ORIENTED_EDGE('',*,*,#646,.F.);
#896=ORIENTED_EDGE('',*,*,#635,.T.);
#897=ORIENTED_EDGE('',*,*,#594,.T.);
#898=ORIENTED_EDGE('',*,*,#647,.T.);
#899=ORIENTED_EDGE('',*,*,#643,.T.);
#900=ORIENTED_EDGE('',*,*,#648,.T.);
#901=ORIENTED_EDGE('',*,*,#618,.T.);
#902=ORIENTED_EDGE('',*,*,#646,.T.);
#903=ORIENTED_EDGE('',*,*,#649,.T.);
#904=ORIENTED_EDGE('',*,*,#590,.T.);
#905=ORIENTED_EDGE('',*,*,#648,.F.);
#906=ORIENTED_EDGE('',*,*,#650,.T.);
#907=ORIENTED_EDGE('',*,*,#612,.T.);
#908=ORIENTED_EDGE('',*,*,#650,.F.);
#909=ORIENTED_EDGE('',*,*,#610,.F.);
#910=ORIENTED_EDGE('',*,*,#644,.T.);
#911=ORIENTED_EDGE('',*,*,#647,.F.);
#912=ORIENTED_EDGE('',*,*,#593,.F.);
#913=ORIENTED_EDGE('',*,*,#564,.F.);
#914=ORIENTED_EDGE('',*,*,#575,.T.);
#915=ORIENTED_EDGE('',*,*,#634,.T.);
#916=ORIENTED_EDGE('',*,*,#651,.F.);
#917=ORIENTED_EDGE('',*,*,#652,.F.);
#918=ORIENTED_EDGE('',*,*,#605,.T.);
#919=ORIENTED_EDGE('',*,*,#653,.T.);
#920=ORIENTED_EDGE('',*,*,#654,.F.);
#921=ORIENTED_EDGE('',*,*,#619,.T.);
#922=ORIENTED_EDGE('',*,*,#603,.T.);
#923=ORIENTED_EDGE('',*,*,#601,.F.);
#924=ORIENTED_EDGE('',*,*,#633,.T.);
#925=ORIENTED_EDGE('',*,*,#655,.T.);
#926=ORIENTED_EDGE('',*,*,#656,.T.);
#927=ORIENTED_EDGE('',*,*,#651,.T.);
#928=ORIENTED_EDGE('',*,*,#638,.T.);
#929=ORIENTED_EDGE('',*,*,#639,.T.);
#930=ORIENTED_EDGE('',*,*,#607,.T.);
#931=ORIENTED_EDGE('',*,*,#657,.T.);
#932=ORIENTED_EDGE('',*,*,#655,.F.);
#933=ORIENTED_EDGE('',*,*,#658,.T.);
#934=ORIENTED_EDGE('',*,*,#614,.T.);
#935=ORIENTED_EDGE('',*,*,#654,.T.);
#936=ORIENTED_EDGE('',*,*,#659,.T.);
#937=ORIENTED_EDGE('',*,*,#660,.T.);
#938=ORIENTED_EDGE('',*,*,#658,.F.);
#939=ORIENTED_EDGE('',*,*,#661,.T.);
#940=ORIENTED_EDGE('',*,*,#613,.T.);
#941=ORIENTED_EDGE('',*,*,#661,.F.);
#942=ORIENTED_EDGE('',*,*,#606,.T.);
#943=ORIENTED_EDGE('',*,*,#652,.T.);
#944=ORIENTED_EDGE('',*,*,#656,.F.);
#945=ORIENTED_EDGE('',*,*,#657,.F.);
#946=ORIENTED_EDGE('',*,*,#615,.T.);
#947=ORIENTED_EDGE('',*,*,#660,.F.);
#948=ORIENTED_EDGE('',*,*,#662,.F.);
#949=ORIENTED_EDGE('',*,*,#653,.F.);
#950=ORIENTED_EDGE('',*,*,#611,.T.);
#951=ORIENTED_EDGE('',*,*,#591,.T.);
#952=ORIENTED_EDGE('',*,*,#649,.F.);
#953=ORIENTED_EDGE('',*,*,#645,.F.);
#954=ORIENTED_EDGE('',*,*,#616,.F.);
#955=ORIENTED_EDGE('',*,*,#662,.T.);
#956=ORIENTED_EDGE('',*,*,#659,.F.);
#957=CYLINDRICAL_SURFACE('',#1044,2.20007582714286);
#958=CYLINDRICAL_SURFACE('',#1048,2.20007582714286);
#959=CYLINDRICAL_SURFACE('',#1052,2.20007582714286);
#960=CYLINDRICAL_SURFACE('',#1060,2.99999993294477);
#961=CYLINDRICAL_SURFACE('',#1066,2.99999993294477);
#962=CYLINDRICAL_SURFACE('',#1072,2.99999993294477);
#963=CYLINDRICAL_SURFACE('',#1074,1.5);
#964=CYLINDRICAL_SURFACE('',#1078,1.5);
#965=CYLINDRICAL_SURFACE('',#1081,1.5);
#966=CYLINDRICAL_SURFACE('',#1088,1.5);
#967=CYLINDRICAL_SURFACE('',#1091,1.5);
#968=CYLINDRICAL_SURFACE('',#1097,25.);
#969=CYLINDRICAL_SURFACE('',#1107,2.09999995306134);
#970=CYLINDRICAL_SURFACE('',#1110,2.09999995306134);
#971=CYLINDRICAL_SURFACE('',#1113,22.0000026375055);
#972=CYLINDRICAL_SURFACE('',#1118,2.09999995306134);
#973=CYLINDRICAL_SURFACE('',#1127,3.1);
#974=CYLINDRICAL_SURFACE('',#1135,3.1);
#975=ADVANCED_FACE('',(#54),#957,.T.);
#976=ADVANCED_FACE('',(#55),#17,.T.);
#977=ADVANCED_FACE('',(#56),#958,.T.);
#978=ADVANCED_FACE('',(#57),#18,.T.);
#979=ADVANCED_FACE('',(#58),#959,.T.);
#980=ADVANCED_FACE('',(#59),#19,.T.);
#981=ADVANCED_FACE('',(#60),#20,.F.);
#982=ADVANCED_FACE('',(#61),#960,.T.);
#983=ADVANCED_FACE('',(#62),#21,.F.);
#984=ADVANCED_FACE('',(#63),#961,.T.);
#985=ADVANCED_FACE('',(#64),#22,.F.);
#986=ADVANCED_FACE('',(#65),#962,.T.);
#987=ADVANCED_FACE('',(#66),#963,.T.);
#988=ADVANCED_FACE('',(#67),#23,.T.);
#989=ADVANCED_FACE('',(#68),#24,.F.);
#990=ADVANCED_FACE('',(#69),#964,.T.);
#991=ADVANCED_FACE('',(#70),#25,.F.);
#992=ADVANCED_FACE('',(#71),#965,.T.);
#993=ADVANCED_FACE('',(#72),#26,.T.);
#994=ADVANCED_FACE('',(#73),#966,.T.);
#995=ADVANCED_FACE('',(#74),#27,.F.);
#996=ADVANCED_FACE('',(#75),#967,.T.);
#997=ADVANCED_FACE('',(#76),#28,.T.);
#998=ADVANCED_FACE('',(#77,#15,#16),#29,.F.);
#999=ADVANCED_FACE('',(#78),#968,.T.);
#1000=ADVANCED_FACE('',(#79),#30,.T.);
#1001=ADVANCED_FACE('',(#80),#31,.T.);
#1002=ADVANCED_FACE('',(#81),#32,.T.);
#1003=ADVANCED_FACE('',(#82),#969,.F.);
#1004=ADVANCED_FACE('',(#83),#33,.T.);
#1005=ADVANCED_FACE('',(#84),#34,.T.);
#1006=ADVANCED_FACE('',(#85),#970,.F.);
#1007=ADVANCED_FACE('',(#86),#35,.T.);
#1008=ADVANCED_FACE('',(#87),#36,.T.);
#1009=ADVANCED_FACE('',(#88),#971,.F.);
#1010=ADVANCED_FACE('',(#89),#37,.T.);
#1011=ADVANCED_FACE('',(#90),#972,.F.);
#1012=ADVANCED_FACE('',(#91),#38,.T.);
#1013=ADVANCED_FACE('',(#92),#39,.T.);
#1014=ADVANCED_FACE('',(#93),#40,.T.);
#1015=ADVANCED_FACE('',(#94),#41,.T.);
#1016=ADVANCED_FACE('',(#95),#42,.T.);
#1017=ADVANCED_FACE('',(#96),#43,.F.);
#1018=ADVANCED_FACE('',(#97),#44,.T.);
#1019=ADVANCED_FACE('',(#98),#973,.F.);
#1020=ADVANCED_FACE('',(#99),#45,.T.);
#1021=ADVANCED_FACE('',(#100),#46,.T.);
#1022=ADVANCED_FACE('',(#101),#47,.T.);
#1023=ADVANCED_FACE('',(#102),#48,.T.);
#1024=ADVANCED_FACE('',(#103),#49,.F.);
#1025=ADVANCED_FACE('',(#104),#50,.T.);
#1026=ADVANCED_FACE('',(#105),#974,.F.);
#1027=ADVANCED_FACE('',(#106),#51,.T.);
#1028=ADVANCED_FACE('',(#107),#52,.T.);
#1029=ADVANCED_FACE('',(#108),#53,.T.);
#1030=CLOSED_SHELL('',(#975,#976,#977,#978,#979,#980,#981,#982,#983,#984,
#985,#986,#987,#988,#989,#990,#991,#992,#993,#994,#995,#996,#997,#998,#999,
#1000,#1001,#1002,#1003,#1004,#1005,#1006,#1007,#1008,#1009,#1010,#1011,
#1012,#1013,#1014,#1015,#1016,#1017,#1018,#1019,#1020,#1021,#1022,#1023,
#1024,#1025,#1026,#1027,#1028,#1029));
#1031=DERIVED_UNIT_ELEMENT(#1033,1.);
#1032=DERIVED_UNIT_ELEMENT(#1742,-3.);
#1033=(
MASS_UNIT()
NAMED_UNIT(*)
SI_UNIT(.KILO.,.GRAM.)
);
#1034=DERIVED_UNIT((#1031,#1032));
#1035=MEASURE_REPRESENTATION_ITEM('density measure',
POSITIVE_RATIO_MEASURE(7850.),#1034);
#1036=PROPERTY_DEFINITION_REPRESENTATION(#1041,#1038);
#1037=PROPERTY_DEFINITION_REPRESENTATION(#1042,#1039);
#1038=REPRESENTATION('material name',(#1040),#1739);
#1039=REPRESENTATION('density',(#1035),#1739);
#1040=DESCRIPTIVE_REPRESENTATION_ITEM('Stahl','Stahl');
#1041=PROPERTY_DEFINITION('material property','material name',#1749);
#1042=PROPERTY_DEFINITION('material property','density of part',#1749);
#1043=AXIS2_PLACEMENT_3D('',#1438,#1139,#1140);
#1044=AXIS2_PLACEMENT_3D('',#1439,#1141,#1142);
#1045=AXIS2_PLACEMENT_3D('',#1444,#1144,#1145);
#1046=AXIS2_PLACEMENT_3D('',#1447,#1147,#1148);
#1047=AXIS2_PLACEMENT_3D('',#1448,#1149,#1150);
#1048=AXIS2_PLACEMENT_3D('',#1454,#1154,#1155);
#1049=AXIS2_PLACEMENT_3D('',#1459,#1157,#1158);
#1050=AXIS2_PLACEMENT_3D('',#1462,#1160,#1161);
#1051=AXIS2_PLACEMENT_3D('',#1463,#1162,#1163);
#1052=AXIS2_PLACEMENT_3D('',#1469,#1167,#1168);
#1053=AXIS2_PLACEMENT_3D('',#1474,#1170,#1171);
#1054=AXIS2_PLACEMENT_3D('',#1477,#1173,#1174);
#1055=AXIS2_PLACEMENT_3D('',#1478,#1175,#1176);
#1056=AXIS2_PLACEMENT_3D('',#1484,#1180,#1181);
#1057=AXIS2_PLACEMENT_3D('',#1486,#1182,#1183);
#1058=AXIS2_PLACEMENT_3D('',#1490,#1185,#1186);
#1059=AXIS2_PLACEMENT_3D('',#1496,#1189,#1190);
#1060=AXIS2_PLACEMENT_3D('',#1498,#1192,#1193);
#1061=AXIS2_PLACEMENT_3D('',#1500,#1194,#1195);
#1062=AXIS2_PLACEMENT_3D('',#1502,#1197,#1198);
#1063=AXIS2_PLACEMENT_3D('',#1504,#1199,#1200);
#1064=AXIS2_PLACEMENT_3D('',#1508,#1202,#1203);
#1065=AXIS2_PLACEMENT_3D('',#1514,#1206,#1207);
#1066=AXIS2_PLACEMENT_3D('',#1516,#1209,#1210);
#1067=AXIS2_PLACEMENT_3D('',#1518,#1211,#1212);
#1068=AXIS2_PLACEMENT_3D('',#1520,#1214,#1215);
#1069=AXIS2_PLACEMENT_3D('',#1522,#1216,#1217);
#1070=AXIS2_PLACEMENT_3D('',#1526,#1219,#1220);
#1071=AXIS2_PLACEMENT_3D('',#1532,#1223,#1224);
#1072=AXIS2_PLACEMENT_3D('',#1534,#1226,#1227);
#1073=AXIS2_PLACEMENT_3D('',#1536,#1228,#1229);
#1074=AXIS2_PLACEMENT_3D('',#1538,#1231,#1232);
#1075=AXIS2_PLACEMENT_3D('',#1541,#1233,#1234);
#1076=AXIS2_PLACEMENT_3D('',#1544,#1237,#1238);
#1077=AXIS2_PLACEMENT_3D('',#1560,#1248,#1249);
#1078=AXIS2_PLACEMENT_3D('',#1566,#1253,#1254);
#1079=AXIS2_PLACEMENT_3D('',#1567,#1255,#1256);
#1080=AXIS2_PLACEMENT_3D('',#1569,#1258,#1259);
#1081=AXIS2_PLACEMENT_3D('',#1575,#1263,#1264);
#1082=AXIS2_PLACEMENT_3D('',#1577,#1265,#1266);
#1083=AXIS2_PLACEMENT_3D('',#1579,#1267,#1268);
#1084=AXIS2_PLACEMENT_3D('',#1581,#1270,#1271);
#1085=AXIS2_PLACEMENT_3D('',#1583,#1272,#1273);
#1086=AXIS2_PLACEMENT_3D('',#1587,#1275,#1276);
#1087=AXIS2_PLACEMENT_3D('',#1598,#1282,#1283);
#1088=AXIS2_PLACEMENT_3D('',#1599,#1284,#1285);
#1089=AXIS2_PLACEMENT_3D('',#1600,#1286,#1287);
#1090=AXIS2_PLACEMENT_3D('',#1602,#1289,#1290);
#1091=AXIS2_PLACEMENT_3D('',#1607,#1294,#1295);
#1092=AXIS2_PLACEMENT_3D('',#1609,#1296,#1297);
#1093=AXIS2_PLACEMENT_3D('',#1611,#1299,#1300);
#1094=AXIS2_PLACEMENT_3D('',#1615,#1303,#1304);
#1095=AXIS2_PLACEMENT_3D('',#1630,#1312,#1313);
#1096=AXIS2_PLACEMENT_3D('',#1632,#1314,#1315);
#1097=AXIS2_PLACEMENT_3D('',#1633,#1316,#1317);
#1098=AXIS2_PLACEMENT_3D('',#1638,#1319,#1320);
#1099=AXIS2_PLACEMENT_3D('',#1642,#1322,#1323);
#1100=AXIS2_PLACEMENT_3D('',#1644,#1325,#1326);
#1101=AXIS2_PLACEMENT_3D('',#1645,#1327,#1328);
#1102=AXIS2_PLACEMENT_3D('',#1649,#1330,#1331);
#1103=AXIS2_PLACEMENT_3D('',#1651,#1333,#1334);
#1104=AXIS2_PLACEMENT_3D('',#1655,#1336,#1337);
#1105=AXIS2_PLACEMENT_3D('',#1657,#1339,#1340);
#1106=AXIS2_PLACEMENT_3D('',#1661,#1342,#1343);
#1107=AXIS2_PLACEMENT_3D('',#1663,#1345,#1346);
#1108=AXIS2_PLACEMENT_3D('',#1666,#1349,#1350);
#1109=AXIS2_PLACEMENT_3D('',#1667,#1351,#1352);
#1110=AXIS2_PLACEMENT_3D('',#1668,#1353,#1354);
#1111=AXIS2_PLACEMENT_3D('',#1671,#1357,#1358);
#1112=AXIS2_PLACEMENT_3D('',#1672,#1359,#1360);
#1113=AXIS2_PLACEMENT_3D('',#1673,#1361,#1362);
#1114=AXIS2_PLACEMENT_3D('',#1677,#1364,#1365);
#1115=AXIS2_PLACEMENT_3D('',#1681,#1367,#1368);
#1116=AXIS2_PLACEMENT_3D('',#1684,#1370,#1371);
#1117=AXIS2_PLACEMENT_3D('',#1685,#1372,#1373);
#1118=AXIS2_PLACEMENT_3D('',#1688,#1376,#1377);
#1119=AXIS2_PLACEMENT_3D('',#1691,#1380,#1381);
#1120=AXIS2_PLACEMENT_3D('',#1692,#1382,#1383);
#1121=AXIS2_PLACEMENT_3D('',#1693,#1384,#1385);
#1122=AXIS2_PLACEMENT_3D('',#1697,#1388,#1389);
#1123=AXIS2_PLACEMENT_3D('',#1701,#1392,#1393);
#1124=AXIS2_PLACEMENT_3D('',#1703,#1395,#1396);
#1125=AXIS2_PLACEMENT_3D('',#1705,#1397,#1398);
#1126=AXIS2_PLACEMENT_3D('',#1706,#1399,#1400);
#1127=AXIS2_PLACEMENT_3D('',#1708,#1402,#1403);
#1128=AXIS2_PLACEMENT_3D('',#1710,#1405,#1406);
#1129=AXIS2_PLACEMENT_3D('',#1711,#1407,#1408);
#1130=AXIS2_PLACEMENT_3D('',#1718,#1413,#1414);
#1131=AXIS2_PLACEMENT_3D('',#1722,#1417,#1418);
#1132=AXIS2_PLACEMENT_3D('',#1724,#1420,#1421);
#1133=AXIS2_PLACEMENT_3D('',#1726,#1422,#1423);
#1134=AXIS2_PLACEMENT_3D('',#1727,#1424,#1425);
#1135=AXIS2_PLACEMENT_3D('',#1731,#1428,#1429);
#1136=AXIS2_PLACEMENT_3D('',#1733,#1431,#1432);
#1137=AXIS2_PLACEMENT_3D('',#1734,#1433,#1434);
#1138=AXIS2_PLACEMENT_3D('',#1736,#1436,#1437);
#1139=DIRECTION('axis',(0.,0.,1.));
#1140=DIRECTION('refdir',(1.,0.,0.));
#1141=DIRECTION('center_axis',(-1.,0.,0.));
#1142=DIRECTION('ref_axis',(0.,0.348174680555344,0.937429672999625));
#1143=DIRECTION('',(1.,0.,0.));
#1144=DIRECTION('center_axis',(1.,0.,0.));
#1145=DIRECTION('ref_axis',(0.,0.348174680555344,0.937429672999625));
#1146=DIRECTION('',(-1.,0.,0.));
#1147=DIRECTION('center_axis',(-1.,0.,0.));
#1148=DIRECTION('ref_axis',(0.,0.348174680555344,0.937429672999625));
#1149=DIRECTION('center_axis',(0.,-0.335850899482506,0.941915162483751));
#1150=DIRECTION('ref_axis',(0.,-0.941915162483751,-0.335850899482506));
#1151=DIRECTION('',(0.,-0.941915162483751,-0.335850899482506));
#1152=DIRECTION('',(1.,0.,0.));
#1153=DIRECTION('',(0.,0.941915162483751,0.335850899482506));
#1154=DIRECTION('center_axis',(-1.,0.,0.));
#1155=DIRECTION('ref_axis',(0.,0.348174680555344,0.937429672999625));
#1156=DIRECTION('',(1.,0.,0.));
#1157=DIRECTION('center_axis',(1.,0.,0.));
#1158=DIRECTION('ref_axis',(0.,0.348174680555344,0.937429672999625));
#1159=DIRECTION('',(-1.,0.,0.));
#1160=DIRECTION('center_axis',(-1.,0.,0.));
#1161=DIRECTION('ref_axis',(0.,0.348174680555344,0.937429672999625));
#1162=DIRECTION('center_axis',(0.,-0.335850899482506,0.941915162483751));
#1163=DIRECTION('ref_axis',(0.,-0.941915162483751,-0.335850899482506));
#1164=DIRECTION('',(0.,-0.941915162483751,-0.335850899482506));
#1165=DIRECTION('',(1.,0.,0.));
#1166=DIRECTION('',(0.,0.941915162483751,0.335850899482506));
#1167=DIRECTION('center_axis',(-1.,0.,0.));
#1168=DIRECTION('ref_axis',(0.,0.348174680555344,0.937429672999625));
#1169=DIRECTION('',(1.,0.,0.));
#1170=DIRECTION('center_axis',(1.,0.,0.));
#1171=DIRECTION('ref_axis',(0.,0.348174680555344,0.937429672999625));
#1172=DIRECTION('',(-1.,0.,0.));
#1173=DIRECTION('center_axis',(-1.,0.,0.));
#1174=DIRECTION('ref_axis',(0.,0.348174680555344,0.937429672999625));
#1175=DIRECTION('center_axis',(0.,-0.335850899482506,0.941915162483751));
#1176=DIRECTION('ref_axis',(0.,-0.941915162483751,-0.335850899482506));
#1177=DIRECTION('',(0.,-0.941915162483751,-0.335850899482506));
#1178=DIRECTION('',(1.,0.,0.));
#1179=DIRECTION('',(0.,0.941915162483751,0.335850899482506));
#1180=DIRECTION('center_axis',(1.,0.,0.));
#1181=DIRECTION('ref_axis',(0.,1.,0.));
#1182=DIRECTION('center_axis',(1.,0.,0.));
#1183=DIRECTION('ref_axis',(0.,0.909059556321671,0.416666201005369));
#1184=DIRECTION('',(0.,-4.28408381256052E-8,-0.999999999999999));
#1185=DIRECTION('center_axis',(1.,0.,0.));
#1186=DIRECTION('ref_axis',(0.,0.707106796333066,0.707106766040029));
#1187=DIRECTION('',(0.,1.,0.));
#1188=DIRECTION('',(0.,0.66062879641887,-0.750712723578171));
#1189=DIRECTION('center_axis',(1.,0.,0.));
#1190=DIRECTION('ref_axis',(0.,1.,0.));
#1191=DIRECTION('',(0.,0.,1.));
#1192=DIRECTION('center_axis',(1.,0.,0.));
#1193=DIRECTION('ref_axis',(0.,1.,0.));
#1194=DIRECTION('center_axis',(1.,0.,0.));
#1195=DIRECTION('ref_axis',(0.,1.,0.));
#1196=DIRECTION('',(1.,0.,0.));
#1197=DIRECTION('center_axis',(1.,0.,0.));
#1198=DIRECTION('ref_axis',(0.,1.,0.));
#1199=DIRECTION('center_axis',(1.,0.,0.));
#1200=DIRECTION('ref_axis',(0.,0.909059556321671,0.416666201005369));
#1201=DIRECTION('',(0.,-4.28408381256052E-8,-0.999999999999999));
#1202=DIRECTION('center_axis',(1.,0.,0.));
#1203=DIRECTION('ref_axis',(0.,0.707106796333066,0.707106766040029));
#1204=DIRECTION('',(0.,1.,0.));
#1205=DIRECTION('',(0.,0.66062879641887,-0.750712723578171));
#1206=DIRECTION('center_axis',(1.,0.,0.));
#1207=DIRECTION('ref_axis',(0.,1.,0.));
#1208=DIRECTION('',(0.,0.,1.));
#1209=DIRECTION('center_axis',(1.,0.,0.));
#1210=DIRECTION('ref_axis',(0.,1.,0.));
#1211=DIRECTION('center_axis',(1.,0.,0.));
#1212=DIRECTION('ref_axis',(0.,1.,0.));
#1213=DIRECTION('',(1.,0.,0.));
#1214=DIRECTION('center_axis',(1.,0.,0.));
#1215=DIRECTION('ref_axis',(0.,1.,0.));
#1216=DIRECTION('center_axis',(1.,0.,0.));
#1217=DIRECTION('ref_axis',(0.,0.909059556321671,0.416666201005369));
#1218=DIRECTION('',(0.,4.28408381256052E-8,0.999999999999999));
#1219=DIRECTION('center_axis',(1.,0.,0.));
#1220=DIRECTION('ref_axis',(0.,0.707106796333066,0.707106766040029));
#1221=DIRECTION('',(0.,1.,0.));
#1222=DIRECTION('',(0.,0.66062879641887,-0.750712723578171));
#1223=DIRECTION('center_axis',(1.,0.,0.));
#1224=DIRECTION('ref_axis',(0.,1.,0.));
#1225=DIRECTION('',(0.,0.,1.));
#1226=DIRECTION('center_axis',(1.,0.,0.));
#1227=DIRECTION('ref_axis',(0.,1.,0.));
#1228=DIRECTION('center_axis',(1.,0.,0.));
#1229=DIRECTION('ref_axis',(0.,1.,0.));
#1230=DIRECTION('',(-1.,0.,0.));
#1231=DIRECTION('center_axis',(1.,0.,0.));
#1232=DIRECTION('ref_axis',(0.,0.707106796333066,0.707106766040029));
#1233=DIRECTION('center_axis',(-1.,0.,0.));
#1234=DIRECTION('ref_axis',(0.,0.707106796333066,0.707106766040029));
#1235=DIRECTION('',(-1.,0.,0.));
#1236=DIRECTION('',(-1.,0.,0.));
#1237=DIRECTION('center_axis',(0.,0.999999999999999,-4.28408381256052E-8));
#1238=DIRECTION('ref_axis',(0.,-4.28408381256052E-8,-0.999999999999999));
#1239=DIRECTION('',(0.,4.28408381256052E-8,0.999999999999999));
#1240=DIRECTION('',(-1.,0.,0.));
#1241=DIRECTION('',(0.,4.28408381256052E-8,0.999999999999999));
#1242=DIRECTION('',(-1.,0.,0.));
#1243=DIRECTION('',(0.,-4.28408381256052E-8,-0.999999999999999));
#1244=DIRECTION('',(-1.,0.,0.));
#1245=DIRECTION('',(0.,4.28408381256052E-8,0.999999999999999));
#1246=DIRECTION('',(1.,0.,0.));
#1247=DIRECTION('',(0.,-4.28408381256052E-8,-0.999999999999999));
#1248=DIRECTION('center_axis',(0.,0.,-1.));
#1249=DIRECTION('ref_axis',(-1.,0.,0.));
#1250=DIRECTION('',(-1.,0.,0.));
#1251=DIRECTION('',(0.,1.,0.));
#1252=DIRECTION('',(-1.,0.,0.));
#1253=DIRECTION('center_axis',(1.,0.,0.));
#1254=DIRECTION('ref_axis',(0.,0.707106796333066,0.707106766040029));
#1255=DIRECTION('center_axis',(-1.,0.,0.));
#1256=DIRECTION('ref_axis',(0.,0.707106796333066,0.707106766040029));
#1257=DIRECTION('',(-1.,0.,0.));
#1258=DIRECTION('center_axis',(0.,0.,-1.));
#1259=DIRECTION('ref_axis',(-1.,0.,0.));
#1260=DIRECTION('',(-1.,0.,0.));
#1261=DIRECTION('',(0.,1.,0.));
#1262=DIRECTION('',(-1.,0.,0.));
#1263=DIRECTION('center_axis',(1.,0.,0.));
#1264=DIRECTION('ref_axis',(0.,0.707106796333066,0.707106766040029));
#1265=DIRECTION('center_axis',(1.,0.,0.));
#1266=DIRECTION('ref_axis',(0.,0.707106796333066,0.707106766040029));
#1267=DIRECTION('center_axis',(-1.,0.,0.));
#1268=DIRECTION('ref_axis',(0.,0.707106796333066,0.707106766040029));
#1269=DIRECTION('',(-1.,0.,0.));
#1270=DIRECTION('center_axis',(1.,0.,0.));
#1271=DIRECTION('ref_axis',(0.,0.,1.));
#1272=DIRECTION('center_axis',(1.,0.,0.));
#1273=DIRECTION('ref_axis',(0.,-0.707106781186548,0.707106781186548));
#1274=DIRECTION('',(0.,0.,-1.));
#1275=DIRECTION('center_axis',(1.,0.,0.));
#1276=DIRECTION('ref_axis',(0.,-1.,0.));
#1277=DIRECTION('',(0.,0.,-1.));
#1278=DIRECTION('',(0.,1.,0.));
#1279=DIRECTION('',(0.,0.,-1.));
#1280=DIRECTION('',(0.,-1.,0.));
#1281=DIRECTION('',(0.,0.,-1.));
#1282=DIRECTION('center_axis',(-1.,0.,0.));
#1283=DIRECTION('ref_axis',(0.,-0.999999932267459,0.000368055807875317));
#1284=DIRECTION('center_axis',(1.,0.,0.));
#1285=DIRECTION('ref_axis',(0.,0.707106796333066,0.707106766040029));
#1286=DIRECTION('center_axis',(-1.,0.,0.));
#1287=DIRECTION('ref_axis',(0.,0.707106796333066,0.707106766040029));
#1288=DIRECTION('',(-1.,0.,0.));
#1289=DIRECTION('center_axis',(0.,0.,-1.));
#1290=DIRECTION('ref_axis',(-1.,0.,0.));
#1291=DIRECTION('',(0.,1.,0.));
#1292=DIRECTION('',(-1.,0.,0.));
#1293=DIRECTION('',(-1.,0.,0.));
#1294=DIRECTION('center_axis',(-1.,0.,0.));
#1295=DIRECTION('ref_axis',(0.,-0.707106781186548,0.707106781186548));
#1296=DIRECTION('center_axis',(-1.,0.,0.));
#1297=DIRECTION('ref_axis',(0.,-0.707106781186548,0.707106781186548));
#1298=DIRECTION('',(1.,0.,0.));
#1299=DIRECTION('center_axis',(0.,-1.,0.));
#1300=DIRECTION('ref_axis',(0.,0.,1.));
#1301=DIRECTION('',(0.,0.,1.));
#1302=DIRECTION('',(1.,0.,0.));
#1303=DIRECTION('center_axis',(0.,-1.,0.));
#1304=DIRECTION('ref_axis',(1.,0.,0.));
#1305=DIRECTION('',(0.,0.,1.));
#1306=DIRECTION('',(-1.,0.,0.));
#1307=DIRECTION('',(0.,0.,1.));
#1308=DIRECTION('',(-1.,0.,0.));
#1309=DIRECTION('',(0.,0.,-1.));
#1310=DIRECTION('',(-1.,0.,0.));
#1311=DIRECTION('',(1.,0.,0.));
#1312=DIRECTION('center_axis',(0.,1.,0.));
#1313=DIRECTION('ref_axis',(1.,0.,0.));
#1314=DIRECTION('center_axis',(0.,1.,0.));
#1315=DIRECTION('ref_axis',(1.,0.,0.));
#1316=DIRECTION('center_axis',(-1.,0.,0.));
#1317=DIRECTION('ref_axis',(0.,-1.,0.));
#1318=DIRECTION('',(-1.,0.,0.));
#1319=DIRECTION('center_axis',(-1.,0.,0.));
#1320=DIRECTION('ref_axis',(0.,-1.,0.));
#1321=DIRECTION('',(1.,0.,0.));
#1322=DIRECTION('center_axis',(1.,0.,0.));
#1323=DIRECTION('ref_axis',(0.,-1.,0.));
#1324=DIRECTION('',(-1.,0.,0.));
#1325=DIRECTION('center_axis',(-1.,0.,0.));
#1326=DIRECTION('ref_axis',(0.,-1.,0.));
#1327=DIRECTION('center_axis',(1.,0.,0.));
#1328=DIRECTION('ref_axis',(0.,1.,0.));
#1329=DIRECTION('',(0.,0.,-1.));
#1330=DIRECTION('center_axis',(-1.,0.,0.));
#1331=DIRECTION('ref_axis',(0.,1.,0.));
#1332=DIRECTION('',(0.,-0.66062879641887,0.750712723578171));
#1333=DIRECTION('center_axis',(1.,0.,0.));
#1334=DIRECTION('ref_axis',(0.,1.,0.));
#1335=DIRECTION('',(0.,0.,-1.));
#1336=DIRECTION('center_axis',(-1.,0.,0.));
#1337=DIRECTION('ref_axis',(0.,1.,0.));
#1338=DIRECTION('',(0.,-0.66062879641887,0.750712723578171));
#1339=DIRECTION('center_axis',(1.,0.,0.));
#1340=DIRECTION('ref_axis',(0.,1.,0.));
#1341=DIRECTION('',(0.,0.,-1.));
#1342=DIRECTION('center_axis',(-1.,0.,0.));
#1343=DIRECTION('ref_axis',(0.,1.,0.));
#1344=DIRECTION('',(0.,-0.66062879641887,0.750712723578171));
#1345=DIRECTION('center_axis',(1.,0.,0.));
#1346=DIRECTION('ref_axis',(0.,-0.26639199705241,-0.963864774699454));
#1347=DIRECTION('',(1.,0.,0.));
#1348=DIRECTION('',(1.,0.,0.));
#1349=DIRECTION('center_axis',(0.,-1.,0.));
#1350=DIRECTION('ref_axis',(0.,0.,-1.));
#1351=DIRECTION('center_axis',(0.,0.750712723578171,0.66062879641887));
#1352=DIRECTION('ref_axis',(0.,-0.66062879641887,0.750712723578171));
#1353=DIRECTION('center_axis',(1.,0.,0.));
#1354=DIRECTION('ref_axis',(0.,-0.26639199705241,-0.963864774699454));
#1355=DIRECTION('',(1.,0.,0.));
#1356=DIRECTION('',(1.,0.,0.));
#1357=DIRECTION('center_axis',(0.,-1.,0.));
#1358=DIRECTION('ref_axis',(0.,0.,-1.));
#1359=DIRECTION('center_axis',(0.,0.750712723578171,0.66062879641887));
#1360=DIRECTION('ref_axis',(0.,-0.66062879641887,0.750712723578171));
#1361=DIRECTION('center_axis',(-1.,0.,0.));
#1362=DIRECTION('ref_axis',(0.,-0.999999932267459,0.000368055807875317));
#1363=DIRECTION('',(1.,0.,0.));
#1364=DIRECTION('center_axis',(1.,0.,0.));
#1365=DIRECTION('ref_axis',(0.,-0.999999932267459,0.000368055807875317));
#1366=DIRECTION('',(1.,0.,0.));
#1367=DIRECTION('center_axis',(-1.,0.,0.));
#1368=DIRECTION('ref_axis',(0.,-0.999999932267459,0.000368055807875317));
#1369=DIRECTION('',(1.,0.,0.));
#1370=DIRECTION('center_axis',(1.,0.,0.));
#1371=DIRECTION('ref_axis',(0.,-0.999999932267459,0.000368055807875317));
#1372=DIRECTION('center_axis',(0.,0.,1.));
#1373=DIRECTION('ref_axis',(0.,1.,0.));
#1374=DIRECTION('',(0.,1.,0.));
#1375=DIRECTION('',(0.,-1.,0.));
#1376=DIRECTION('center_axis',(1.,0.,0.));
#1377=DIRECTION('ref_axis',(0.,-0.26639199705241,-0.963864774699454));
#1378=DIRECTION('',(1.,0.,0.));
#1379=DIRECTION('',(1.,0.,0.));
#1380=DIRECTION('center_axis',(0.,-1.,0.));
#1381=DIRECTION('ref_axis',(0.,0.,-1.));
#1382=DIRECTION('center_axis',(0.,0.750712723578171,0.66062879641887));
#1383=DIRECTION('ref_axis',(0.,-0.66062879641887,0.750712723578171));
#1384=DIRECTION('center_axis',(-1.,0.,0.));
#1385=DIRECTION('ref_axis',(0.,0.,-1.));
#1386=DIRECTION('',(0.,0.,-1.));
#1387=DIRECTION('',(0.,-1.,0.));
#1388=DIRECTION('center_axis',(-1.,0.,0.));
#1389=DIRECTION('ref_axis',(0.,0.,-1.));
#1390=DIRECTION('',(0.,-1.,0.));
#1391=DIRECTION('',(0.,0.,-1.));
#1392=DIRECTION('center_axis',(0.,-1.,0.));
#1393=DIRECTION('ref_axis',(0.,0.,-1.));
#1394=DIRECTION('',(-1.,0.,0.));
#1395=DIRECTION('center_axis',(0.,-1.,0.));
#1396=DIRECTION('ref_axis',(0.,0.,-1.));
#1397=DIRECTION('center_axis',(0.,1.,0.));
#1398=DIRECTION('ref_axis',(1.,0.,0.));
#1399=DIRECTION('center_axis',(0.,-1.,0.));
#1400=DIRECTION('ref_axis',(0.,0.,-1.));
#1401=DIRECTION('',(1.,0.,0.));
#1402=DIRECTION('center_axis',(0.,-1.,0.));
#1403=DIRECTION('ref_axis',(1.,0.,0.));
#1404=DIRECTION('',(0.,1.,0.));
#1405=DIRECTION('center_axis',(0.,0.,1.));
#1406=DIRECTION('ref_axis',(-1.,0.,0.));
#1407=DIRECTION('center_axis',(-1.,0.,0.));
#1408=DIRECTION('ref_axis',(0.,0.,-1.));
#1409=DIRECTION('',(0.,0.,1.));
#1410=DIRECTION('',(0.,1.,0.));
#1411=DIRECTION('',(0.,-1.,0.));
#1412=DIRECTION('',(0.,0.,1.));
#1413=DIRECTION('center_axis',(0.,-1.,0.));
#1414=DIRECTION('ref_axis',(0.,0.,-1.));
#1415=DIRECTION('',(0.,0.,1.));
#1416=DIRECTION('',(-1.,0.,0.));
#1417=DIRECTION('center_axis',(1.,0.,0.));
#1418=DIRECTION('ref_axis',(0.,0.,1.));
#1419=DIRECTION('',(0.,-1.,0.));
#1420=DIRECTION('center_axis',(0.,-1.,0.));
#1421=DIRECTION('ref_axis',(0.,0.,-1.));
#1422=DIRECTION('center_axis',(0.,1.,0.));
#1423=DIRECTION('ref_axis',(1.,0.,0.));
#1424=DIRECTION('center_axis',(0.,-1.,0.));
#1425=DIRECTION('ref_axis',(0.,0.,-1.));
#1426=DIRECTION('',(1.,0.,0.));
#1427=DIRECTION('',(0.,0.,1.));
#1428=DIRECTION('center_axis',(0.,-1.,0.));
#1429=DIRECTION('ref_axis',(1.,0.,0.));
#1430=DIRECTION('',(0.,1.,0.));
#1431=DIRECTION('center_axis',(0.,0.,1.));
#1432=DIRECTION('ref_axis',(-1.,0.,0.));
#1433=DIRECTION('center_axis',(1.,0.,0.));
#1434=DIRECTION('ref_axis',(0.,0.,1.));
#1435=DIRECTION('',(0.,-1.,0.));
#1436=DIRECTION('center_axis',(0.,0.,-1.));
#1437=DIRECTION('ref_axis',(1.,0.,0.));
#1438=CARTESIAN_POINT('',(0.,0.,0.));
#1439=CARTESIAN_POINT('Origin',(0.,-74.7999983280897,-77.49999826774));
#1440=CARTESIAN_POINT('',(-9.5,-72.7999983727932,-76.5833010309207));
#1441=CARTESIAN_POINT('',(9.5,-72.7999983727932,-76.5833010309207));
#1442=CARTESIAN_POINT('',(0.,-72.7999983727932,-76.5833010309207));
#1443=CARTESIAN_POINT('',(9.50000000000001,-72.7277135478899,-76.7611008222643));
#1444=CARTESIAN_POINT('Origin',(9.5,-74.7999983280897,-77.49999826774));
#1445=CARTESIAN_POINT('',(-9.50000000000001,-72.7277135478899,-76.7611008222643));
#1446=CARTESIAN_POINT('',(0.,-72.7277135478898,-76.7611008222643));
#1447=CARTESIAN_POINT('Origin',(-9.5,-74.7999983280897,-77.49999826774));
#1448=CARTESIAN_POINT('Origin',(0.,-71.9742529037988,-76.4924455918131));
#1449=CARTESIAN_POINT('',(9.50000000000001,-71.9742529037988,-76.492445591813));
#1450=CARTESIAN_POINT('',(9.5,-73.426668717843,-77.0103214865838));
#1451=CARTESIAN_POINT('',(-9.50000000000001,-71.9742529037988,-76.492445591813));
#1452=CARTESIAN_POINT('',(0.,-71.9742529037988,-76.4924455918131));
#1453=CARTESIAN_POINT('',(-9.5,-73.426668717843,-77.0103214865838));
#1454=CARTESIAN_POINT('Origin',(-43.,-74.7999983280897,-77.49999826774));
#1455=CARTESIAN_POINT('',(-52.5,-72.7999983727932,-76.5833010309207));
#1456=CARTESIAN_POINT('',(-33.5,-72.7999983727932,-76.5833010309207));
#1457=CARTESIAN_POINT('',(-43.,-72.7999983727932,-76.5833010309207));
#1458=CARTESIAN_POINT('',(-33.5,-72.7277135478899,-76.7611008222643));
#1459=CARTESIAN_POINT('Origin',(-33.5,-74.7999983280897,-77.49999826774));
#1460=CARTESIAN_POINT('',(-52.5,-72.7277135478899,-76.7611008222643));
#1461=CARTESIAN_POINT('',(-43.,-72.7277135478898,-76.7611008222643));
#1462=CARTESIAN_POINT('Origin',(-52.5,-74.7999983280897,-77.49999826774));
#1463=CARTESIAN_POINT('Origin',(-43.,-71.9742529037988,-76.4924455918131));
#1464=CARTESIAN_POINT('',(-33.5,-71.9742529037988,-76.492445591813));
#1465=CARTESIAN_POINT('',(-33.5,-73.426668717843,-77.0103214865838));
#1466=CARTESIAN_POINT('',(-52.5,-71.9742529037988,-76.492445591813));
#1467=CARTESIAN_POINT('',(-43.,-71.9742529037988,-76.4924455918131));
#1468=CARTESIAN_POINT('',(-52.5,-73.426668717843,-77.0103214865838));
#1469=CARTESIAN_POINT('Origin',(43.,-74.7999983280897,-77.49999826774));
#1470=CARTESIAN_POINT('',(33.5,-72.7999983727932,-76.5833010309207));
#1471=CARTESIAN_POINT('',(52.5,-72.7999983727932,-76.5833010309207));
#1472=CARTESIAN_POINT('',(43.,-72.7999983727932,-76.5833010309207));
#1473=CARTESIAN_POINT('',(52.5,-72.7277135478899,-76.7611008222643));
#1474=CARTESIAN_POINT('Origin',(52.5,-74.7999983280897,-77.49999826774));
#1475=CARTESIAN_POINT('',(33.5,-72.7277135478899,-76.7611008222643));
#1476=CARTESIAN_POINT('',(43.,-72.7277135478898,-76.7611008222643));
#1477=CARTESIAN_POINT('Origin',(33.5,-74.7999983280897,-77.49999826774));
#1478=CARTESIAN_POINT('Origin',(43.,-71.9742529037988,-76.4924455918131));
#1479=CARTESIAN_POINT('',(52.5,-71.9742529037988,-76.492445591813));
#1480=CARTESIAN_POINT('',(52.5,-73.426668717843,-77.0103214865838));
#1481=CARTESIAN_POINT('',(33.5,-71.9742529037988,-76.492445591813));
#1482=CARTESIAN_POINT('',(43.,-71.9742529037988,-76.4924455918131));
#1483=CARTESIAN_POINT('',(33.5,-73.426668717843,-77.0103214865838));
#1484=CARTESIAN_POINT('Origin',(-9.5,-74.7999983280897,-77.7499996591359));
#1485=CARTESIAN_POINT('',(-9.5,-76.9999994047189,-79.5396048132531));
#1486=CARTESIAN_POINT('Origin',(-9.5,-74.7999983280898,-77.49999826774));
#1487=CARTESIAN_POINT('',(-9.5,-76.9999992830679,-76.7000000642612));
#1488=CARTESIAN_POINT('',(-9.5,-76.9999992691446,-76.374999782443));
#1489=CARTESIAN_POINT('',(-9.5,-78.4999992830679,-75.2));
#1490=CARTESIAN_POINT('Origin',(-9.5,-78.4999992830679,-76.7));
#1491=CARTESIAN_POINT('',(-9.5,-76.8240017046948,-75.2));
#1492=CARTESIAN_POINT('',(-9.5,-37.3999991640449,-75.2));
#1493=CARTESIAN_POINT('',(-9.5,-76.1873187695603,-75.9235015834633));
#1494=CARTESIAN_POINT('',(-9.5,-74.7999983280897,-77.49999826774));
#1495=CARTESIAN_POINT('',(-9.5,-72.7999983727932,-76.8596858583088));
#1496=CARTESIAN_POINT('Origin',(-9.5,-74.7999983280897,-77.49999826774));
#1497=CARTESIAN_POINT('',(-9.5,-72.7999983727932,-77.49999826774));
#1498=CARTESIAN_POINT('Origin',(0.,-74.7999983280897,-77.49999826774));
#1499=CARTESIAN_POINT('',(9.5,-76.9999994047189,-79.5396048132529));
#1500=CARTESIAN_POINT('Origin',(9.5,-74.7999983280897,-77.49999826774));
#1501=CARTESIAN_POINT('',(0.,-76.9999994047189,-79.5396048132529));
#1502=CARTESIAN_POINT('Origin',(-52.5,-74.7999983280897,-77.7499996591359));
#1503=CARTESIAN_POINT('',(-52.5,-76.9999994047189,-79.5396048132531));
#1504=CARTESIAN_POINT('Origin',(-52.5,-74.7999983280898,-77.49999826774));
#1505=CARTESIAN_POINT('',(-52.5,-76.9999992830679,-76.7000000642612));
#1506=CARTESIAN_POINT('',(-52.5,-76.9999992691446,-76.374999782443));
#1507=CARTESIAN_POINT('',(-52.5,-78.4999992830679,-75.2));
#1508=CARTESIAN_POINT('Origin',(-52.5,-78.4999992830679,-76.7));
#1509=CARTESIAN_POINT('',(-52.5,-76.8240017046948,-75.2));
#1510=CARTESIAN_POINT('',(-52.5,-37.3999991640449,-75.2));
#1511=CARTESIAN_POINT('',(-52.5,-76.1873187695603,-75.9235015834633));
#1512=CARTESIAN_POINT('',(-52.5,-74.7999983280897,-77.49999826774));
#1513=CARTESIAN_POINT('',(-52.5,-72.7999983727932,-76.8596858583088));
#1514=CARTESIAN_POINT('Origin',(-52.5,-74.7999983280897,-77.49999826774));
#1515=CARTESIAN_POINT('',(-52.5,-72.7999983727932,-77.49999826774));
#1516=CARTESIAN_POINT('Origin',(-43.,-74.7999983280897,-77.49999826774));
#1517=CARTESIAN_POINT('',(-33.5,-76.9999994047189,-79.5396048132529));
#1518=CARTESIAN_POINT('Origin',(-33.5,-74.7999983280897,-77.49999826774));
#1519=CARTESIAN_POINT('',(-43.,-76.9999994047189,-79.5396048132529));
#1520=CARTESIAN_POINT('Origin',(33.5,-74.7999983280897,-77.7499996591359));
#1521=CARTESIAN_POINT('',(33.5,-76.9999994047189,-79.5396048132531));
#1522=CARTESIAN_POINT('Origin',(33.5,-74.7999983280898,-77.49999826774));
#1523=CARTESIAN_POINT('',(33.5,-76.9999992830679,-76.7000000642612));
#1524=CARTESIAN_POINT('',(33.5,-76.9999992691446,-76.374999782443));
#1525=CARTESIAN_POINT('',(33.5,-78.4999992830679,-75.2));
#1526=CARTESIAN_POINT('Origin',(33.5,-78.4999992830679,-76.7));
#1527=CARTESIAN_POINT('',(33.5,-76.8240017046948,-75.2));
#1528=CARTESIAN_POINT('',(33.5,-37.3999991640449,-75.2));
#1529=CARTESIAN_POINT('',(33.5,-76.1873187695603,-75.9235015834633));
#1530=CARTESIAN_POINT('',(33.5,-74.7999983280897,-77.49999826774));
#1531=CARTESIAN_POINT('',(33.5,-72.7999983727932,-76.8596858583088));
#1532=CARTESIAN_POINT('Origin',(33.5,-74.7999983280897,-77.49999826774));
#1533=CARTESIAN_POINT('',(33.5,-72.7999983727932,-77.49999826774));
#1534=CARTESIAN_POINT('Origin',(43.,-74.7999983280897,-77.49999826774));
#1535=CARTESIAN_POINT('',(52.5,-76.9999994047189,-79.5396048132529));
#1536=CARTESIAN_POINT('Origin',(52.5,-74.7999983280897,-77.49999826774));
#1537=CARTESIAN_POINT('',(43.,-76.9999994047189,-79.5396048132529));
#1538=CARTESIAN_POINT('Origin',(0.,-78.4999992830679,-76.7));
#1539=CARTESIAN_POINT('',(-58.3,-76.9999992830679,-76.7000000642612));
#1540=CARTESIAN_POINT('',(-58.3,-78.5,-75.2));
#1541=CARTESIAN_POINT('Origin',(-58.3,-78.4999992830679,-76.7));
#1542=CARTESIAN_POINT('',(0.,-78.5,-75.2));
#1543=CARTESIAN_POINT('',(0.,-76.9999992830679,-76.7000000642612));
#1544=CARTESIAN_POINT('Origin',(0.,-76.9999992102385,-75.));
#1545=CARTESIAN_POINT('',(-33.5,-76.9999992830679,-76.7000000642612));
#1546=CARTESIAN_POINT('',(-33.5,-76.9999992691446,-76.374999782443));
#1547=CARTESIAN_POINT('',(0.,-76.9999992830679,-76.7000000642612));
#1548=CARTESIAN_POINT('',(9.5,-76.9999992830679,-76.7000000642612));
#1549=CARTESIAN_POINT('',(9.5,-76.9999992691446,-76.374999782443));
#1550=CARTESIAN_POINT('',(0.,-76.9999992830679,-76.7000000642612));
#1551=CARTESIAN_POINT('',(52.5,-76.9999992830679,-76.7000000642612));
#1552=CARTESIAN_POINT('',(52.5,-76.9999992691446,-76.374999782443));
#1553=CARTESIAN_POINT('',(58.3,-76.9999992830679,-76.7000000642612));
#1554=CARTESIAN_POINT('',(0.,-76.9999992830679,-76.7000000642612));
#1555=CARTESIAN_POINT('',(58.3,-77.0000011473894,-154.991902771256));
#1556=CARTESIAN_POINT('',(58.3,-77.0000014593824,-127.499999421649));
#1557=CARTESIAN_POINT('',(-58.3,-77.0000011473894,-154.991902771256));
#1558=CARTESIAN_POINT('',(0.,-77.0000011473894,-154.991902771256));
#1559=CARTESIAN_POINT('',(-58.3,-77.0000012665986,-122.999997510575));
#1560=CARTESIAN_POINT('Origin',(0.,0.,-75.2));
#1561=CARTESIAN_POINT('',(-33.5,-78.4999992830679,-75.2));
#1562=CARTESIAN_POINT('',(0.,-78.5,-75.2));
#1563=CARTESIAN_POINT('',(-33.5,-76.8240017046948,-75.2));
#1564=CARTESIAN_POINT('',(-33.5,-37.3999991640449,-75.2));
#1565=CARTESIAN_POINT('',(-21.5,-76.8240017046948,-75.2));
#1566=CARTESIAN_POINT('Origin',(0.,-78.4999992830679,-76.7));
#1567=CARTESIAN_POINT('Origin',(-33.5,-78.4999992830679,-76.7));
#1568=CARTESIAN_POINT('',(0.,-78.5,-75.2));
#1569=CARTESIAN_POINT('Origin',(0.,0.,-75.2));
#1570=CARTESIAN_POINT('',(9.5,-78.4999992830679,-75.2));
#1571=CARTESIAN_POINT('',(0.,-78.5,-75.2));
#1572=CARTESIAN_POINT('',(9.5,-76.8240017046948,-75.2));
#1573=CARTESIAN_POINT('',(9.5,-37.3999991640449,-75.2));
#1574=CARTESIAN_POINT('',(-21.5,-76.8240017046948,-75.2));
#1575=CARTESIAN_POINT('Origin',(0.,-78.4999992830679,-76.7));
#1576=CARTESIAN_POINT('',(58.3,-78.5,-75.2));
#1577=CARTESIAN_POINT('Origin',(58.3,-78.4999992830679,-76.7));
#1578=CARTESIAN_POINT('',(52.5,-78.4999992830679,-75.2));
#1579=CARTESIAN_POINT('Origin',(52.5,-78.4999992830679,-76.7));
#1580=CARTESIAN_POINT('',(0.,-78.5,-75.2));
#1581=CARTESIAN_POINT('Origin',(58.3,-50.,-180.));
#1582=CARTESIAN_POINT('',(58.3,-80.,-76.7));
#1583=CARTESIAN_POINT('Origin',(58.3,-78.5,-76.7));
#1584=CARTESIAN_POINT('',(58.3,-80.,-155.));
#1585=CARTESIAN_POINT('',(58.3,-80.,-167.5));
#1586=CARTESIAN_POINT('',(58.3,-56.,-179.979991993594));
#1587=CARTESIAN_POINT('Origin',(58.3,-55.,-155.));
#1588=CARTESIAN_POINT('',(58.3,-56.,-180.));
#1589=CARTESIAN_POINT('',(58.3,-56.,-177.750000637025));
#1590=CARTESIAN_POINT('',(58.3,-50.2,-180.));
#1591=CARTESIAN_POINT('',(58.3,-50.,-180.));
#1592=CARTESIAN_POINT('',(58.3,-50.2,-171.000002548099));
#1593=CARTESIAN_POINT('',(58.3,-50.2,-177.749999044463));
#1594=CARTESIAN_POINT('',(58.3,-56.,-171.000002548099));
#1595=CARTESIAN_POINT('',(58.3,-50.,-171.000002548099));
#1596=CARTESIAN_POINT('',(58.3,-56.,-176.97726361607));
#1597=CARTESIAN_POINT('',(58.3,-56.,-177.750000637025));
#1598=CARTESIAN_POINT('Origin',(58.3,-55.,-155.));
#1599=CARTESIAN_POINT('Origin',(0.,-78.4999992830679,-76.7));
#1600=CARTESIAN_POINT('Origin',(9.5,-78.4999992830679,-76.7));
#1601=CARTESIAN_POINT('',(0.,-78.5,-75.2));
#1602=CARTESIAN_POINT('Origin',(0.,0.,-75.2));
#1603=CARTESIAN_POINT('',(52.5,-76.8240017046948,-75.2));
#1604=CARTESIAN_POINT('',(52.5,-37.3999991640449,-75.2));
#1605=CARTESIAN_POINT('',(-21.5,-76.8240017046948,-75.2));
#1606=CARTESIAN_POINT('',(0.,-78.5,-75.2));
#1607=CARTESIAN_POINT('Origin',(0.,-78.5,-76.7));
#1608=CARTESIAN_POINT('',(-58.3,-80.,-76.7));
#1609=CARTESIAN_POINT('Origin',(-58.3,-78.5,-76.7));
#1610=CARTESIAN_POINT('',(0.,-80.,-76.7));
#1611=CARTESIAN_POINT('Origin',(0.,-80.,-155.));
#1612=CARTESIAN_POINT('',(-58.3,-80.,-155.));
#1613=CARTESIAN_POINT('',(-58.3,-80.,-162.999998088926));
#1614=CARTESIAN_POINT('',(0.,-80.,-155.));
#1615=CARTESIAN_POINT('Origin',(-53.9999994467944,-50.2,-175.499998088926));
#1616=CARTESIAN_POINT('',(-58.3,-50.2,-170.999996177852));
#1617=CARTESIAN_POINT('',(-58.3,-50.2,-180.));
#1618=CARTESIAN_POINT('',(-58.3,-50.2,-173.249997133389));
#1619=CARTESIAN_POINT('',(-49.4999988935888,-50.2,-170.999996177852));
#1620=CARTESIAN_POINT('',(-51.7499991701916,-50.2,-170.999996177852));
#1621=CARTESIAN_POINT('',(-49.4999988935888,-50.2,-177.000002637506));
#1622=CARTESIAN_POINT('',(-49.4999988935888,-50.2,-177.749999044463));
#1623=CARTESIAN_POINT('',(49.5000007376075,-50.2,-177.000002637506));
#1624=CARTESIAN_POINT('',(-26.9999997233972,-50.2,-177.000002637506));
#1625=CARTESIAN_POINT('',(49.5000007376075,-50.2,-171.000002548099));
#1626=CARTESIAN_POINT('',(49.5000007376075,-50.2,-173.250000318512));
#1627=CARTESIAN_POINT('',(2.2500002766028,-50.2,-171.000002548099));
#1628=CARTESIAN_POINT('',(-56.2499997233972,-50.2,-180.));
#1629=CARTESIAN_POINT('',(50.9000003688038,-50.2,-175.499998088926));
#1630=CARTESIAN_POINT('Origin',(54.0000003688037,-50.2,-175.499998088926));
#1631=CARTESIAN_POINT('',(-57.0999994467944,-50.2,-175.499998088926));
#1632=CARTESIAN_POINT('Origin',(-53.9999994467944,-50.2,-175.499998088926));
#1633=CARTESIAN_POINT('Origin',(0.,-55.,-155.));
#1634=CARTESIAN_POINT('',(-49.4999988935888,-56.,-179.979991993594));
#1635=CARTESIAN_POINT('',(-58.3,-56.,-179.979991993594));
#1636=CARTESIAN_POINT('',(0.,-56.,-179.979991993594));
#1637=CARTESIAN_POINT('',(-49.4999988935888,-55.,-180.));
#1638=CARTESIAN_POINT('Origin',(-49.4999988935888,-55.,-155.));
#1639=CARTESIAN_POINT('',(49.5000007376075,-55.,-180.));
#1640=CARTESIAN_POINT('',(0.,-55.,-180.));
#1641=CARTESIAN_POINT('',(49.5000007376075,-56.,-179.979991993594));
#1642=CARTESIAN_POINT('Origin',(49.5000007376075,-55.,-155.));
#1643=CARTESIAN_POINT('',(0.,-56.,-179.979991993594));
#1644=CARTESIAN_POINT('Origin',(-58.3,-55.,-155.));
#1645=CARTESIAN_POINT('Origin',(52.5,-74.7999983280897,-77.7499996591359));
#1646=CARTESIAN_POINT('',(52.5,-72.7999983727932,-76.8596858583088));
#1647=CARTESIAN_POINT('',(52.5,-72.7999983727932,-77.49999826774));
#1648=CARTESIAN_POINT('',(52.5,-76.1873187695603,-75.9235015834633));
#1649=CARTESIAN_POINT('Origin',(52.5,-74.7999983280897,-77.49999826774));
#1650=CARTESIAN_POINT('',(52.5,-74.7999983280897,-77.49999826774));
#1651=CARTESIAN_POINT('Origin',(9.5,-74.7999983280897,-77.7499996591359));
#1652=CARTESIAN_POINT('',(9.5,-72.7999983727932,-76.8596858583088));
#1653=CARTESIAN_POINT('',(9.5,-72.7999983727932,-77.49999826774));
#1654=CARTESIAN_POINT('',(9.5,-76.1873187695603,-75.9235015834633));
#1655=CARTESIAN_POINT('Origin',(9.5,-74.7999983280897,-77.49999826774));
#1656=CARTESIAN_POINT('',(9.5,-74.7999983280897,-77.49999826774));
#1657=CARTESIAN_POINT('Origin',(-33.5,-74.7999983280897,-77.7499996591359));
#1658=CARTESIAN_POINT('',(-33.5,-72.7999983727932,-76.8596858583088));
#1659=CARTESIAN_POINT('',(-33.5,-72.7999983727932,-77.49999826774));
#1660=CARTESIAN_POINT('',(-33.5,-76.1873187695603,-75.9235015834633));
#1661=CARTESIAN_POINT('Origin',(-33.5,-74.7999983280897,-77.49999826774));
#1662=CARTESIAN_POINT('',(-33.5,-74.7999983280897,-77.49999826774));
#1663=CARTESIAN_POINT('Origin',(0.,-74.7999983280897,-77.49999826774));
#1664=CARTESIAN_POINT('',(0.,-76.1873187695603,-75.9235015834633));
#1665=CARTESIAN_POINT('',(0.,-72.7999983727932,-76.8596858583088));
#1666=CARTESIAN_POINT('Origin',(0.,-72.7999983727932,-76.5833010309207));
#1667=CARTESIAN_POINT('Origin',(-43.,-76.1873187695603,-75.9235015834633));
#1668=CARTESIAN_POINT('Origin',(-43.,-74.7999983280897,-77.49999826774));
#1669=CARTESIAN_POINT('',(-43.,-76.1873187695603,-75.9235015834633));
#1670=CARTESIAN_POINT('',(-43.,-72.7999983727932,-76.8596858583088));
#1671=CARTESIAN_POINT('Origin',(-43.,-72.7999983727932,-76.5833010309207));
#1672=CARTESIAN_POINT('Origin',(-43.,-76.1873187695603,-75.9235015834633));
#1673=CARTESIAN_POINT('Origin',(0.,-55.,-155.));
#1674=CARTESIAN_POINT('',(-58.3,-56.,-176.97726361607));
#1675=CARTESIAN_POINT('',(-49.4999988935888,-56.,-176.97726361607));
#1676=CARTESIAN_POINT('',(0.,-56.,-176.97726361607));
#1677=CARTESIAN_POINT('Origin',(-58.3,-55.,-155.));
#1678=CARTESIAN_POINT('',(49.5000007376075,-56.,-176.97726361607));
#1679=CARTESIAN_POINT('',(0.,-56.,-176.97726361607));
#1680=CARTESIAN_POINT('',(49.5000007376075,-55.,-177.000002637506));
#1681=CARTESIAN_POINT('Origin',(49.5000007376075,-55.,-155.));
#1682=CARTESIAN_POINT('',(-49.4999988935888,-55.,-177.000002637506));
#1683=CARTESIAN_POINT('',(0.,-55.,-177.000002637506));
#1684=CARTESIAN_POINT('Origin',(-49.4999988935888,-55.,-155.));
#1685=CARTESIAN_POINT('Origin',(0.,-55.,-177.000002637506));
#1686=CARTESIAN_POINT('',(-49.4999988935888,-52.5,-177.000002637506));
#1687=CARTESIAN_POINT('',(49.5000007376075,-52.5,-177.000002637506));
#1688=CARTESIAN_POINT('Origin',(43.,-74.7999983280897,-77.49999826774));
#1689=CARTESIAN_POINT('',(43.,-76.1873187695603,-75.9235015834633));
#1690=CARTESIAN_POINT('',(43.,-72.7999983727932,-76.8596858583088));
#1691=CARTESIAN_POINT('Origin',(43.,-72.7999983727932,-76.5833010309207));
#1692=CARTESIAN_POINT('Origin',(-43.,-76.1873187695603,-75.9235015834633));
#1693=CARTESIAN_POINT('Origin',(49.5000007376075,-50.,-171.000002548099));
#1694=CARTESIAN_POINT('',(49.5000007376075,-56.,-171.000002548099));
#1695=CARTESIAN_POINT('',(49.5000007376075,-56.,-173.250001911074));
#1696=CARTESIAN_POINT('',(49.5000007376075,-50.,-171.000002548099));
#1697=CARTESIAN_POINT('Origin',(49.5000007376075,-50.,-171.000002548099));
#1698=CARTESIAN_POINT('',(49.5000007376075,-56.,-180.));
#1699=CARTESIAN_POINT('',(49.5000007376075,-50.,-180.));
#1700=CARTESIAN_POINT('',(49.5000007376075,-56.,-173.250001911074));
#1701=CARTESIAN_POINT('Origin',(54.0000003688037,-56.,-175.500001274049));
#1702=CARTESIAN_POINT('',(56.2500001844019,-56.,-171.000002548099));
#1703=CARTESIAN_POINT('Origin',(54.0000003688037,-54.,-175.500001274049));
#1704=CARTESIAN_POINT('',(50.9000003688038,-54.,-175.499998088926));
#1705=CARTESIAN_POINT('Origin',(54.0000003688037,-54.,-175.499998088926));
#1706=CARTESIAN_POINT('Origin',(54.0000003688037,-56.,-175.500001274049));
#1707=CARTESIAN_POINT('',(51.7500005532056,-56.,-180.));
#1708=CARTESIAN_POINT('Origin',(54.0000003688037,-50.,-175.499998088926));
#1709=CARTESIAN_POINT('',(50.9000003688038,-50.,-175.499998088926));
#1710=CARTESIAN_POINT('Origin',(58.5,-50.,-171.000002548099));
#1711=CARTESIAN_POINT('Origin',(-58.3,-50.,-170.999996177852));
#1712=CARTESIAN_POINT('',(-58.3,-56.,-170.999996177852));
#1713=CARTESIAN_POINT('',(-58.3,-56.,-173.249997133389));
#1714=CARTESIAN_POINT('',(-58.3,-50.,-170.999996177852));
#1715=CARTESIAN_POINT('',(-58.3,-56.,-180.));
#1716=CARTESIAN_POINT('',(-58.3,-50.,-180.));
#1717=CARTESIAN_POINT('',(-58.3,-56.,-173.249997133389));
#1718=CARTESIAN_POINT('Origin',(-53.9999994467944,-56.,-175.499998088926));
#1719=CARTESIAN_POINT('',(-49.4999988935888,-56.,-170.999996177852));
#1720=CARTESIAN_POINT('',(-49.4999988935888,-56.,-177.749999044463));
#1721=CARTESIAN_POINT('',(-51.7499991701916,-56.,-170.999996177852));
#1722=CARTESIAN_POINT('Origin',(-49.4999988935888,-50.,-180.));
#1723=CARTESIAN_POINT('',(-49.4999988935888,-50.,-170.999996177852));
#1724=CARTESIAN_POINT('Origin',(-53.9999994467944,-54.,-175.499998088926));
#1725=CARTESIAN_POINT('',(-57.0999994467944,-54.,-175.499998088926));
#1726=CARTESIAN_POINT('Origin',(-53.9999994467944,-54.,-175.499998088926));
#1727=CARTESIAN_POINT('Origin',(-53.9999994467944,-56.,-175.499998088926));
#1728=CARTESIAN_POINT('',(-49.4999988935888,-56.,-180.));
#1729=CARTESIAN_POINT('',(-56.2499997233972,-56.,-180.));
#1730=CARTESIAN_POINT('',(-49.4999988935888,-56.,-177.749999044463));
#1731=CARTESIAN_POINT('Origin',(-53.9999994467944,-50.,-175.499998088926));
#1732=CARTESIAN_POINT('',(-57.0999994467944,-50.,-175.499998088926));
#1733=CARTESIAN_POINT('Origin',(-49.4999988935888,-50.,-170.999996177852));
#1734=CARTESIAN_POINT('Origin',(-49.4999988935888,-50.,-180.));
#1735=CARTESIAN_POINT('',(-49.4999988935888,-50.,-180.));
#1736=CARTESIAN_POINT('Origin',(-58.5,-50.,-180.));
#1737=UNCERTAINTY_MEASURE_WITH_UNIT(LENGTH_MEASURE(0.01),#1741,
'DISTANCE_ACCURACY_VALUE',
'Maximum model space distance between geometric entities at asserted c
onnectivities');
#1738=UNCERTAINTY_MEASURE_WITH_UNIT(LENGTH_MEASURE(0.01),#1741,
'DISTANCE_ACCURACY_VALUE',
'Maximum model space distance between geometric entities at asserted c
onnectivities');
#1739=(
GEOMETRIC_REPRESENTATION_CONTEXT(3)
GLOBAL_UNCERTAINTY_ASSIGNED_CONTEXT((#1737))
GLOBAL_UNIT_ASSIGNED_CONTEXT((#1741,#1743,#1744))
REPRESENTATION_CONTEXT('','3D')
);
#1740=(
GEOMETRIC_REPRESENTATION_CONTEXT(3)
GLOBAL_UNCERTAINTY_ASSIGNED_CONTEXT((#1738))
GLOBAL_UNIT_ASSIGNED_CONTEXT((#1741,#1743,#1744))
REPRESENTATION_CONTEXT('','3D')
);
#1741=(
LENGTH_UNIT()
NAMED_UNIT(*)
SI_UNIT(.MILLI.,.METRE.)
);
#1742=(
LENGTH_UNIT()
NAMED_UNIT(*)
SI_UNIT($,.METRE.)
);
#1743=(
NAMED_UNIT(*)
PLANE_ANGLE_UNIT()
SI_UNIT($,.RADIAN.)
);
#1744=(
NAMED_UNIT(*)
SI_UNIT($,.STERADIAN.)
SOLID_ANGLE_UNIT()
);
#1745=SHAPE_DEFINITION_REPRESENTATION(#1746,#1747);
#1746=PRODUCT_DEFINITION_SHAPE('',$,#1749);
#1747=SHAPE_REPRESENTATION('',(#1043),#1739);
#1748=PRODUCT_DEFINITION_CONTEXT('part definition',#1753,'design');
#1749=PRODUCT_DEFINITION('Hinged Access Panel','Hinged Access Panel',#1750,
#1748);
#1750=PRODUCT_DEFINITION_FORMATION('',$,#1755);
#1751=PRODUCT_RELATED_PRODUCT_CATEGORY('Hinged Access Panel',
'Hinged Access Panel',(#1755));
#1752=APPLICATION_PROTOCOL_DEFINITION('international standard',
'automotive_design',2009,#1753);
#1753=APPLICATION_CONTEXT(
'Core Data for Automotive Mechanical Design Process');
#1754=PRODUCT_CONTEXT('part definition',#1753,'mechanical');
#1755=PRODUCT('Hinged Access Panel','Hinged Access Panel',$,(#1754));
#1756=PRESENTATION_STYLE_ASSIGNMENT((#1758));
#1757=PRESENTATION_STYLE_ASSIGNMENT((#1759));
#1758=SURFACE_STYLE_USAGE(.BOTH.,#1760);
#1759=SURFACE_STYLE_USAGE(.BOTH.,#1761);
#1760=SURFACE_SIDE_STYLE('',(#1762));
#1761=SURFACE_SIDE_STYLE('',(#1763));
#1762=SURFACE_STYLE_FILL_AREA(#1764);
#1763=SURFACE_STYLE_FILL_AREA(#1765);
#1764=FILL_AREA_STYLE('Stahl - satiniert',(#1766));
#1765=FILL_AREA_STYLE('ABS (Wei\X\DF)',(#1767));
#1766=FILL_AREA_STYLE_COLOUR('Stahl - satiniert',#1768);
#1767=FILL_AREA_STYLE_COLOUR('ABS (Wei\X\DF)',#1769);
#1768=COLOUR_RGB('Stahl - satiniert',0.627450980392157,0.627450980392157,
0.627450980392157);
#1769=COLOUR_RGB('ABS (Wei\X\DF)',0.137254901960784,0.137254901960784,0.137254901960784);
ENDSEC;
END-ISO-10303-21;
