ISO-10303-21;
HEADER;
/* Generated by software containing ST-Developer
 * from STEP Tools, Inc. (www.steptools.com) 
 */

FILE_DESCRIPTION(
/* description */ (''),
/* implementation_level */ '2;1');

FILE_NAME(
/* name */ 'Sliding_Panel_Back.step',
/* time_stamp */ '2026-09-29T23:14:57+02:00',
/* author */ (''),
/* organization */ (''),
/* preprocessor_version */ 'ST-DEVELOPER v20.2',
/* originating_system */ 'Autodesk Translation Framework v15.15.0.0',
/* authorisation */ '');

FILE_SCHEMA (('AUTOMOTIVE_DESIGN { 1 0 10303 214 3 1 1 }'));
ENDSEC;

DATA;
#10=MECHANICAL_DESIGN_GEOMETRIC_PRESENTATION_REPRESENTATION('',(#13),#518);
#11=SHAPE_REPRESENTATION_RELATIONSHIP('SRR','None',#525,#12);
#12=ADVANCED_BREP_SHAPE_REPRESENTATION('',(#14),#517);
#13=STYLED_ITEM('',(#535),#14);
#14=MANIFOLD_SOLID_BREP('Sliding Panel Back',#312);
#15=CYLINDRICAL_SURFACE('',#346,25.0199923792205);
#16=FACE_OUTER_BOUND('',#32,.T.);
#17=FACE_OUTER_BOUND('',#33,.T.);
#18=FACE_OUTER_BOUND('',#34,.T.);
#19=FACE_OUTER_BOUND('',#35,.T.);
#20=FACE_OUTER_BOUND('',#36,.T.);
#21=FACE_OUTER_BOUND('',#37,.T.);
#22=FACE_OUTER_BOUND('',#38,.T.);
#23=FACE_OUTER_BOUND('',#39,.T.);
#24=FACE_OUTER_BOUND('',#40,.T.);
#25=FACE_OUTER_BOUND('',#41,.T.);
#26=FACE_OUTER_BOUND('',#42,.T.);
#27=FACE_OUTER_BOUND('',#43,.T.);
#28=FACE_OUTER_BOUND('',#44,.T.);
#29=FACE_OUTER_BOUND('',#45,.T.);
#30=FACE_OUTER_BOUND('',#46,.T.);
#31=FACE_OUTER_BOUND('',#47,.T.);
#32=EDGE_LOOP('',(#197,#198,#199,#200,#201));
#33=EDGE_LOOP('',(#202,#203,#204,#205));
#34=EDGE_LOOP('',(#206,#207,#208,#209));
#35=EDGE_LOOP('',(#210,#211,#212,#213));
#36=EDGE_LOOP('',(#214,#215,#216,#217));
#37=EDGE_LOOP('',(#218,#219,#220,#221));
#38=EDGE_LOOP('',(#222,#223,#224,#225));
#39=EDGE_LOOP('',(#226,#227,#228,#229));
#40=EDGE_LOOP('',(#230,#231,#232,#233));
#41=EDGE_LOOP('',(#234,#235,#236,#237));
#42=EDGE_LOOP('',(#238,#239,#240,#241));
#43=EDGE_LOOP('',(#242,#243,#244,#245));
#44=EDGE_LOOP('',(#246,#247,#248,#249,#250));
#45=EDGE_LOOP('',(#251,#252,#253,#254,#255,#256,#257,#258,#259,#260,#261,
#262,#263));
#46=EDGE_LOOP('',(#264,#265,#266,#267,#268,#269,#270,#271));
#47=EDGE_LOOP('',(#272,#273,#274,#275,#276,#277,#278,#279,#280));
#48=LINE('',#434,#85);
#49=LINE('',#436,#86);
#50=LINE('',#438,#87);
#51=LINE('',#439,#88);
#52=LINE('',#442,#89);
#53=LINE('',#444,#90);
#54=LINE('',#445,#91);
#55=LINE('',#450,#92);
#56=LINE('',#451,#93);
#57=LINE('',#454,#94);
#58=LINE('',#456,#95);
#59=LINE('',#457,#96);
#60=LINE('',#461,#97);
#61=LINE('',#463,#98);
#62=LINE('',#465,#99);
#63=LINE('',#466,#100);
#64=LINE('',#471,#101);
#65=LINE('',#472,#102);
#66=LINE('',#475,#103);
#67=LINE('',#478,#104);
#68=LINE('',#480,#105);
#69=LINE('',#481,#106);
#70=LINE('',#484,#107);
#71=LINE('',#486,#108);
#72=LINE('',#487,#109);
#73=LINE('',#490,#110);
#74=LINE('',#492,#111);
#75=LINE('',#493,#112);
#76=LINE('',#496,#113);
#77=LINE('',#498,#114);
#78=LINE('',#499,#115);
#79=LINE('',#502,#116);
#80=LINE('',#504,#117);
#81=LINE('',#505,#118);
#82=LINE('',#509,#119);
#83=LINE('',#510,#120);
#84=LINE('',#513,#121);
#85=VECTOR('',#353,10.);
#86=VECTOR('',#354,10.);
#87=VECTOR('',#355,10.);
#88=VECTOR('',#356,10.);
#89=VECTOR('',#359,10.);
#90=VECTOR('',#360,10.);
#91=VECTOR('',#361,10.);
#92=VECTOR('',#366,10.);
#93=VECTOR('',#367,10.);
#94=VECTOR('',#370,10.);
#95=VECTOR('',#371,10.);
#96=VECTOR('',#372,10.);
#97=VECTOR('',#375,10.);
#98=VECTOR('',#376,10.);
#99=VECTOR('',#377,10.);
#100=VECTOR('',#378,10.);
#101=VECTOR('',#383,10.);
#102=VECTOR('',#384,10.);
#103=VECTOR('',#389,10.);
#104=VECTOR('',#392,10.);
#105=VECTOR('',#393,10.);
#106=VECTOR('',#394,10.);
#107=VECTOR('',#397,10.);
#108=VECTOR('',#398,10.);
#109=VECTOR('',#399,10.);
#110=VECTOR('',#402,10.);
#111=VECTOR('',#403,10.);
#112=VECTOR('',#404,10.);
#113=VECTOR('',#407,10.);
#114=VECTOR('',#408,10.);
#115=VECTOR('',#409,10.);
#116=VECTOR('',#412,10.);
#117=VECTOR('',#413,10.);
#118=VECTOR('',#414,10.);
#119=VECTOR('',#419,10.);
#120=VECTOR('',#420,10.);
#121=VECTOR('',#425,10.);
#122=CIRCLE('',#327,25.0199923792205);
#123=CIRCLE('',#330,25.0199923792205);
#124=CIRCLE('',#334,25.0199923792205);
#125=CIRCLE('',#336,25.0199923792205);
#126=CIRCLE('',#343,25.0199923792205);
#127=VERTEX_POINT('',#430);
#128=VERTEX_POINT('',#431);
#129=VERTEX_POINT('',#433);
#130=VERTEX_POINT('',#435);
#131=VERTEX_POINT('',#437);
#132=VERTEX_POINT('',#441);
#133=VERTEX_POINT('',#443);
#134=VERTEX_POINT('',#447);
#135=VERTEX_POINT('',#449);
#136=VERTEX_POINT('',#453);
#137=VERTEX_POINT('',#455);
#138=VERTEX_POINT('',#459);
#139=VERTEX_POINT('',#460);
#140=VERTEX_POINT('',#462);
#141=VERTEX_POINT('',#464);
#142=VERTEX_POINT('',#468);
#143=VERTEX_POINT('',#470);
#144=VERTEX_POINT('',#477);
#145=VERTEX_POINT('',#479);
#146=VERTEX_POINT('',#483);
#147=VERTEX_POINT('',#485);
#148=VERTEX_POINT('',#489);
#149=VERTEX_POINT('',#491);
#150=VERTEX_POINT('',#495);
#151=VERTEX_POINT('',#497);
#152=VERTEX_POINT('',#501);
#153=VERTEX_POINT('',#503);
#154=VERTEX_POINT('',#507);
#155=EDGE_CURVE('',#127,#128,#122,.T.);
#156=EDGE_CURVE('',#128,#129,#48,.T.);
#157=EDGE_CURVE('',#130,#129,#49,.T.);
#158=EDGE_CURVE('',#131,#130,#50,.T.);
#159=EDGE_CURVE('',#131,#127,#51,.T.);
#160=EDGE_CURVE('',#128,#132,#52,.T.);
#161=EDGE_CURVE('',#132,#133,#53,.T.);
#162=EDGE_CURVE('',#129,#133,#54,.T.);
#163=EDGE_CURVE('',#132,#134,#123,.T.);
#164=EDGE_CURVE('',#134,#135,#55,.T.);
#165=EDGE_CURVE('',#133,#135,#56,.T.);
#166=EDGE_CURVE('',#134,#136,#57,.T.);
#167=EDGE_CURVE('',#136,#137,#58,.T.);
#168=EDGE_CURVE('',#135,#137,#59,.T.);
#169=EDGE_CURVE('',#138,#139,#60,.T.);
#170=EDGE_CURVE('',#139,#140,#61,.T.);
#171=EDGE_CURVE('',#141,#140,#62,.T.);
#172=EDGE_CURVE('',#138,#141,#63,.T.);
#173=EDGE_CURVE('',#142,#138,#124,.T.);
#174=EDGE_CURVE('',#143,#141,#64,.T.);
#175=EDGE_CURVE('',#142,#143,#65,.T.);
#176=EDGE_CURVE('',#136,#142,#125,.T.);
#177=EDGE_CURVE('',#137,#143,#66,.T.);
#178=EDGE_CURVE('',#144,#131,#67,.T.);
#179=EDGE_CURVE('',#145,#130,#68,.T.);
#180=EDGE_CURVE('',#144,#145,#69,.T.);
#181=EDGE_CURVE('',#146,#144,#70,.T.);
#182=EDGE_CURVE('',#147,#145,#71,.T.);
#183=EDGE_CURVE('',#146,#147,#72,.T.);
#184=EDGE_CURVE('',#148,#146,#73,.T.);
#185=EDGE_CURVE('',#149,#147,#74,.T.);
#186=EDGE_CURVE('',#148,#149,#75,.T.);
#187=EDGE_CURVE('',#150,#148,#76,.T.);
#188=EDGE_CURVE('',#151,#149,#77,.T.);
#189=EDGE_CURVE('',#150,#151,#78,.T.);
#190=EDGE_CURVE('',#152,#150,#79,.T.);
#191=EDGE_CURVE('',#153,#151,#80,.T.);
#192=EDGE_CURVE('',#152,#153,#81,.T.);
#193=EDGE_CURVE('',#139,#154,#126,.T.);
#194=EDGE_CURVE('',#154,#152,#82,.T.);
#195=EDGE_CURVE('',#140,#153,#83,.T.);
#196=EDGE_CURVE('',#127,#154,#84,.T.);
#197=ORIENTED_EDGE('',*,*,#155,.T.);
#198=ORIENTED_EDGE('',*,*,#156,.T.);
#199=ORIENTED_EDGE('',*,*,#157,.F.);
#200=ORIENTED_EDGE('',*,*,#158,.F.);
#201=ORIENTED_EDGE('',*,*,#159,.T.);
#202=ORIENTED_EDGE('',*,*,#160,.T.);
#203=ORIENTED_EDGE('',*,*,#161,.T.);
#204=ORIENTED_EDGE('',*,*,#162,.F.);
#205=ORIENTED_EDGE('',*,*,#156,.F.);
#206=ORIENTED_EDGE('',*,*,#163,.T.);
#207=ORIENTED_EDGE('',*,*,#164,.T.);
#208=ORIENTED_EDGE('',*,*,#165,.F.);
#209=ORIENTED_EDGE('',*,*,#161,.F.);
#210=ORIENTED_EDGE('',*,*,#166,.T.);
#211=ORIENTED_EDGE('',*,*,#167,.T.);
#212=ORIENTED_EDGE('',*,*,#168,.F.);
#213=ORIENTED_EDGE('',*,*,#164,.F.);
#214=ORIENTED_EDGE('',*,*,#169,.T.);
#215=ORIENTED_EDGE('',*,*,#170,.T.);
#216=ORIENTED_EDGE('',*,*,#171,.F.);
#217=ORIENTED_EDGE('',*,*,#172,.F.);
#218=ORIENTED_EDGE('',*,*,#173,.T.);
#219=ORIENTED_EDGE('',*,*,#172,.T.);
#220=ORIENTED_EDGE('',*,*,#174,.F.);
#221=ORIENTED_EDGE('',*,*,#175,.F.);
#222=ORIENTED_EDGE('',*,*,#176,.T.);
#223=ORIENTED_EDGE('',*,*,#175,.T.);
#224=ORIENTED_EDGE('',*,*,#177,.F.);
#225=ORIENTED_EDGE('',*,*,#167,.F.);
#226=ORIENTED_EDGE('',*,*,#178,.T.);
#227=ORIENTED_EDGE('',*,*,#158,.T.);
#228=ORIENTED_EDGE('',*,*,#179,.F.);
#229=ORIENTED_EDGE('',*,*,#180,.F.);
#230=ORIENTED_EDGE('',*,*,#181,.T.);
#231=ORIENTED_EDGE('',*,*,#180,.T.);
#232=ORIENTED_EDGE('',*,*,#182,.F.);
#233=ORIENTED_EDGE('',*,*,#183,.F.);
#234=ORIENTED_EDGE('',*,*,#184,.T.);
#235=ORIENTED_EDGE('',*,*,#183,.T.);
#236=ORIENTED_EDGE('',*,*,#185,.F.);
#237=ORIENTED_EDGE('',*,*,#186,.F.);
#238=ORIENTED_EDGE('',*,*,#187,.T.);
#239=ORIENTED_EDGE('',*,*,#186,.T.);
#240=ORIENTED_EDGE('',*,*,#188,.F.);
#241=ORIENTED_EDGE('',*,*,#189,.F.);
#242=ORIENTED_EDGE('',*,*,#190,.T.);
#243=ORIENTED_EDGE('',*,*,#189,.T.);
#244=ORIENTED_EDGE('',*,*,#191,.F.);
#245=ORIENTED_EDGE('',*,*,#192,.F.);
#246=ORIENTED_EDGE('',*,*,#193,.T.);
#247=ORIENTED_EDGE('',*,*,#194,.T.);
#248=ORIENTED_EDGE('',*,*,#192,.T.);
#249=ORIENTED_EDGE('',*,*,#195,.F.);
#250=ORIENTED_EDGE('',*,*,#170,.F.);
#251=ORIENTED_EDGE('',*,*,#174,.T.);
#252=ORIENTED_EDGE('',*,*,#171,.T.);
#253=ORIENTED_EDGE('',*,*,#195,.T.);
#254=ORIENTED_EDGE('',*,*,#191,.T.);
#255=ORIENTED_EDGE('',*,*,#188,.T.);
#256=ORIENTED_EDGE('',*,*,#185,.T.);
#257=ORIENTED_EDGE('',*,*,#182,.T.);
#258=ORIENTED_EDGE('',*,*,#179,.T.);
#259=ORIENTED_EDGE('',*,*,#157,.T.);
#260=ORIENTED_EDGE('',*,*,#162,.T.);
#261=ORIENTED_EDGE('',*,*,#165,.T.);
#262=ORIENTED_EDGE('',*,*,#168,.T.);
#263=ORIENTED_EDGE('',*,*,#177,.T.);
#264=ORIENTED_EDGE('',*,*,#194,.F.);
#265=ORIENTED_EDGE('',*,*,#196,.F.);
#266=ORIENTED_EDGE('',*,*,#159,.F.);
#267=ORIENTED_EDGE('',*,*,#178,.F.);
#268=ORIENTED_EDGE('',*,*,#181,.F.);
#269=ORIENTED_EDGE('',*,*,#184,.F.);
#270=ORIENTED_EDGE('',*,*,#187,.F.);
#271=ORIENTED_EDGE('',*,*,#190,.F.);
#272=ORIENTED_EDGE('',*,*,#155,.F.);
#273=ORIENTED_EDGE('',*,*,#196,.T.);
#274=ORIENTED_EDGE('',*,*,#193,.F.);
#275=ORIENTED_EDGE('',*,*,#169,.F.);
#276=ORIENTED_EDGE('',*,*,#173,.F.);
#277=ORIENTED_EDGE('',*,*,#176,.F.);
#278=ORIENTED_EDGE('',*,*,#166,.F.);
#279=ORIENTED_EDGE('',*,*,#163,.F.);
#280=ORIENTED_EDGE('',*,*,#160,.F.);
#281=PLANE('',#326);
#282=PLANE('',#328);
#283=PLANE('',#329);
#284=PLANE('',#331);
#285=PLANE('',#332);
#286=PLANE('',#333);
#287=PLANE('',#335);
#288=PLANE('',#337);
#289=PLANE('',#338);
#290=PLANE('',#339);
#291=PLANE('',#340);
#292=PLANE('',#341);
#293=PLANE('',#342);
#294=PLANE('',#344);
#295=PLANE('',#345);
#296=ADVANCED_FACE('',(#16),#281,.T.);
#297=ADVANCED_FACE('',(#17),#282,.T.);
#298=ADVANCED_FACE('',(#18),#283,.T.);
#299=ADVANCED_FACE('',(#19),#284,.T.);
#300=ADVANCED_FACE('',(#20),#285,.T.);
#301=ADVANCED_FACE('',(#21),#286,.T.);
#302=ADVANCED_FACE('',(#22),#287,.T.);
#303=ADVANCED_FACE('',(#23),#288,.T.);
#304=ADVANCED_FACE('',(#24),#289,.T.);
#305=ADVANCED_FACE('',(#25),#290,.T.);
#306=ADVANCED_FACE('',(#26),#291,.T.);
#307=ADVANCED_FACE('',(#27),#292,.T.);
#308=ADVANCED_FACE('',(#28),#293,.T.);
#309=ADVANCED_FACE('',(#29),#294,.T.);
#310=ADVANCED_FACE('',(#30),#295,.T.);
#311=ADVANCED_FACE('',(#31),#15,.T.);
#312=CLOSED_SHELL('',(#296,#297,#298,#299,#300,#301,#302,#303,#304,#305,
#306,#307,#308,#309,#310,#311));
#313=DERIVED_UNIT_ELEMENT(#315,1.);
#314=DERIVED_UNIT_ELEMENT(#520,-3.);
#315=(
MASS_UNIT()
NAMED_UNIT(*)
SI_UNIT(.KILO.,.GRAM.)
);
#316=DERIVED_UNIT((#313,#314));
#317=MEASURE_REPRESENTATION_ITEM('density measure',
POSITIVE_RATIO_MEASURE(7850.),#316);
#318=PROPERTY_DEFINITION_REPRESENTATION(#323,#320);
#319=PROPERTY_DEFINITION_REPRESENTATION(#324,#321);
#320=REPRESENTATION('material name',(#322),#517);
#321=REPRESENTATION('density',(#317),#517);
#322=DESCRIPTIVE_REPRESENTATION_ITEM('Stahl','Stahl');
#323=PROPERTY_DEFINITION('material property','material name',#527);
#324=PROPERTY_DEFINITION('material property','density of part',#527);
#325=AXIS2_PLACEMENT_3D('',#428,#347,#348);
#326=AXIS2_PLACEMENT_3D('',#429,#349,#350);
#327=AXIS2_PLACEMENT_3D('',#432,#351,#352);
#328=AXIS2_PLACEMENT_3D('',#440,#357,#358);
#329=AXIS2_PLACEMENT_3D('',#446,#362,#363);
#330=AXIS2_PLACEMENT_3D('',#448,#364,#365);
#331=AXIS2_PLACEMENT_3D('',#452,#368,#369);
#332=AXIS2_PLACEMENT_3D('',#458,#373,#374);
#333=AXIS2_PLACEMENT_3D('',#467,#379,#380);
#334=AXIS2_PLACEMENT_3D('',#469,#381,#382);
#335=AXIS2_PLACEMENT_3D('',#473,#385,#386);
#336=AXIS2_PLACEMENT_3D('',#474,#387,#388);
#337=AXIS2_PLACEMENT_3D('',#476,#390,#391);
#338=AXIS2_PLACEMENT_3D('',#482,#395,#396);
#339=AXIS2_PLACEMENT_3D('',#488,#400,#401);
#340=AXIS2_PLACEMENT_3D('',#494,#405,#406);
#341=AXIS2_PLACEMENT_3D('',#500,#410,#411);
#342=AXIS2_PLACEMENT_3D('',#506,#415,#416);
#343=AXIS2_PLACEMENT_3D('',#508,#417,#418);
#344=AXIS2_PLACEMENT_3D('',#511,#421,#422);
#345=AXIS2_PLACEMENT_3D('',#512,#423,#424);
#346=AXIS2_PLACEMENT_3D('',#514,#426,#427);
#347=DIRECTION('axis',(0.,0.,1.));
#348=DIRECTION('refdir',(1.,0.,0.));
#349=DIRECTION('center_axis',(1.,0.,0.));
#350=DIRECTION('ref_axis',(0.,1.22464679914735E-16,-1.));
#351=DIRECTION('center_axis',(1.,0.,0.));
#352=DIRECTION('ref_axis',(0.,-1.,-1.22464679914735E-16));
#353=DIRECTION('',(0.,1.,0.));
#354=DIRECTION('',(0.,1.22464679914735E-16,-1.));
#355=DIRECTION('',(0.,1.,0.));
#356=DIRECTION('',(0.,1.22464679914735E-16,-1.));
#357=DIRECTION('center_axis',(0.,0.,-1.));
#358=DIRECTION('ref_axis',(-1.,0.,0.));
#359=DIRECTION('',(-1.,0.,0.));
#360=DIRECTION('',(0.,1.,0.));
#361=DIRECTION('',(-1.,0.,0.));
#362=DIRECTION('center_axis',(1.,0.,0.));
#363=DIRECTION('ref_axis',(0.,1.22464679914735E-16,-1.));
#364=DIRECTION('center_axis',(1.,0.,0.));
#365=DIRECTION('ref_axis',(0.,-1.,-1.22464679914735E-16));
#366=DIRECTION('',(0.,1.,0.));
#367=DIRECTION('',(0.,1.22464679914735E-16,-1.));
#368=DIRECTION('center_axis',(0.,0.,-1.));
#369=DIRECTION('ref_axis',(-1.,0.,0.));
#370=DIRECTION('',(-1.,0.,0.));
#371=DIRECTION('',(0.,1.,0.));
#372=DIRECTION('',(-1.,0.,0.));
#373=DIRECTION('center_axis',(0.,0.,-1.));
#374=DIRECTION('ref_axis',(-1.,0.,0.));
#375=DIRECTION('',(-1.,0.,0.));
#376=DIRECTION('',(0.,1.,0.));
#377=DIRECTION('',(-1.,0.,0.));
#378=DIRECTION('',(0.,1.,0.));
#379=DIRECTION('center_axis',(-1.,0.,0.));
#380=DIRECTION('ref_axis',(0.,-1.22464679914735E-16,1.));
#381=DIRECTION('center_axis',(-1.,0.,0.));
#382=DIRECTION('ref_axis',(0.,-1.,-1.22464679914735E-16));
#383=DIRECTION('',(0.,-1.22464679914735E-16,1.));
#384=DIRECTION('',(0.,1.,0.));
#385=DIRECTION('center_axis',(-1.,0.,0.));
#386=DIRECTION('ref_axis',(0.,-1.22464679914735E-16,1.));
#387=DIRECTION('center_axis',(-1.,0.,0.));
#388=DIRECTION('ref_axis',(0.,-1.,-1.22464679914735E-16));
#389=DIRECTION('',(0.,-1.22464679914735E-16,1.));
#390=DIRECTION('center_axis',(0.,0.,1.));
#391=DIRECTION('ref_axis',(1.,0.,0.));
#392=DIRECTION('',(1.,0.,0.));
#393=DIRECTION('',(1.,0.,0.));
#394=DIRECTION('',(0.,1.,0.));
#395=DIRECTION('center_axis',(1.,0.,0.));
#396=DIRECTION('ref_axis',(0.,1.22464679914735E-16,-1.));
#397=DIRECTION('',(0.,1.22464679914735E-16,-1.));
#398=DIRECTION('',(0.,1.22464679914735E-16,-1.));
#399=DIRECTION('',(0.,1.,0.));
#400=DIRECTION('center_axis',(0.,0.,1.));
#401=DIRECTION('ref_axis',(1.,0.,0.));
#402=DIRECTION('',(1.,0.,0.));
#403=DIRECTION('',(1.,0.,0.));
#404=DIRECTION('',(0.,1.,0.));
#405=DIRECTION('center_axis',(-1.,0.,0.));
#406=DIRECTION('ref_axis',(0.,-1.22464679914735E-16,1.));
#407=DIRECTION('',(0.,-1.22464679914735E-16,1.));
#408=DIRECTION('',(0.,-1.22464679914735E-16,1.));
#409=DIRECTION('',(0.,1.,0.));
#410=DIRECTION('center_axis',(0.,0.,1.));
#411=DIRECTION('ref_axis',(1.,0.,0.));
#412=DIRECTION('',(1.,0.,0.));
#413=DIRECTION('',(1.,0.,0.));
#414=DIRECTION('',(0.,1.,0.));
#415=DIRECTION('center_axis',(-1.,0.,0.));
#416=DIRECTION('ref_axis',(0.,-1.22464679914735E-16,1.));
#417=DIRECTION('center_axis',(-1.,0.,0.));
#418=DIRECTION('ref_axis',(0.,-1.,-1.22464679914735E-16));
#419=DIRECTION('',(0.,-1.22464679914735E-16,1.));
#420=DIRECTION('',(0.,-1.22464679914735E-16,1.));
#421=DIRECTION('center_axis',(0.,1.,0.));
#422=DIRECTION('ref_axis',(0.,0.,1.));
#423=DIRECTION('center_axis',(0.,-1.,-1.22464679914735E-16));
#424=DIRECTION('ref_axis',(0.,1.22464679914735E-16,-1.));
#425=DIRECTION('',(-1.,0.,0.));
#426=DIRECTION('center_axis',(1.,0.,0.));
#427=DIRECTION('ref_axis',(0.,-1.,-1.22464679914735E-16));
#428=CARTESIAN_POINT('',(0.,0.,0.));
#429=CARTESIAN_POINT('Origin',(-130.599997080863,-80.,-125.099997203797));
#430=CARTESIAN_POINT('',(-130.599997080863,-80.0000011920931,-156.000029626144));
#431=CARTESIAN_POINT('',(-130.599997080863,-71.3948562592354,-173.899996113032));
#432=CARTESIAN_POINT('Origin',(-130.599997080863,-55.0000008195639,-155.000029611249));
#433=CARTESIAN_POINT('',(-130.599997080863,35.,-173.899996113032));
#434=CARTESIAN_POINT('',(-130.599997080863,-80.,-173.899996113032));
#435=CARTESIAN_POINT('',(-130.599997080863,35.,-125.099997203797));
#436=CARTESIAN_POINT('',(-130.599997080863,35.,-161.699996385723));
#437=CARTESIAN_POINT('',(-130.599997080863,-80.,-125.099997203797));
#438=CARTESIAN_POINT('',(-130.599997080863,-80.,-125.099997203797));
#439=CARTESIAN_POINT('',(-130.599997080863,-80.,-161.699996385723));
#440=CARTESIAN_POINT('Origin',(-130.599997080863,-80.,-173.899996113032));
#441=CARTESIAN_POINT('',(-133.099997024983,-71.3948562592354,-173.899996113032));
#442=CARTESIAN_POINT('',(-130.499999999999,-71.3948562592354,-173.899996113032));
#443=CARTESIAN_POINT('',(-133.099997024983,35.,-173.899996113032));
#444=CARTESIAN_POINT('',(-133.099997024983,-80.,-173.899996113032));
#445=CARTESIAN_POINT('',(-133.799997009337,35.,-173.899996113032));
#446=CARTESIAN_POINT('Origin',(-133.099997024983,-80.,-173.899996113032));
#447=CARTESIAN_POINT('',(-133.099997024983,-65.0792645311796,-177.899996023625));
#448=CARTESIAN_POINT('Origin',(-133.099997024983,-55.0000008195639,-155.000029611249));
#449=CARTESIAN_POINT('',(-133.099997024983,35.,-177.899996023625));
#450=CARTESIAN_POINT('',(-133.099997024983,-80.,-177.899996023625));
#451=CARTESIAN_POINT('',(-133.099997024983,35.,-163.69999634102));
#452=CARTESIAN_POINT('Origin',(-133.099997024983,-80.,-177.899996023625));
#453=CARTESIAN_POINT('',(-135.899996962398,-65.0792645311796,-177.899996023625));
#454=CARTESIAN_POINT('',(-130.499999999999,-65.0792645311796,-177.899996023625));
#455=CARTESIAN_POINT('',(-135.899996962398,35.,-177.899996023625));
#456=CARTESIAN_POINT('',(-135.899996962398,-80.,-177.899996023625));
#457=CARTESIAN_POINT('',(-135.199996978045,35.,-177.899996023625));
#458=CARTESIAN_POINT('Origin',(-135.900659912665,-80.,-173.899996113032));
#459=CARTESIAN_POINT('',(-135.900659912665,-71.3948562592354,-173.899996113032));
#460=CARTESIAN_POINT('',(-138.399996906519,-71.3948562592354,-173.899996113032));
#461=CARTESIAN_POINT('',(-130.499999999999,-71.3948562592354,-173.899996113032));
#462=CARTESIAN_POINT('',(-138.399996906519,35.,-173.899996113032));
#463=CARTESIAN_POINT('',(-138.399996906519,-80.,-173.899996113032));
#464=CARTESIAN_POINT('',(-135.900659912665,35.,-173.899996113032));
#465=CARTESIAN_POINT('',(-136.449996950105,35.,-173.899996113032));
#466=CARTESIAN_POINT('',(-135.900659912665,-80.,-173.899996113032));
#467=CARTESIAN_POINT('Origin',(-135.900659912665,-80.,-174.000002592802));
#468=CARTESIAN_POINT('',(-135.899996962398,-71.2788535235017,-174.000002592802));
#469=CARTESIAN_POINT('Origin',(-135.900659912665,-55.0000008195639,-155.000029611249));
#470=CARTESIAN_POINT('',(-135.900328437532,35.,-174.000002592802));
#471=CARTESIAN_POINT('',(-135.900659912665,35.,-161.699996385723));
#472=CARTESIAN_POINT('',(-135.899996962398,-80.,-174.000002592802));
#473=CARTESIAN_POINT('Origin',(-135.899996962398,-80.,-177.899996023625));
#474=CARTESIAN_POINT('Origin',(-135.899996962398,-55.0000008195639,-155.000029611249));
#475=CARTESIAN_POINT('',(-135.899996962398,35.,-161.749999625608));
#476=CARTESIAN_POINT('Origin',(-133.099997024983,-80.,-125.099997203797));
#477=CARTESIAN_POINT('',(-133.099997024983,-80.,-125.099997203797));
#478=CARTESIAN_POINT('',(-132.549997037277,-80.,-125.099997203797));
#479=CARTESIAN_POINT('',(-133.099997024983,35.,-125.099997203797));
#480=CARTESIAN_POINT('',(-132.549997037277,35.,-125.099997203797));
#481=CARTESIAN_POINT('',(-133.099997024983,-80.,-125.099997203797));
#482=CARTESIAN_POINT('Origin',(-133.099997024983,-80.,-121.099997293204));
#483=CARTESIAN_POINT('',(-133.099997024983,-80.,-121.099997293204));
#484=CARTESIAN_POINT('',(-133.099997024983,-80.,-137.299996931106));
#485=CARTESIAN_POINT('',(-133.099997024983,35.,-121.099997293204));
#486=CARTESIAN_POINT('',(-133.099997024983,35.,-137.299996931106));
#487=CARTESIAN_POINT('',(-133.099997024983,-80.,-121.099997293204));
#488=CARTESIAN_POINT('Origin',(-135.899996962398,-80.,-121.099997293204));
#489=CARTESIAN_POINT('',(-135.899996962398,-80.,-121.099997293204));
#490=CARTESIAN_POINT('',(-133.799997009337,-80.,-121.099997293204));
#491=CARTESIAN_POINT('',(-135.899996962398,35.,-121.099997293204));
#492=CARTESIAN_POINT('',(-133.799997009337,35.,-121.099997293204));
#493=CARTESIAN_POINT('',(-135.899996962398,-80.,-121.099997293204));
#494=CARTESIAN_POINT('Origin',(-135.899996962398,-80.,-125.099997203797));
#495=CARTESIAN_POINT('',(-135.899996962398,-80.,-125.099997203797));
#496=CARTESIAN_POINT('',(-135.899996962398,-80.,-135.299996975809));
#497=CARTESIAN_POINT('',(-135.899996962398,35.,-125.099997203797));
#498=CARTESIAN_POINT('',(-135.899996962398,35.,-135.299996975809));
#499=CARTESIAN_POINT('',(-135.899996962398,-80.,-125.099997203797));
#500=CARTESIAN_POINT('Origin',(-138.399996906519,-80.,-125.099997203797));
#501=CARTESIAN_POINT('',(-138.399996906519,-80.,-125.099997203797));
#502=CARTESIAN_POINT('',(-135.199996978045,-80.,-125.099997203797));
#503=CARTESIAN_POINT('',(-138.399996906519,35.,-125.099997203797));
#504=CARTESIAN_POINT('',(-135.199996978045,35.,-125.099997203797));
#505=CARTESIAN_POINT('',(-138.399996906519,-80.,-125.099997203797));
#506=CARTESIAN_POINT('Origin',(-138.399996906519,-80.,-173.899996113032));
#507=CARTESIAN_POINT('',(-138.399996906519,-80.0000011920931,-156.000029626144));
#508=CARTESIAN_POINT('Origin',(-138.399996906519,-55.0000008195639,-155.000029611249));
#509=CARTESIAN_POINT('',(-138.399996906519,-80.,-137.299996931106));
#510=CARTESIAN_POINT('',(-138.399996906519,35.,-137.299996931106));
#511=CARTESIAN_POINT('Origin',(-134.499996993691,35.,-149.499996658415));
#512=CARTESIAN_POINT('Origin',(-134.499996993691,-80.,-149.499996658415));
#513=CARTESIAN_POINT('',(-130.499999999999,-80.0000011920931,-156.000029626144));
#514=CARTESIAN_POINT('Origin',(-130.499999999999,-55.0000008195639,-155.000029611249));
#515=UNCERTAINTY_MEASURE_WITH_UNIT(LENGTH_MEASURE(0.01),#519,
'DISTANCE_ACCURACY_VALUE',
'Maximum model space distance between geometric entities at asserted c
onnectivities');
#516=UNCERTAINTY_MEASURE_WITH_UNIT(LENGTH_MEASURE(0.01),#519,
'DISTANCE_ACCURACY_VALUE',
'Maximum model space distance between geometric entities at asserted c
onnectivities');
#517=(
GEOMETRIC_REPRESENTATION_CONTEXT(3)
GLOBAL_UNCERTAINTY_ASSIGNED_CONTEXT((#515))
GLOBAL_UNIT_ASSIGNED_CONTEXT((#519,#521,#522))
REPRESENTATION_CONTEXT('','3D')
);
#518=(
GEOMETRIC_REPRESENTATION_CONTEXT(3)
GLOBAL_UNCERTAINTY_ASSIGNED_CONTEXT((#516))
GLOBAL_UNIT_ASSIGNED_CONTEXT((#519,#521,#522))
REPRESENTATION_CONTEXT('','3D')
);
#519=(
LENGTH_UNIT()
NAMED_UNIT(*)
SI_UNIT(.MILLI.,.METRE.)
);
#520=(
LENGTH_UNIT()
NAMED_UNIT(*)
SI_UNIT($,.METRE.)
);
#521=(
NAMED_UNIT(*)
PLANE_ANGLE_UNIT()
SI_UNIT($,.RADIAN.)
);
#522=(
NAMED_UNIT(*)
SI_UNIT($,.STERADIAN.)
SOLID_ANGLE_UNIT()
);
#523=SHAPE_DEFINITION_REPRESENTATION(#524,#525);
#524=PRODUCT_DEFINITION_SHAPE('',$,#527);
#525=SHAPE_REPRESENTATION('',(#325),#517);
#526=PRODUCT_DEFINITION_CONTEXT('part definition',#531,'design');
#527=PRODUCT_DEFINITION('Sliding Panel Back','Sliding Panel Back',#528,
#526);
#528=PRODUCT_DEFINITION_FORMATION('',$,#533);
#529=PRODUCT_RELATED_PRODUCT_CATEGORY('Sliding Panel Back',
'Sliding Panel Back',(#533));
#530=APPLICATION_PROTOCOL_DEFINITION('international standard',
'automotive_design',2009,#531);
#531=APPLICATION_CONTEXT(
'Core Data for Automotive Mechanical Design Process');
#532=PRODUCT_CONTEXT('part definition',#531,'mechanical');
#533=PRODUCT('Sliding Panel Back','Sliding Panel Back',$,(#532));
#534=PRESENTATION_STYLE_ASSIGNMENT((#536));
#535=PRESENTATION_STYLE_ASSIGNMENT((#537));
#536=SURFACE_STYLE_USAGE(.BOTH.,#538);
#537=SURFACE_STYLE_USAGE(.BOTH.,#539);
#538=SURFACE_SIDE_STYLE('',(#540));
#539=SURFACE_SIDE_STYLE('',(#541));
#540=SURFACE_STYLE_FILL_AREA(#542);
#541=SURFACE_STYLE_FILL_AREA(#543);
#542=FILL_AREA_STYLE('Stahl - satiniert',(#544));
#543=FILL_AREA_STYLE('ABS (Wei\X\DF)',(#545));
#544=FILL_AREA_STYLE_COLOUR('Stahl - satiniert',#546);
#545=FILL_AREA_STYLE_COLOUR('ABS (Wei\X\DF)',#547);
#546=COLOUR_RGB('Stahl - satiniert',0.627450980392157,0.627450980392157,
0.627450980392157);
#547=COLOUR_RGB('ABS (Wei\X\DF)',0.137254901960784,0.137254901960784,0.137254901960784);
ENDSEC;
END-ISO-10303-21;
