ISO-10303-21;
HEADER;
/* Generated by software containing ST-Developer
 * from STEP Tools, Inc. (www.steptools.com) 
 */

FILE_DESCRIPTION(
/* description */ (''),
/* implementation_level */ '2;1');

FILE_NAME(
/* name */ 'Slide_in_Driver_Mount.step',
/* time_stamp */ '2026-09-29T23:14:57+02:00',
/* author */ (''),
/* organization */ (''),
/* preprocessor_version */ 'ST-DEVELOPER v20.2',
/* originating_system */ 'Autodesk Translation Framework v15.15.0.0',
/* authorisation */ '');

FILE_SCHEMA (('AUTOMOTIVE_DESIGN { 1 0 10303 214 3 1 1 }'));
ENDSEC;

DATA;
#10=MECHANICAL_DESIGN_GEOMETRIC_PRESENTATION_REPRESENTATION('',(#13),#803);
#11=SHAPE_REPRESENTATION_RELATIONSHIP('SRR','None',#810,#12);
#12=ADVANCED_BREP_SHAPE_REPRESENTATION('',(#14),#802);
#13=STYLED_ITEM('',(#820),#14);
#14=MANIFOLD_SOLID_BREP('Slide in Driver Mount',#483);
#15=CYLINDRICAL_SURFACE('',#502,22.0000026375055);
#16=CYLINDRICAL_SURFACE('',#513,1.89999995306134);
#17=CYLINDRICAL_SURFACE('',#527,17.0000003278255);
#18=CYLINDRICAL_SURFACE('',#528,25.);
#19=FACE_OUTER_BOUND('',#44,.T.);
#20=FACE_OUTER_BOUND('',#45,.T.);
#21=FACE_OUTER_BOUND('',#46,.T.);
#22=FACE_OUTER_BOUND('',#47,.T.);
#23=FACE_OUTER_BOUND('',#48,.T.);
#24=FACE_OUTER_BOUND('',#49,.T.);
#25=FACE_OUTER_BOUND('',#50,.T.);
#26=FACE_OUTER_BOUND('',#51,.T.);
#27=FACE_OUTER_BOUND('',#52,.T.);
#28=FACE_OUTER_BOUND('',#53,.T.);
#29=FACE_OUTER_BOUND('',#54,.T.);
#30=FACE_OUTER_BOUND('',#55,.T.);
#31=FACE_OUTER_BOUND('',#56,.T.);
#32=FACE_OUTER_BOUND('',#57,.T.);
#33=FACE_OUTER_BOUND('',#58,.T.);
#34=FACE_OUTER_BOUND('',#59,.T.);
#35=FACE_OUTER_BOUND('',#60,.T.);
#36=FACE_OUTER_BOUND('',#61,.T.);
#37=FACE_OUTER_BOUND('',#62,.T.);
#38=FACE_OUTER_BOUND('',#63,.T.);
#39=FACE_OUTER_BOUND('',#64,.T.);
#40=FACE_OUTER_BOUND('',#65,.T.);
#41=FACE_OUTER_BOUND('',#66,.T.);
#42=FACE_OUTER_BOUND('',#67,.T.);
#43=FACE_OUTER_BOUND('',#68,.T.);
#44=EDGE_LOOP('',(#303,#304,#305,#306,#307,#308,#309,#310));
#45=EDGE_LOOP('',(#311,#312,#313,#314,#315,#316,#317,#318));
#46=EDGE_LOOP('',(#319,#320,#321,#322));
#47=EDGE_LOOP('',(#323,#324,#325,#326));
#48=EDGE_LOOP('',(#327,#328,#329,#330));
#49=EDGE_LOOP('',(#331,#332,#333,#334,#335,#336,#337,#338,#339,#340,#341,
#342,#343));
#50=EDGE_LOOP('',(#344,#345,#346,#347,#348,#349));
#51=EDGE_LOOP('',(#350,#351,#352,#353));
#52=EDGE_LOOP('',(#354,#355,#356,#357));
#53=EDGE_LOOP('',(#358,#359,#360,#361));
#54=EDGE_LOOP('',(#362,#363,#364,#365,#366,#367));
#55=EDGE_LOOP('',(#368,#369,#370,#371));
#56=EDGE_LOOP('',(#372,#373,#374,#375,#376,#377));
#57=EDGE_LOOP('',(#378,#379,#380,#381,#382,#383));
#58=EDGE_LOOP('',(#384,#385,#386,#387,#388));
#59=EDGE_LOOP('',(#389,#390));
#60=EDGE_LOOP('',(#391,#392,#393,#394));
#61=EDGE_LOOP('',(#395,#396,#397,#398));
#62=EDGE_LOOP('',(#399,#400,#401,#402,#403,#404,#405,#406,#407,#408,#409,
#410));
#63=EDGE_LOOP('',(#411,#412,#413,#414));
#64=EDGE_LOOP('',(#415,#416,#417,#418,#419,#420));
#65=EDGE_LOOP('',(#421,#422,#423,#424));
#66=EDGE_LOOP('',(#425,#426,#427,#428));
#67=EDGE_LOOP('',(#429,#430,#431,#432));
#68=EDGE_LOOP('',(#433,#434,#435,#436));
#69=CIRCLE('',#498,22.0000026375055);
#70=CIRCLE('',#499,17.0000003278255);
#71=CIRCLE('',#500,25.);
#72=CIRCLE('',#503,22.0000026375055);
#73=CIRCLE('',#507,1.89999995306134);
#74=CIRCLE('',#508,25.);
#75=CIRCLE('',#514,1.89999995306134);
#76=CIRCLE('',#515,1.89999995306134);
#77=CIRCLE('',#516,1.89999995306134);
#78=CIRCLE('',#521,17.0000003278255);
#79=CIRCLE('',#526,25.);
#80=LINE('',#667,#136);
#81=LINE('',#669,#137);
#82=LINE('',#673,#138);
#83=LINE('',#677,#139);
#84=LINE('',#680,#140);
#85=LINE('',#683,#141);
#86=LINE('',#685,#142);
#87=LINE('',#687,#143);
#88=LINE('',#689,#144);
#89=LINE('',#691,#145);
#90=LINE('',#693,#146);
#91=LINE('',#694,#147);
#92=LINE('',#697,#148);
#93=LINE('',#701,#149);
#94=LINE('',#702,#150);
#95=LINE('',#705,#151);
#96=LINE('',#706,#152);
#97=LINE('',#710,#153);
#98=LINE('',#712,#154);
#99=LINE('',#716,#155);
#100=LINE('',#718,#156);
#101=LINE('',#720,#157);
#102=LINE('',#722,#158);
#103=LINE('',#724,#159);
#104=LINE('',#726,#160);
#105=LINE('',#728,#161);
#106=LINE('',#730,#162);
#107=LINE('',#732,#163);
#108=LINE('',#736,#164);
#109=LINE('',#737,#165);
#110=LINE('',#739,#166);
#111=LINE('',#740,#167);
#112=LINE('',#743,#168);
#113=LINE('',#744,#169);
#114=LINE('',#747,#170);
#115=LINE('',#748,#171);
#116=LINE('',#751,#172);
#117=LINE('',#752,#173);
#118=LINE('',#755,#174);
#119=LINE('',#761,#175);
#120=LINE('',#762,#176);
#121=LINE('',#764,#177);
#122=LINE('',#766,#178);
#123=LINE('',#767,#179);
#124=LINE('',#774,#180);
#125=LINE('',#776,#181);
#126=LINE('',#777,#182);
#127=LINE('',#780,#183);
#128=LINE('',#781,#184);
#129=LINE('',#784,#185);
#130=LINE('',#787,#186);
#131=LINE('',#789,#187);
#132=LINE('',#790,#188);
#133=LINE('',#793,#189);
#134=LINE('',#796,#190);
#135=LINE('',#798,#191);
#136=VECTOR('',#537,10.);
#137=VECTOR('',#538,10.);
#138=VECTOR('',#541,10.);
#139=VECTOR('',#544,10.);
#140=VECTOR('',#547,10.);
#141=VECTOR('',#550,10.);
#142=VECTOR('',#551,10.);
#143=VECTOR('',#552,10.);
#144=VECTOR('',#553,10.);
#145=VECTOR('',#554,10.);
#146=VECTOR('',#555,10.);
#147=VECTOR('',#556,10.);
#148=VECTOR('',#559,10.);
#149=VECTOR('',#564,10.);
#150=VECTOR('',#565,10.);
#151=VECTOR('',#568,10.);
#152=VECTOR('',#569,10.);
#153=VECTOR('',#572,10.);
#154=VECTOR('',#573,10.);
#155=VECTOR('',#576,10.);
#156=VECTOR('',#577,10.);
#157=VECTOR('',#578,10.);
#158=VECTOR('',#579,10.);
#159=VECTOR('',#580,10.);
#160=VECTOR('',#581,10.);
#161=VECTOR('',#582,10.);
#162=VECTOR('',#583,10.);
#163=VECTOR('',#584,10.);
#164=VECTOR('',#589,10.);
#165=VECTOR('',#590,10.);
#166=VECTOR('',#591,10.);
#167=VECTOR('',#592,10.);
#168=VECTOR('',#595,10.);
#169=VECTOR('',#596,10.);
#170=VECTOR('',#599,10.);
#171=VECTOR('',#600,10.);
#172=VECTOR('',#603,10.);
#173=VECTOR('',#604,10.);
#174=VECTOR('',#607,10.);
#175=VECTOR('',#616,10.);
#176=VECTOR('',#617,10.);
#177=VECTOR('',#620,10.);
#178=VECTOR('',#621,10.);
#179=VECTOR('',#622,10.);
#180=VECTOR('',#633,10.);
#181=VECTOR('',#634,10.);
#182=VECTOR('',#635,10.);
#183=VECTOR('',#638,10.);
#184=VECTOR('',#639,10.);
#185=VECTOR('',#642,10.);
#186=VECTOR('',#645,10.);
#187=VECTOR('',#646,10.);
#188=VECTOR('',#647,10.);
#189=VECTOR('',#652,10.);
#190=VECTOR('',#657,10.);
#191=VECTOR('',#660,10.);
#192=VERTEX_POINT('',#665);
#193=VERTEX_POINT('',#666);
#194=VERTEX_POINT('',#668);
#195=VERTEX_POINT('',#670);
#196=VERTEX_POINT('',#672);
#197=VERTEX_POINT('',#674);
#198=VERTEX_POINT('',#676);
#199=VERTEX_POINT('',#678);
#200=VERTEX_POINT('',#682);
#201=VERTEX_POINT('',#684);
#202=VERTEX_POINT('',#686);
#203=VERTEX_POINT('',#688);
#204=VERTEX_POINT('',#690);
#205=VERTEX_POINT('',#692);
#206=VERTEX_POINT('',#696);
#207=VERTEX_POINT('',#700);
#208=VERTEX_POINT('',#704);
#209=VERTEX_POINT('',#708);
#210=VERTEX_POINT('',#709);
#211=VERTEX_POINT('',#711);
#212=VERTEX_POINT('',#713);
#213=VERTEX_POINT('',#715);
#214=VERTEX_POINT('',#717);
#215=VERTEX_POINT('',#719);
#216=VERTEX_POINT('',#721);
#217=VERTEX_POINT('',#723);
#218=VERTEX_POINT('',#725);
#219=VERTEX_POINT('',#727);
#220=VERTEX_POINT('',#729);
#221=VERTEX_POINT('',#731);
#222=VERTEX_POINT('',#735);
#223=VERTEX_POINT('',#738);
#224=VERTEX_POINT('',#742);
#225=VERTEX_POINT('',#746);
#226=VERTEX_POINT('',#750);
#227=VERTEX_POINT('',#754);
#228=VERTEX_POINT('',#760);
#229=VERTEX_POINT('',#765);
#230=VERTEX_POINT('',#773);
#231=VERTEX_POINT('',#775);
#232=VERTEX_POINT('',#779);
#233=VERTEX_POINT('',#783);
#234=VERTEX_POINT('',#786);
#235=VERTEX_POINT('',#788);
#236=EDGE_CURVE('',#192,#193,#80,.T.);
#237=EDGE_CURVE('',#194,#192,#81,.T.);
#238=EDGE_CURVE('',#195,#194,#69,.T.);
#239=EDGE_CURVE('',#196,#195,#82,.T.);
#240=EDGE_CURVE('',#197,#196,#70,.T.);
#241=EDGE_CURVE('',#198,#197,#83,.T.);
#242=EDGE_CURVE('',#199,#198,#71,.T.);
#243=EDGE_CURVE('',#193,#199,#84,.T.);
#244=EDGE_CURVE('',#200,#196,#85,.T.);
#245=EDGE_CURVE('',#201,#195,#86,.T.);
#246=EDGE_CURVE('',#202,#201,#87,.F.);
#247=EDGE_CURVE('',#203,#202,#88,.F.);
#248=EDGE_CURVE('',#203,#204,#89,.F.);
#249=EDGE_CURVE('',#204,#205,#90,.T.);
#250=EDGE_CURVE('',#205,#200,#91,.F.);
#251=EDGE_CURVE('',#194,#206,#92,.T.);
#252=EDGE_CURVE('',#201,#206,#72,.T.);
#253=EDGE_CURVE('',#207,#192,#93,.T.);
#254=EDGE_CURVE('',#206,#207,#94,.T.);
#255=EDGE_CURVE('',#193,#208,#95,.T.);
#256=EDGE_CURVE('',#208,#207,#96,.T.);
#257=EDGE_CURVE('',#209,#210,#97,.T.);
#258=EDGE_CURVE('',#211,#209,#98,.T.);
#259=EDGE_CURVE('',#212,#211,#73,.T.);
#260=EDGE_CURVE('',#213,#212,#99,.T.);
#261=EDGE_CURVE('',#214,#213,#100,.T.);
#262=EDGE_CURVE('',#215,#214,#101,.T.);
#263=EDGE_CURVE('',#216,#215,#102,.T.);
#264=EDGE_CURVE('',#217,#216,#103,.T.);
#265=EDGE_CURVE('',#218,#217,#104,.T.);
#266=EDGE_CURVE('',#219,#218,#105,.T.);
#267=EDGE_CURVE('',#220,#219,#106,.T.);
#268=EDGE_CURVE('',#221,#220,#107,.T.);
#269=EDGE_CURVE('',#210,#221,#74,.T.);
#270=EDGE_CURVE('',#222,#215,#108,.T.);
#271=EDGE_CURVE('',#222,#203,#109,.T.);
#272=EDGE_CURVE('',#223,#202,#110,.T.);
#273=EDGE_CURVE('',#223,#216,#111,.T.);
#274=EDGE_CURVE('',#224,#214,#112,.F.);
#275=EDGE_CURVE('',#224,#222,#113,.T.);
#276=EDGE_CURVE('',#225,#213,#114,.F.);
#277=EDGE_CURVE('',#225,#224,#115,.T.);
#278=EDGE_CURVE('',#226,#212,#116,.F.);
#279=EDGE_CURVE('',#226,#225,#117,.T.);
#280=EDGE_CURVE('',#227,#211,#118,.T.);
#281=EDGE_CURVE('',#227,#205,#75,.T.);
#282=EDGE_CURVE('',#204,#205,#76,.T.);
#283=EDGE_CURVE('',#204,#226,#77,.T.);
#284=EDGE_CURVE('',#228,#209,#119,.T.);
#285=EDGE_CURVE('',#228,#227,#120,.T.);
#286=EDGE_CURVE('',#210,#198,#121,.F.);
#287=EDGE_CURVE('',#229,#197,#122,.T.);
#288=EDGE_CURVE('',#229,#228,#123,.T.);
#289=EDGE_CURVE('',#200,#229,#78,.F.);
#290=EDGE_CURVE('',#220,#230,#124,.T.);
#291=EDGE_CURVE('',#231,#230,#125,.T.);
#292=EDGE_CURVE('',#231,#221,#126,.T.);
#293=EDGE_CURVE('',#232,#223,#127,.T.);
#294=EDGE_CURVE('',#217,#232,#128,.T.);
#295=EDGE_CURVE('',#208,#233,#129,.T.);
#296=EDGE_CURVE('',#233,#231,#79,.T.);
#297=EDGE_CURVE('',#230,#234,#130,.T.);
#298=EDGE_CURVE('',#234,#235,#131,.T.);
#299=EDGE_CURVE('',#235,#232,#132,.T.);
#300=EDGE_CURVE('',#199,#233,#133,.T.);
#301=EDGE_CURVE('',#218,#235,#134,.T.);
#302=EDGE_CURVE('',#219,#234,#135,.T.);
#303=ORIENTED_EDGE('',*,*,#236,.F.);
#304=ORIENTED_EDGE('',*,*,#237,.F.);
#305=ORIENTED_EDGE('',*,*,#238,.F.);
#306=ORIENTED_EDGE('',*,*,#239,.F.);
#307=ORIENTED_EDGE('',*,*,#240,.F.);
#308=ORIENTED_EDGE('',*,*,#241,.F.);
#309=ORIENTED_EDGE('',*,*,#242,.F.);
#310=ORIENTED_EDGE('',*,*,#243,.F.);
#311=ORIENTED_EDGE('',*,*,#244,.T.);
#312=ORIENTED_EDGE('',*,*,#239,.T.);
#313=ORIENTED_EDGE('',*,*,#245,.F.);
#314=ORIENTED_EDGE('',*,*,#246,.F.);
#315=ORIENTED_EDGE('',*,*,#247,.F.);
#316=ORIENTED_EDGE('',*,*,#248,.T.);
#317=ORIENTED_EDGE('',*,*,#249,.T.);
#318=ORIENTED_EDGE('',*,*,#250,.T.);
#319=ORIENTED_EDGE('',*,*,#238,.T.);
#320=ORIENTED_EDGE('',*,*,#251,.T.);
#321=ORIENTED_EDGE('',*,*,#252,.F.);
#322=ORIENTED_EDGE('',*,*,#245,.T.);
#323=ORIENTED_EDGE('',*,*,#237,.T.);
#324=ORIENTED_EDGE('',*,*,#253,.F.);
#325=ORIENTED_EDGE('',*,*,#254,.F.);
#326=ORIENTED_EDGE('',*,*,#251,.F.);
#327=ORIENTED_EDGE('',*,*,#236,.T.);
#328=ORIENTED_EDGE('',*,*,#255,.T.);
#329=ORIENTED_EDGE('',*,*,#256,.T.);
#330=ORIENTED_EDGE('',*,*,#253,.T.);
#331=ORIENTED_EDGE('',*,*,#257,.F.);
#332=ORIENTED_EDGE('',*,*,#258,.F.);
#333=ORIENTED_EDGE('',*,*,#259,.F.);
#334=ORIENTED_EDGE('',*,*,#260,.F.);
#335=ORIENTED_EDGE('',*,*,#261,.F.);
#336=ORIENTED_EDGE('',*,*,#262,.F.);
#337=ORIENTED_EDGE('',*,*,#263,.F.);
#338=ORIENTED_EDGE('',*,*,#264,.F.);
#339=ORIENTED_EDGE('',*,*,#265,.F.);
#340=ORIENTED_EDGE('',*,*,#266,.F.);
#341=ORIENTED_EDGE('',*,*,#267,.F.);
#342=ORIENTED_EDGE('',*,*,#268,.F.);
#343=ORIENTED_EDGE('',*,*,#269,.F.);
#344=ORIENTED_EDGE('',*,*,#263,.T.);
#345=ORIENTED_EDGE('',*,*,#270,.F.);
#346=ORIENTED_EDGE('',*,*,#271,.T.);
#347=ORIENTED_EDGE('',*,*,#247,.T.);
#348=ORIENTED_EDGE('',*,*,#272,.F.);
#349=ORIENTED_EDGE('',*,*,#273,.T.);
#350=ORIENTED_EDGE('',*,*,#262,.T.);
#351=ORIENTED_EDGE('',*,*,#274,.F.);
#352=ORIENTED_EDGE('',*,*,#275,.T.);
#353=ORIENTED_EDGE('',*,*,#270,.T.);
#354=ORIENTED_EDGE('',*,*,#261,.T.);
#355=ORIENTED_EDGE('',*,*,#276,.F.);
#356=ORIENTED_EDGE('',*,*,#277,.T.);
#357=ORIENTED_EDGE('',*,*,#274,.T.);
#358=ORIENTED_EDGE('',*,*,#260,.T.);
#359=ORIENTED_EDGE('',*,*,#278,.F.);
#360=ORIENTED_EDGE('',*,*,#279,.T.);
#361=ORIENTED_EDGE('',*,*,#276,.T.);
#362=ORIENTED_EDGE('',*,*,#259,.T.);
#363=ORIENTED_EDGE('',*,*,#280,.F.);
#364=ORIENTED_EDGE('',*,*,#281,.T.);
#365=ORIENTED_EDGE('',*,*,#282,.F.);
#366=ORIENTED_EDGE('',*,*,#283,.T.);
#367=ORIENTED_EDGE('',*,*,#278,.T.);
#368=ORIENTED_EDGE('',*,*,#258,.T.);
#369=ORIENTED_EDGE('',*,*,#284,.F.);
#370=ORIENTED_EDGE('',*,*,#285,.T.);
#371=ORIENTED_EDGE('',*,*,#280,.T.);
#372=ORIENTED_EDGE('',*,*,#257,.T.);
#373=ORIENTED_EDGE('',*,*,#286,.T.);
#374=ORIENTED_EDGE('',*,*,#241,.T.);
#375=ORIENTED_EDGE('',*,*,#287,.F.);
#376=ORIENTED_EDGE('',*,*,#288,.T.);
#377=ORIENTED_EDGE('',*,*,#284,.T.);
#378=ORIENTED_EDGE('',*,*,#283,.F.);
#379=ORIENTED_EDGE('',*,*,#248,.F.);
#380=ORIENTED_EDGE('',*,*,#271,.F.);
#381=ORIENTED_EDGE('',*,*,#275,.F.);
#382=ORIENTED_EDGE('',*,*,#277,.F.);
#383=ORIENTED_EDGE('',*,*,#279,.F.);
#384=ORIENTED_EDGE('',*,*,#281,.F.);
#385=ORIENTED_EDGE('',*,*,#285,.F.);
#386=ORIENTED_EDGE('',*,*,#288,.F.);
#387=ORIENTED_EDGE('',*,*,#289,.F.);
#388=ORIENTED_EDGE('',*,*,#250,.F.);
#389=ORIENTED_EDGE('',*,*,#282,.T.);
#390=ORIENTED_EDGE('',*,*,#249,.F.);
#391=ORIENTED_EDGE('',*,*,#268,.T.);
#392=ORIENTED_EDGE('',*,*,#290,.T.);
#393=ORIENTED_EDGE('',*,*,#291,.F.);
#394=ORIENTED_EDGE('',*,*,#292,.T.);
#395=ORIENTED_EDGE('',*,*,#264,.T.);
#396=ORIENTED_EDGE('',*,*,#273,.F.);
#397=ORIENTED_EDGE('',*,*,#293,.F.);
#398=ORIENTED_EDGE('',*,*,#294,.F.);
#399=ORIENTED_EDGE('',*,*,#252,.T.);
#400=ORIENTED_EDGE('',*,*,#254,.T.);
#401=ORIENTED_EDGE('',*,*,#256,.F.);
#402=ORIENTED_EDGE('',*,*,#295,.T.);
#403=ORIENTED_EDGE('',*,*,#296,.T.);
#404=ORIENTED_EDGE('',*,*,#291,.T.);
#405=ORIENTED_EDGE('',*,*,#297,.T.);
#406=ORIENTED_EDGE('',*,*,#298,.T.);
#407=ORIENTED_EDGE('',*,*,#299,.T.);
#408=ORIENTED_EDGE('',*,*,#293,.T.);
#409=ORIENTED_EDGE('',*,*,#272,.T.);
#410=ORIENTED_EDGE('',*,*,#246,.T.);
#411=ORIENTED_EDGE('',*,*,#289,.T.);
#412=ORIENTED_EDGE('',*,*,#287,.T.);
#413=ORIENTED_EDGE('',*,*,#240,.T.);
#414=ORIENTED_EDGE('',*,*,#244,.F.);
#415=ORIENTED_EDGE('',*,*,#286,.F.);
#416=ORIENTED_EDGE('',*,*,#269,.T.);
#417=ORIENTED_EDGE('',*,*,#292,.F.);
#418=ORIENTED_EDGE('',*,*,#296,.F.);
#419=ORIENTED_EDGE('',*,*,#300,.F.);
#420=ORIENTED_EDGE('',*,*,#242,.T.);
#421=ORIENTED_EDGE('',*,*,#243,.T.);
#422=ORIENTED_EDGE('',*,*,#300,.T.);
#423=ORIENTED_EDGE('',*,*,#295,.F.);
#424=ORIENTED_EDGE('',*,*,#255,.F.);
#425=ORIENTED_EDGE('',*,*,#265,.T.);
#426=ORIENTED_EDGE('',*,*,#294,.T.);
#427=ORIENTED_EDGE('',*,*,#299,.F.);
#428=ORIENTED_EDGE('',*,*,#301,.F.);
#429=ORIENTED_EDGE('',*,*,#266,.T.);
#430=ORIENTED_EDGE('',*,*,#301,.T.);
#431=ORIENTED_EDGE('',*,*,#298,.F.);
#432=ORIENTED_EDGE('',*,*,#302,.F.);
#433=ORIENTED_EDGE('',*,*,#267,.T.);
#434=ORIENTED_EDGE('',*,*,#302,.T.);
#435=ORIENTED_EDGE('',*,*,#297,.F.);
#436=ORIENTED_EDGE('',*,*,#290,.F.);
#437=PLANE('',#497);
#438=PLANE('',#501);
#439=PLANE('',#504);
#440=PLANE('',#505);
#441=PLANE('',#506);
#442=PLANE('',#509);
#443=PLANE('',#510);
#444=PLANE('',#511);
#445=PLANE('',#512);
#446=PLANE('',#517);
#447=PLANE('',#518);
#448=PLANE('',#519);
#449=PLANE('',#520);
#450=PLANE('',#522);
#451=PLANE('',#523);
#452=PLANE('',#524);
#453=PLANE('',#525);
#454=PLANE('',#529);
#455=PLANE('',#530);
#456=PLANE('',#531);
#457=PLANE('',#532);
#458=ADVANCED_FACE('',(#19),#437,.T.);
#459=ADVANCED_FACE('',(#20),#438,.F.);
#460=ADVANCED_FACE('',(#21),#15,.F.);
#461=ADVANCED_FACE('',(#22),#439,.F.);
#462=ADVANCED_FACE('',(#23),#440,.T.);
#463=ADVANCED_FACE('',(#24),#441,.T.);
#464=ADVANCED_FACE('',(#25),#442,.F.);
#465=ADVANCED_FACE('',(#26),#443,.F.);
#466=ADVANCED_FACE('',(#27),#444,.F.);
#467=ADVANCED_FACE('',(#28),#445,.F.);
#468=ADVANCED_FACE('',(#29),#16,.T.);
#469=ADVANCED_FACE('',(#30),#446,.F.);
#470=ADVANCED_FACE('',(#31),#447,.F.);
#471=ADVANCED_FACE('',(#32),#448,.T.);
#472=ADVANCED_FACE('',(#33),#449,.T.);
#473=ADVANCED_FACE('',(#34),#450,.F.);
#474=ADVANCED_FACE('',(#35),#451,.T.);
#475=ADVANCED_FACE('',(#36),#452,.T.);
#476=ADVANCED_FACE('',(#37),#453,.T.);
#477=ADVANCED_FACE('',(#38),#17,.T.);
#478=ADVANCED_FACE('',(#39),#18,.T.);
#479=ADVANCED_FACE('',(#40),#454,.T.);
#480=ADVANCED_FACE('',(#41),#455,.T.);
#481=ADVANCED_FACE('',(#42),#456,.T.);
#482=ADVANCED_FACE('',(#43),#457,.T.);
#483=CLOSED_SHELL('',(#458,#459,#460,#461,#462,#463,#464,#465,#466,#467,
#468,#469,#470,#471,#472,#473,#474,#475,#476,#477,#478,#479,#480,#481,#482));
#484=DERIVED_UNIT_ELEMENT(#486,1.);
#485=DERIVED_UNIT_ELEMENT(#805,-3.);
#486=(
MASS_UNIT()
NAMED_UNIT(*)
SI_UNIT(.KILO.,.GRAM.)
);
#487=DERIVED_UNIT((#484,#485));
#488=MEASURE_REPRESENTATION_ITEM('density measure',
POSITIVE_RATIO_MEASURE(7850.),#487);
#489=PROPERTY_DEFINITION_REPRESENTATION(#494,#491);
#490=PROPERTY_DEFINITION_REPRESENTATION(#495,#492);
#491=REPRESENTATION('material name',(#493),#802);
#492=REPRESENTATION('density',(#488),#802);
#493=DESCRIPTIVE_REPRESENTATION_ITEM('Stahl','Stahl');
#494=PROPERTY_DEFINITION('material property','material name',#812);
#495=PROPERTY_DEFINITION('material property','density of part',#812);
#496=AXIS2_PLACEMENT_3D('',#663,#533,#534);
#497=AXIS2_PLACEMENT_3D('',#664,#535,#536);
#498=AXIS2_PLACEMENT_3D('',#671,#539,#540);
#499=AXIS2_PLACEMENT_3D('',#675,#542,#543);
#500=AXIS2_PLACEMENT_3D('',#679,#545,#546);
#501=AXIS2_PLACEMENT_3D('',#681,#548,#549);
#502=AXIS2_PLACEMENT_3D('',#695,#557,#558);
#503=AXIS2_PLACEMENT_3D('',#698,#560,#561);
#504=AXIS2_PLACEMENT_3D('',#699,#562,#563);
#505=AXIS2_PLACEMENT_3D('',#703,#566,#567);
#506=AXIS2_PLACEMENT_3D('',#707,#570,#571);
#507=AXIS2_PLACEMENT_3D('',#714,#574,#575);
#508=AXIS2_PLACEMENT_3D('',#733,#585,#586);
#509=AXIS2_PLACEMENT_3D('',#734,#587,#588);
#510=AXIS2_PLACEMENT_3D('',#741,#593,#594);
#511=AXIS2_PLACEMENT_3D('',#745,#597,#598);
#512=AXIS2_PLACEMENT_3D('',#749,#601,#602);
#513=AXIS2_PLACEMENT_3D('',#753,#605,#606);
#514=AXIS2_PLACEMENT_3D('',#756,#608,#609);
#515=AXIS2_PLACEMENT_3D('',#757,#610,#611);
#516=AXIS2_PLACEMENT_3D('',#758,#612,#613);
#517=AXIS2_PLACEMENT_3D('',#759,#614,#615);
#518=AXIS2_PLACEMENT_3D('',#763,#618,#619);
#519=AXIS2_PLACEMENT_3D('',#768,#623,#624);
#520=AXIS2_PLACEMENT_3D('',#769,#625,#626);
#521=AXIS2_PLACEMENT_3D('',#770,#627,#628);
#522=AXIS2_PLACEMENT_3D('',#771,#629,#630);
#523=AXIS2_PLACEMENT_3D('',#772,#631,#632);
#524=AXIS2_PLACEMENT_3D('',#778,#636,#637);
#525=AXIS2_PLACEMENT_3D('',#782,#640,#641);
#526=AXIS2_PLACEMENT_3D('',#785,#643,#644);
#527=AXIS2_PLACEMENT_3D('',#791,#648,#649);
#528=AXIS2_PLACEMENT_3D('',#792,#650,#651);
#529=AXIS2_PLACEMENT_3D('',#794,#653,#654);
#530=AXIS2_PLACEMENT_3D('',#795,#655,#656);
#531=AXIS2_PLACEMENT_3D('',#797,#658,#659);
#532=AXIS2_PLACEMENT_3D('',#799,#661,#662);
#533=DIRECTION('axis',(0.,0.,1.));
#534=DIRECTION('refdir',(1.,0.,0.));
#535=DIRECTION('center_axis',(-1.,0.,0.));
#536=DIRECTION('ref_axis',(0.,1.22464679914735E-16,-1.));
#537=DIRECTION('',(0.,1.,0.));
#538=DIRECTION('',(0.,-4.28408380031405E-8,-0.999999999999999));
#539=DIRECTION('center_axis',(-1.,0.,0.));
#540=DIRECTION('ref_axis',(0.,0.999999932267459,-0.000368055807875195));
#541=DIRECTION('',(0.,1.,1.22464679914735E-16));
#542=DIRECTION('center_axis',(-1.,0.,0.));
#543=DIRECTION('ref_axis',(0.,-1.,-1.22464679914735E-16));
#544=DIRECTION('',(0.,-1.,-1.22464679914735E-16));
#545=DIRECTION('center_axis',(1.,0.,0.));
#546=DIRECTION('ref_axis',(0.,1.,1.22464679914735E-16));
#547=DIRECTION('',(0.,0.,1.));
#548=DIRECTION('center_axis',(0.,-1.22464679914735E-16,1.));
#549=DIRECTION('ref_axis',(7.35522753814259E-16,-1.,-1.22464679914735E-16));
#550=DIRECTION('',(1.,0.,0.));
#551=DIRECTION('',(-1.,0.,0.));
#552=DIRECTION('',(0.,-1.,-1.22464679914735E-16));
#553=DIRECTION('',(-1.,0.,0.));
#554=DIRECTION('',(7.35522753814259E-16,-1.,-1.22464679914735E-16));
#555=DIRECTION('',(-7.35522753814259E-16,1.,1.22464679914735E-16));
#556=DIRECTION('',(7.35522753814259E-16,-1.,-1.22464679914735E-16));
#557=DIRECTION('center_axis',(-1.,0.,0.));
#558=DIRECTION('ref_axis',(0.,0.999999932267459,-0.000368055807875195));
#559=DIRECTION('',(1.,0.,0.));
#560=DIRECTION('center_axis',(-1.,0.,0.));
#561=DIRECTION('ref_axis',(0.,0.999999932267459,-0.000368055807875195));
#562=DIRECTION('center_axis',(0.,0.999999999999999,-4.28408380031405E-8));
#563=DIRECTION('ref_axis',(5.23191733694147E-23,4.28408380031405E-8,0.999999999999999));
#564=DIRECTION('',(-1.,0.,0.));
#565=DIRECTION('',(0.,-4.28408380031405E-8,-0.999999999999999));
#566=DIRECTION('center_axis',(0.,0.,-1.));
#567=DIRECTION('ref_axis',(1.,0.,0.));
#568=DIRECTION('',(1.,0.,0.));
#569=DIRECTION('',(0.,-1.,0.));
#570=DIRECTION('center_axis',(-1.,1.11957807121295E-31,-2.68312458429039E-31));
#571=DIRECTION('ref_axis',(-1.11957807121295E-31,-1.,0.));
#572=DIRECTION('',(1.11957807121295E-31,1.,1.22464679914735E-16));
#573=DIRECTION('',(-2.68312458429039E-31,-1.22464679914735E-16,1.));
#574=DIRECTION('center_axis',(1.,-1.11957807121295E-31,2.68312458429039E-31));
#575=DIRECTION('ref_axis',(0.,-1.,-1.22464679914735E-16));
#576=DIRECTION('',(1.11957807121295E-31,1.,1.22464679914735E-16));
#577=DIRECTION('',(2.68312458429039E-31,1.22464679914735E-16,-1.));
#578=DIRECTION('',(1.11957807121295E-31,1.,1.22464679914735E-16));
#579=DIRECTION('',(2.68312458429039E-31,1.22464679914735E-16,-1.));
#580=DIRECTION('',(-1.11957807121295E-31,-1.,0.));
#581=DIRECTION('',(2.90055011969972E-31,0.447213595499958,-0.894427190999916));
#582=DIRECTION('',(-1.11957807121295E-31,-1.,0.));
#583=DIRECTION('',(-2.20126375965758E-31,0.311308129797235,0.950309027802087));
#584=DIRECTION('',(-1.11957807121295E-31,-1.,0.));
#585=DIRECTION('center_axis',(1.,-1.11957807121295E-31,2.68312458429039E-31));
#586=DIRECTION('ref_axis',(0.,1.,1.22464679914735E-16));
#587=DIRECTION('center_axis',(0.,1.,1.22464679914735E-16));
#588=DIRECTION('ref_axis',(0.,1.22464679914735E-16,-1.));
#589=DIRECTION('',(-1.,0.,0.));
#590=DIRECTION('',(-1.26255342985954E-16,1.22464679914735E-16,-1.));
#591=DIRECTION('',(-1.26255342985954E-16,1.22464679914735E-16,-1.));
#592=DIRECTION('',(-1.,0.,0.));
#593=DIRECTION('center_axis',(0.,-1.22464679914735E-16,1.));
#594=DIRECTION('ref_axis',(-7.35522753814259E-16,1.,1.22464679914735E-16));
#595=DIRECTION('',(1.,0.,0.));
#596=DIRECTION('',(0.,-1.,-1.22464679914735E-16));
#597=DIRECTION('center_axis',(0.,1.,1.22464679914735E-16));
#598=DIRECTION('ref_axis',(-1.26255342985954E-16,1.22464679914735E-16,-1.));
#599=DIRECTION('',(1.,0.,0.));
#600=DIRECTION('',(1.26255342985954E-16,-1.22464679914735E-16,1.));
#601=DIRECTION('center_axis',(0.,-1.22464679914735E-16,1.));
#602=DIRECTION('ref_axis',(-7.35522753814259E-16,1.,1.22464679914735E-16));
#603=DIRECTION('',(1.,0.,0.));
#604=DIRECTION('',(7.35522753814259E-16,-1.,-1.22464679914735E-16));
#605=DIRECTION('center_axis',(1.,0.,0.));
#606=DIRECTION('ref_axis',(0.,-1.,-1.22464679914735E-16));
#607=DIRECTION('',(-1.,0.,0.));
#608=DIRECTION('center_axis',(-1.,-7.35522753814259E-16,1.26255342985954E-16));
#609=DIRECTION('ref_axis',(0.,-1.,-1.22464679914735E-16));
#610=DIRECTION('center_axis',(1.,7.35522753814259E-16,-1.26255342985954E-16));
#611=DIRECTION('ref_axis',(0.,-1.,-1.22464679914735E-16));
#612=DIRECTION('center_axis',(-1.,-7.35522753814259E-16,1.26255342985954E-16));
#613=DIRECTION('ref_axis',(0.,-1.,-1.22464679914735E-16));
#614=DIRECTION('center_axis',(0.,-1.,-1.22464679914735E-16));
#615=DIRECTION('ref_axis',(1.26255342985954E-16,-1.22464679914735E-16,1.));
#616=DIRECTION('',(-1.,0.,0.));
#617=DIRECTION('',(-1.26255342985954E-16,1.22464679914735E-16,-1.));
#618=DIRECTION('center_axis',(0.,-1.22464679914735E-16,1.));
#619=DIRECTION('ref_axis',(-7.35522753814259E-16,1.,1.22464679914735E-16));
#620=DIRECTION('',(-1.,0.,0.));
#621=DIRECTION('',(1.,0.,0.));
#622=DIRECTION('',(7.35522753814259E-16,-1.,-1.22464679914735E-16));
#623=DIRECTION('center_axis',(-1.,-7.35522753814259E-16,1.26255342985954E-16));
#624=DIRECTION('ref_axis',(-1.26255342985954E-16,1.22464679914735E-16,-1.));
#625=DIRECTION('center_axis',(-1.,-7.35522753814259E-16,1.26255342985954E-16));
#626=DIRECTION('ref_axis',(-1.26255342985954E-16,1.22464679914735E-16,-1.));
#627=DIRECTION('center_axis',(-1.,-7.35522753814259E-16,1.26255342985954E-16));
#628=DIRECTION('ref_axis',(0.,-1.,-1.22464679914735E-16));
#629=DIRECTION('center_axis',(-1.,-7.35522753814259E-16,1.26255342985954E-16));
#630=DIRECTION('ref_axis',(-1.26255342985954E-16,1.22464679914735E-16,-1.));
#631=DIRECTION('center_axis',(0.,0.,1.));
#632=DIRECTION('ref_axis',(-1.,0.,0.));
#633=DIRECTION('',(1.,0.,0.));
#634=DIRECTION('',(0.,-1.,0.));
#635=DIRECTION('',(-1.,0.,0.));
#636=DIRECTION('center_axis',(0.,0.,1.));
#637=DIRECTION('ref_axis',(-1.,0.,0.));
#638=DIRECTION('',(7.35522753814259E-16,-1.,0.));
#639=DIRECTION('',(1.,0.,0.));
#640=DIRECTION('center_axis',(1.,0.,0.));
#641=DIRECTION('ref_axis',(0.,0.,1.));
#642=DIRECTION('',(0.,0.,1.));
#643=DIRECTION('center_axis',(1.,0.,0.));
#644=DIRECTION('ref_axis',(0.,1.,1.22464679914735E-16));
#645=DIRECTION('',(-2.20126375965758E-31,0.311308129797235,0.950309027802087));
#646=DIRECTION('',(-1.08611504251353E-31,-1.,0.));
#647=DIRECTION('',(3.6462412640104E-31,0.447213595499958,-0.894427190999916));
#648=DIRECTION('center_axis',(-1.,0.,0.));
#649=DIRECTION('ref_axis',(0.,-1.,-1.22464679914735E-16));
#650=DIRECTION('center_axis',(-1.,0.,0.));
#651=DIRECTION('ref_axis',(0.,1.,1.22464679914735E-16));
#652=DIRECTION('',(1.,0.,0.));
#653=DIRECTION('center_axis',(0.,1.,0.));
#654=DIRECTION('ref_axis',(0.,0.,-1.));
#655=DIRECTION('center_axis',(0.,-0.894427190999916,-0.447213595499958));
#656=DIRECTION('ref_axis',(3.64624126401041E-31,0.447213595499958,-0.894427190999916));
#657=DIRECTION('',(1.,0.,0.));
#658=DIRECTION('center_axis',(0.,0.,1.));
#659=DIRECTION('ref_axis',(-1.08611504251353E-31,-1.,0.));
#660=DIRECTION('',(1.,0.,0.));
#661=DIRECTION('center_axis',(0.,0.950309027802087,-0.311308129797235));
#662=DIRECTION('ref_axis',(-2.20126375965758E-31,0.311308129797235,0.950309027802087));
#663=CARTESIAN_POINT('',(0.,0.,0.));
#664=CARTESIAN_POINT('Origin',(-75.8000011324883,80.,-66.0000282850455));
#665=CARTESIAN_POINT('',(-75.8000011324883,77.0000007096691,-120.));
#666=CARTESIAN_POINT('',(-75.8000011324883,80.,-120.));
#667=CARTESIAN_POINT('',(-75.8000011324883,80.,-120.));
#668=CARTESIAN_POINT('',(-75.8000011324883,77.0000011473894,-75.0081279575799));
#669=CARTESIAN_POINT('',(-75.8000011324882,77.0000011166558,-110.50002944268));
#670=CARTESIAN_POINT('',(-75.8000011324883,76.9342223060677,-73.3000284117054));
#671=CARTESIAN_POINT('Origin',(-75.8000011324883,55.,-75.000030728836));
#672=CARTESIAN_POINT('',(-75.8000011324883,71.9147875791046,-73.3000284117054));
#673=CARTESIAN_POINT('',(-75.8000011324883,78.4971592976137,-73.3000284117054));
#674=CARTESIAN_POINT('',(-75.8000011324883,69.9462381043624,-66.9000282850458));
#675=CARTESIAN_POINT('Origin',(-75.8000011324883,55.0000008195639,-75.000028419156));
#676=CARTESIAN_POINT('',(-75.8000011324883,78.6514261813234,-66.9000282850455));
#677=CARTESIAN_POINT('',(-75.8000011324883,80.,-66.9000282850455));
#678=CARTESIAN_POINT('',(-75.8000011324883,80.,-75.0000307288359));
#679=CARTESIAN_POINT('Origin',(-75.8000011324883,55.,-75.000030728836));
#680=CARTESIAN_POINT('',(-75.8000011324883,80.,-70.5000141425228));
#681=CARTESIAN_POINT('Origin',(-130.499999999999,76.9943185952275,-73.3000284117054));
#682=CARTESIAN_POINT('',(-130.499999999999,71.9147875791046,-73.3000284117054));
#683=CARTESIAN_POINT('',(-130.499999999999,71.9147875791046,-73.3000284117054));
#684=CARTESIAN_POINT('',(-70.,76.9342223060677,-73.3000284117054));
#685=CARTESIAN_POINT('',(-138.5,76.9342223060677,-73.3000284117054));
#686=CARTESIAN_POINT('',(-69.9999999999995,51.0000007897615,-73.3000284117054));
#687=CARTESIAN_POINT('',(-70.,78.4971592976137,-73.3000284117054));
#688=CARTESIAN_POINT('',(-130.499999999999,51.0000007599592,-73.3000284117054));
#689=CARTESIAN_POINT('',(-130.499999999999,51.0000007897615,-73.3000284117054));
#690=CARTESIAN_POINT('',(-130.499999999999,63.651458790478,-73.3000284117054));
#691=CARTESIAN_POINT('',(-130.499999999999,70.995739143861,-73.3000284117054));
#692=CARTESIAN_POINT('',(-130.499999999999,65.3485383261472,-73.3000284117054));
#693=CARTESIAN_POINT('',(-130.499999999999,70.995739143861,-73.3000284117054));
#694=CARTESIAN_POINT('',(-130.499999999999,70.995739143861,-73.3000284117054));
#695=CARTESIAN_POINT('Origin',(-138.5,55.,-75.000030728836));
#696=CARTESIAN_POINT('',(-70.,77.0000011473894,-75.0081279575799));
#697=CARTESIAN_POINT('',(-138.5,77.0000011473894,-75.0081279575799));
#698=CARTESIAN_POINT('Origin',(-70.,55.,-75.000030728836));
#699=CARTESIAN_POINT('Origin',(-138.5,76.9999992102385,-155.000030728836));
#700=CARTESIAN_POINT('',(-70.,77.0000007096691,-120.));
#701=CARTESIAN_POINT('',(-144.25,77.0000007096691,-120.));
#702=CARTESIAN_POINT('',(-70.,76.9999999599538,-137.500015300157));
#703=CARTESIAN_POINT('Origin',(-150.,80.,-120.));
#704=CARTESIAN_POINT('',(-70.,80.,-120.));
#705=CARTESIAN_POINT('',(-75.,80.,-120.));
#706=CARTESIAN_POINT('',(-70.,80.,-120.));
#707=CARTESIAN_POINT('Origin',(-138.3,58.9999986812472,-57.0999993942678));
#708=CARTESIAN_POINT('',(-138.3,66.399998511374,-66.9000282850455));
#709=CARTESIAN_POINT('',(-138.3,78.6514261813234,-66.9000282850455));
#710=CARTESIAN_POINT('',(-138.3,62.7999985963106,-66.9000343744051));
#711=CARTESIAN_POINT('',(-138.3,66.399998511374,-71.6000342693519));
#712=CARTESIAN_POINT('',(-138.3,66.399998511374,-64.3500168318098));
#713=CARTESIAN_POINT('',(-138.299999999999,62.5999986052513,-71.6000342693519));
#714=CARTESIAN_POINT('Origin',(-138.3,64.4999985583126,-71.6000342693519));
#715=CARTESIAN_POINT('',(-138.299999999999,62.4999986074865,-71.6000342693519));
#716=CARTESIAN_POINT('',(-138.3,60.6499986443669,-71.6000342693519));
#717=CARTESIAN_POINT('',(-138.299999999999,62.4999986074865,-66.9000343744051));
#718=CARTESIAN_POINT('',(-138.3,62.4999986074865,-62.0000168843364));
#719=CARTESIAN_POINT('',(-138.299999999999,51.0000007897615,-66.9000343744051));
#720=CARTESIAN_POINT('',(-138.3,55.9999997355044,-66.9000343744051));
#721=CARTESIAN_POINT('',(-138.3,51.,-60.));
#722=CARTESIAN_POINT('',(-138.3,51.0000007897615,-65.8000139029866));
#723=CARTESIAN_POINT('',(-138.3,57.1999987214804,-59.9999986588955));
#724=CARTESIAN_POINT('',(-138.3,69.4999993406236,-60.));
#725=CARTESIAN_POINT('',(-138.3,54.2999987863004,-54.1999987885356));
#726=CARTESIAN_POINT('',(-138.3,55.3499988969415,-56.2999990098178));
#727=CARTESIAN_POINT('',(-138.3,63.699998576194,-54.1999987885356));
#728=CARTESIAN_POINT('',(-138.3,61.3499986287206,-54.1999987885356));
#729=CARTESIAN_POINT('',(-138.3,61.7999986186624,-59.9999986588955));
#730=CARTESIAN_POINT('',(-138.3,62.0932871035231,-59.1046969682678));
#731=CARTESIAN_POINT('',(-138.3,74.9999769533361,-60.));
#732=CARTESIAN_POINT('',(-138.3,69.4999993406236,-60.));
#733=CARTESIAN_POINT('Origin',(-138.3,55.,-75.000030728836));
#734=CARTESIAN_POINT('Origin',(-130.499999999999,51.0000007897615,-74.5000284117054));
#735=CARTESIAN_POINT('',(-130.499999999999,51.0000007897615,-66.9000343744051));
#736=CARTESIAN_POINT('',(-130.499999999999,51.0000007599592,-66.9000343744051));
#737=CARTESIAN_POINT('',(-130.499999999999,51.0000007599592,-147.500030058284));
#738=CARTESIAN_POINT('',(-69.9999999999995,51.0000007897615,-60.));
#739=CARTESIAN_POINT('',(-69.9999999999995,51.0000007897615,-84.0455774038418));
#740=CARTESIAN_POINT('',(-130.,51.,-60.));
#741=CARTESIAN_POINT('Origin',(-130.499999999999,53.0000007897615,-66.9000343744051));
#742=CARTESIAN_POINT('',(-130.499999999999,62.4999986074865,-66.9000343744051));
#743=CARTESIAN_POINT('',(-130.499999999999,62.4999986074865,-66.9000343744051));
#744=CARTESIAN_POINT('',(-130.499999999999,53.0000007897615,-66.9000343744051));
#745=CARTESIAN_POINT('Origin',(-130.499999999999,62.4999986074865,-66.9000343744051));
#746=CARTESIAN_POINT('',(-130.499999999999,62.4999986074865,-71.6000342693519));
#747=CARTESIAN_POINT('',(-130.499999999999,62.4999986074865,-71.6000342693519));
#748=CARTESIAN_POINT('',(-130.499999999999,62.4999986074865,-90.9500316948038));
#749=CARTESIAN_POINT('Origin',(-130.499999999999,62.2999986074865,-71.6000342693519));
#750=CARTESIAN_POINT('',(-130.499999999999,62.5999986052513,-71.6000342693519));
#751=CARTESIAN_POINT('',(-130.499999999999,62.5999986052513,-71.6000342693519));
#752=CARTESIAN_POINT('',(-130.499999999999,63.6485791499905,-71.6000342693519));
#753=CARTESIAN_POINT('Origin',(-130.499999999999,64.4999985583126,-71.6000342693519));
#754=CARTESIAN_POINT('',(-130.499999999999,66.399998511374,-71.6000342693519));
#755=CARTESIAN_POINT('',(-130.499999999999,66.399998511374,-71.6000342693519));
#756=CARTESIAN_POINT('Origin',(-130.499999999999,64.4999985583126,-71.6000342693519));
#757=CARTESIAN_POINT('Origin',(-130.499999999999,64.4999985583126,-71.6000342693519));
#758=CARTESIAN_POINT('Origin',(-130.499999999999,64.4999985583126,-71.6000342693519));
#759=CARTESIAN_POINT('Origin',(-130.499999999999,66.399998511374,-71.6000342693519));
#760=CARTESIAN_POINT('',(-130.499999999999,66.399998511374,-66.9000343744051));
#761=CARTESIAN_POINT('',(-130.499999999999,66.399998511374,-66.9000343744051));
#762=CARTESIAN_POINT('',(-130.499999999999,66.399998511374,-93.3000316422772));
#763=CARTESIAN_POINT('Origin',(-130.499999999999,66.599998511374,-66.9000343744051));
#764=CARTESIAN_POINT('',(-138.5,78.6514261813234,-66.9000282850455));
#765=CARTESIAN_POINT('',(-130.499999999999,69.9462414044827,-66.9000343744189));
#766=CARTESIAN_POINT('',(-76.0000011324883,69.9462381043624,-66.9000282850458));
#767=CARTESIAN_POINT('',(-130.499999999999,65.7985791019342,-66.9000343744051));
#768=CARTESIAN_POINT('Origin',(-130.499999999999,64.9971596924945,-115.000029015202));
#769=CARTESIAN_POINT('Origin',(-130.499999999999,64.9971596924945,-115.000029015202));
#770=CARTESIAN_POINT('Origin',(-130.499999999999,55.0000008195639,-75.000028419156));
#771=CARTESIAN_POINT('Origin',(-130.499999999999,64.9971596924945,-115.000029015202));
#772=CARTESIAN_POINT('Origin',(-70.,80.,-60.));
#773=CARTESIAN_POINT('',(-70.,61.7999986186624,-59.9999986588955));
#774=CARTESIAN_POINT('',(-138.5,61.7999986186624,-59.9999986588955));
#775=CARTESIAN_POINT('',(-70.,74.9999769533361,-60.));
#776=CARTESIAN_POINT('',(-70.,80.,-60.));
#777=CARTESIAN_POINT('',(-138.5,74.9999769533361,-60.));
#778=CARTESIAN_POINT('Origin',(-70.,80.,-60.));
#779=CARTESIAN_POINT('',(-70.,57.1999987214804,-59.9999986588955));
#780=CARTESIAN_POINT('',(-69.9999999999995,72.4985798462472,-60.));
#781=CARTESIAN_POINT('',(-138.5,57.1999987214804,-59.9999986588955));
#782=CARTESIAN_POINT('Origin',(-70.,80.,-120.));
#783=CARTESIAN_POINT('',(-70.,80.,-75.000030728836));
#784=CARTESIAN_POINT('',(-70.,80.,-97.5));
#785=CARTESIAN_POINT('Origin',(-70.,55.,-75.000030728836));
#786=CARTESIAN_POINT('',(-70.,63.699998576194,-54.1999987885356));
#787=CARTESIAN_POINT('',(-70.,61.7999986186624,-59.9999986588955));
#788=CARTESIAN_POINT('',(-70.,54.2999987863004,-54.1999987885356));
#789=CARTESIAN_POINT('',(-70.,63.699998576194,-54.1999987885356));
#790=CARTESIAN_POINT('',(-70.,54.2999987863004,-54.1999987885356));
#791=CARTESIAN_POINT('Origin',(-130.499999999999,55.0000008195639,-75.000028419156));
#792=CARTESIAN_POINT('Origin',(-138.5,55.,-75.000030728836));
#793=CARTESIAN_POINT('',(-138.5,80.,-75.0000307288359));
#794=CARTESIAN_POINT('Origin',(0.,80.,-75.));
#795=CARTESIAN_POINT('Origin',(-138.5,54.2999987863004,-54.1999987885356));
#796=CARTESIAN_POINT('',(-138.5,54.2999987863004,-54.1999987885356));
#797=CARTESIAN_POINT('Origin',(-138.5,63.699998576194,-54.1999987885356));
#798=CARTESIAN_POINT('',(-138.5,63.699998576194,-54.1999987885356));
#799=CARTESIAN_POINT('Origin',(-138.5,61.7999986186624,-59.9999986588955));
#800=UNCERTAINTY_MEASURE_WITH_UNIT(LENGTH_MEASURE(0.01),#804,
'DISTANCE_ACCURACY_VALUE',
'Maximum model space distance between geometric entities at asserted c
onnectivities');
#801=UNCERTAINTY_MEASURE_WITH_UNIT(LENGTH_MEASURE(0.01),#804,
'DISTANCE_ACCURACY_VALUE',
'Maximum model space distance between geometric entities at asserted c
onnectivities');
#802=(
GEOMETRIC_REPRESENTATION_CONTEXT(3)
GLOBAL_UNCERTAINTY_ASSIGNED_CONTEXT((#800))
GLOBAL_UNIT_ASSIGNED_CONTEXT((#804,#806,#807))
REPRESENTATION_CONTEXT('','3D')
);
#803=(
GEOMETRIC_REPRESENTATION_CONTEXT(3)
GLOBAL_UNCERTAINTY_ASSIGNED_CONTEXT((#801))
GLOBAL_UNIT_ASSIGNED_CONTEXT((#804,#806,#807))
REPRESENTATION_CONTEXT('','3D')
);
#804=(
LENGTH_UNIT()
NAMED_UNIT(*)
SI_UNIT(.MILLI.,.METRE.)
);
#805=(
LENGTH_UNIT()
NAMED_UNIT(*)
SI_UNIT($,.METRE.)
);
#806=(
NAMED_UNIT(*)
PLANE_ANGLE_UNIT()
SI_UNIT($,.RADIAN.)
);
#807=(
NAMED_UNIT(*)
SI_UNIT($,.STERADIAN.)
SOLID_ANGLE_UNIT()
);
#808=SHAPE_DEFINITION_REPRESENTATION(#809,#810);
#809=PRODUCT_DEFINITION_SHAPE('',$,#812);
#810=SHAPE_REPRESENTATION('',(#496),#802);
#811=PRODUCT_DEFINITION_CONTEXT('part definition',#816,'design');
#812=PRODUCT_DEFINITION('Slide in Driver Mount','Slide in Driver Mount',
#813,#811);
#813=PRODUCT_DEFINITION_FORMATION('',$,#818);
#814=PRODUCT_RELATED_PRODUCT_CATEGORY('Slide in Driver Mount',
'Slide in Driver Mount',(#818));
#815=APPLICATION_PROTOCOL_DEFINITION('international standard',
'automotive_design',2009,#816);
#816=APPLICATION_CONTEXT(
'Core Data for Automotive Mechanical Design Process');
#817=PRODUCT_CONTEXT('part definition',#816,'mechanical');
#818=PRODUCT('Slide in Driver Mount','Slide in Driver Mount',$,(#817));
#819=PRESENTATION_STYLE_ASSIGNMENT((#821));
#820=PRESENTATION_STYLE_ASSIGNMENT((#822));
#821=SURFACE_STYLE_USAGE(.BOTH.,#823);
#822=SURFACE_STYLE_USAGE(.BOTH.,#824);
#823=SURFACE_SIDE_STYLE('',(#825));
#824=SURFACE_SIDE_STYLE('',(#826));
#825=SURFACE_STYLE_FILL_AREA(#827);
#826=SURFACE_STYLE_FILL_AREA(#828);
#827=FILL_AREA_STYLE('Stahl - satiniert',(#829));
#828=FILL_AREA_STYLE('Opaque(99,103,108)',(#830));
#829=FILL_AREA_STYLE_COLOUR('Stahl - satiniert',#831);
#830=FILL_AREA_STYLE_COLOUR('Opaque(99,103,108)',#832);
#831=COLOUR_RGB('Stahl - satiniert',0.627450980392157,0.627450980392157,
0.627450980392157);
#832=COLOUR_RGB('Opaque(99,103,108)',0.388235294117647,0.403921568627451,
0.423529411764706);
ENDSEC;
END-ISO-10303-21;
