ISO-10303-21;
HEADER;
/* Generated by software containing ST-Developer
 * from STEP Tools, Inc. (www.steptools.com) 
 */

FILE_DESCRIPTION(
/* description */ (''),
/* implementation_level */ '2;1');

FILE_NAME(
/* name */ 'Sliding_Panel_Front.step',
/* time_stamp */ '2026-09-29T23:14:56+02:00',
/* author */ (''),
/* organization */ (''),
/* preprocessor_version */ 'ST-DEVELOPER v20.2',
/* originating_system */ 'Autodesk Translation Framework v15.15.0.0',
/* authorisation */ '');

FILE_SCHEMA (('AUTOMOTIVE_DESIGN { 1 0 10303 214 3 1 1 }'));
ENDSEC;

DATA;
#10=MECHANICAL_DESIGN_GEOMETRIC_PRESENTATION_REPRESENTATION('',(#13),#880);
#11=SHAPE_REPRESENTATION_RELATIONSHIP('SRR','None',#887,#12);
#12=ADVANCED_BREP_SHAPE_REPRESENTATION('',(#14),#879);
#13=STYLED_ITEM('',(#897),#14);
#14=MANIFOLD_SOLID_BREP('Sliding Panel Front',#544);
#15=CYLINDRICAL_SURFACE('',#588,25.);
#16=CIRCLE('',#563,25.);
#17=CIRCLE('',#566,25.);
#18=CIRCLE('',#568,25.);
#19=CIRCLE('',#576,25.);
#20=FACE_OUTER_BOUND('',#47,.T.);
#21=FACE_OUTER_BOUND('',#48,.T.);
#22=FACE_OUTER_BOUND('',#49,.T.);
#23=FACE_OUTER_BOUND('',#50,.T.);
#24=FACE_OUTER_BOUND('',#51,.T.);
#25=FACE_OUTER_BOUND('',#52,.T.);
#26=FACE_OUTER_BOUND('',#53,.T.);
#27=FACE_OUTER_BOUND('',#54,.T.);
#28=FACE_OUTER_BOUND('',#55,.T.);
#29=FACE_OUTER_BOUND('',#56,.T.);
#30=FACE_OUTER_BOUND('',#57,.T.);
#31=FACE_OUTER_BOUND('',#58,.T.);
#32=FACE_OUTER_BOUND('',#59,.T.);
#33=FACE_OUTER_BOUND('',#60,.T.);
#34=FACE_OUTER_BOUND('',#61,.T.);
#35=FACE_OUTER_BOUND('',#62,.T.);
#36=FACE_OUTER_BOUND('',#63,.T.);
#37=FACE_OUTER_BOUND('',#64,.T.);
#38=FACE_OUTER_BOUND('',#65,.T.);
#39=FACE_OUTER_BOUND('',#66,.T.);
#40=FACE_OUTER_BOUND('',#67,.T.);
#41=FACE_OUTER_BOUND('',#68,.T.);
#42=FACE_OUTER_BOUND('',#69,.T.);
#43=FACE_OUTER_BOUND('',#70,.T.);
#44=FACE_OUTER_BOUND('',#71,.T.);
#45=FACE_OUTER_BOUND('',#72,.T.);
#46=FACE_OUTER_BOUND('',#73,.T.);
#47=EDGE_LOOP('',(#341,#342,#343,#344));
#48=EDGE_LOOP('',(#345,#346,#347,#348,#349,#350));
#49=EDGE_LOOP('',(#351,#352,#353,#354));
#50=EDGE_LOOP('',(#355,#356,#357,#358,#359,#360));
#51=EDGE_LOOP('',(#361,#362,#363,#364));
#52=EDGE_LOOP('',(#365,#366,#367,#368));
#53=EDGE_LOOP('',(#369,#370,#371,#372,#373,#374,#375,#376,#377));
#54=EDGE_LOOP('',(#378,#379,#380,#381));
#55=EDGE_LOOP('',(#382,#383,#384,#385));
#56=EDGE_LOOP('',(#386,#387,#388,#389));
#57=EDGE_LOOP('',(#390,#391,#392,#393,#394,#395));
#58=EDGE_LOOP('',(#396,#397,#398,#399));
#59=EDGE_LOOP('',(#400,#401,#402,#403,#404,#405));
#60=EDGE_LOOP('',(#406,#407,#408,#409,#410,#411,#412,#413));
#61=EDGE_LOOP('',(#414,#415,#416,#417,#418));
#62=EDGE_LOOP('',(#419,#420,#421,#422));
#63=EDGE_LOOP('',(#423,#424,#425,#426,#427,#428,#429,#430,#431,#432,#433,
#434));
#64=EDGE_LOOP('',(#435,#436,#437,#438));
#65=EDGE_LOOP('',(#439,#440,#441,#442));
#66=EDGE_LOOP('',(#443,#444,#445,#446,#447,#448,#449,#450));
#67=EDGE_LOOP('',(#451,#452,#453,#454));
#68=EDGE_LOOP('',(#455,#456,#457,#458,#459,#460,#461,#462));
#69=EDGE_LOOP('',(#463,#464,#465,#466));
#70=EDGE_LOOP('',(#467,#468,#469,#470));
#71=EDGE_LOOP('',(#471,#472,#473,#474));
#72=EDGE_LOOP('',(#475,#476,#477,#478,#479,#480,#481,#482));
#73=EDGE_LOOP('',(#483,#484,#485,#486,#487,#488,#489,#490));
#74=LINE('',#728,#145);
#75=LINE('',#730,#146);
#76=LINE('',#732,#147);
#77=LINE('',#733,#148);
#78=LINE('',#736,#149);
#79=LINE('',#738,#150);
#80=LINE('',#740,#151);
#81=LINE('',#742,#152);
#82=LINE('',#743,#153);
#83=LINE('',#746,#154);
#84=LINE('',#748,#155);
#85=LINE('',#749,#156);
#86=LINE('',#752,#157);
#87=LINE('',#754,#158);
#88=LINE('',#756,#159);
#89=LINE('',#758,#160);
#90=LINE('',#759,#161);
#91=LINE('',#765,#162);
#92=LINE('',#767,#163);
#93=LINE('',#768,#164);
#94=LINE('',#771,#165);
#95=LINE('',#773,#166);
#96=LINE('',#774,#167);
#97=LINE('',#778,#168);
#98=LINE('',#780,#169);
#99=LINE('',#781,#170);
#100=LINE('',#783,#171);
#101=LINE('',#787,#172);
#102=LINE('',#789,#173);
#103=LINE('',#790,#174);
#104=LINE('',#795,#175);
#105=LINE('',#796,#176);
#106=LINE('',#799,#177);
#107=LINE('',#801,#178);
#108=LINE('',#802,#179);
#109=LINE('',#805,#180);
#110=LINE('',#807,#181);
#111=LINE('',#808,#182);
#112=LINE('',#811,#183);
#113=LINE('',#813,#184);
#114=LINE('',#815,#185);
#115=LINE('',#817,#186);
#116=LINE('',#818,#187);
#117=LINE('',#821,#188);
#118=LINE('',#823,#189);
#119=LINE('',#824,#190);
#120=LINE('',#827,#191);
#121=LINE('',#829,#192);
#122=LINE('',#831,#193);
#123=LINE('',#833,#194);
#124=LINE('',#834,#195);
#125=LINE('',#837,#196);
#126=LINE('',#839,#197);
#127=LINE('',#841,#198);
#128=LINE('',#842,#199);
#129=LINE('',#844,#200);
#130=LINE('',#845,#201);
#131=LINE('',#849,#202);
#132=LINE('',#850,#203);
#133=LINE('',#852,#204);
#134=LINE('',#853,#205);
#135=LINE('',#856,#206);
#136=LINE('',#858,#207);
#137=LINE('',#861,#208);
#138=LINE('',#862,#209);
#139=LINE('',#865,#210);
#140=LINE('',#866,#211);
#141=LINE('',#868,#212);
#142=LINE('',#870,#213);
#143=LINE('',#872,#214);
#144=LINE('',#874,#215);
#145=VECTOR('',#593,10.);
#146=VECTOR('',#594,10.);
#147=VECTOR('',#595,10.);
#148=VECTOR('',#596,10.);
#149=VECTOR('',#599,10.);
#150=VECTOR('',#600,10.);
#151=VECTOR('',#601,10.);
#152=VECTOR('',#602,10.);
#153=VECTOR('',#603,10.);
#154=VECTOR('',#606,10.);
#155=VECTOR('',#607,10.);
#156=VECTOR('',#608,10.);
#157=VECTOR('',#611,10.);
#158=VECTOR('',#612,10.);
#159=VECTOR('',#613,10.);
#160=VECTOR('',#614,10.);
#161=VECTOR('',#615,10.);
#162=VECTOR('',#620,10.);
#163=VECTOR('',#621,10.);
#164=VECTOR('',#622,10.);
#165=VECTOR('',#625,10.);
#166=VECTOR('',#626,10.);
#167=VECTOR('',#627,10.);
#168=VECTOR('',#630,10.);
#169=VECTOR('',#631,10.);
#170=VECTOR('',#632,10.);
#171=VECTOR('',#633,10.);
#172=VECTOR('',#636,10.);
#173=VECTOR('',#637,10.);
#174=VECTOR('',#638,10.);
#175=VECTOR('',#643,10.);
#176=VECTOR('',#644,10.);
#177=VECTOR('',#647,10.);
#178=VECTOR('',#648,10.);
#179=VECTOR('',#649,10.);
#180=VECTOR('',#652,10.);
#181=VECTOR('',#653,10.);
#182=VECTOR('',#654,10.);
#183=VECTOR('',#657,10.);
#184=VECTOR('',#658,10.);
#185=VECTOR('',#659,10.);
#186=VECTOR('',#660,10.);
#187=VECTOR('',#661,10.);
#188=VECTOR('',#664,10.);
#189=VECTOR('',#665,10.);
#190=VECTOR('',#666,10.);
#191=VECTOR('',#669,10.);
#192=VECTOR('',#670,10.);
#193=VECTOR('',#671,10.);
#194=VECTOR('',#672,10.);
#195=VECTOR('',#673,10.);
#196=VECTOR('',#676,10.);
#197=VECTOR('',#677,10.);
#198=VECTOR('',#678,10.);
#199=VECTOR('',#679,10.);
#200=VECTOR('',#680,10.);
#201=VECTOR('',#681,10.);
#202=VECTOR('',#686,10.);
#203=VECTOR('',#687,10.);
#204=VECTOR('',#690,10.);
#205=VECTOR('',#691,10.);
#206=VECTOR('',#696,10.);
#207=VECTOR('',#699,10.);
#208=VECTOR('',#702,10.);
#209=VECTOR('',#703,10.);
#210=VECTOR('',#706,10.);
#211=VECTOR('',#707,10.);
#212=VECTOR('',#710,10.);
#213=VECTOR('',#713,10.);
#214=VECTOR('',#716,10.);
#215=VECTOR('',#719,10.);
#216=VERTEX_POINT('',#726);
#217=VERTEX_POINT('',#727);
#218=VERTEX_POINT('',#729);
#219=VERTEX_POINT('',#731);
#220=VERTEX_POINT('',#735);
#221=VERTEX_POINT('',#737);
#222=VERTEX_POINT('',#739);
#223=VERTEX_POINT('',#741);
#224=VERTEX_POINT('',#745);
#225=VERTEX_POINT('',#747);
#226=VERTEX_POINT('',#751);
#227=VERTEX_POINT('',#753);
#228=VERTEX_POINT('',#755);
#229=VERTEX_POINT('',#757);
#230=VERTEX_POINT('',#761);
#231=VERTEX_POINT('',#762);
#232=VERTEX_POINT('',#764);
#233=VERTEX_POINT('',#766);
#234=VERTEX_POINT('',#770);
#235=VERTEX_POINT('',#772);
#236=VERTEX_POINT('',#776);
#237=VERTEX_POINT('',#777);
#238=VERTEX_POINT('',#779);
#239=VERTEX_POINT('',#782);
#240=VERTEX_POINT('',#784);
#241=VERTEX_POINT('',#786);
#242=VERTEX_POINT('',#788);
#243=VERTEX_POINT('',#792);
#244=VERTEX_POINT('',#794);
#245=VERTEX_POINT('',#798);
#246=VERTEX_POINT('',#800);
#247=VERTEX_POINT('',#804);
#248=VERTEX_POINT('',#806);
#249=VERTEX_POINT('',#810);
#250=VERTEX_POINT('',#812);
#251=VERTEX_POINT('',#814);
#252=VERTEX_POINT('',#816);
#253=VERTEX_POINT('',#820);
#254=VERTEX_POINT('',#822);
#255=VERTEX_POINT('',#826);
#256=VERTEX_POINT('',#828);
#257=VERTEX_POINT('',#830);
#258=VERTEX_POINT('',#832);
#259=VERTEX_POINT('',#836);
#260=VERTEX_POINT('',#838);
#261=VERTEX_POINT('',#840);
#262=VERTEX_POINT('',#843);
#263=VERTEX_POINT('',#847);
#264=VERTEX_POINT('',#860);
#265=VERTEX_POINT('',#864);
#266=EDGE_CURVE('',#216,#217,#74,.T.);
#267=EDGE_CURVE('',#218,#217,#75,.T.);
#268=EDGE_CURVE('',#218,#219,#76,.T.);
#269=EDGE_CURVE('',#219,#216,#77,.T.);
#270=EDGE_CURVE('',#217,#220,#78,.T.);
#271=EDGE_CURVE('',#220,#221,#79,.T.);
#272=EDGE_CURVE('',#221,#222,#80,.T.);
#273=EDGE_CURVE('',#223,#222,#81,.T.);
#274=EDGE_CURVE('',#223,#218,#82,.T.);
#275=EDGE_CURVE('',#222,#224,#83,.T.);
#276=EDGE_CURVE('',#225,#224,#84,.T.);
#277=EDGE_CURVE('',#225,#223,#85,.T.);
#278=EDGE_CURVE('',#224,#226,#86,.T.);
#279=EDGE_CURVE('',#226,#227,#87,.T.);
#280=EDGE_CURVE('',#227,#228,#88,.T.);
#281=EDGE_CURVE('',#229,#228,#89,.T.);
#282=EDGE_CURVE('',#229,#225,#90,.T.);
#283=EDGE_CURVE('',#230,#231,#16,.T.);
#284=EDGE_CURVE('',#231,#232,#91,.T.);
#285=EDGE_CURVE('',#233,#232,#92,.T.);
#286=EDGE_CURVE('',#230,#233,#93,.T.);
#287=EDGE_CURVE('',#231,#234,#94,.T.);
#288=EDGE_CURVE('',#234,#235,#95,.T.);
#289=EDGE_CURVE('',#232,#235,#96,.T.);
#290=EDGE_CURVE('',#236,#237,#97,.T.);
#291=EDGE_CURVE('',#237,#238,#98,.T.);
#292=EDGE_CURVE('',#238,#216,#99,.T.);
#293=EDGE_CURVE('',#219,#239,#100,.T.);
#294=EDGE_CURVE('',#239,#240,#17,.T.);
#295=EDGE_CURVE('',#240,#241,#101,.T.);
#296=EDGE_CURVE('',#242,#241,#102,.T.);
#297=EDGE_CURVE('',#236,#242,#103,.T.);
#298=EDGE_CURVE('',#234,#243,#18,.T.);
#299=EDGE_CURVE('',#243,#244,#104,.T.);
#300=EDGE_CURVE('',#235,#244,#105,.T.);
#301=EDGE_CURVE('',#243,#245,#106,.T.);
#302=EDGE_CURVE('',#245,#246,#107,.T.);
#303=EDGE_CURVE('',#244,#246,#108,.T.);
#304=EDGE_CURVE('',#247,#236,#109,.T.);
#305=EDGE_CURVE('',#248,#242,#110,.T.);
#306=EDGE_CURVE('',#247,#248,#111,.T.);
#307=EDGE_CURVE('',#249,#247,#112,.T.);
#308=EDGE_CURVE('',#250,#248,#113,.T.);
#309=EDGE_CURVE('',#251,#250,#114,.T.);
#310=EDGE_CURVE('',#251,#252,#115,.T.);
#311=EDGE_CURVE('',#252,#249,#116,.T.);
#312=EDGE_CURVE('',#253,#251,#117,.T.);
#313=EDGE_CURVE('',#254,#250,#118,.T.);
#314=EDGE_CURVE('',#253,#254,#119,.T.);
#315=EDGE_CURVE('',#255,#253,#120,.T.);
#316=EDGE_CURVE('',#256,#254,#121,.T.);
#317=EDGE_CURVE('',#257,#256,#122,.T.);
#318=EDGE_CURVE('',#257,#258,#123,.T.);
#319=EDGE_CURVE('',#258,#255,#124,.T.);
#320=EDGE_CURVE('',#259,#257,#125,.T.);
#321=EDGE_CURVE('',#260,#256,#126,.T.);
#322=EDGE_CURVE('',#261,#260,#127,.T.);
#323=EDGE_CURVE('',#261,#229,#128,.T.);
#324=EDGE_CURVE('',#228,#262,#129,.T.);
#325=EDGE_CURVE('',#262,#259,#130,.T.);
#326=EDGE_CURVE('',#245,#263,#19,.T.);
#327=EDGE_CURVE('',#263,#261,#131,.T.);
#328=EDGE_CURVE('',#246,#260,#132,.T.);
#329=EDGE_CURVE('',#240,#230,#133,.T.);
#330=EDGE_CURVE('',#241,#233,#134,.T.);
#331=EDGE_CURVE('',#252,#255,#135,.T.);
#332=EDGE_CURVE('',#249,#258,#136,.T.);
#333=EDGE_CURVE('',#259,#264,#137,.T.);
#334=EDGE_CURVE('',#264,#237,#138,.T.);
#335=EDGE_CURVE('',#265,#262,#139,.T.);
#336=EDGE_CURVE('',#265,#264,#140,.T.);
#337=EDGE_CURVE('',#263,#239,#141,.T.);
#338=EDGE_CURVE('',#221,#226,#142,.T.);
#339=EDGE_CURVE('',#227,#220,#143,.T.);
#340=EDGE_CURVE('',#238,#265,#144,.T.);
#341=ORIENTED_EDGE('',*,*,#266,.T.);
#342=ORIENTED_EDGE('',*,*,#267,.F.);
#343=ORIENTED_EDGE('',*,*,#268,.T.);
#344=ORIENTED_EDGE('',*,*,#269,.T.);
#345=ORIENTED_EDGE('',*,*,#270,.T.);
#346=ORIENTED_EDGE('',*,*,#271,.T.);
#347=ORIENTED_EDGE('',*,*,#272,.T.);
#348=ORIENTED_EDGE('',*,*,#273,.F.);
#349=ORIENTED_EDGE('',*,*,#274,.T.);
#350=ORIENTED_EDGE('',*,*,#267,.T.);
#351=ORIENTED_EDGE('',*,*,#275,.T.);
#352=ORIENTED_EDGE('',*,*,#276,.F.);
#353=ORIENTED_EDGE('',*,*,#277,.T.);
#354=ORIENTED_EDGE('',*,*,#273,.T.);
#355=ORIENTED_EDGE('',*,*,#278,.T.);
#356=ORIENTED_EDGE('',*,*,#279,.T.);
#357=ORIENTED_EDGE('',*,*,#280,.T.);
#358=ORIENTED_EDGE('',*,*,#281,.F.);
#359=ORIENTED_EDGE('',*,*,#282,.T.);
#360=ORIENTED_EDGE('',*,*,#276,.T.);
#361=ORIENTED_EDGE('',*,*,#283,.T.);
#362=ORIENTED_EDGE('',*,*,#284,.T.);
#363=ORIENTED_EDGE('',*,*,#285,.F.);
#364=ORIENTED_EDGE('',*,*,#286,.F.);
#365=ORIENTED_EDGE('',*,*,#287,.T.);
#366=ORIENTED_EDGE('',*,*,#288,.T.);
#367=ORIENTED_EDGE('',*,*,#289,.F.);
#368=ORIENTED_EDGE('',*,*,#284,.F.);
#369=ORIENTED_EDGE('',*,*,#290,.T.);
#370=ORIENTED_EDGE('',*,*,#291,.T.);
#371=ORIENTED_EDGE('',*,*,#292,.T.);
#372=ORIENTED_EDGE('',*,*,#269,.F.);
#373=ORIENTED_EDGE('',*,*,#293,.T.);
#374=ORIENTED_EDGE('',*,*,#294,.T.);
#375=ORIENTED_EDGE('',*,*,#295,.T.);
#376=ORIENTED_EDGE('',*,*,#296,.F.);
#377=ORIENTED_EDGE('',*,*,#297,.F.);
#378=ORIENTED_EDGE('',*,*,#298,.T.);
#379=ORIENTED_EDGE('',*,*,#299,.T.);
#380=ORIENTED_EDGE('',*,*,#300,.F.);
#381=ORIENTED_EDGE('',*,*,#288,.F.);
#382=ORIENTED_EDGE('',*,*,#301,.T.);
#383=ORIENTED_EDGE('',*,*,#302,.T.);
#384=ORIENTED_EDGE('',*,*,#303,.F.);
#385=ORIENTED_EDGE('',*,*,#299,.F.);
#386=ORIENTED_EDGE('',*,*,#304,.T.);
#387=ORIENTED_EDGE('',*,*,#297,.T.);
#388=ORIENTED_EDGE('',*,*,#305,.F.);
#389=ORIENTED_EDGE('',*,*,#306,.F.);
#390=ORIENTED_EDGE('',*,*,#307,.T.);
#391=ORIENTED_EDGE('',*,*,#306,.T.);
#392=ORIENTED_EDGE('',*,*,#308,.F.);
#393=ORIENTED_EDGE('',*,*,#309,.F.);
#394=ORIENTED_EDGE('',*,*,#310,.T.);
#395=ORIENTED_EDGE('',*,*,#311,.T.);
#396=ORIENTED_EDGE('',*,*,#312,.T.);
#397=ORIENTED_EDGE('',*,*,#309,.T.);
#398=ORIENTED_EDGE('',*,*,#313,.F.);
#399=ORIENTED_EDGE('',*,*,#314,.F.);
#400=ORIENTED_EDGE('',*,*,#315,.T.);
#401=ORIENTED_EDGE('',*,*,#314,.T.);
#402=ORIENTED_EDGE('',*,*,#316,.F.);
#403=ORIENTED_EDGE('',*,*,#317,.F.);
#404=ORIENTED_EDGE('',*,*,#318,.T.);
#405=ORIENTED_EDGE('',*,*,#319,.T.);
#406=ORIENTED_EDGE('',*,*,#320,.T.);
#407=ORIENTED_EDGE('',*,*,#317,.T.);
#408=ORIENTED_EDGE('',*,*,#321,.F.);
#409=ORIENTED_EDGE('',*,*,#322,.F.);
#410=ORIENTED_EDGE('',*,*,#323,.T.);
#411=ORIENTED_EDGE('',*,*,#281,.T.);
#412=ORIENTED_EDGE('',*,*,#324,.T.);
#413=ORIENTED_EDGE('',*,*,#325,.T.);
#414=ORIENTED_EDGE('',*,*,#326,.T.);
#415=ORIENTED_EDGE('',*,*,#327,.T.);
#416=ORIENTED_EDGE('',*,*,#322,.T.);
#417=ORIENTED_EDGE('',*,*,#328,.F.);
#418=ORIENTED_EDGE('',*,*,#302,.F.);
#419=ORIENTED_EDGE('',*,*,#329,.T.);
#420=ORIENTED_EDGE('',*,*,#286,.T.);
#421=ORIENTED_EDGE('',*,*,#330,.F.);
#422=ORIENTED_EDGE('',*,*,#295,.F.);
#423=ORIENTED_EDGE('',*,*,#330,.T.);
#424=ORIENTED_EDGE('',*,*,#285,.T.);
#425=ORIENTED_EDGE('',*,*,#289,.T.);
#426=ORIENTED_EDGE('',*,*,#300,.T.);
#427=ORIENTED_EDGE('',*,*,#303,.T.);
#428=ORIENTED_EDGE('',*,*,#328,.T.);
#429=ORIENTED_EDGE('',*,*,#321,.T.);
#430=ORIENTED_EDGE('',*,*,#316,.T.);
#431=ORIENTED_EDGE('',*,*,#313,.T.);
#432=ORIENTED_EDGE('',*,*,#308,.T.);
#433=ORIENTED_EDGE('',*,*,#305,.T.);
#434=ORIENTED_EDGE('',*,*,#296,.T.);
#435=ORIENTED_EDGE('',*,*,#310,.F.);
#436=ORIENTED_EDGE('',*,*,#312,.F.);
#437=ORIENTED_EDGE('',*,*,#315,.F.);
#438=ORIENTED_EDGE('',*,*,#331,.F.);
#439=ORIENTED_EDGE('',*,*,#311,.F.);
#440=ORIENTED_EDGE('',*,*,#331,.T.);
#441=ORIENTED_EDGE('',*,*,#319,.F.);
#442=ORIENTED_EDGE('',*,*,#332,.F.);
#443=ORIENTED_EDGE('',*,*,#290,.F.);
#444=ORIENTED_EDGE('',*,*,#304,.F.);
#445=ORIENTED_EDGE('',*,*,#307,.F.);
#446=ORIENTED_EDGE('',*,*,#332,.T.);
#447=ORIENTED_EDGE('',*,*,#318,.F.);
#448=ORIENTED_EDGE('',*,*,#320,.F.);
#449=ORIENTED_EDGE('',*,*,#333,.T.);
#450=ORIENTED_EDGE('',*,*,#334,.T.);
#451=ORIENTED_EDGE('',*,*,#325,.F.);
#452=ORIENTED_EDGE('',*,*,#335,.F.);
#453=ORIENTED_EDGE('',*,*,#336,.T.);
#454=ORIENTED_EDGE('',*,*,#333,.F.);
#455=ORIENTED_EDGE('',*,*,#293,.F.);
#456=ORIENTED_EDGE('',*,*,#268,.F.);
#457=ORIENTED_EDGE('',*,*,#274,.F.);
#458=ORIENTED_EDGE('',*,*,#277,.F.);
#459=ORIENTED_EDGE('',*,*,#282,.F.);
#460=ORIENTED_EDGE('',*,*,#323,.F.);
#461=ORIENTED_EDGE('',*,*,#327,.F.);
#462=ORIENTED_EDGE('',*,*,#337,.T.);
#463=ORIENTED_EDGE('',*,*,#272,.F.);
#464=ORIENTED_EDGE('',*,*,#338,.T.);
#465=ORIENTED_EDGE('',*,*,#278,.F.);
#466=ORIENTED_EDGE('',*,*,#275,.F.);
#467=ORIENTED_EDGE('',*,*,#271,.F.);
#468=ORIENTED_EDGE('',*,*,#339,.F.);
#469=ORIENTED_EDGE('',*,*,#279,.F.);
#470=ORIENTED_EDGE('',*,*,#338,.F.);
#471=ORIENTED_EDGE('',*,*,#291,.F.);
#472=ORIENTED_EDGE('',*,*,#334,.F.);
#473=ORIENTED_EDGE('',*,*,#336,.F.);
#474=ORIENTED_EDGE('',*,*,#340,.F.);
#475=ORIENTED_EDGE('',*,*,#292,.F.);
#476=ORIENTED_EDGE('',*,*,#340,.T.);
#477=ORIENTED_EDGE('',*,*,#335,.T.);
#478=ORIENTED_EDGE('',*,*,#324,.F.);
#479=ORIENTED_EDGE('',*,*,#280,.F.);
#480=ORIENTED_EDGE('',*,*,#339,.T.);
#481=ORIENTED_EDGE('',*,*,#270,.F.);
#482=ORIENTED_EDGE('',*,*,#266,.F.);
#483=ORIENTED_EDGE('',*,*,#294,.F.);
#484=ORIENTED_EDGE('',*,*,#337,.F.);
#485=ORIENTED_EDGE('',*,*,#326,.F.);
#486=ORIENTED_EDGE('',*,*,#301,.F.);
#487=ORIENTED_EDGE('',*,*,#298,.F.);
#488=ORIENTED_EDGE('',*,*,#287,.F.);
#489=ORIENTED_EDGE('',*,*,#283,.F.);
#490=ORIENTED_EDGE('',*,*,#329,.F.);
#491=PLANE('',#558);
#492=PLANE('',#559);
#493=PLANE('',#560);
#494=PLANE('',#561);
#495=PLANE('',#562);
#496=PLANE('',#564);
#497=PLANE('',#565);
#498=PLANE('',#567);
#499=PLANE('',#569);
#500=PLANE('',#570);
#501=PLANE('',#571);
#502=PLANE('',#572);
#503=PLANE('',#573);
#504=PLANE('',#574);
#505=PLANE('',#575);
#506=PLANE('',#577);
#507=PLANE('',#578);
#508=PLANE('',#579);
#509=PLANE('',#580);
#510=PLANE('',#581);
#511=PLANE('',#582);
#512=PLANE('',#583);
#513=PLANE('',#584);
#514=PLANE('',#585);
#515=PLANE('',#586);
#516=PLANE('',#587);
#517=ADVANCED_FACE('',(#20),#491,.T.);
#518=ADVANCED_FACE('',(#21),#492,.T.);
#519=ADVANCED_FACE('',(#22),#493,.T.);
#520=ADVANCED_FACE('',(#23),#494,.T.);
#521=ADVANCED_FACE('',(#24),#495,.T.);
#522=ADVANCED_FACE('',(#25),#496,.T.);
#523=ADVANCED_FACE('',(#26),#497,.T.);
#524=ADVANCED_FACE('',(#27),#498,.T.);
#525=ADVANCED_FACE('',(#28),#499,.T.);
#526=ADVANCED_FACE('',(#29),#500,.T.);
#527=ADVANCED_FACE('',(#30),#501,.T.);
#528=ADVANCED_FACE('',(#31),#502,.T.);
#529=ADVANCED_FACE('',(#32),#503,.T.);
#530=ADVANCED_FACE('',(#33),#504,.T.);
#531=ADVANCED_FACE('',(#34),#505,.T.);
#532=ADVANCED_FACE('',(#35),#506,.T.);
#533=ADVANCED_FACE('',(#36),#507,.T.);
#534=ADVANCED_FACE('',(#37),#508,.F.);
#535=ADVANCED_FACE('',(#38),#509,.F.);
#536=ADVANCED_FACE('',(#39),#510,.T.);
#537=ADVANCED_FACE('',(#40),#511,.T.);
#538=ADVANCED_FACE('',(#41),#512,.T.);
#539=ADVANCED_FACE('',(#42),#513,.F.);
#540=ADVANCED_FACE('',(#43),#514,.F.);
#541=ADVANCED_FACE('',(#44),#515,.F.);
#542=ADVANCED_FACE('',(#45),#516,.T.);
#543=ADVANCED_FACE('',(#46),#15,.T.);
#544=CLOSED_SHELL('',(#517,#518,#519,#520,#521,#522,#523,#524,#525,#526,
#527,#528,#529,#530,#531,#532,#533,#534,#535,#536,#537,#538,#539,#540,#541,
#542,#543));
#545=DERIVED_UNIT_ELEMENT(#547,1.);
#546=DERIVED_UNIT_ELEMENT(#882,-3.);
#547=(
MASS_UNIT()
NAMED_UNIT(*)
SI_UNIT(.KILO.,.GRAM.)
);
#548=DERIVED_UNIT((#545,#546));
#549=MEASURE_REPRESENTATION_ITEM('density measure',
POSITIVE_RATIO_MEASURE(7850.),#548);
#550=PROPERTY_DEFINITION_REPRESENTATION(#555,#552);
#551=PROPERTY_DEFINITION_REPRESENTATION(#556,#553);
#552=REPRESENTATION('material name',(#554),#879);
#553=REPRESENTATION('density',(#549),#879);
#554=DESCRIPTIVE_REPRESENTATION_ITEM('Stahl','Stahl');
#555=PROPERTY_DEFINITION('material property','material name',#889);
#556=PROPERTY_DEFINITION('material property','density of part',#889);
#557=AXIS2_PLACEMENT_3D('',#724,#589,#590);
#558=AXIS2_PLACEMENT_3D('',#725,#591,#592);
#559=AXIS2_PLACEMENT_3D('',#734,#597,#598);
#560=AXIS2_PLACEMENT_3D('',#744,#604,#605);
#561=AXIS2_PLACEMENT_3D('',#750,#609,#610);
#562=AXIS2_PLACEMENT_3D('',#760,#616,#617);
#563=AXIS2_PLACEMENT_3D('',#763,#618,#619);
#564=AXIS2_PLACEMENT_3D('',#769,#623,#624);
#565=AXIS2_PLACEMENT_3D('',#775,#628,#629);
#566=AXIS2_PLACEMENT_3D('',#785,#634,#635);
#567=AXIS2_PLACEMENT_3D('',#791,#639,#640);
#568=AXIS2_PLACEMENT_3D('',#793,#641,#642);
#569=AXIS2_PLACEMENT_3D('',#797,#645,#646);
#570=AXIS2_PLACEMENT_3D('',#803,#650,#651);
#571=AXIS2_PLACEMENT_3D('',#809,#655,#656);
#572=AXIS2_PLACEMENT_3D('',#819,#662,#663);
#573=AXIS2_PLACEMENT_3D('',#825,#667,#668);
#574=AXIS2_PLACEMENT_3D('',#835,#674,#675);
#575=AXIS2_PLACEMENT_3D('',#846,#682,#683);
#576=AXIS2_PLACEMENT_3D('',#848,#684,#685);
#577=AXIS2_PLACEMENT_3D('',#851,#688,#689);
#578=AXIS2_PLACEMENT_3D('',#854,#692,#693);
#579=AXIS2_PLACEMENT_3D('',#855,#694,#695);
#580=AXIS2_PLACEMENT_3D('',#857,#697,#698);
#581=AXIS2_PLACEMENT_3D('',#859,#700,#701);
#582=AXIS2_PLACEMENT_3D('',#863,#704,#705);
#583=AXIS2_PLACEMENT_3D('',#867,#708,#709);
#584=AXIS2_PLACEMENT_3D('',#869,#711,#712);
#585=AXIS2_PLACEMENT_3D('',#871,#714,#715);
#586=AXIS2_PLACEMENT_3D('',#873,#717,#718);
#587=AXIS2_PLACEMENT_3D('',#875,#720,#721);
#588=AXIS2_PLACEMENT_3D('',#876,#722,#723);
#589=DIRECTION('axis',(0.,0.,1.));
#590=DIRECTION('refdir',(1.,0.,0.));
#591=DIRECTION('center_axis',(0.,0.,1.));
#592=DIRECTION('ref_axis',(-1.,0.,0.));
#593=DIRECTION('',(1.,-9.40395480657816E-38,0.));
#594=DIRECTION('',(0.,-1.,0.));
#595=DIRECTION('',(-1.,0.,0.));
#596=DIRECTION('',(0.,-1.,0.));
#597=DIRECTION('center_axis',(-1.,0.,0.));
#598=DIRECTION('ref_axis',(0.,0.,-1.));
#599=DIRECTION('',(0.,7.83036536159816E-54,1.));
#600=DIRECTION('',(0.,1.,0.));
#601=DIRECTION('',(0.,0.,1.));
#602=DIRECTION('',(0.,-1.,0.));
#603=DIRECTION('',(0.,0.,-1.));
#604=DIRECTION('center_axis',(0.,0.,1.));
#605=DIRECTION('ref_axis',(-1.,0.,0.));
#606=DIRECTION('',(1.,0.,0.));
#607=DIRECTION('',(0.,-1.,0.));
#608=DIRECTION('',(-1.,0.,0.));
#609=DIRECTION('center_axis',(1.,0.,0.));
#610=DIRECTION('ref_axis',(0.,0.,1.));
#611=DIRECTION('',(0.,0.,-1.));
#612=DIRECTION('',(0.,-1.,0.));
#613=DIRECTION('',(0.,-7.83036536159816E-54,-1.));
#614=DIRECTION('',(0.,-1.,0.));
#615=DIRECTION('',(0.,0.,1.));
#616=DIRECTION('center_axis',(-1.,0.,0.));
#617=DIRECTION('ref_axis',(0.,0.,-1.));
#618=DIRECTION('center_axis',(-1.,0.,0.));
#619=DIRECTION('ref_axis',(0.,0.,-1.));
#620=DIRECTION('',(0.,-1.,0.));
#621=DIRECTION('',(0.,0.,-1.));
#622=DIRECTION('',(0.,-1.,0.));
#623=DIRECTION('center_axis',(0.,0.,-1.));
#624=DIRECTION('ref_axis',(1.,0.,0.));
#625=DIRECTION('',(1.,0.,0.));
#626=DIRECTION('',(0.,-1.,0.));
#627=DIRECTION('',(1.,0.,0.));
#628=DIRECTION('center_axis',(-1.,0.,0.));
#629=DIRECTION('ref_axis',(0.,0.,-1.));
#630=DIRECTION('',(0.,-4.10670598340316E-16,-1.));
#631=DIRECTION('',(0.,1.,0.));
#632=DIRECTION('',(0.,7.83036536159816E-54,1.));
#633=DIRECTION('',(0.,0.,-1.));
#634=DIRECTION('center_axis',(-1.,0.,0.));
#635=DIRECTION('ref_axis',(0.,0.,-1.));
#636=DIRECTION('',(0.,-1.,0.));
#637=DIRECTION('',(0.,0.,-1.));
#638=DIRECTION('',(0.,-1.,0.));
#639=DIRECTION('center_axis',(1.,0.,0.));
#640=DIRECTION('ref_axis',(0.,0.,1.));
#641=DIRECTION('center_axis',(1.,0.,0.));
#642=DIRECTION('ref_axis',(0.,0.,-1.));
#643=DIRECTION('',(0.,-1.,0.));
#644=DIRECTION('',(0.,0.,1.));
#645=DIRECTION('center_axis',(0.,0.,-1.));
#646=DIRECTION('ref_axis',(1.,0.,0.));
#647=DIRECTION('',(1.,0.,0.));
#648=DIRECTION('',(0.,-1.,0.));
#649=DIRECTION('',(1.,0.,0.));
#650=DIRECTION('center_axis',(0.,0.,1.));
#651=DIRECTION('ref_axis',(-1.,0.,0.));
#652=DIRECTION('',(-1.,-1.70975042284772E-32,0.));
#653=DIRECTION('',(-1.,0.,0.));
#654=DIRECTION('',(0.,-1.,0.));
#655=DIRECTION('center_axis',(-1.,0.,0.));
#656=DIRECTION('ref_axis',(0.,0.,-1.));
#657=DIRECTION('',(0.,-4.10670598340316E-16,-1.));
#658=DIRECTION('',(0.,0.,-1.));
#659=DIRECTION('',(0.,-1.,0.));
#660=DIRECTION('',(0.,0.,-1.));
#661=DIRECTION('',(0.,1.,0.));
#662=DIRECTION('center_axis',(0.,0.,1.));
#663=DIRECTION('ref_axis',(-1.,0.,0.));
#664=DIRECTION('',(-1.,0.,0.));
#665=DIRECTION('',(-1.,0.,0.));
#666=DIRECTION('',(0.,-1.,0.));
#667=DIRECTION('center_axis',(1.,0.,0.));
#668=DIRECTION('ref_axis',(0.,0.,1.));
#669=DIRECTION('',(0.,0.,1.));
#670=DIRECTION('',(0.,0.,1.));
#671=DIRECTION('',(0.,-1.,0.));
#672=DIRECTION('',(0.,4.10670598340316E-16,1.));
#673=DIRECTION('',(0.,-1.,0.));
#674=DIRECTION('center_axis',(0.,0.,1.));
#675=DIRECTION('ref_axis',(-1.,0.,0.));
#676=DIRECTION('',(-1.,-1.70975042284772E-32,0.));
#677=DIRECTION('',(-1.,0.,0.));
#678=DIRECTION('',(0.,-1.,0.));
#679=DIRECTION('',(-1.,0.,0.));
#680=DIRECTION('',(1.,-9.40395480657816E-38,0.));
#681=DIRECTION('',(-3.15602533462853E-32,-1.,0.));
#682=DIRECTION('center_axis',(1.,0.,0.));
#683=DIRECTION('ref_axis',(0.,0.,1.));
#684=DIRECTION('center_axis',(1.,0.,0.));
#685=DIRECTION('ref_axis',(0.,0.,-1.));
#686=DIRECTION('',(0.,0.,1.));
#687=DIRECTION('',(0.,0.,1.));
#688=DIRECTION('center_axis',(0.,0.,-1.));
#689=DIRECTION('ref_axis',(1.,0.,0.));
#690=DIRECTION('',(1.,0.,0.));
#691=DIRECTION('',(1.,0.,0.));
#692=DIRECTION('center_axis',(0.,-1.,0.));
#693=DIRECTION('ref_axis',(0.,0.,-1.));
#694=DIRECTION('center_axis',(0.,-1.,0.));
#695=DIRECTION('ref_axis',(0.,0.,-1.));
#696=DIRECTION('',(1.,0.,0.));
#697=DIRECTION('center_axis',(0.,0.,-1.));
#698=DIRECTION('ref_axis',(0.,1.,0.));
#699=DIRECTION('',(1.,1.70975042284772E-32,0.));
#700=DIRECTION('center_axis',(-1.70975042284772E-32,1.,-4.10670598340316E-16));
#701=DIRECTION('ref_axis',(4.16333634234433E-17,4.10670598340316E-16,1.));
#702=DIRECTION('',(0.,0.,-1.));
#703=DIRECTION('',(-1.,0.,0.));
#704=DIRECTION('center_axis',(-1.,3.15602533462853E-32,-1.25638171237631E-33));
#705=DIRECTION('ref_axis',(-3.15602533462853E-32,-1.,0.));
#706=DIRECTION('',(3.556044930365E-32,-3.0893162204186E-15,1.));
#707=DIRECTION('',(-1.24206329978009E-32,-1.,0.));
#708=DIRECTION('center_axis',(0.,1.,0.));
#709=DIRECTION('ref_axis',(0.,0.,-1.));
#710=DIRECTION('',(-1.,0.,0.));
#711=DIRECTION('center_axis',(0.,1.,0.));
#712=DIRECTION('ref_axis',(0.,0.,1.));
#713=DIRECTION('',(1.,0.,0.));
#714=DIRECTION('center_axis',(0.,0.,-1.));
#715=DIRECTION('ref_axis',(0.,1.,0.));
#716=DIRECTION('',(-1.,9.40395480657816E-38,0.));
#717=DIRECTION('center_axis',(0.,0.,-1.));
#718=DIRECTION('ref_axis',(-1.,0.,0.));
#719=DIRECTION('',(1.,0.,0.));
#720=DIRECTION('center_axis',(-9.40395480657816E-38,-1.,7.83036536159816E-54));
#721=DIRECTION('ref_axis',(-4.16333634234433E-17,-3.91518268079911E-54,
-1.));
#722=DIRECTION('center_axis',(-1.,0.,0.));
#723=DIRECTION('ref_axis',(0.,0.,-1.));
#724=CARTESIAN_POINT('',(0.,0.,0.));
#725=CARTESIAN_POINT('Origin',(133.099997024983,80.,-125.099997203797));
#726=CARTESIAN_POINT('',(130.599997080863,49.0000002831221,-125.099997203797));
#727=CARTESIAN_POINT('',(133.099997024983,49.0000002831221,-125.099997203797));
#728=CARTESIAN_POINT('',(104.049998512492,49.0000002831221,-125.099997203797));
#729=CARTESIAN_POINT('',(133.099997024983,80.,-125.099997203797));
#730=CARTESIAN_POINT('',(133.099997024983,80.,-125.099997203797));
#731=CARTESIAN_POINT('',(130.599997080863,80.,-125.099997203797));
#732=CARTESIAN_POINT('',(135.799998512492,80.,-125.099997203797));
#733=CARTESIAN_POINT('',(130.599997080863,80.,-125.099997203797));
#734=CARTESIAN_POINT('Origin',(133.099997024983,80.,-121.099997293204));
#735=CARTESIAN_POINT('',(133.099997024983,49.0000002831221,-125.000001862645));
#736=CARTESIAN_POINT('',(133.099997024983,49.0000002831221,-117.299999417737));
#737=CARTESIAN_POINT('',(133.099997024983,49.1999989002943,-125.000001862645));
#738=CARTESIAN_POINT('',(133.099997024983,64.5000003650784,-125.000001862645));
#739=CARTESIAN_POINT('',(133.099997024983,49.1999989002943,-121.099997293204));
#740=CARTESIAN_POINT('',(133.099997024983,49.1999989002943,-123.049999577925));
#741=CARTESIAN_POINT('',(133.099997024983,80.,-121.099997293204));
#742=CARTESIAN_POINT('',(133.099997024983,80.,-121.099997293204));
#743=CARTESIAN_POINT('',(133.099997024983,80.,-98.049998646602));
#744=CARTESIAN_POINT('Origin',(135.899996962398,80.,-121.099997293204));
#745=CARTESIAN_POINT('',(135.899996962398,49.1999989002943,-121.099997293204));
#746=CARTESIAN_POINT('',(110.449998481199,49.1999989002943,-121.099997293204));
#747=CARTESIAN_POINT('',(135.899996962398,80.,-121.099997293204));
#748=CARTESIAN_POINT('',(135.899996962398,80.,-121.099997293204));
#749=CARTESIAN_POINT('',(137.199998481199,80.,-121.099997293204));
#750=CARTESIAN_POINT('Origin',(135.899996962398,80.,-125.099997203797));
#751=CARTESIAN_POINT('',(135.899996962398,49.1999989002943,-125.000001862645));
#752=CARTESIAN_POINT('',(135.899996962398,49.1999989002943,-125.049999533221));
#753=CARTESIAN_POINT('',(135.899996962398,49.0000002831221,-125.000001862645));
#754=CARTESIAN_POINT('',(135.899996962398,64.5000003650784,-125.000001862645));
#755=CARTESIAN_POINT('',(135.899996962398,49.0000002831221,-125.099997203797));
#756=CARTESIAN_POINT('',(135.899996962398,49.0000002831221,-119.299999373034));
#757=CARTESIAN_POINT('',(135.899996962398,80.,-125.099997203797));
#758=CARTESIAN_POINT('',(135.899996962398,80.,-125.099997203797));
#759=CARTESIAN_POINT('',(135.899996962398,80.,-100.049998601899));
#760=CARTESIAN_POINT('Origin',(133.099997024983,80.,-173.899996113032));
#761=CARTESIAN_POINT('',(133.099997024983,71.3642948802376,-173.899996113032));
#762=CARTESIAN_POINT('',(133.099997024983,65.02946569454,-177.899996023625));
#763=CARTESIAN_POINT('Origin',(133.099997024983,55.,-155.));
#764=CARTESIAN_POINT('',(133.099997024983,-35.,-177.899996023625));
#765=CARTESIAN_POINT('',(133.099997024983,80.,-177.899996023625));
#766=CARTESIAN_POINT('',(133.099997024983,-35.,-173.899996113032));
#767=CARTESIAN_POINT('',(133.099997024983,-35.,-163.69999634102));
#768=CARTESIAN_POINT('',(133.099997024983,80.,-173.899996113032));
#769=CARTESIAN_POINT('Origin',(133.099997024983,80.,-177.899996023625));
#770=CARTESIAN_POINT('',(135.899996962398,65.02946569454,-177.899996023625));
#771=CARTESIAN_POINT('',(138.5,65.02946569454,-177.899996023625));
#772=CARTESIAN_POINT('',(135.899996962398,-35.,-177.899996023625));
#773=CARTESIAN_POINT('',(135.899996962398,80.,-177.899996023625));
#774=CARTESIAN_POINT('',(135.199996978045,-35.,-177.899996023625));
#775=CARTESIAN_POINT('Origin',(130.599997080863,80.,-125.099997203797));
#776=CARTESIAN_POINT('',(130.599997080863,11.0069967800596,-125.099997203797));
#777=CARTESIAN_POINT('',(130.599997080863,11.0069967800595,-140.000000270574));
#778=CARTESIAN_POINT('',(130.599997080863,11.0069967800596,-122.049999414012));
#779=CARTESIAN_POINT('',(130.599997080863,49.000000283122,-140.000000270574));
#780=CARTESIAN_POINT('',(130.599997080863,45.5034983900298,-140.000001624227));
#781=CARTESIAN_POINT('',(130.599997080863,49.0000002831221,-119.299999373034));
#782=CARTESIAN_POINT('',(130.599997080863,80.,-155.));
#783=CARTESIAN_POINT('',(130.599997080863,80.,-100.049998601899));
#784=CARTESIAN_POINT('',(130.599997080863,71.3642948802376,-173.899996113032));
#785=CARTESIAN_POINT('Origin',(130.599997080863,55.,-155.));
#786=CARTESIAN_POINT('',(130.599997080863,-35.,-173.899996113032));
#787=CARTESIAN_POINT('',(130.599997080863,80.,-173.899996113032));
#788=CARTESIAN_POINT('',(130.599997080863,-35.,-125.099997203797));
#789=CARTESIAN_POINT('',(130.599997080863,-35.,-161.699996385723));
#790=CARTESIAN_POINT('',(130.599997080863,80.,-125.099997203797));
#791=CARTESIAN_POINT('Origin',(135.899996962398,80.,-177.899996023625));
#792=CARTESIAN_POINT('',(135.899996962398,71.3642948802376,-173.899996113032));
#793=CARTESIAN_POINT('Origin',(135.899996962398,55.,-155.));
#794=CARTESIAN_POINT('',(135.899996962398,-35.,-173.899996113032));
#795=CARTESIAN_POINT('',(135.899996962398,80.,-173.899996113032));
#796=CARTESIAN_POINT('',(135.899996962398,-35.,-161.699996385723));
#797=CARTESIAN_POINT('Origin',(135.899996962398,80.,-173.899996113032));
#798=CARTESIAN_POINT('',(138.399996906519,71.3642948802376,-173.899996113032));
#799=CARTESIAN_POINT('',(138.5,71.3642948802376,-173.899996113032));
#800=CARTESIAN_POINT('',(138.399996906519,-35.,-173.899996113032));
#801=CARTESIAN_POINT('',(138.399996906519,80.,-173.899996113032));
#802=CARTESIAN_POINT('',(136.449996950105,-35.,-173.899996113032));
#803=CARTESIAN_POINT('Origin',(133.099997024983,80.,-125.099997203797));
#804=CARTESIAN_POINT('',(133.099997024983,11.0069967800596,-125.099997203797));
#805=CARTESIAN_POINT('',(104.049998512492,11.0069967800596,-125.099997203797));
#806=CARTESIAN_POINT('',(133.099997024983,-35.,-125.099997203797));
#807=CARTESIAN_POINT('',(132.549997037277,-35.,-125.099997203797));
#808=CARTESIAN_POINT('',(133.099997024983,80.,-125.099997203797));
#809=CARTESIAN_POINT('Origin',(133.099997024983,80.,-121.099997293204));
#810=CARTESIAN_POINT('',(133.099997024983,11.0069967800596,-125.000001862645));
#811=CARTESIAN_POINT('',(133.099997024983,11.0069967800596,-120.049999458716));
#812=CARTESIAN_POINT('',(133.099997024983,-35.,-121.099997293204));
#813=CARTESIAN_POINT('',(133.099997024983,-35.,-137.299996931106));
#814=CARTESIAN_POINT('',(133.099997024983,10.7999997586012,-121.099997293204));
#815=CARTESIAN_POINT('',(133.099997024983,80.,-121.099997293204));
#816=CARTESIAN_POINT('',(133.099997024983,10.7999997586012,-125.000001862645));
#817=CARTESIAN_POINT('',(133.099997024983,10.7999997586012,-117.298209589504));
#818=CARTESIAN_POINT('',(133.099997024983,45.3999998793006,-125.000001862645));
#819=CARTESIAN_POINT('Origin',(135.899996962398,80.,-121.099997293204));
#820=CARTESIAN_POINT('',(135.899996962398,10.7999997586012,-121.099997293204));
#821=CARTESIAN_POINT('',(110.449998481199,10.7999997586012,-121.099997293204));
#822=CARTESIAN_POINT('',(135.899996962398,-35.,-121.099997293204));
#823=CARTESIAN_POINT('',(133.799997009337,-35.,-121.099997293204));
#824=CARTESIAN_POINT('',(135.899996962398,80.,-121.099997293204));
#825=CARTESIAN_POINT('Origin',(135.899996962398,80.,-125.099997203797));
#826=CARTESIAN_POINT('',(135.899996962398,10.7999997586012,-125.000001862645));
#827=CARTESIAN_POINT('',(135.899996962398,10.7999997586012,-119.2982095448));
#828=CARTESIAN_POINT('',(135.899996962398,-35.,-125.099997203797));
#829=CARTESIAN_POINT('',(135.899996962398,-35.,-135.299996975809));
#830=CARTESIAN_POINT('',(135.899996962398,11.0069967800596,-125.099997203797));
#831=CARTESIAN_POINT('',(135.899996962398,80.,-125.099997203797));
#832=CARTESIAN_POINT('',(135.899996962398,11.0069967800596,-125.000001862645));
#833=CARTESIAN_POINT('',(135.899996962398,11.0069967800596,-122.049999414012));
#834=CARTESIAN_POINT('',(135.899996962398,45.3999998793006,-125.000001862645));
#835=CARTESIAN_POINT('Origin',(138.399996906519,80.,-125.099997203797));
#836=CARTESIAN_POINT('',(136.499999999999,11.0069967800595,-125.099997203797));
#837=CARTESIAN_POINT('',(106.699998453259,11.0069967800596,-125.099997203797));
#838=CARTESIAN_POINT('',(138.399996906519,-35.,-125.099997203797));
#839=CARTESIAN_POINT('',(135.199996978045,-35.,-125.099997203797));
#840=CARTESIAN_POINT('',(138.399996906519,80.,-125.099997203797));
#841=CARTESIAN_POINT('',(138.399996906519,80.,-125.099997203797));
#842=CARTESIAN_POINT('',(138.44999845326,80.,-125.099997203797));
#843=CARTESIAN_POINT('',(136.499999999999,49.000000283122,-125.099997203797));
#844=CARTESIAN_POINT('',(106.699998453259,49.0000002831221,-125.099997203797));
#845=CARTESIAN_POINT('',(136.499999999999,54.9999999430749,-125.099997203797));
#846=CARTESIAN_POINT('Origin',(138.399996906519,80.,-173.899996113032));
#847=CARTESIAN_POINT('',(138.399996906519,80.,-155.));
#848=CARTESIAN_POINT('Origin',(138.399996906519,55.,-155.));
#849=CARTESIAN_POINT('',(138.399996906519,80.,-124.449998056516));
#850=CARTESIAN_POINT('',(138.399996906519,-35.,-137.299996931106));
#851=CARTESIAN_POINT('Origin',(130.599997080863,80.,-173.899996113032));
#852=CARTESIAN_POINT('',(138.5,71.3642948802376,-173.899996113032));
#853=CARTESIAN_POINT('',(133.799997009337,-35.,-173.899996113032));
#854=CARTESIAN_POINT('Origin',(134.499996993691,-35.,-149.499996658415));
#855=CARTESIAN_POINT('Origin',(85.,10.7999997586012,-113.496421885803));
#856=CARTESIAN_POINT('',(85.,10.7999997586012,-125.000001862645));
#857=CARTESIAN_POINT('Origin',(85.,10.7999997586012,-125.000001862645));
#858=CARTESIAN_POINT('',(80.,11.0069967800596,-125.000001862645));
#859=CARTESIAN_POINT('Origin',(75.,11.0069967800596,-119.000001624227));
#860=CARTESIAN_POINT('',(136.499999999999,11.0069967800595,-140.000000270574));
#861=CARTESIAN_POINT('',(136.499999999999,11.0069967800595,-125.000000270574));
#862=CARTESIAN_POINT('',(130.499999999999,11.0069967800595,-140.000000270574));
#863=CARTESIAN_POINT('Origin',(136.499999999999,29.9999998861499,-89.0000011697413));
#864=CARTESIAN_POINT('',(136.499999999999,49.000000283122,-140.000000270574));
#865=CARTESIAN_POINT('',(136.499999999999,49.000000283122,-113.50000154227));
#866=CARTESIAN_POINT('',(136.499999999999,-5.00000000000009,-140.000000270574));
#867=CARTESIAN_POINT('Origin',(138.5,80.,-75.));
#868=CARTESIAN_POINT('',(138.5,80.,-155.));
#869=CARTESIAN_POINT('Origin',(85.,49.1999989002943,-125.000001862645));
#870=CARTESIAN_POINT('',(85.,49.1999989002943,-125.000001862645));
#871=CARTESIAN_POINT('Origin',(85.,49.0000007301569,-125.000001862645));
#872=CARTESIAN_POINT('',(80.,49.0000002831221,-125.000001862645));
#873=CARTESIAN_POINT('Origin',(130.499999999999,11.0069967800596,-140.000001624227));
#874=CARTESIAN_POINT('',(130.499999999999,49.000000283122,-140.000000270574));
#875=CARTESIAN_POINT('Origin',(75.,49.0000002831221,-113.50000154227));
#876=CARTESIAN_POINT('Origin',(138.5,55.,-155.));
#877=UNCERTAINTY_MEASURE_WITH_UNIT(LENGTH_MEASURE(0.01),#881,
'DISTANCE_ACCURACY_VALUE',
'Maximum model space distance between geometric entities at asserted c
onnectivities');
#878=UNCERTAINTY_MEASURE_WITH_UNIT(LENGTH_MEASURE(0.01),#881,
'DISTANCE_ACCURACY_VALUE',
'Maximum model space distance between geometric entities at asserted c
onnectivities');
#879=(
GEOMETRIC_REPRESENTATION_CONTEXT(3)
GLOBAL_UNCERTAINTY_ASSIGNED_CONTEXT((#877))
GLOBAL_UNIT_ASSIGNED_CONTEXT((#881,#883,#884))
REPRESENTATION_CONTEXT('','3D')
);
#880=(
GEOMETRIC_REPRESENTATION_CONTEXT(3)
GLOBAL_UNCERTAINTY_ASSIGNED_CONTEXT((#878))
GLOBAL_UNIT_ASSIGNED_CONTEXT((#881,#883,#884))
REPRESENTATION_CONTEXT('','3D')
);
#881=(
LENGTH_UNIT()
NAMED_UNIT(*)
SI_UNIT(.MILLI.,.METRE.)
);
#882=(
LENGTH_UNIT()
NAMED_UNIT(*)
SI_UNIT($,.METRE.)
);
#883=(
NAMED_UNIT(*)
PLANE_ANGLE_UNIT()
SI_UNIT($,.RADIAN.)
);
#884=(
NAMED_UNIT(*)
SI_UNIT($,.STERADIAN.)
SOLID_ANGLE_UNIT()
);
#885=SHAPE_DEFINITION_REPRESENTATION(#886,#887);
#886=PRODUCT_DEFINITION_SHAPE('',$,#889);
#887=SHAPE_REPRESENTATION('',(#557),#879);
#888=PRODUCT_DEFINITION_CONTEXT('part definition',#893,'design');
#889=PRODUCT_DEFINITION('Sliding Panel Front','Sliding Panel Front',#890,
#888);
#890=PRODUCT_DEFINITION_FORMATION('',$,#895);
#891=PRODUCT_RELATED_PRODUCT_CATEGORY('Sliding Panel Front',
'Sliding Panel Front',(#895));
#892=APPLICATION_PROTOCOL_DEFINITION('international standard',
'automotive_design',2009,#893);
#893=APPLICATION_CONTEXT(
'Core Data for Automotive Mechanical Design Process');
#894=PRODUCT_CONTEXT('part definition',#893,'mechanical');
#895=PRODUCT('Sliding Panel Front','Sliding Panel Front',$,(#894));
#896=PRESENTATION_STYLE_ASSIGNMENT((#898));
#897=PRESENTATION_STYLE_ASSIGNMENT((#899));
#898=SURFACE_STYLE_USAGE(.BOTH.,#900);
#899=SURFACE_STYLE_USAGE(.BOTH.,#901);
#900=SURFACE_SIDE_STYLE('',(#902));
#901=SURFACE_SIDE_STYLE('',(#903));
#902=SURFACE_STYLE_FILL_AREA(#904);
#903=SURFACE_STYLE_FILL_AREA(#905);
#904=FILL_AREA_STYLE('Stahl - satiniert',(#906));
#905=FILL_AREA_STYLE('ABS (Wei\X\DF)',(#907));
#906=FILL_AREA_STYLE_COLOUR('Stahl - satiniert',#908);
#907=FILL_AREA_STYLE_COLOUR('ABS (Wei\X\DF)',#909);
#908=COLOUR_RGB('Stahl - satiniert',0.627450980392157,0.627450980392157,
0.627450980392157);
#909=COLOUR_RGB('ABS (Wei\X\DF)',0.137254901960784,0.137254901960784,0.137254901960784);
ENDSEC;
END-ISO-10303-21;
